<svg width="600" height="300" viewBox="0 0 600 300" fill="none" xmlns="http://www.w3.org/2000/svg">
<g clip-path="url(#clip0_1_2)">
<mask id="mask0_1_2" style="mask-type:luminance" maskUnits="userSpaceOnUse" x="0" y="0" width="600" height="300">
<path d="M600 0H0V300H600V0Z" fill="white"/>
</mask>
<g mask="url(#mask0_1_2)">
<mask id="mask1_1_2" style="mask-type:alpha" maskUnits="userSpaceOnUse" x="0" y="0" width="600" height="300">
<path d="M600 0H0V300H600V0Z" fill="white"/>
</mask>
<g mask="url(#mask1_1_2)">
<path fill-rule="evenodd" clip-rule="evenodd" d="M134.077 21.4286C134.077 9.5939 143.683 0 155.533 0H420.363C432.212 0 441.818 9.5939 441.818 21.4286C441.818 33.2632 432.212 42.8571 420.363 42.8571H155.533C143.683 42.8571 134.077 33.2632 134.077 21.4286ZM74 107.143C74 95.3083 83.6062 85.7144 95.4561 85.7144H189.437C188.963 85.7132 188.492 85.6967 188.025 85.6653C199.192 84.9139 208.017 75.6291 208.017 64.2858C208.017 52.9425 199.192 43.6577 188.025 42.9063C188.509 42.8737 188.997 42.8572 189.489 42.8572H402.381C390.531 42.8572 380.924 52.4511 380.924 64.2858C380.924 76.1032 390.503 85.6865 402.329 85.7144H513.543C525.393 85.7144 535 95.3083 535 107.143C535 118.978 525.393 128.571 513.543 128.571H461.794C449.96 128.591 440.374 138.178 440.374 150C440.374 161.834 449.98 171.429 461.83 171.429H146.813C158.663 171.429 168.269 161.834 168.269 150C168.269 138.178 158.683 128.591 146.85 128.571H95.4561C83.6062 128.571 74 118.978 74 107.143ZM132.238 171.429C120.388 171.429 110.782 181.022 110.782 192.857C110.782 204.692 120.388 214.286 132.238 214.286H172.328C184.142 214.327 193.707 223.906 193.707 235.714C193.707 247.549 184.1 257.143 172.25 257.143H398.202C386.352 257.143 376.745 247.549 376.745 235.714C376.745 223.906 386.31 214.327 398.124 214.286H479.214C491.064 214.286 500.669 204.692 500.669 192.857C500.669 181.022 491.064 171.429 479.214 171.429H132.238ZM170.246 300C158.396 300 148.79 290.406 148.79 278.572C148.79 266.737 158.396 257.143 170.246 257.143H432.623C444.473 257.143 454.08 266.737 454.08 278.572C454.08 290.406 444.473 300 432.623 300H170.246Z" fill="url(#paint0_linear_1_2)"/>
<g filter="url(#filter0_d_1_2)">
<path d="M296.282 94.1277C283.587 100.392 265.734 120.564 295.884 151.138C296.646 145.877 297.849 139.755 299.175 133.684C302.5 118.456 306.596 103.547 306.43 103.342C303.908 100.213 300.574 97.1234 296.282 94.1277Z" fill="url(#paint1_linear_1_2)"/>
<path fill-rule="evenodd" clip-rule="evenodd" d="M306.43 103.342C306.559 103.501 306.809 103.82 306.809 103.82C306.809 103.82 299.765 140.787 295.884 151.138C294.89 149.915 293.421 148.235 291.974 145.413C289.941 141.446 286.332 130.813 290.051 119.711C293.597 109.128 300.462 104.966 306.43 103.342Z" fill="#FFFB64"/>
<path fill-rule="evenodd" clip-rule="evenodd" d="M306.809 103.82C321.062 122.119 307.824 141.626 295.884 151.138C290.705 145.595 286.13 133.112 290.619 119.923C294.216 109.355 300.896 105.582 306.809 103.82Z" fill="url(#paint2_linear_1_2)"/>
<path d="M348.402 128.954C337.627 119.772 312.039 111.354 295.884 151.139C301.017 149.757 307.116 148.441 313.216 147.257C328.518 144.287 343.831 142.152 343.954 141.919C345.829 138.365 347.348 134.081 348.402 128.954Z" fill="url(#paint3_linear_1_2)"/>
<path fill-rule="evenodd" clip-rule="evenodd" d="M343.954 141.919C343.859 142.1 343.665 142.456 343.665 142.456C343.665 142.456 306.926 150.609 295.884 151.138C296.614 149.741 297.576 147.728 299.596 145.283C302.435 141.846 310.773 134.326 322.441 133.351C333.563 132.421 340.102 137.08 343.954 141.919Z" fill="#FFFB64"/>
<path fill-rule="evenodd" clip-rule="evenodd" d="M343.664 142.456C332.495 162.784 309.342 158.342 295.884 151.138C298.926 144.189 308.582 135.05 322.47 133.956C333.599 133.079 339.707 137.722 343.664 142.456Z" fill="url(#paint4_linear_1_2)"/>
<path d="M257.22 193.037C270.825 196.947 297.606 194.043 295.883 151.138C291.778 154.517 286.769 158.235 281.702 161.833C268.994 170.858 255.931 179.129 255.915 179.392C255.675 183.403 256.061 187.933 257.22 193.037Z" fill="url(#paint5_linear_1_2)"/>
<path fill-rule="evenodd" clip-rule="evenodd" d="M255.915 179.392C255.927 179.188 255.957 178.783 255.957 178.783C255.957 178.783 286.046 156.182 295.883 151.138C295.795 152.712 295.751 154.943 294.922 158.003C293.756 162.306 289.269 172.6 279.047 178.308C269.301 183.749 261.422 182.208 255.915 179.392Z" fill="#FFFB64"/>
<path fill-rule="evenodd" clip-rule="evenodd" d="M255.957 178.784C257.731 155.657 280.651 150.138 295.884 151.138C295.983 158.724 290.966 171.035 278.77 177.769C268.997 183.165 261.517 181.46 255.957 178.784Z" fill="url(#paint6_linear_1_2)"/>
<path d="M333.586 193.904C338.875 180.772 338.739 153.835 295.884 151.138C298.823 155.568 302.006 160.934 305.064 166.343C312.736 179.912 319.62 193.756 319.88 193.799C323.845 194.45 328.39 194.531 333.586 193.904Z" fill="url(#paint7_linear_1_2)"/>
<path fill-rule="evenodd" clip-rule="evenodd" d="M319.88 193.799C319.678 193.766 319.279 193.695 319.279 193.695C319.279 193.695 299.89 161.442 295.884 151.138C297.441 151.388 299.656 151.661 302.615 152.8C306.775 154.402 316.552 159.924 321.179 170.678C325.59 180.932 323.247 188.61 319.88 193.799Z" fill="#FFFB64"/>
<path fill-rule="evenodd" clip-rule="evenodd" d="M319.279 193.695C296.457 189.554 293.323 166.187 295.884 151.138C303.44 151.819 315.17 158.075 320.615 170.899C324.977 181.174 322.512 188.44 319.279 193.695Z" fill="url(#paint8_linear_1_2)"/>
<path d="M243.694 128.19C244.417 142.328 255.867 166.711 295.884 151.138C291.354 148.355 286.21 144.825 281.161 141.203C268.495 132.117 256.428 122.451 256.174 122.522C252.303 123.598 248.145 125.436 243.694 128.19Z" fill="url(#paint9_linear_1_2)"/>
<path fill-rule="evenodd" clip-rule="evenodd" d="M256.175 122.522C256.372 122.467 256.764 122.363 256.764 122.363C256.764 122.363 287.917 143.474 295.884 151.138C294.367 151.567 292.242 152.25 289.079 152.46C284.631 152.756 273.438 151.858 264.718 144.045C256.405 136.597 255.302 128.645 256.175 122.522Z" fill="#FFFB64"/>
<path fill-rule="evenodd" clip-rule="evenodd" d="M256.763 122.363C279.211 116.525 291.879 136.407 295.883 151.138C288.742 153.698 275.468 152.954 265.136 143.608C256.857 136.119 256.039 128.491 256.763 122.363Z" fill="url(#paint10_linear_1_2)"/>
</g>
<path d="M179.908 111H198.08L208.999 121.874L209 148.792C209 150.402 207.687 151.707 206.076 151.707H179.908C179.526 151.708 179.147 151.633 178.794 151.487C178.441 151.342 178.12 151.127 177.85 150.857C177.58 150.587 177.365 150.266 177.22 149.913C177.074 149.56 176.999 149.181 177 148.799V113.908C176.999 113.526 177.074 113.147 177.22 112.794C177.365 112.441 177.58 112.12 177.85 111.85C178.12 111.58 178.441 111.365 178.794 111.22C179.147 111.074 179.526 110.999 179.908 111Z" fill="white"/>
<path d="M198.081 111V118.996C198.081 120.607 199.393 121.876 201.004 121.876L209 121.874L198.081 111Z" fill="#DEDDDA"/>
<path opacity="0.3" d="M183.563 117.1H184.224V127.003H183.563V117.1ZM186.864 117.1H187.525V127.003H186.864V117.1ZM192.146 117.1H192.807V127.003H192.146V117.1ZM197.428 124.362H198.088V127.003H197.428V124.362ZM202.71 124.362H203.37V127.003H202.71V124.362Z" fill="#D5D3CF"/>
<path opacity="0.3" d="M183.563 126.342H203.37V127.002H183.564L183.563 126.342ZM183.563 124.362H203.37V125.022H183.564L183.563 124.362ZM183.563 122.381H192.807V123.041H183.563V122.381ZM183.563 120.4H192.807V121.061H183.563V120.4ZM183.563 118.419H192.807V119.08H183.563V118.419ZM183.563 116.439H192.807V117.099H183.563V116.439ZM183.563 142.848H203.37V143.508H183.564L183.563 142.848ZM183.563 144.829H203.37V145.489H183.564L183.563 144.829ZM183.563 146.809H203.37V147.47H183.564L183.563 146.809Z" fill="#D5D3CF"/>
<path opacity="0.3" d="M183.563 142.848H184.224V147.47H183.563V142.848ZM186.864 142.848H187.525V147.47H186.864V142.848ZM192.146 142.848H192.807V147.47H192.146V142.848ZM197.428 142.848H198.088V147.47H197.428V142.848ZM202.71 142.848H203.37V147.47H202.71V142.848Z" fill="#D5D3CF"/>
<path d="M183.563 128.323H184.224V140.867H183.563V128.323Z" fill="#D5D3CF"/>
<path d="M203.369 140.208V140.868H183.562V140.208H203.369Z" fill="#D5D3CF"/>
<path d="M184.884 136.5H186.865V139.547H184.884V136.5Z" fill="#F5C211"/>
<path d="M187.524 135.585H189.505V139.547H187.524V135.585Z" fill="#FF7800"/>
<path d="M190.166 134.628H192.147V139.547H190.166V134.628Z" fill="#ED333B"/>
<path d="M192.806 133.454H194.787V139.547H192.806V133.454Z" fill="#C061CB"/>
<path d="M195.447 132.007H197.427V139.547H195.446L195.447 132.007Z" fill="#99C1F1"/>
<path d="M198.089 130.509H200.07V139.547H198.089V130.509Z" fill="#3584E4"/>
<path d="M200.729 129.011H202.71V139.547H200.729V129.011Z" fill="#1A5FB4"/>
<path d="M446.432 223.015H440.76V234.358H446.432V223.015Z" fill="url(#paint11_linear_1_2)"/>
<path d="M474.789 223.015H480.461V234.358H474.789V223.015Z" fill="url(#paint12_linear_1_2)"/>
<path d="M460.611 289.654C478.622 289.654 493.222 275.053 493.222 257.043C493.222 239.032 478.622 224.432 460.611 224.432C442.6 224.432 428 239.032 428 257.043C428 275.053 442.6 289.654 460.611 289.654Z" fill="#5E5C64"/>
<path d="M460.611 288.237C478.622 288.237 493.222 273.636 493.222 255.626C493.222 237.615 478.622 223.015 460.611 223.015C442.6 223.015 428 237.615 428 255.626C428 273.636 442.6 288.237 460.611 288.237Z" fill="url(#paint13_radial_1_2)"/>
<path d="M460.611 285.401C477.055 285.401 490.386 272.07 490.386 255.626C490.386 239.182 477.055 225.851 460.611 225.851C444.167 225.851 430.836 239.182 430.836 255.626C430.836 272.07 444.167 285.401 460.611 285.401Z" fill="#F6F5F4"/>
<path d="M433.672 255.626C433.672 270.504 445.733 282.565 460.611 282.565C475.489 282.565 487.55 270.504 487.55 255.626C487.55 240.748 475.489 228.687 460.611 228.687C445.733 228.687 433.672 240.748 433.672 255.626Z" fill="#241F31"/>
<path d="M467.217 230.973C480.831 234.621 488.911 248.615 485.263 262.23C481.615 275.844 467.62 283.924 454.006 280.276C440.391 276.628 432.312 262.634 435.96 249.019C439.608 235.404 453.602 227.325 467.217 230.973Z" fill="url(#paint14_linear_1_2)"/>
<g filter="url(#filter1_f_1_2)">
<path fill-rule="evenodd" clip-rule="evenodd" d="M460.607 240.743L456.354 249.248H464.859L460.607 240.743Z" fill="#1A1A1A" fill-opacity="0.4"/>
</g>
<path fill-rule="evenodd" clip-rule="evenodd" d="M460.611 240.029L456.357 248.536H464.864L460.611 240.029Z" fill="#ED333B"/>
<path fill-rule="evenodd" clip-rule="evenodd" d="M460.609 240.031L456.357 248.536H460.609V240.031Z" fill="white" fill-opacity="0.373444"/>
<path opacity="0.2" d="M460.611 265.55C465.309 265.55 469.118 261.741 469.118 257.043C469.118 252.344 465.309 248.536 460.611 248.536C455.912 248.536 452.104 252.344 452.104 257.043C452.104 261.741 455.912 265.55 460.611 265.55Z" fill="black"/>
<path d="M460.611 264.133C465.309 264.133 469.118 260.324 469.118 255.626C469.118 250.927 465.309 247.119 460.611 247.119C455.912 247.119 452.104 250.927 452.104 255.626C452.104 260.324 455.912 264.133 460.611 264.133Z" fill="url(#paint15_linear_1_2)"/>
<path d="M460.611 247.119C464.917 247.119 468.409 250.61 468.409 254.917C468.409 259.224 464.917 262.715 460.611 262.715C456.304 262.715 452.812 259.224 452.812 254.917C452.812 250.61 456.304 247.119 460.611 247.119Z" fill="#CCCCCC"/>
<path d="M459.902 231.521V235.775H461.32V231.521H459.902ZM444.066 238.08L443.064 239.082L446.072 242.09L447.076 241.088L444.066 238.08ZM477.154 238.08L474.146 241.088L475.148 242.09L478.156 239.082L477.154 238.08ZM436.508 254.916V256.334H440.762V254.916H436.508ZM480.461 254.916V256.334H484.715V254.916H480.461ZM446.072 269.16L443.066 272.168L444.068 273.172L447.076 270.164L446.072 269.16ZM475.148 269.16L474.146 270.164L477.154 273.172L478.156 272.168L475.148 269.16ZM459.902 275.477V279.729H461.32V275.477H459.902Z" fill="#F6F5F4"/>
<path opacity="0.2" d="M456.256 231.916L455.561 232.055L456.115 234.836L456.811 234.697L456.256 231.916ZM464.965 231.916L464.412 234.697L465.107 234.836L465.66 232.055L464.965 231.916ZM451.715 233.221L451.061 233.492L452.145 236.113L452.801 235.842L451.715 233.221ZM469.508 233.221L468.422 235.842L469.078 236.113L470.162 233.492L469.508 233.221ZM447.516 235.387L446.926 235.781L448.502 238.139L449.09 237.746L447.516 235.387ZM473.707 235.387L472.133 237.746L472.723 238.139L474.297 235.781L473.707 235.387ZM440.768 241.939L440.373 242.529L442.73 244.105L443.125 243.516L440.768 241.939ZM480.455 241.939L478.098 243.516L478.49 244.105L480.85 242.529L480.455 241.939ZM438.479 246.074L438.207 246.73L440.828 247.814L441.098 247.16L438.479 246.074ZM482.744 246.074L480.125 247.16L480.396 247.814L483.016 246.73L482.744 246.074ZM437.039 250.576L436.9 251.271L439.682 251.824L439.82 251.129L437.039 250.576ZM484.184 250.576L481.402 251.129L481.541 251.824L484.32 251.271L484.184 250.576ZM439.684 259.428L436.9 259.98L437.039 260.676L439.82 260.123L439.684 259.428ZM481.541 259.428L481.402 260.123L484.182 260.676L484.32 259.98L481.541 259.428ZM440.828 263.438L438.207 264.521L438.479 265.176L441.098 264.092L440.828 263.438ZM480.396 263.438L480.125 264.092L482.744 265.176L483.016 264.521L480.396 263.438ZM442.73 267.146L440.373 268.723L440.768 269.312L443.125 267.736L442.73 267.146ZM478.492 267.146L478.098 267.736L480.455 269.312L480.85 268.723L478.492 267.146ZM448.502 273.111L446.926 275.471L447.516 275.863L449.09 273.506L448.502 273.111ZM472.721 273.111L472.131 273.506L473.707 275.863L474.297 275.471L472.721 273.111ZM452.145 275.139L451.061 277.758L451.715 278.029L452.799 275.41L452.145 275.139ZM469.078 275.139L468.424 275.41L469.508 278.029L470.162 277.758L469.078 275.139ZM456.113 276.416L455.561 279.197L456.256 279.336L456.809 276.555L456.113 276.416ZM465.109 276.416L464.414 276.555L464.967 279.336L465.662 279.197L465.109 276.416Z" fill="white"/>
<path d="M460.611 203.164C458.004 203.164 455.422 203.679 453.014 204.676C450.606 205.673 448.418 207.135 446.574 208.979C444.731 210.822 443.269 213.01 442.271 215.418C441.274 217.827 440.76 220.408 440.76 223.016H446.432C446.432 221.153 446.799 219.309 447.512 217.588C448.224 215.868 449.268 214.305 450.584 212.988C451.9 211.672 453.463 210.627 455.184 209.914C456.905 209.201 458.749 208.836 460.611 208.836C462.473 208.836 464.317 209.202 466.037 209.914C467.757 210.627 469.32 211.672 470.637 212.988C471.953 214.305 472.998 215.868 473.711 217.588C474.424 219.309 474.789 221.153 474.789 223.016H480.461C480.461 220.408 479.946 217.827 478.949 215.418C477.952 213.01 476.49 210.822 474.646 208.979C472.803 207.135 470.615 205.673 468.207 204.676C465.799 203.678 463.218 203.164 460.611 203.164Z" fill="url(#paint16_radial_1_2)"/>
<path d="M378.786 169H389.946L396.652 175.678L396.653 192.209C396.653 193.198 395.846 194 394.857 194H378.786C377.796 194 377 193.203 377 192.214V170.785C377 169.796 377.796 169 378.786 169Z" fill="white"/>
<path d="M389.946 169V173.91C389.946 174.9 390.752 175.679 391.741 175.679L396.652 175.678L389.946 169Z" fill="#DEDDDA"/>
<path d="M380.781 178.748L389.873 187.84C390.265 188.248 390.916 188.255 391.316 187.854C391.717 187.454 391.71 186.803 391.302 186.411L383.598 178.707C382.724 177.957 381.495 178.033 380.781 178.748Z" fill="url(#paint17_linear_1_2)"/>
<path d="M385.859 181.051C385.591 181.051 385.329 181.131 385.107 181.281C384.885 181.43 384.712 181.643 384.611 181.891C384.511 182.14 384.486 182.412 384.541 182.675C384.597 182.937 384.729 183.177 384.921 183.364L389.635 188.078C389.76 188.206 389.908 188.308 390.072 188.378C390.237 188.448 390.413 188.485 390.592 188.486C390.77 188.487 390.947 188.453 391.112 188.385C391.277 188.318 391.427 188.218 391.554 188.092C391.68 187.965 391.78 187.815 391.848 187.65C391.915 187.485 391.95 187.308 391.948 187.129C391.947 186.951 391.91 186.775 391.84 186.61C391.77 186.446 391.668 186.298 391.54 186.173L386.826 181.459C386.7 181.329 386.55 181.227 386.384 181.157C386.218 181.087 386.039 181.05 385.859 181.051Z" fill="url(#paint18_linear_1_2)"/>
<path d="M389.914 183.085C388.055 183.085 386.547 184.592 386.547 186.452C386.547 188.312 388.055 189.82 389.914 189.82H393.282V186.452C393.282 184.592 391.774 183.085 389.914 183.085Z" fill="url(#paint19_radial_1_2)"/>
<path d="M389.578 184.263C389.873 184.263 390.113 184.503 390.113 184.798C390.113 185.094 389.873 185.333 389.578 185.333C389.282 185.333 389.043 185.094 389.043 184.798C389.043 184.503 389.282 184.263 389.578 184.263Z" fill="#7A8599"/>
<path fill-rule="evenodd" clip-rule="evenodd" d="M406.653 22.3845C405.97 22.3685 405.291 22.4891 404.655 22.7394C404.019 22.9896 403.44 23.3644 402.951 23.8417C402.463 24.319 402.074 24.8892 401.809 25.5187C401.544 26.1482 401.407 26.8244 401.407 27.5075V32.9448C401.407 35.0778 401.409 37.2108 401.407 39.3434V44.6244C401.407 46.8089 401.409 48.9941 401.407 51.179C401.397 51.6975 401.481 52.2065 401.635 52.6915C401.637 52.6957 401.638 52.7 401.64 52.7043C401.683 52.8401 401.731 52.974 401.787 53.1056C401.834 53.2203 401.886 53.3333 401.942 53.4442C401.948 53.4561 401.953 53.4685 401.959 53.4804C401.983 53.5327 402.009 53.5846 402.034 53.6361C402.199 53.9362 402.392 54.2192 402.613 54.4807C402.968 54.9005 403.389 55.2602 403.859 55.5461C403.983 55.623 404.11 55.6946 404.24 55.7607C404.8 56.0505 405.412 56.2254 406.041 56.2751C406.06 56.2767 406.08 56.2806 406.1 56.2819C406.178 56.288 406.258 56.2922 406.337 56.2947C406.451 56.3004 406.565 56.3043 406.678 56.3011C406.687 56.3006 406.695 56.3 406.703 56.2995C406.848 56.2943 406.992 56.2844 407.134 56.2655C407.824 56.1847 408.491 55.9642 409.094 55.6175L409.179 55.5688C409.369 55.4683 409.554 55.361 409.736 55.2472L419.344 49.6994L429.594 43.7817C430.418 43.3059 431.092 42.6105 431.543 41.7732C431.994 40.936 432.203 39.9899 432.146 39.0407C432.117 38.3898 431.963 37.7447 431.667 37.1489C431.451 36.6557 431.143 36.2268 430.779 35.8485C430.763 35.8322 430.747 35.8161 430.731 35.8001C430.648 35.7159 430.565 35.6329 430.477 35.5541C430.405 35.4895 430.331 35.4269 430.255 35.3664C430.2 35.3216 430.144 35.277 430.087 35.2338C430.038 35.1971 429.989 35.1612 429.94 35.1262C429.626 34.9008 429.296 34.6974 428.954 34.5176C428.928 34.5073 428.901 34.4984 428.874 34.4888L409.094 23.0696C408.351 22.6403 407.511 22.4047 406.653 22.3845Z" fill="url(#paint20_linear_1_2)"/>
<path fill-rule="evenodd" clip-rule="evenodd" d="M406.653 32.9382C405.97 32.9222 405.291 33.0429 404.655 33.2932C404.019 33.5434 403.44 33.9183 402.951 34.3956C402.463 34.873 402.074 35.4432 401.809 36.0728C401.544 36.7025 401.407 37.3787 401.407 38.0619V49.8974C401.407 50.797 401.644 51.6807 402.094 52.4597C402.544 53.2387 403.191 53.8856 403.97 54.3354C404.749 54.7852 405.633 55.0221 406.532 55.0222C407.432 55.0223 408.316 54.7856 409.095 54.336L419.345 48.4176C420.124 47.9676 420.77 47.3206 421.22 46.5416C421.67 45.7625 421.906 44.8789 421.906 43.9793C421.906 43.0798 421.67 42.1962 421.22 41.4171C420.77 40.6381 420.124 39.9911 419.345 39.5411L409.095 33.6233C408.351 33.194 407.511 32.9584 406.653 32.9382Z" fill="#2DC0AF"/>
<path fill-rule="evenodd" clip-rule="evenodd" d="M406.652 21.103C405.969 21.087 405.29 21.2076 404.654 21.4579C404.019 21.7081 403.439 22.0829 402.951 22.5602C402.462 23.0375 402.074 23.6077 401.808 24.2372C401.543 24.8667 401.406 25.5429 401.406 26.226V49.8971H411.656V35.1029L424.469 42.5002L429.594 33.6233L409.094 21.7878C408.35 21.3586 407.51 21.1231 406.652 21.103Z" fill="url(#paint21_linear_1_2)"/>
<path fill-rule="evenodd" clip-rule="evenodd" d="M416.902 27.0209C416.219 27.0049 415.54 27.1256 414.904 27.3759C414.269 27.6261 413.689 28.0009 413.201 28.4782C412.712 28.9555 412.324 29.5256 412.058 30.1552C411.793 30.7847 411.656 31.4609 411.656 32.144V43.9796C411.656 44.8791 411.893 45.7627 412.343 46.5417C412.793 47.3207 413.44 47.9675 414.219 48.4173C414.998 48.8671 415.882 49.1039 416.781 49.104C417.681 49.1041 418.565 48.8674 419.344 48.4178L429.594 42.5004C430.373 42.0504 431.02 41.4034 431.469 40.6243C431.919 39.8452 432.156 38.9615 432.156 38.062C432.156 37.1624 431.919 36.2787 431.469 35.4996C431.02 34.7205 430.373 34.0735 429.594 33.6235L419.344 27.7058C418.6 27.2766 417.76 27.0411 416.902 27.0209Z" fill="url(#paint22_linear_1_2)"/>
<path opacity="0.2" fill-rule="evenodd" clip-rule="evenodd" d="M401.413 26.4282C401.4 30.3059 401.411 34.1843 401.407 38.062V49.8975C401.407 50.7971 401.644 51.6808 402.094 52.4598C402.544 53.2388 403.191 53.8857 403.97 54.3355C404.749 54.7853 405.633 55.0221 406.532 55.0222C407.432 55.0223 408.316 54.7857 409.095 54.3361L419.345 48.4177C420.124 47.9677 420.77 47.3207 421.22 46.5417C421.67 45.7626 421.906 44.8789 421.906 43.9794C421.906 43.0799 421.67 42.1962 421.22 41.4172C420.77 40.6381 420.124 39.9911 419.345 39.5412L409.095 33.6234C408.972 33.554 408.847 33.4897 408.719 33.4306C406.991 32.4251 405.243 31.4555 403.54 30.41C402.264 29.5035 401.462 27.9888 401.413 26.4282Z" fill="url(#paint23_linear_1_2)"/>
<path fill-rule="evenodd" clip-rule="evenodd" d="M419.22 48.4654C422.684 46.4823 426.135 44.4756 429.593 42.4832C431.851 41.235 432.816 38.1808 431.666 35.8678C431.141 34.6679 430.085 33.8319 428.953 33.2365C426.217 32.1618 422.702 33.8165 422.066 36.7938C421.879 37.1949 421.902 37.6145 421.906 38.0623C421.891 40.1994 421.937 42.3385 421.88 44.4743C421.723 46.138 420.695 47.68 419.22 48.4654Z" fill="url(#paint24_linear_1_2)"/>
<path fill-rule="evenodd" clip-rule="evenodd" d="M401.413 37.9229C401.398 41.9139 401.41 45.906 401.406 49.8977C401.359 52.4769 403.521 54.8392 406.099 55.0006C407.401 55.1457 408.653 54.6493 409.735 53.9667C412.033 52.1345 412.358 48.2625 410.098 46.2231C409.843 45.8612 409.468 45.6712 409.079 45.4508C407.236 44.3691 405.36 43.34 403.539 42.2221C402.177 41.2541 401.355 39.5926 401.413 37.9229Z" fill="url(#paint25_linear_1_2)"/>
<path d="M536.323 74.8193H499.37C497.103 74.8193 495.265 76.6576 495.265 78.9251V100.481C495.265 102.748 497.103 104.586 499.37 104.586H536.323C538.59 104.586 540.428 102.748 540.428 100.481V78.9251C540.428 76.6576 538.59 74.8193 536.323 74.8193Z" fill="url(#paint26_linear_1_2)"/>
<path d="M536.323 47.1055H499.37C497.103 47.1055 495.265 48.9437 495.265 51.2113V98.4279C495.265 100.695 497.103 102.534 499.37 102.534H536.323C538.59 102.534 540.428 100.695 540.428 98.4279V51.2113C540.428 48.9437 538.59 47.1055 536.323 47.1055Z" fill="#F6F5F4"/>
<path d="M536.322 50.1846H499.37C498.236 50.1846 497.317 51.1037 497.317 52.2375V98.4277C497.317 99.5615 498.236 100.481 499.37 100.481H536.322C537.456 100.481 538.375 99.5615 538.375 98.4277V52.2375C538.375 51.1037 537.456 50.1846 536.322 50.1846Z" fill="#1A5FB4"/>
<path d="M536.322 49.1582H499.37C498.236 49.1582 497.317 50.0773 497.317 51.2111V97.4013C497.317 98.5351 498.236 99.4542 499.37 99.4542H536.322C537.456 99.4542 538.375 98.5351 538.375 97.4013V51.2111C538.375 50.0773 537.456 49.1582 536.322 49.1582Z" fill="#3584E4"/>
<path d="M538.375 65.5813H497.317V66.6077H538.375V65.5813Z" fill="#1C71D8"/>
<path d="M538.375 82.0046H497.317V83.0311H538.375V82.0046Z" fill="#1C71D8"/>
<path d="M513.227 55.3169H522.465C523.318 55.3169 524.005 55.8301 524.005 56.8566V59.4227H521.968L521.952 57.3698H513.74L513.756 59.4227H511.688V56.8566C511.688 56.0036 512.374 55.3169 513.227 55.3169Z" fill="url(#paint27_linear_1_2)"/>
<path opacity="0.1" d="M523.235 58.3962H512.457C512.032 58.3962 511.688 58.7409 511.688 59.1661V59.6793C511.688 60.1045 512.032 60.4491 512.457 60.4491H523.235C523.66 60.4491 524.005 60.1045 524.005 59.6793V59.1661C524.005 58.7409 523.66 58.3962 523.235 58.3962Z" fill="black"/>
<path d="M513.227 57.3701C512.374 57.3701 511.688 58.0568 511.688 58.9098V59.423H513.74V58.3966H521.952V59.423H524.005V58.9098C524.005 58.0568 523.318 57.3701 522.465 57.3701H513.227Z" fill="url(#paint28_linear_1_2)"/>
<path opacity="0.1" d="M513.741 58.3962H521.953V59.4227H513.741V58.3962Z" fill="black"/>
<path d="M513.227 71.7402H522.465C523.318 71.7402 524.005 72.2535 524.005 73.2799V75.846H521.968L521.952 73.7931H513.74L513.756 75.846H511.688V73.2799C511.688 72.4269 512.374 71.7402 513.227 71.7402Z" fill="url(#paint29_linear_1_2)"/>
<path opacity="0.1" d="M523.092 74.8193H512.601C512.096 74.8193 511.688 75.2281 511.688 75.7324V75.9592C511.688 76.4635 512.096 76.8722 512.601 76.8722H523.092C523.596 76.8722 524.005 76.4635 524.005 75.9592V75.7324C524.005 75.2281 523.596 74.8193 523.092 74.8193Z" fill="black"/>
<path d="M513.227 73.793C512.374 73.793 511.688 74.4797 511.688 75.3326V75.8459H513.74V74.8194H521.952V75.8459H524.005V75.3326C524.005 74.4797 523.318 73.793 522.465 73.793H513.227Z" fill="url(#paint30_linear_1_2)"/>
<path opacity="0.1" d="M513.74 74.8193H521.952V75.8458H513.74V74.8193Z" fill="black"/>
<path d="M513.227 88.1633H522.465C523.318 88.1633 524.005 88.6766 524.005 89.703V92.2691H521.968L521.952 90.2162H513.74L513.756 92.2691H511.688V89.703C511.688 88.85 512.374 88.1633 513.227 88.1633Z" fill="url(#paint31_linear_1_2)"/>
<path opacity="0.1" d="M523.092 91.2427H512.601C512.096 91.2427 511.688 91.6515 511.688 92.1557V92.3825C511.688 92.8868 512.096 93.2956 512.601 93.2956H523.092C523.596 93.2956 524.005 92.8868 524.005 92.3825V92.1557C524.005 91.6515 523.596 91.2427 523.092 91.2427Z" fill="black"/>
<path d="M513.227 90.2163C512.374 90.2163 511.688 90.903 511.688 91.756V92.2692H513.74V91.2428H521.952V92.2692H524.005V91.756C524.005 90.903 523.318 90.2163 522.465 90.2163H513.227Z" fill="url(#paint32_linear_1_2)"/>
<path opacity="0.1" d="M513.74 91.2427H521.952V92.2691H513.74V91.2427Z" fill="black"/>
<path d="M88.9061 97.1016H128.094C130.061 97.1016 131.656 95.2165 131.656 92.8911V61.6792C131.656 59.3538 130.061 57.4688 128.094 57.4688H88.9061C86.9386 57.4688 85.3438 59.3538 85.3438 61.6792V92.8911C85.3438 95.2165 86.9386 97.1016 88.9061 97.1016Z" fill="#A51D2D"/>
<path d="M88.9061 96.2104H128.094C130.061 96.2104 131.656 94.6155 131.656 92.6479V81.9604C131.656 79.9929 130.061 78.3979 128.094 78.3979H88.9061C86.9386 78.3979 85.3438 79.9929 85.3438 81.9604V92.6479C85.3438 94.6155 86.9386 96.2104 88.9061 96.2104Z" fill="url(#paint33_linear_1_2)"/>
<path d="M88.9061 93.5391H128.094C130.061 93.5391 131.656 91.9441 131.656 89.9766V54.3516C131.656 52.384 130.061 50.7891 128.094 50.7891H88.9061C86.9386 50.7891 85.3438 52.384 85.3438 54.3516V89.9766C85.3438 91.9441 86.9386 93.5391 88.9061 93.5391Z" fill="url(#paint34_linear_1_2)"/>
<g opacity="0.542">
<path d="M90.6876 89.531C91.6714 89.531 92.4689 88.7335 92.4689 87.7498C92.4689 86.766 91.6714 85.9685 90.6876 85.9685C89.7038 85.9685 88.9062 86.766 88.9062 87.7498C88.9062 88.7335 89.7038 89.531 90.6876 89.531Z" fill="#C0BFBC"/>
<path d="M97.8126 89.531C98.7964 89.531 99.5939 88.7335 99.5939 87.7498C99.5939 86.766 98.7964 85.9685 97.8126 85.9685C96.8288 85.9685 96.0312 86.766 96.0312 87.7498C96.0312 88.7335 96.8288 89.531 97.8126 89.531Z" fill="#C0BFBC"/>
<path d="M104.938 89.531C105.921 89.531 106.719 88.7335 106.719 87.7498C106.719 86.766 105.921 85.9685 104.938 85.9685C103.954 85.9685 103.156 86.766 103.156 87.7498C103.156 88.7335 103.954 89.531 104.938 89.531Z" fill="#C0BFBC"/>
<path d="M90.6876 79.2891C91.6714 79.2891 92.4689 78.4916 92.4689 77.5078C92.4689 76.5241 91.6714 75.7266 90.6876 75.7266C89.7038 75.7266 88.9062 76.5241 88.9062 77.5078C88.9062 78.4916 89.7038 79.2891 90.6876 79.2891Z" fill="#C0BFBC"/>
<path d="M97.8126 79.2891C98.7964 79.2891 99.5939 78.4916 99.5939 77.5078C99.5939 76.5241 98.7964 75.7266 97.8126 75.7266C96.8288 75.7266 96.0312 76.5241 96.0312 77.5078C96.0312 78.4916 96.8288 79.2891 97.8126 79.2891Z" fill="#C0BFBC"/>
<path d="M104.938 79.2891C105.921 79.2891 106.719 78.4916 106.719 77.5078C106.719 76.5241 105.921 75.7266 104.938 75.7266C103.954 75.7266 103.156 76.5241 103.156 77.5078C103.156 78.4916 103.954 79.2891 104.938 79.2891Z" fill="#C0BFBC"/>
<path d="M112.062 79.2891C113.046 79.2891 113.844 78.4916 113.844 77.5078C113.844 76.5241 113.046 75.7266 112.062 75.7266C111.079 75.7266 110.281 76.5241 110.281 77.5078C110.281 78.4916 111.079 79.2891 112.062 79.2891Z" fill="#C0BFBC"/>
<path d="M119.188 79.2891C120.171 79.2891 120.969 78.4916 120.969 77.5078C120.969 76.5241 120.171 75.7266 119.188 75.7266C118.204 75.7266 117.406 76.5241 117.406 77.5078C117.406 78.4916 118.204 79.2891 119.188 79.2891Z" fill="#C0BFBC"/>
<path d="M126.312 79.2891C127.296 79.2891 128.094 78.4916 128.094 77.5078C128.094 76.5241 127.296 75.7266 126.312 75.7266C125.329 75.7266 124.531 76.5241 124.531 77.5078C124.531 78.4916 125.329 79.2891 126.312 79.2891Z" fill="#C0BFBC"/>
<path d="M97.8126 69.0469C98.7964 69.0469 99.5939 68.2494 99.5939 67.2656C99.5939 66.2819 98.7964 65.4844 97.8126 65.4844C96.8288 65.4844 96.0312 66.2819 96.0312 67.2656C96.0312 68.2494 96.8288 69.0469 97.8126 69.0469Z" fill="#C0BFBC"/>
<path d="M104.938 69.0469C105.921 69.0469 106.719 68.2494 106.719 67.2656C106.719 66.2819 105.921 65.4844 104.938 65.4844C103.954 65.4844 103.156 66.2819 103.156 67.2656C103.156 68.2494 103.954 69.0469 104.938 69.0469Z" fill="#C0BFBC"/>
<path d="M112.062 69.0469C113.046 69.0469 113.844 68.2494 113.844 67.2656C113.844 66.2819 113.046 65.4844 112.062 65.4844C111.079 65.4844 110.281 66.2819 110.281 67.2656C110.281 68.2494 111.079 69.0469 112.062 69.0469Z" fill="#C0BFBC"/>
<path d="M119.188 69.0469C120.171 69.0469 120.969 68.2494 120.969 67.2656C120.969 66.2819 120.171 65.4844 119.188 65.4844C118.204 65.4844 117.406 66.2819 117.406 67.2656C117.406 68.2494 118.204 69.0469 119.188 69.0469Z" fill="#C0BFBC"/>
<path d="M126.312 69.0469C127.296 69.0469 128.094 68.2494 128.094 67.2656C128.094 66.2819 127.296 65.4844 126.312 65.4844C125.329 65.4844 124.531 66.2819 124.531 67.2656C124.531 68.2494 125.329 69.0469 126.312 69.0469Z" fill="#C0BFBC"/>
</g>
<path d="M104.938 80.1794C106.413 80.1794 107.609 78.9832 107.609 77.5076C107.609 76.0319 106.413 74.8357 104.938 74.8357C103.462 74.8357 102.266 76.0319 102.266 77.5076C102.266 78.9832 103.462 80.1794 104.938 80.1794Z" fill="#ED333B"/>
<mask id="mask2_1_2" style="mask-type:alpha" maskUnits="userSpaceOnUse" x="119" y="80" width="13" height="14">
<path d="M131.656 83.729L121.86 93.5258H119.061V80.9299H131.656V83.729Z" fill="white"/>
</mask>
<g mask="url(#mask2_1_2)">
<g opacity="0.2" filter="url(#filter2_f_1_2)">
<path d="M121.859 88.182V93.6532C121.858 94.1213 121.95 94.585 122.129 95.0176C122.307 95.4503 122.57 95.8434 122.901 96.1743C123.232 96.5053 123.625 96.7677 124.057 96.9463C124.49 97.125 124.954 97.2164 125.422 97.2154H130.893C131.361 97.2164 131.825 97.125 132.257 96.9463C132.69 96.7677 133.083 96.5053 133.414 96.1743C133.745 95.8434 134.007 95.4503 134.186 95.0176C134.365 94.585 134.456 94.1213 134.455 93.6532V88.182C134.456 87.7139 134.365 87.2502 134.186 86.8175C134.008 86.3848 133.745 85.9917 133.414 85.6607C133.083 85.3297 132.69 85.0673 132.257 84.8886C131.825 84.7099 131.361 84.6185 130.893 84.6195H125.422C124.954 84.6185 124.49 84.7099 124.057 84.8886C123.625 85.0673 123.232 85.3297 122.901 85.6607C122.57 85.9917 122.307 86.3848 122.128 86.8175C121.95 87.2502 121.858 87.7139 121.859 88.182Z" fill="black"/>
</g>
</g>
<mask id="mask3_1_2" style="mask-type:alpha" maskUnits="userSpaceOnUse" x="119" y="80" width="13" height="14">
<path d="M131.656 83.729L121.86 93.5258H119.061V80.9299H131.656V83.729Z" fill="white"/>
</mask>
<g mask="url(#mask3_1_2)">
<path d="M121.859 92.7624V87.2916C121.859 85.324 123.454 83.729 125.422 83.729H130.893C132.86 83.729 134.455 85.324 134.455 87.2916V92.7624C134.455 94.7299 132.86 96.3249 130.893 96.3249H125.422C123.454 96.3249 121.859 94.7299 121.859 92.7624Z" fill="url(#paint35_linear_1_2)"/>
</g>
<mask id="mask4_1_2" style="mask-type:alpha" maskUnits="userSpaceOnUse" x="121" y="83" width="14" height="14">
<path d="M121.86 93.5266L131.657 83.7298H134.456V96.3257H121.86V93.5266Z" fill="white"/>
</mask>
<g mask="url(#mask4_1_2)">
<path d="M131.657 84.4935V89.9643C131.657 91.9318 130.062 93.5269 128.095 93.5269H122.624C120.656 93.5269 119.061 91.9318 119.061 89.9643V84.4935C119.061 82.526 120.656 80.9309 122.624 80.9309H128.095C130.062 80.9309 131.657 82.526 131.657 84.4935Z" fill="#F6F5F4"/>
</g>
<path d="M88.9061 50.3435C86.9325 50.3435 85.3438 51.9324 85.3438 53.906V59.2498H131.656V53.906C131.656 51.9324 130.067 50.3435 128.094 50.3435H88.9061Z" fill="#3584E4"/>
<path d="M85.3438 58.3589V59.2495H131.656V58.3589H85.3438Z" fill="#1A5FB4"/>
<path d="M173.844 239.751C173.844 237.852 172.305 236.312 170.406 236.312C168.508 236.312 166.969 237.852 166.969 239.751V243.186C166.969 245.085 168.508 246.625 170.406 246.625C172.305 246.625 173.844 245.085 173.844 243.186V239.751Z" fill="#F8E45C"/>
<path d="M173.844 246.626C173.844 244.727 172.305 243.187 170.406 243.187C168.508 243.187 166.969 244.727 166.969 246.626V250.061C166.969 251.96 168.508 253.5 170.406 253.5C172.305 253.5 173.844 251.96 173.844 250.061V246.626Z" fill="#2EC27E"/>
<path d="M173.844 253.501C173.844 251.602 172.305 250.062 170.406 250.062C168.508 250.062 166.969 251.602 166.969 253.501V256.936C166.969 258.835 168.508 260.375 170.406 260.375C172.305 260.375 173.844 258.835 173.844 256.936V253.501Z" fill="#C061CB"/>
<path d="M173.844 260.376C173.844 258.477 172.305 256.937 170.406 256.937C168.508 256.937 166.969 258.477 166.969 260.376V263.811C166.969 265.71 168.508 267.25 170.406 267.25C172.305 267.25 173.844 265.71 173.844 263.811V260.376Z" fill="#F66151"/>
<path d="M132.594 238.031V277.562H166.969C168.873 277.562 170.406 276.029 170.406 274.125V241.469C170.406 239.564 168.873 238.031 166.969 238.031H132.594Z" fill="#1D60B5"/>
<path d="M133.453 246.625V276.703H166.969C168.873 276.703 170.406 275.17 170.406 273.265V250.062C170.406 248.158 168.873 246.625 166.969 246.625H133.453Z" fill="url(#paint36_linear_1_2)"/>
<path d="M132.594 238.031V274.125H166.969C168.873 274.125 170.406 272.592 170.406 270.687V241.469C170.406 239.564 168.873 238.031 166.969 238.031H132.594Z" fill="#2864B0"/>
<path d="M132.594 229.437V273.265H166.969C168.873 273.265 170.406 271.732 170.406 269.828V232.875C170.406 230.97 168.873 229.437 166.969 229.437H132.594Z" fill="#3584E4"/>
<path opacity="0.187" d="M133.453 229.437H134.312V273.265H133.453V229.437Z" fill="white"/>
<path d="M149.67 251.82C149.67 252.618 149.839 253.247 150.176 253.708C150.52 254.168 150.984 254.399 151.568 254.399C152.145 254.399 152.606 254.168 152.95 253.708C153.294 253.241 153.466 252.611 153.466 251.82C153.466 251.035 153.291 250.415 152.94 249.961C152.596 249.5 152.132 249.27 151.548 249.27C150.977 249.27 150.52 249.5 150.176 249.961C149.839 250.415 149.67 251.035 149.67 251.82ZM153.66 254.749C153.466 255.21 153.151 255.57 152.716 255.829C152.288 256.083 151.785 256.209 151.208 256.209C150.092 256.209 149.184 255.807 148.483 255.002C147.789 254.191 147.441 253.137 147.441 251.839C147.441 250.542 147.792 249.487 148.493 248.676C149.193 247.865 150.098 247.46 151.208 247.46C151.785 247.46 152.288 247.59 152.716 247.849C153.151 248.109 153.466 248.469 153.66 248.929V247.654H155.694V254.399C156.499 254.276 157.132 253.89 157.592 253.241C158.053 252.585 158.283 251.748 158.283 250.73C158.283 250.081 158.189 249.474 158.001 248.91C157.813 248.339 157.527 247.817 157.144 247.343C156.528 246.551 155.756 245.942 154.828 245.513C153.907 245.085 152.908 244.871 151.831 244.871C151.078 244.871 150.358 244.972 149.67 245.173C148.982 245.367 148.347 245.656 147.763 246.039C146.802 246.675 146.053 247.499 145.514 248.511C144.982 249.516 144.716 250.606 144.716 251.781C144.716 252.748 144.888 253.656 145.232 254.506C145.583 255.349 146.085 256.095 146.741 256.744C147.39 257.38 148.132 257.864 148.969 258.194C149.813 258.532 150.711 258.7 151.665 258.7C152.483 258.7 153.3 258.548 154.118 258.243C154.935 257.938 155.633 257.526 156.21 257.007L157.252 258.584C156.441 259.213 155.555 259.693 154.595 260.024C153.641 260.361 152.671 260.53 151.685 260.53C150.484 260.53 149.352 260.316 148.288 259.888C147.224 259.466 146.277 258.85 145.446 258.039C144.616 257.228 143.983 256.29 143.549 255.226C143.114 254.156 142.896 253.007 142.896 251.781C142.896 250.6 143.117 249.474 143.558 248.404C143.999 247.333 144.629 246.392 145.446 245.581C146.264 244.777 147.214 244.154 148.298 243.713C149.388 243.272 150.517 243.051 151.685 243.051C153.138 243.051 154.458 243.33 155.646 243.888C156.833 244.439 157.826 245.238 158.624 246.282C159.11 246.918 159.477 247.609 159.724 248.355C159.977 249.095 160.103 249.873 160.103 250.691C160.103 252.449 159.574 253.815 158.517 254.788C157.459 255.761 155.967 256.248 154.04 256.248H153.66V254.749Z" fill="white"/>
<path fill-rule="evenodd" clip-rule="evenodd" d="M439.045 128.823L451.215 143.947C452.807 145.926 455.547 146.557 457.844 145.475C460.142 144.392 461.399 141.877 460.886 139.389L457.492 122.922L449.707 124.527L447.615 121.927L439.045 128.823Z" fill="#77767B"/>
<path fill-rule="evenodd" clip-rule="evenodd" d="M438.955 128.823L426.785 143.947C425.193 145.926 422.453 146.557 420.156 145.475C417.858 144.392 416.601 141.877 417.114 139.389L420.508 122.922L428.293 124.527L430.385 121.927L438.955 128.823Z" fill="#77767B"/>
<path d="M437.779 127.877L426.785 141.541C426.134 142.346 425.27 142.952 424.291 143.288C423.312 143.624 422.258 143.677 421.25 143.441C420.242 143.205 419.322 142.689 418.594 141.953C417.866 141.217 417.361 140.291 417.136 139.28L417.114 139.389C416.865 140.597 417.03 141.854 417.582 142.957C418.134 144.06 419.041 144.946 420.156 145.472C421.272 145.998 422.532 146.133 423.734 145.857C424.937 145.58 426.011 144.908 426.785 143.947L438.955 128.822L437.779 127.877ZM440.22 127.877L439.045 128.822L451.215 143.947C451.988 144.908 453.063 145.58 454.265 145.857C455.467 146.133 456.727 145.998 457.843 145.472C458.959 144.946 459.865 144.06 460.417 142.957C460.969 141.854 461.134 140.597 460.886 139.389L460.864 139.28C460.639 140.291 460.133 141.217 459.405 141.953C458.678 142.689 457.757 143.205 456.749 143.441C455.741 143.677 454.687 143.624 453.708 143.288C452.729 142.952 451.865 142.346 451.215 141.541L440.22 127.877Z" fill="url(#paint37_linear_1_2)"/>
<path d="M428 131.906C432.176 131.906 435.562 128.52 435.562 124.344C435.562 120.167 432.176 116.781 428 116.781C423.823 116.781 420.438 120.167 420.438 124.344C420.438 128.52 423.823 131.906 428 131.906Z" fill="#5E5C64"/>
<path d="M432.125 140.499C435.162 140.499 437.625 138.037 437.625 135C437.625 131.962 435.162 129.5 432.125 129.5C429.087 129.5 426.625 131.962 426.625 135C426.625 138.037 429.087 140.499 432.125 140.499Z" fill="#5E5C64"/>
<path d="M445.875 140.499C448.912 140.499 451.375 138.037 451.375 135C451.375 131.962 448.912 129.5 445.875 129.5C442.837 129.5 440.375 131.962 440.375 135C440.375 138.037 442.837 140.499 445.875 140.499Z" fill="#5E5C64"/>
<path d="M445.187 130.187H432.812V135.687H445.187V130.187Z" fill="#5E5C64"/>
<path d="M450 131.906C454.176 131.906 457.562 128.52 457.562 124.344C457.562 120.167 454.176 116.781 450 116.781C445.823 116.781 442.438 120.167 442.438 124.344C442.438 128.52 445.823 131.906 450 131.906Z" fill="#5E5C64"/>
<path d="M445.187 120.563H432.812V135H445.187V120.563Z" fill="#DEDDDA"/>
<path d="M432.125 139.812C435.162 139.812 437.625 137.35 437.625 134.312C437.625 131.275 435.162 128.812 432.125 128.812C429.087 128.812 426.625 131.275 426.625 134.312C426.625 137.35 429.087 139.812 432.125 139.812Z" fill="#DEDDDA"/>
<path d="M445.875 139.812C448.912 139.812 451.375 137.35 451.375 134.312C451.375 131.275 448.912 128.812 445.875 128.812C442.837 128.812 440.375 131.275 440.375 134.312C440.375 137.35 442.837 139.812 445.875 139.812Z" fill="#DEDDDA"/>
<path d="M428 115.75C427.007 115.75 426.023 115.946 425.106 116.326C424.188 116.706 423.355 117.263 422.652 117.965C421.95 118.667 421.393 119.501 421.013 120.419C420.633 121.336 420.438 122.319 420.438 123.313C420.437 124.306 420.633 125.289 421.013 126.207C421.393 127.124 421.95 127.958 422.652 128.66C423.355 129.362 424.188 129.919 425.106 130.299C426.023 130.679 427.007 130.875 428 130.875V131.219H449.999V130.875C450.992 130.875 451.976 130.679 452.893 130.299C453.811 129.919 454.645 129.362 455.347 128.66C456.049 127.958 456.606 127.124 456.986 126.207C457.366 125.289 457.562 124.306 457.562 123.313C457.562 121.307 456.765 119.383 455.347 117.965C453.929 116.547 452.005 115.75 449.999 115.75H428Z" fill="#DEDDDA"/>
<path d="M427.312 118.844C426.932 118.844 426.625 119.151 426.625 119.531V121.594H424.562C424.182 121.594 423.875 121.901 423.875 122.281V123.656C423.875 124.037 424.182 124.344 424.562 124.344H426.625V126.406C426.625 126.787 426.932 127.094 427.312 127.094H428.687C429.068 127.094 429.375 126.787 429.375 126.406V124.344H431.437C431.818 124.344 432.125 124.037 432.125 123.656V122.281C432.125 121.901 431.818 121.594 431.437 121.594H429.375V119.531C429.375 119.151 429.068 118.844 428.687 118.844H427.312Z" fill="#3D3846"/>
<path d="M427.312 118.156C426.932 118.156 426.625 118.463 426.625 118.844V120.906H424.562C424.182 120.906 423.875 121.213 423.875 121.594V122.969C423.875 123.35 424.182 123.656 424.562 123.656H426.625V125.719C426.625 126.1 426.932 126.406 427.312 126.406H428.687C429.068 126.406 429.375 126.1 429.375 125.719V123.656H431.437C431.818 123.656 432.125 123.35 432.125 122.969V121.594C432.125 121.213 431.818 120.906 431.437 120.906H429.375V118.844C429.375 118.463 429.068 118.156 428.687 118.156H427.312Z" fill="#5E5C64"/>
<path d="M454.125 123.656V124.344C454.125 125.486 453.205 126.406 452.063 126.406C450.92 126.406 450 125.486 450 124.344V123.656H454.125Z" fill="#C01C28"/>
<path d="M452.063 125.719C450.923 125.719 450 124.796 450 123.656C450 122.517 450.923 121.594 452.063 121.594C453.202 121.594 454.125 122.517 454.125 123.656C454.125 124.796 453.202 125.719 452.063 125.719Z" fill="#ED333B"/>
<path d="M448.625 120.906V121.594C448.625 122.737 447.705 123.656 446.563 123.656C445.42 123.656 444.5 122.737 444.5 121.594V120.906H448.625Z" fill="#1A5FB4"/>
<path d="M446.563 122.969C445.423 122.969 444.5 122.046 444.5 120.906C444.5 119.767 445.423 118.844 446.563 118.844C447.702 118.844 448.625 119.767 448.625 120.906C448.625 122.046 447.702 122.969 446.563 122.969Z" fill="#3584E4"/>
<path d="M432.125 137.75C434.023 137.75 435.562 136.211 435.562 134.312C435.562 132.414 434.023 130.875 432.125 130.875C430.226 130.875 428.688 132.414 428.688 134.312C428.688 136.211 430.226 137.75 432.125 137.75Z" fill="#3D3846"/>
<path d="M445.875 137.75C447.773 137.75 449.312 136.211 449.312 134.312C449.312 132.414 447.773 130.875 445.875 130.875C443.976 130.875 442.438 132.414 442.438 134.312C442.438 136.211 443.976 137.75 445.875 137.75Z" fill="#3D3846"/>
<path d="M432.125 137.062C434.023 137.062 435.562 135.523 435.562 133.625C435.562 131.726 434.023 130.188 432.125 130.188C430.226 130.188 428.688 131.726 428.688 133.625C428.688 135.523 430.226 137.062 432.125 137.062Z" fill="#5E5C64"/>
<path d="M445.875 137.062C447.773 137.062 449.312 135.523 449.312 133.625C449.312 131.726 447.773 130.188 445.875 130.188C443.976 130.188 442.438 131.726 442.438 133.625C442.438 135.523 443.976 137.062 445.875 137.062Z" fill="#5E5C64"/>
<path d="M429.375 133.625C429.375 132.106 430.606 130.875 432.125 130.875C433.644 130.875 434.875 132.106 434.875 133.625C434.875 135.144 433.644 136.375 432.125 136.375C430.606 136.375 429.375 135.144 429.375 133.625Z" fill="url(#paint38_linear_1_2)"/>
<path d="M443.125 133.625C443.125 132.106 444.356 130.875 445.875 130.875C447.394 130.875 448.625 132.106 448.625 133.625C448.625 135.144 447.394 136.375 445.875 136.375C444.356 136.375 443.125 135.144 443.125 133.625Z" fill="url(#paint39_linear_1_2)"/>
<path d="M193.462 182.077H220.538C221.898 182.077 223 183.179 223 184.538V208.538C223 209.898 221.898 211 220.538 211H193.462C192.102 211 191 209.898 191 208.538V184.538C191 183.179 192.102 182.077 193.462 182.077Z" fill="url(#paint40_linear_1_2)"/>
<path d="M193.462 179H220.538C221.898 179 223 180.102 223 181.461V206.077C223 207.436 221.898 208.538 220.538 208.538H193.462C192.102 208.538 191 207.436 191 206.077V181.461C191 180.102 192.102 179 193.462 179Z" fill="url(#paint41_linear_1_2)"/>
<path d="M193.461 179.615H220.538C221.558 179.615 222.384 180.442 222.384 181.461V206.077C222.384 207.096 221.558 207.923 220.538 207.923H193.461C192.442 207.923 191.615 207.096 191.615 206.077V181.461C191.615 180.442 192.442 179.615 193.461 179.615Z" fill="#241F31"/>
<path d="M201.465 187.888L197.153 185.545V187L200.141 188.424V188.468L197.153 190.077V191.531L201.465 189.005V187.888Z" fill="#62C9EA"/>
<path d="M202.692 192.538V193.769H207.615V192.538H202.692Z" fill="#62C9EA"/>
<path d="M246.959 14.3513C255.266 14.3513 262 21.0855 262 29.3923C262 37.6991 255.266 44.4333 246.959 44.4333C238.652 44.4333 231.918 37.6991 231.918 29.3923C231.918 21.0855 238.652 14.3513 246.959 14.3513Z" fill="url(#paint42_linear_1_2)"/>
<path d="M246.959 14.3513C238.652 14.3513 231.918 21.0855 231.918 29.3923C231.918 37.6991 238.652 44.4333 246.959 44.4333V14.3513Z" fill="url(#paint43_linear_1_2)"/>
<path d="M262 28.8908C262 37.1977 255.266 43.9318 246.959 43.9318C238.652 43.9318 231.918 37.1977 231.918 28.8908C231.918 20.584 238.652 13.8499 246.959 13.8499C255.266 13.8499 262 20.584 262 28.8908Z" fill="#40A1C8"/>
<path d="M237.935 29.1416C237.967 32.6296 238.658 36.0021 239.9 38.7302C238.912 39.2355 238.074 39.8436 237.427 40.5252C234.008 37.7246 231.993 33.5609 231.92 29.1416H237.935Z" fill="#49BBB0"/>
<path d="M246.959 37.1633V43.9318C245.831 43.9318 244.705 43.8045 243.606 43.5528C242.152 42.5354 240.875 40.8727 239.9 38.7301C241.881 37.7176 244.379 37.1633 246.959 37.1633Z" fill="#378BDE"/>
<path d="M255.983 29.1416C255.952 32.6296 255.26 36.0021 254.018 38.7302C255.007 39.2355 255.843 39.8436 256.49 40.5252C259.91 37.7246 261.924 33.5609 261.998 29.1416H255.983Z" fill="#266EC6"/>
<path d="M246.959 29.1416V43.9319C248.087 43.9319 249.212 43.8046 250.312 43.5529C253.689 41.1881 255.925 35.5066 255.983 29.1416H246.959Z" fill="#378BDE"/>
<path d="M246.959 37.1633V43.9318C248.087 43.9318 249.212 43.8045 250.312 43.5528C251.766 42.5354 253.043 40.8727 254.017 38.7301C252.036 37.7176 249.538 37.1633 246.959 37.1633Z" fill="#266EC6"/>
<path d="M254.018 38.7302C253.043 40.8728 251.766 42.5345 250.312 43.5529C252.577 43.0349 254.693 41.9979 256.49 40.5252C255.843 39.8436 255.006 39.2355 254.018 38.7302Z" fill="#1E62B5"/>
<path d="M246.959 13.8499C238.652 13.8499 231.918 20.584 231.918 28.8908C231.918 28.9741 231.919 29.0583 231.92 29.1415H246.959V13.8499Z" fill="#53D795"/>
<path d="M243.606 14.2278C241.34 14.7468 239.225 15.7828 237.427 17.2556C238.074 17.9381 238.911 18.5452 239.9 19.0515C240.876 16.9079 242.153 15.2462 243.606 14.2278Z" fill="#72E99A"/>
<path d="M246.959 13.8499C245.831 13.8499 244.707 13.9772 243.606 14.2278C240.181 16.627 237.935 22.4338 237.935 28.8908C237.935 28.9741 237.935 29.0583 237.936 29.1415H246.959V13.8499Z" fill="#49BBB0"/>
<path d="M246.959 13.8499C245.831 13.8499 244.706 13.9772 243.606 14.2278C242.153 15.2462 240.876 16.908 239.9 19.0515C241.882 20.0641 244.379 20.6183 246.959 20.6183V13.8499Z" fill="#53D795"/>
<path d="M246.959 13.8499C255.266 13.8499 262 20.584 262 28.8908C262 28.9741 261.999 29.0583 261.998 29.1415H246.959V13.8499Z" fill="#378BDE"/>
<path d="M250.312 14.2278C252.577 14.7468 254.693 15.7828 256.49 17.2556C255.843 17.9381 255.006 18.5452 254.018 19.0505C253.042 16.9079 251.765 15.2462 250.312 14.2278Z" fill="#40A1C8"/>
<path d="M246.959 13.8499C248.087 13.8499 249.212 13.9772 250.312 14.2278C253.737 16.627 255.984 22.4338 255.984 28.8908C255.984 28.9741 255.984 29.0583 255.983 29.1415H246.959V13.8499Z" fill="#40A1C8"/>
<path d="M246.959 13.8499C248.087 13.8499 249.212 13.9772 250.312 14.2278C251.765 15.2462 253.042 16.908 254.017 19.0505C252.035 20.0641 249.538 20.6183 246.959 20.6183V13.8499Z" fill="#49BBB0"/>
<path d="M281.188 250.428V257.572L275 261.145L268.812 257.572V250.428L275 246.855L281.188 250.428Z" fill="#3D3846"/>
<path d="M256.438 246.856V261.145H268.812V246.856H256.438Z" fill="#33D17A"/>
<path d="M265.719 255.787L259.531 266.503L271.906 273.648L278.094 262.932L265.719 255.787Z" fill="#3584E4"/>
<path d="M284.281 255.786L271.906 262.931L278.094 273.648L290.469 266.503L284.281 255.786Z" fill="#A347BA"/>
<path d="M281.188 246.855V261.144H293.562V246.855H281.188Z" fill="#E01B24"/>
<path d="M278.094 234.352L271.906 245.068L284.281 252.213L290.469 241.497L278.094 234.352Z" fill="#FF7800"/>
<path d="M271.906 234.352L259.531 241.497L265.719 252.214L278.094 245.069L271.906 234.352Z" fill="#F6D32D"/>
<path d="M275 274.477C278.417 274.477 281.188 271.707 281.188 268.29C281.186 267.292 280.943 266.309 280.48 265.425C280.016 264.541 279.346 263.783 278.525 263.214L275.343 261.343L275 261.145C274.015 260.588 273.038 260.02 272.066 259.44C271.084 258.911 270.263 258.126 269.69 257.168C269.117 256.211 268.814 255.116 268.812 254V268.289C268.812 271.706 271.583 274.477 275 274.477ZM268.835 267.791C268.843 267.693 268.858 267.597 268.87 267.501C268.856 267.597 268.845 267.694 268.835 267.791ZM269.158 266.274C269.167 266.248 269.173 266.221 269.182 266.195H269.184L269.158 266.274Z" fill="url(#paint44_linear_1_2)"/>
<path d="M275 233.523C271.583 233.523 268.812 236.294 268.812 239.711C268.814 240.709 269.057 241.692 269.52 242.575C269.984 243.459 270.654 244.218 271.474 244.786L274.657 246.657L275 246.855C275.985 247.412 276.962 247.98 277.934 248.56C278.916 249.089 279.737 249.874 280.31 250.832C280.883 251.789 281.186 252.884 281.188 254V239.711C281.188 236.294 278.417 233.523 275 233.523ZM281.165 240.209C281.157 240.307 281.142 240.403 281.13 240.499C281.144 240.403 281.155 240.307 281.165 240.21V240.209ZM280.842 241.726C280.833 241.752 280.827 241.779 280.818 241.805H280.816L280.842 241.726Z" fill="url(#paint45_linear_1_2)"/>
<path d="M257.267 264.238C258.975 267.198 262.76 268.212 265.719 266.503C266.582 266.003 267.312 265.301 267.846 264.458C268.379 263.614 268.701 262.654 268.784 261.66L268.812 257.969V257.572C268.802 256.478 268.806 255.213 268.822 254.18C268.789 253.064 269.058 251.961 269.601 250.986C270.144 250.011 270.94 249.201 271.906 248.642L268.812 250.428L262.625 254L261.226 254.808L259.532 255.786C256.572 257.494 255.558 261.279 257.267 264.238ZM259.975 255.556C260.063 255.515 260.153 255.479 260.243 255.442C260.153 255.478 260.063 255.516 259.975 255.556ZM261.449 255.077C261.476 255.072 261.503 255.064 261.53 255.059L261.531 255.06L261.449 255.077Z" fill="url(#paint46_linear_1_2)"/>
<path d="M292.733 243.762C291.025 240.802 287.24 239.788 284.281 241.497C283.417 241.997 282.688 242.699 282.154 243.542C281.62 244.386 281.298 245.346 281.216 246.34L281.188 250.031V250.428C281.198 251.523 281.193 252.787 281.177 253.821C281.21 254.936 280.941 256.039 280.398 257.014C279.856 257.989 279.059 258.799 278.094 259.358L281.188 257.572L287.375 254L288.773 253.193L290.468 252.214C293.427 250.505 294.441 246.721 292.733 243.762ZM290.025 252.444C289.937 252.485 289.846 252.521 289.757 252.558C289.847 252.522 289.936 252.484 290.025 252.444ZM288.55 252.923C288.523 252.928 288.497 252.936 288.47 252.941L288.468 252.94C288.496 252.935 288.523 252.929 288.55 252.923Z" fill="url(#paint47_linear_1_2)"/>
<path d="M257.266 243.762C255.558 246.721 256.572 250.505 259.531 252.214C260.396 252.712 261.369 252.993 262.366 253.033C263.363 253.074 264.355 252.873 265.258 252.447L268.469 250.626L268.812 250.428C269.786 249.854 270.767 249.291 271.755 248.74C272.705 248.153 273.795 247.835 274.911 247.817C276.027 247.8 277.126 248.085 278.094 248.642L275 246.855L268.812 243.283L267.414 242.475L265.719 241.497C262.759 239.788 258.975 240.802 257.266 243.762ZM266.139 241.766C266.219 241.822 266.295 241.882 266.372 241.941C266.296 241.881 266.218 241.822 266.139 241.766ZM267.292 242.804C267.309 242.824 267.329 242.843 267.347 242.864V242.866L267.292 242.804Z" fill="url(#paint48_linear_1_2)"/>
<path d="M292.733 264.239C294.442 261.279 293.428 257.495 290.469 255.786C289.604 255.288 288.631 255.007 287.634 254.967C286.637 254.926 285.644 255.128 284.742 255.554L281.531 257.375L281.188 257.573C280.214 258.147 279.232 258.709 278.245 259.26C277.295 259.847 276.205 260.166 275.089 260.183C273.973 260.2 272.873 259.916 271.906 259.359L275 261.145L281.188 264.718L282.586 265.525L284.281 266.503C287.241 268.212 291.025 267.198 292.734 264.239H292.733ZM283.861 266.234C283.78 266.178 283.704 266.118 283.627 266.059C283.704 266.119 283.781 266.178 283.861 266.234ZM282.708 265.197C282.69 265.176 282.67 265.157 282.653 265.136V265.134L282.708 265.197Z" fill="url(#paint49_linear_1_2)"/>
<path d="M268.812 250.428V257.572L275 261.145L281.188 257.572V250.428L275 246.855L268.812 250.428Z" fill="#241F31"/>
<mask id="mask5_1_2" style="mask-type:alpha" maskUnits="userSpaceOnUse" x="332" y="219" width="27" height="26">
<path d="M334.625 223.562H338.25L341.875 219.812L345.5 223.562H356.375C357.379 223.562 358.187 224.399 358.187 225.437V242.312C358.187 243.351 357.379 244.187 356.375 244.187H345.5L341.875 240.437L338.25 244.187H334.625C333.621 244.187 332.812 243.351 332.812 242.312V225.437C332.812 224.399 333.629 223.434 334.625 223.562Z" fill="white"/>
</mask>
<g mask="url(#mask5_1_2)">
<path d="M345.5 239.5H354.562V223.562H360V246.062H345.5L341.875 242.312L338.25 246.062H331V239.5H338.25L341.875 235.75L345.5 239.5Z" fill="#CDAB8F"/>
<path d="M331 239.499L338.25 239.501V223.562L331 223.563V239.499Z" fill="#55A7EB"/>
<path d="M339.156 222.625V238.563L341.875 235.75L345.5 239.503H353.656L354.563 238.563V223.563H345.5L341.875 219.812L339.156 222.625Z" fill="#2EC27E"/>
<path d="M353.65 223.569V237.514C353.65 238.102 353.12 238.566 352.69 238.566H345.5L341.875 234.847L339.645 237.164L339.609 219.816H338.25V238.563L331 238.566V240.447H338.193L341.875 236.688L345.5 240.447H352.69C354.187 240.447 355.407 239.155 355.469 237.514V223.569H353.65Z" fill="white"/>
<path opacity="0.3" d="M338.25 247.936L341.875 247.939V219.812L338.25 219.813V247.936Z" fill="white"/>
<path opacity="0.15" d="M341.875 247.936L345.5 247.939V219.812L341.875 219.813V247.936Z" fill="black"/>
</g>
<path d="M354.562 225.438C354.562 226.991 353.345 228.25 351.844 228.25C350.342 228.25 349.125 226.991 349.125 225.438C349.125 223.884 350.342 222.625 351.844 222.625C353.345 222.625 354.562 223.884 354.562 225.438Z" fill="url(#paint50_linear_1_2)"/>
<path d="M351.844 219.344C350.22 219.344 348.597 219.984 347.358 221.266C344.881 223.829 344.881 227.984 347.358 230.547L351.844 235.187C351.844 235.187 354.975 231.948 356.329 230.547C358.807 227.984 358.807 223.829 356.329 221.266C355.091 219.984 353.467 219.344 351.844 219.344ZM351.844 223.562C352.141 223.562 352.436 223.623 352.711 223.741C352.986 223.859 353.235 224.031 353.446 224.249C353.656 224.467 353.823 224.725 353.937 225.009C354.051 225.294 354.109 225.598 354.109 225.906C354.109 226.214 354.051 226.519 353.937 226.803C353.823 227.088 353.656 227.346 353.446 227.564C353.235 227.781 352.986 227.954 352.711 228.072C352.436 228.189 352.141 228.25 351.844 228.25C351.546 228.25 351.252 228.189 350.977 228.072C350.702 227.954 350.452 227.781 350.242 227.564C350.031 227.346 349.864 227.088 349.751 226.803C349.637 226.519 349.578 226.214 349.578 225.906C349.578 225.598 349.637 225.294 349.751 225.009C349.864 224.725 350.031 224.467 350.242 224.249C350.452 224.031 350.702 223.859 350.977 223.741C351.252 223.623 351.546 223.562 351.844 223.562Z" fill="#A51D2D"/>
<path d="M351.844 218.875C350.22 218.875 348.597 219.516 347.358 220.797C344.881 223.36 344.881 227.515 347.358 230.078L351.844 234.718C351.844 234.718 354.975 231.479 356.329 230.078C358.807 227.515 358.807 223.36 356.329 220.797C355.091 219.516 353.467 218.875 351.844 218.875ZM351.844 223.094C352.445 223.094 353.021 223.341 353.446 223.78C353.871 224.22 354.109 224.816 354.109 225.437C354.109 226.059 353.871 226.655 353.446 227.095C353.021 227.534 352.445 227.781 351.844 227.781C351.546 227.781 351.252 227.721 350.977 227.603C350.702 227.485 350.452 227.312 350.242 227.095C350.031 226.877 349.864 226.619 349.751 226.334C349.637 226.05 349.578 225.745 349.578 225.437C349.578 225.13 349.637 224.825 349.751 224.541C349.864 224.256 350.031 223.998 350.242 223.78C350.452 223.563 350.702 223.39 350.977 223.272C351.252 223.154 351.546 223.094 351.844 223.094Z" fill="url(#paint51_linear_1_2)"/>
<path d="M353.188 32.3125H324.688C323.376 32.3125 322.312 33.3758 322.312 34.6875V55.4688C322.312 56.7804 323.376 57.8438 324.688 57.8438H353.188C354.499 57.8438 355.562 56.7804 355.562 55.4688V34.6875C355.562 33.3758 354.499 32.3125 353.188 32.3125Z" fill="#F6F5F4"/>
<path d="M322.312 54.875V56.0625C322.312 57.3783 323.372 58.4375 324.688 58.4375H353.188C354.503 58.4375 355.562 57.3783 355.562 56.0625V54.875C355.562 56.1908 354.503 57.25 353.188 57.25H324.688C323.372 57.25 322.312 56.1908 322.312 54.875Z" fill="url(#paint52_linear_1_2)"/>
<path d="M352.673 34.3906H325.327C325.009 34.3906 324.75 34.6491 324.75 34.968V40.9382C324.75 41.2571 325.009 41.5156 325.327 41.5156H352.673C352.991 41.5156 353.25 41.2571 353.25 40.9382V34.968C353.25 34.6491 352.991 34.3906 352.673 34.3906Z" fill="#241F31"/>
<path d="M349.984 34.3906H328.609V41.5156H349.984V34.3906Z" fill="url(#paint53_linear_1_2)"/>
<path opacity="0.623" d="M324.75 37.6562H353.25V38.25H324.75V37.6562Z" fill="#26A269"/>
<path d="M325.047 37.6558C324.968 37.6558 324.893 37.687 324.837 37.7427C324.781 37.7984 324.75 37.8739 324.75 37.9526C324.75 38.0314 324.781 38.1069 324.837 38.1626C324.893 38.2182 324.968 38.2495 325.047 38.2495H349.959C350.038 38.2495 350.114 38.2182 350.169 38.1626C350.225 38.1069 350.256 38.0314 350.256 37.9526C350.256 37.8739 350.225 37.7984 350.169 37.7427C350.114 37.687 350.038 37.6558 349.959 37.6558H325.047Z" fill="#57E389"/>
<path d="M341.672 35.447C341.514 35.447 341.363 35.5096 341.252 35.6209C341.141 35.7323 341.078 35.8833 341.078 36.0408V39.9941C341.078 40.1516 341.141 40.3026 341.252 40.4139C341.363 40.5253 341.514 40.5878 341.672 40.5878C341.829 40.5878 341.98 40.5253 342.092 40.4139C342.203 40.3026 342.266 40.1516 342.266 39.9941V36.0408C342.266 35.8833 342.203 35.7323 342.092 35.6209C341.98 35.5096 341.829 35.447 341.672 35.447ZM346.422 36.028C346.264 36.028 346.113 36.0906 346.002 36.2019C345.891 36.3133 345.828 36.4643 345.828 36.6218V39.4125C345.828 39.57 345.891 39.721 346.002 39.8324C346.113 39.9437 346.264 40.0063 346.422 40.0063C346.579 40.0063 346.73 39.9437 346.842 39.8324C346.953 39.721 347.016 39.57 347.016 39.4125V36.6218C347.016 36.4643 346.953 36.3133 346.842 36.2019C346.73 36.0906 346.579 36.028 346.422 36.028ZM339.297 36.1446C339.139 36.1446 338.988 36.2071 338.877 36.3185C338.766 36.4298 338.703 36.5808 338.703 36.7383V39.2965C338.703 39.454 338.766 39.605 338.877 39.7164C338.988 39.8277 339.139 39.8903 339.297 39.8903C339.454 39.8903 339.605 39.8277 339.717 39.7164C339.828 39.605 339.891 39.454 339.891 39.2965V36.7383C339.891 36.5808 339.828 36.4298 339.717 36.3185C339.605 36.2071 339.454 36.1446 339.297 36.1446ZM344.047 36.3771C343.889 36.3771 343.738 36.4396 343.627 36.551C343.516 36.6623 343.453 36.8134 343.453 36.9708V39.0634C343.453 39.2209 343.516 39.3719 343.627 39.4833C343.738 39.5946 343.889 39.6572 344.047 39.6572C344.204 39.6572 344.355 39.5946 344.467 39.4833C344.578 39.3719 344.641 39.2209 344.641 39.0634V36.9708C344.641 36.8134 344.578 36.6623 344.467 36.551C344.355 36.4396 344.204 36.3771 344.047 36.3771ZM332.172 36.4716C332.014 36.4716 331.863 36.5341 331.752 36.6455C331.641 36.7568 331.578 36.9079 331.578 37.0653V38.9695C331.578 39.127 331.641 39.278 331.752 39.3894C331.863 39.5007 332.014 39.5633 332.172 39.5633C332.329 39.5633 332.48 39.5007 332.592 39.3894C332.703 39.278 332.766 39.127 332.766 38.9695V37.0653C332.766 36.9079 332.703 36.7568 332.592 36.6455C332.48 36.5341 332.329 36.4716 332.172 36.4716ZM336.922 36.6096C336.764 36.6096 336.613 36.6721 336.502 36.7835C336.391 36.8948 336.328 37.0459 336.328 37.2033V38.8309C336.328 38.9884 336.391 39.1394 336.502 39.2508C336.613 39.3621 336.764 39.4247 336.922 39.4247C337.079 39.4247 337.23 39.3621 337.342 39.2508C337.453 39.1394 337.516 38.9884 337.516 38.8309V37.2033C337.516 37.0459 337.453 36.8948 337.342 36.7835C337.23 36.6721 337.079 36.6096 336.922 36.6096ZM334.547 36.7261C334.389 36.7261 334.238 36.7887 334.127 36.9C334.016 37.0114 333.953 37.1624 333.953 37.3199V38.715C333.953 38.8724 334.016 39.0235 334.127 39.1348C334.238 39.2462 334.389 39.3087 334.547 39.3087C334.704 39.3087 334.855 39.2462 334.967 39.1348C335.078 39.0235 335.141 38.8724 335.141 38.715V37.3199C335.141 37.1624 335.078 37.0114 334.967 36.9C334.855 36.7887 334.704 36.7261 334.547 36.7261Z" fill="#33D17A"/>
<path d="M341.672 36.4688C341.514 36.4688 341.363 36.5313 341.252 36.6427C341.141 36.754 341.078 36.905 341.078 37.0625V38.8438C341.078 39.0012 341.141 39.1522 341.252 39.2636C341.363 39.3749 341.514 39.4375 341.672 39.4375C341.829 39.4375 341.98 39.3749 342.092 39.2636C342.203 39.1522 342.266 39.0012 342.266 38.8438V37.0625C342.266 36.905 342.203 36.754 342.092 36.6427C341.98 36.5313 341.829 36.4688 341.672 36.4688ZM339.297 36.9587C339.139 36.9587 338.988 37.0213 338.877 37.1326C338.766 37.244 338.703 37.395 338.703 37.5525V38.4825C338.703 38.64 338.766 38.791 338.877 38.9024C338.988 39.0137 339.139 39.0763 339.297 39.0763C339.454 39.0763 339.605 39.0137 339.717 38.9024C339.828 38.791 339.891 38.64 339.891 38.4825V37.5525C339.891 37.395 339.828 37.244 339.717 37.1326C339.605 37.0213 339.454 36.9587 339.297 36.9587ZM344.047 36.9587C343.889 36.9587 343.738 37.0213 343.627 37.1326C343.516 37.244 343.453 37.395 343.453 37.5525V38.4825C343.453 38.64 343.516 38.791 343.627 38.9024C343.738 39.0137 343.889 39.0763 344.047 39.0763C344.204 39.0763 344.355 39.0137 344.467 38.9024C344.578 38.791 344.641 38.64 344.641 38.4825V37.5525C344.641 37.395 344.578 37.244 344.467 37.1326C344.355 37.0213 344.204 36.9587 344.047 36.9587ZM346.422 37.0753C346.264 37.0753 346.113 37.1378 346.002 37.2492C345.891 37.3605 345.828 37.5115 345.828 37.669V38.3665C345.828 38.524 345.891 38.675 346.002 38.7864C346.113 38.8977 346.264 38.9603 346.422 38.9603C346.579 38.9603 346.73 38.8977 346.842 38.7864C346.953 38.675 347.016 38.524 347.016 38.3665V37.669C347.016 37.5115 346.953 37.3605 346.842 37.2492C346.73 37.1378 346.579 37.0753 346.422 37.0753ZM334.547 37.1912C334.389 37.1912 334.238 37.2538 334.127 37.3651C334.016 37.4765 333.953 37.6275 333.953 37.785V38.25C333.953 38.4075 334.016 38.5585 334.127 38.6698C334.238 38.7812 334.389 38.8438 334.547 38.8438C334.704 38.8438 334.855 38.7812 334.967 38.6698C335.078 38.5585 335.141 38.4075 335.141 38.25V37.785C335.141 37.6275 335.078 37.4765 334.967 37.3651C334.855 37.2538 334.704 37.1912 334.547 37.1912ZM332.172 37.2683C332.014 37.2683 331.863 37.3309 331.752 37.4422C331.641 37.5536 331.578 37.7046 331.578 37.8621V38.1729C331.578 38.3304 331.641 38.4814 331.752 38.5927C331.863 38.7041 332.014 38.7666 332.172 38.7666C332.329 38.7666 332.48 38.7041 332.592 38.5927C332.703 38.4814 332.766 38.3304 332.766 38.1729V37.8621C332.766 37.7046 332.703 37.5536 332.592 37.4422C332.48 37.3309 332.329 37.2683 332.172 37.2683ZM336.922 37.3089C336.764 37.3089 336.613 37.3715 336.502 37.4828C336.391 37.5942 336.328 37.7452 336.328 37.9027V38.3416C336.328 38.4991 336.391 38.6501 336.502 38.7615C336.613 38.8728 336.764 38.9354 336.922 38.9354C337.079 38.9354 337.23 38.8728 337.342 38.7615C337.453 38.6501 337.516 38.4991 337.516 38.3416V37.9027C337.516 37.7452 337.453 37.5942 337.342 37.4828C337.23 37.3715 337.079 37.3089 336.922 37.3089Z" fill="#F9F06B"/>
<path d="M339 43V54.875H352.358C352.475 54.8752 352.591 54.8523 352.699 54.8076C352.808 54.7628 352.906 54.6971 352.989 54.6141C353.072 54.5312 353.138 54.4328 353.183 54.3244C353.227 54.216 353.25 54.0999 353.25 53.9826V43.8924C353.25 43.7751 353.227 43.659 353.183 43.5506C353.138 43.4422 353.072 43.3438 352.989 43.2609C352.906 43.1779 352.808 43.1122 352.699 43.0675C352.591 43.0227 352.475 42.9998 352.358 43H339Z" fill="url(#paint54_linear_1_2)"/>
<path d="M339 41.5156V53.3906H352.358C352.475 53.3909 352.591 53.3679 352.699 53.3232C352.808 53.2784 352.906 53.2127 352.989 53.1298C353.072 53.0469 353.138 52.9484 353.183 52.84C353.227 52.7316 353.25 52.6155 353.25 52.4982V42.408C353.25 42.2908 353.227 42.1746 353.183 42.0662C353.138 41.9579 353.072 41.8594 352.989 41.7765C352.906 41.6936 352.808 41.6278 352.699 41.5831C352.591 41.5383 352.475 41.5154 352.358 41.5156H339Z" fill="#F6F6F6"/>
<path d="M339 43V54.875H325.642C325.525 54.8752 325.409 54.8523 325.301 54.8076C325.192 54.7628 325.094 54.6971 325.011 54.6141C324.928 54.5312 324.862 54.4328 324.817 54.3244C324.773 54.216 324.75 54.0999 324.75 53.9826V43.8924C324.75 43.7751 324.773 43.659 324.817 43.5506C324.862 43.4422 324.928 43.3438 325.011 43.2609C325.094 43.1779 325.192 43.1122 325.301 43.0675C325.409 43.0227 325.525 42.9998 325.642 43H339Z" fill="url(#paint55_linear_1_2)"/>
<path d="M339 42.4063V54.2813H325.642C325.525 54.2815 325.409 54.2586 325.301 54.2138C325.192 54.169 325.094 54.1033 325.011 54.0204C324.928 53.9375 324.862 53.839 324.817 53.7306C324.773 53.6223 324.75 53.5061 324.75 53.3888V43.2987C324.75 43.1814 324.773 43.0652 324.817 42.9569C324.862 42.8485 324.928 42.75 325.011 42.6671C325.094 42.5842 325.192 42.5185 325.301 42.4737C325.409 42.4289 325.525 42.406 325.642 42.4063H339Z" fill="#E01B24"/>
<path d="M331.875 51.0156C333.187 51.0156 334.25 49.9523 334.25 48.6406C334.25 47.3289 333.187 46.2656 331.875 46.2656C330.563 46.2656 329.5 47.3289 329.5 48.6406C329.5 49.9523 330.563 51.0156 331.875 51.0156Z" fill="white"/>
<path d="M341.375 45.0781V49.8281L346.125 47.4531L341.375 45.0781ZM346.125 45.0781H347.609V49.8281H346.125V45.0781ZM348.5 45.0781H349.984V49.8281H348.5V45.0781Z" fill="#241F31"/>
<path d="M349.688 34.3906H350.281V41.5156H349.688V34.3906Z" fill="#8FF0A4"/>
<path d="M325.328 34.3906C325.252 34.3905 325.177 34.4053 325.107 34.4343C325.036 34.4632 324.973 34.5057 324.919 34.5594C324.865 34.613 324.823 34.6767 324.794 34.7469C324.765 34.817 324.75 34.8922 324.75 34.9681V35.5618C324.75 35.2421 325.008 34.9844 325.328 34.9844H352.673C352.993 34.9844 353.25 35.2421 353.25 35.5618V34.9681C353.25 34.8922 353.236 34.817 353.207 34.7469C353.178 34.6768 353.135 34.6131 353.081 34.5595C353.028 34.5058 352.964 34.4633 352.894 34.4343C352.824 34.4054 352.749 34.3905 352.673 34.3906H325.328Z" fill="#241F31" fill-opacity="0.374"/>
</g>
</g>
</g>
<defs>
<filter id="filter0_d_1_2" x="149.694" y="0.127716" width="292.708" height="288.206" filterUnits="userSpaceOnUse" color-interpolation-filters="sRGB">
<feFlood flood-opacity="0" result="BackgroundImageFix"/>
<feColorMatrix in="SourceAlpha" type="matrix" values="0 0 0 0 0 0 0 0 0 0 0 0 0 0 0 0 0 0 127 0" result="hardAlpha"/>
<feOffset/>
<feGaussianBlur stdDeviation="47"/>
<feComposite in2="hardAlpha" operator="out"/>
<feColorMatrix type="matrix" values="0 0 0 0 0 0 0 0 0 0 0 0 0 0 0 0 0 0 0.25 0"/>
<feBlend mode="normal" in2="BackgroundImageFix" result="effect1_dropShadow_1_2"/>
<feBlend mode="normal" in="SourceGraphic" in2="effect1_dropShadow_1_2" result="shape"/>
</filter>
<filter id="filter1_f_1_2" x="455.929" y="240.318" width="9.35547" height="9.35547" filterUnits="userSpaceOnUse" color-interpolation-filters="sRGB">
<feFlood flood-opacity="0" result="BackgroundImageFix"/>
<feBlend mode="normal" in="SourceGraphic" in2="BackgroundImageFix" result="shape"/>
<feGaussianBlur stdDeviation="0.212616" result="effect1_foregroundBlur_1_2"/>
</filter>
<filter id="filter2_f_1_2" x="120.445" y="83.2052" width="15.4246" height="15.4245" filterUnits="userSpaceOnUse" color-interpolation-filters="sRGB">
<feFlood flood-opacity="0" result="BackgroundImageFix"/>
<feBlend mode="normal" in="SourceGraphic" in2="BackgroundImageFix" result="shape"/>
<feGaussianBlur stdDeviation="0.707139" result="effect1_foregroundBlur_1_2"/>
</filter>
<linearGradient id="paint0_linear_1_2" x1="133.422" y1="150.001" x2="535" y2="150.001" gradientUnits="userSpaceOnUse">
<stop stop-color="#7D68FF"/>
<stop offset="0.291658" stop-color="#B75CFF"/>
<stop offset="1" stop-color="#FF985E"/>
</linearGradient>
<linearGradient id="paint1_linear_1_2" x1="296.35" y1="94.1282" x2="295.952" y2="151.139" gradientUnits="userSpaceOnUse">
<stop stop-color="#FFFB64"/>
<stop offset="1" stop-color="#FFBF48"/>
</linearGradient>
<linearGradient id="paint2_linear_1_2" x1="296.35" y1="94.1281" x2="295.952" y2="151.139" gradientUnits="userSpaceOnUse">
<stop stop-color="#FDE14E"/>
<stop offset="1" stop-color="#F9A731"/>
</linearGradient>
<linearGradient id="paint3_linear_1_2" x1="348.429" y1="129.016" x2="295.91" y2="151.201" gradientUnits="userSpaceOnUse">
<stop stop-color="#FFFB64"/>
<stop offset="1" stop-color="#FFBF48"/>
</linearGradient>
<linearGradient id="paint4_linear_1_2" x1="348.428" y1="129.016" x2="295.91" y2="151.201" gradientUnits="userSpaceOnUse">
<stop stop-color="#FDE14E"/>
<stop offset="1" stop-color="#F9A731"/>
</linearGradient>
<linearGradient id="paint5_linear_1_2" x1="257.17" y1="192.991" x2="295.833" y2="151.092" gradientUnits="userSpaceOnUse">
<stop stop-color="#FFFB64"/>
<stop offset="1" stop-color="#FFBF48"/>
</linearGradient>
<linearGradient id="paint6_linear_1_2" x1="257.17" y1="192.991" x2="295.834" y2="151.092" gradientUnits="userSpaceOnUse">
<stop stop-color="#FDE14E"/>
<stop offset="1" stop-color="#F9A731"/>
</linearGradient>
<linearGradient id="paint7_linear_1_2" x1="333.535" y1="193.948" x2="295.833" y2="151.183" gradientUnits="userSpaceOnUse">
<stop stop-color="#FFFB64"/>
<stop offset="1" stop-color="#FFBF48"/>
</linearGradient>
<linearGradient id="paint8_linear_1_2" x1="333.535" y1="193.948" x2="295.833" y2="151.183" gradientUnits="userSpaceOnUse">
<stop stop-color="#FDE14E"/>
<stop offset="1" stop-color="#F9A731"/>
</linearGradient>
<linearGradient id="paint9_linear_1_2" x1="243.722" y1="128.128" x2="295.911" y2="151.076" gradientUnits="userSpaceOnUse">
<stop stop-color="#FFFB64"/>
<stop offset="1" stop-color="#FFBF48"/>
</linearGradient>
<linearGradient id="paint10_linear_1_2" x1="243.721" y1="128.128" x2="295.911" y2="151.076" gradientUnits="userSpaceOnUse">
<stop stop-color="#FDE14E"/>
<stop offset="1" stop-color="#F9A731"/>
</linearGradient>
<linearGradient id="paint11_linear_1_2" x1="462.028" y1="227.268" x2="440.76" y2="227.268" gradientUnits="userSpaceOnUse">
<stop stop-color="#77767B"/>
<stop offset="0.733" stop-color="#9A9996"/>
<stop offset="0.833" stop-color="#F6F5F4"/>
<stop offset="0.933" stop-color="#ADACAA"/>
<stop offset="1" stop-color="#77767B"/>
</linearGradient>
<linearGradient id="paint12_linear_1_2" x1="459.193" y1="227.268" x2="480.461" y2="227.268" gradientUnits="userSpaceOnUse">
<stop stop-color="#77767B"/>
<stop offset="0.733" stop-color="#9A9996"/>
<stop offset="0.833" stop-color="#F6F5F4"/>
<stop offset="0.933" stop-color="#ADACAA"/>
<stop offset="1" stop-color="#77767B"/>
</linearGradient>
<radialGradient id="paint13_radial_1_2" cx="0" cy="0" r="1" gradientUnits="userSpaceOnUse" gradientTransform="translate(460.611 254.206) scale(34.0285 34.0285)">
<stop stop-color="#C0BFBC"/>
<stop offset="0.874" stop-color="#DEDDDA"/>
<stop offset="0.917" stop-color="#B1B0AD"/>
<stop offset="1" stop-color="#77767B"/>
</radialGradient>
<linearGradient id="paint14_linear_1_2" x1="466.282" y1="279.729" x2="466.282" y2="234.357" gradientUnits="userSpaceOnUse">
<stop stop-color="#241F31"/>
<stop offset="1" stop-color="#3D3846"/>
</linearGradient>
<linearGradient id="paint15_linear_1_2" x1="460.611" y1="248.539" x2="460.611" y2="259.883" gradientUnits="userSpaceOnUse">
<stop stop-color="#F2F2F2"/>
<stop offset="1" stop-color="#808080" stop-opacity="0.8"/>
</linearGradient>
<radialGradient id="paint16_radial_1_2" cx="0" cy="0" r="1" gradientUnits="userSpaceOnUse" gradientTransform="translate(460.609 222.307) rotate(0.413912) scale(19.5845 19.1417)">
<stop stop-color="#77767B"/>
<stop offset="0.733" stop-color="#9A9996"/>
<stop offset="0.833" stop-color="#F6F5F4"/>
<stop offset="0.933" stop-color="#ADACAA"/>
<stop offset="1" stop-color="#77767B"/>
</radialGradient>
<linearGradient id="paint17_linear_1_2" x1="382.613" y1="178.947" x2="381.85" y2="179.711" gradientUnits="userSpaceOnUse">
<stop stop-color="#E9B96E"/>
<stop offset="1" stop-color="#DC9321"/>
</linearGradient>
<linearGradient id="paint18_linear_1_2" x1="388.133" y1="186.368" x2="388.981" y2="185.519" gradientUnits="userSpaceOnUse">
<stop stop-color="#BCBCB4"/>
<stop offset="1" stop-color="#EEEEEC"/>
</linearGradient>
<radialGradient id="paint19_radial_1_2" cx="0" cy="0" r="1" gradientUnits="userSpaceOnUse" gradientTransform="translate(389.678 184.788) scale(5.54443 5.54441)">
<stop stop-color="#505050"/>
<stop offset="1"/>
</radialGradient>
<linearGradient id="paint20_linear_1_2" x1="401.526" y1="56.3024" x2="432.195" y2="56.3024" gradientUnits="userSpaceOnUse">
<stop stop-color="#FBF3AA"/>
<stop offset="0.063" stop-color="#FCF5B4"/>
<stop offset="0.156" stop-color="#F5E111"/>
<stop offset="0.289" stop-color="#B1A208"/>
<stop offset="0.367" stop-color="#2C9387"/>
<stop offset="0.653" stop-color="#6ED2CA"/>
<stop offset="0.852" stop-color="#2DC0AF" stop-opacity="0.960784"/>
<stop offset="0.958" stop-color="#A2E9E1" stop-opacity="0.960784"/>
<stop offset="1" stop-color="#249D8F" stop-opacity="0.960784"/>
</linearGradient>
<linearGradient id="paint21_linear_1_2" x1="405.25" y1="39.4389" x2="412.937" y2="25.5854" gradientUnits="userSpaceOnUse">
<stop stop-color="#C061CB"/>
<stop offset="1" stop-color="#8F58C8"/>
</linearGradient>
<linearGradient id="paint22_linear_1_2" x1="415.5" y1="46.0856" x2="420.625" y2="33.2731" gradientUnits="userSpaceOnUse">
<stop stop-color="#2DC0AF"/>
<stop offset="1" stop-color="#3584E4"/>
</linearGradient>
<linearGradient id="paint23_linear_1_2" x1="412.938" y1="43.523" x2="395.001" y2="40.9605" gradientUnits="userSpaceOnUse">
<stop stop-color="white"/>
<stop offset="1" stop-color="white" stop-opacity="0"/>
</linearGradient>
<linearGradient id="paint24_linear_1_2" x1="432.029" y1="39.1219" x2="420.587" y2="40.5299" gradientUnits="userSpaceOnUse">
<stop stop-color="#2DC0AF"/>
<stop offset="1" stop-color="#5ED9CB"/>
</linearGradient>
<linearGradient id="paint25_linear_1_2" x1="403.1" y1="53.687" x2="407.602" y2="43.0744" gradientUnits="userSpaceOnUse">
<stop stop-color="#F9F06B"/>
<stop offset="1" stop-color="#F6D32D"/>
</linearGradient>
<linearGradient id="paint26_linear_1_2" x1="495.265" y1="76.8722" x2="540.428" y2="76.8722" gradientUnits="userSpaceOnUse">
<stop stop-color="#DEDDDA"/>
<stop offset="0.045" stop-color="#EEEEEC"/>
<stop offset="0.091" stop-color="#DEDDDA"/>
<stop offset="0.909" stop-color="#DEDDDA"/>
<stop offset="0.955" stop-color="#EEEEEC"/>
<stop offset="1" stop-color="#C0BFBC"/>
</linearGradient>
<linearGradient id="paint27_linear_1_2" x1="511.688" y1="65.5814" x2="524.005" y2="65.5814" gradientUnits="userSpaceOnUse">
<stop stop-color="#DEDDDA"/>
<stop offset="0.045" stop-color="#EEEEEC"/>
<stop offset="0.091" stop-color="#DEDDDA"/>
<stop offset="0.909" stop-color="#DEDDDA"/>
<stop offset="0.955" stop-color="#EEEEEC"/>
<stop offset="1" stop-color="#C0BFBC"/>
</linearGradient>
<linearGradient id="paint28_linear_1_2" x1="518.359" y1="59.423" x2="518.359" y2="57.3701" gradientUnits="userSpaceOnUse">
<stop stop-color="#9A9996"/>
<stop offset="1" stop-color="#C0BFBC"/>
</linearGradient>
<linearGradient id="paint29_linear_1_2" x1="511.688" y1="82.0047" x2="524.005" y2="82.0047" gradientUnits="userSpaceOnUse">
<stop stop-color="#DEDDDA"/>
<stop offset="0.045" stop-color="#EEEEEC"/>
<stop offset="0.091" stop-color="#DEDDDA"/>
<stop offset="0.909" stop-color="#DEDDDA"/>
<stop offset="0.955" stop-color="#EEEEEC"/>
<stop offset="1" stop-color="#C0BFBC"/>
</linearGradient>
<linearGradient id="paint30_linear_1_2" x1="518.359" y1="75.8459" x2="518.359" y2="73.793" gradientUnits="userSpaceOnUse">
<stop stop-color="#9A9996"/>
<stop offset="1" stop-color="#C0BFBC"/>
</linearGradient>
<linearGradient id="paint31_linear_1_2" x1="511.688" y1="98.4278" x2="524.005" y2="98.4278" gradientUnits="userSpaceOnUse">
<stop stop-color="#DEDDDA"/>
<stop offset="0.045" stop-color="#EEEEEC"/>
<stop offset="0.091" stop-color="#DEDDDA"/>
<stop offset="0.909" stop-color="#DEDDDA"/>
<stop offset="0.955" stop-color="#EEEEEC"/>
<stop offset="1" stop-color="#C0BFBC"/>
</linearGradient>
<linearGradient id="paint32_linear_1_2" x1="518.359" y1="92.2692" x2="518.359" y2="90.2163" gradientUnits="userSpaceOnUse">
<stop stop-color="#9A9996"/>
<stop offset="1" stop-color="#C0BFBC"/>
</linearGradient>
<linearGradient id="paint33_linear_1_2" x1="131.656" y1="74.8354" x2="85.3438" y2="74.8354" gradientUnits="userSpaceOnUse">
<stop stop-color="#D5D3CF"/>
<stop offset="0.038" stop-color="#F6F5F4"/>
<stop offset="0.077" stop-color="#D5D3CF"/>
<stop offset="0.923" stop-color="#D5D3CF"/>
<stop offset="0.962" stop-color="#EEEEEC"/>
<stop offset="1" stop-color="#D5D3CF"/>
</linearGradient>
<linearGradient id="paint34_linear_1_2" x1="101.375" y1="62.0332" x2="120.857" y2="91.3125" gradientUnits="userSpaceOnUse">
<stop stop-color="#F3F2F0"/>
<stop offset="1" stop-color="#F9F8F7"/>
</linearGradient>
<linearGradient id="paint35_linear_1_2" x1="126.758" y1="88.6274" x2="126.312" y2="88.1821" gradientUnits="userSpaceOnUse">
<stop stop-color="#D5D3CF"/>
<stop offset="1" stop-color="#FEFEFE"/>
</linearGradient>
<linearGradient id="paint36_linear_1_2" x1="166.969" y1="261.664" x2="170.406" y2="261.664" gradientUnits="userSpaceOnUse">
<stop stop-color="#DEDDDA"/>
<stop offset="0.511049" stop-color="white"/>
<stop offset="1" stop-color="#C0BFBC"/>
</linearGradient>
<linearGradient id="paint37_linear_1_2" x1="417" y1="137.75" x2="460.999" y2="137.75" gradientUnits="userSpaceOnUse">
<stop stop-color="#3D3846"/>
<stop offset="0.109375" stop-color="#9A9996"/>
<stop offset="0.235497" stop-color="#5E5C64"/>
<stop offset="0.765625" stop-color="#5E5C64"/>
<stop offset="0.890625" stop-color="#9A9996"/>
<stop offset="1" stop-color="#3D3846"/>
</linearGradient>
<linearGradient id="paint38_linear_1_2" x1="432.125" y1="136.375" x2="432.125" y2="130.875" gradientUnits="userSpaceOnUse">
<stop stop-color="#9A9996"/>
<stop offset="1" stop-color="#9A9996" stop-opacity="0"/>
</linearGradient>
<linearGradient id="paint39_linear_1_2" x1="445.875" y1="136.375" x2="445.875" y2="130.875" gradientUnits="userSpaceOnUse">
<stop stop-color="#9A9996"/>
<stop offset="1" stop-color="#9A9996" stop-opacity="0"/>
</linearGradient>
<linearGradient id="paint40_linear_1_2" x1="191" y1="195" x2="223" y2="195" gradientUnits="userSpaceOnUse">
<stop stop-color="#3D3846"/>
<stop offset="0.05" stop-color="#77767B"/>
<stop offset="0.1" stop-color="#5E5C64"/>
<stop offset="0.899999" stop-color="#504E56"/>
<stop offset="0.95" stop-color="#77767B"/>
<stop offset="1" stop-color="#3D3846"/>
</linearGradient>
<linearGradient id="paint41_linear_1_2" x1="191" y1="193.769" x2="221.782" y2="200.227" gradientUnits="userSpaceOnUse">
<stop stop-color="#77767B"/>
<stop offset="0.384443" stop-color="#9A9996"/>
<stop offset="0.720567" stop-color="#77767B"/>
<stop offset="1" stop-color="#68666F"/>
</linearGradient>
<linearGradient id="paint42_linear_1_2" x1="255.482" y1="41.1744" x2="257.989" y2="41.1744" gradientUnits="userSpaceOnUse">
<stop stop-color="#16529C"/>
<stop offset="1" stop-color="#236AC0"/>
</linearGradient>
<linearGradient id="paint43_linear_1_2" x1="245.455" y1="43.1799" x2="234.425" y2="43.1799" gradientUnits="userSpaceOnUse">
<stop stop-color="#2166BB"/>
<stop offset="1" stop-color="#89EDA9"/>
</linearGradient>
<linearGradient id="paint44_linear_1_2" x1="268.812" y1="257.771" x2="275" y2="267.75" gradientUnits="userSpaceOnUse">
<stop stop-color="#613583"/>
<stop offset="1" stop-color="#A347BA"/>
</linearGradient>
<linearGradient id="paint45_linear_1_2" x1="281.188" y1="250.428" x2="275" y2="240.25" gradientUnits="userSpaceOnUse">
<stop stop-color="#E5A50A"/>
<stop offset="1" stop-color="#F6D32D"/>
</linearGradient>
<linearGradient id="paint46_linear_1_2" x1="268.812" y1="250.428" x2="262.625" y2="261.145" gradientUnits="userSpaceOnUse">
<stop stop-color="#1A5FB4"/>
<stop offset="1" stop-color="#3584E4"/>
</linearGradient>
<linearGradient id="paint47_linear_1_2" x1="281.187" y1="257.573" x2="287.375" y2="247.125" gradientUnits="userSpaceOnUse">
<stop stop-color="#C64600"/>
<stop offset="1" stop-color="#FF7800"/>
</linearGradient>
<linearGradient id="paint48_linear_1_2" x1="274.999" y1="246.855" x2="262.625" y2="246.855" gradientUnits="userSpaceOnUse">
<stop stop-color="#26A269"/>
<stop offset="1" stop-color="#33D17A"/>
</linearGradient>
<linearGradient id="paint49_linear_1_2" x1="275.172" y1="261.244" x2="287.375" y2="261.562" gradientUnits="userSpaceOnUse">
<stop stop-color="#A51D2D"/>
<stop offset="1" stop-color="#E01B24"/>
</linearGradient>
<linearGradient id="paint50_linear_1_2" x1="351.844" y1="222.625" x2="351.844" y2="228.25" gradientUnits="userSpaceOnUse">
<stop stop-color="#A51D2D"/>
<stop offset="1" stop-color="#CE1921"/>
</linearGradient>
<linearGradient id="paint51_linear_1_2" x1="351.844" y1="233.055" x2="351.844" y2="218.875" gradientUnits="userSpaceOnUse">
<stop stop-color="#D81D25"/>
<stop offset="1" stop-color="#F66151"/>
</linearGradient>
<linearGradient id="paint52_linear_1_2" x1="322.312" y1="54.875" x2="355.562" y2="54.875" gradientUnits="userSpaceOnUse">
<stop stop-color="#D5D3CF"/>
<stop offset="0.036" stop-color="#E4E1DE"/>
<stop offset="0.071" stop-color="#D5D3CF"/>
<stop offset="0.929" stop-color="#D5D3CF"/>
<stop offset="0.964" stop-color="#E4E1DE"/>
<stop offset="1" stop-color="#D5D3CF"/>
</linearGradient>
<linearGradient id="paint53_linear_1_2" x1="349.687" y1="39.1406" x2="335.437" y2="39.1406" gradientUnits="userSpaceOnUse">
<stop stop-color="#26A269"/>
<stop offset="1" stop-color="#26A269" stop-opacity="0"/>
</linearGradient>
<linearGradient id="paint54_linear_1_2" x1="353.51" y1="54.541" x2="335.994" y2="54.541" gradientUnits="userSpaceOnUse">
<stop stop-color="#D5D3CF"/>
<stop offset="0.036" stop-color="#E4E1DE"/>
<stop offset="0.071" stop-color="#D5D3CF"/>
<stop offset="0.929" stop-color="#D5D3CF"/>
<stop offset="0.964" stop-color="#E4E1DE"/>
<stop offset="1" stop-color="#D5D3CF"/>
</linearGradient>
<linearGradient id="paint55_linear_1_2" x1="325.047" y1="51.5352" x2="326.086" y2="51.5352" gradientUnits="userSpaceOnUse">
<stop stop-color="#E54B57"/>
<stop offset="1" stop-color="#A51D2D"/>
</linearGradient>
<clipPath id="clip0_1_2">
<rect width="600" height="300" fill="white"/>
</clipPath>
</defs>
</svg>
