<svg width="600" height="300" viewBox="0 0 600 300" fill="none" xmlns="http://www.w3.org/2000/svg">
<path d="M12 219C12 210.164 19.2346 203 28.1589 203H541.841C550.765 203 558 210.164 558 219C558 227.836 550.765 235 541.841 235H536C527.076 235 519.842 242.387 519.842 251.5C519.842 260.613 527.076 268 536 268H571.846C580.768 268 588 275.164 588 284C588 292.836 580.768 300 571.846 300H44.1538C35.2323 300 28 292.836 28 284C28 275.164 35.2323 268 44.1538 268H50.7008C50.6677 268 50.6346 268 50.6016 268C59.6675 267.945 67.0001 260.579 67.0001 251.5C67.0001 242.421 59.6675 235.055 50.6016 235C50.6346 235 50.6677 235 50.7008 235H28.1589C19.2346 235 12 227.836 12 219Z" fill="url(#paint0_linear_1_25)"/>
<path d="M440 230H484V261.721C484 262.979 482.967 264 481.694 264H442.306C441.033 264 440 262.979 440 261.721V230Z" fill="#CDAB8F"/>
<path d="M440 230H484V223.212C484 221.991 482.967 221 481.694 221H442.306C441.033 221 440 221.991 440 223.212V230Z" fill="#DFC8B4"/>
<path d="M468 221H456V230H468V221Z" fill="#B5835A"/>
<path d="M456 242V230H468V237.079L456 242Z" fill="#986A44"/>
<mask id="mask0_1_25" style="mask-type:alpha" maskUnits="userSpaceOnUse" x="107" y="117" width="341" height="159">
<path d="M440.944 117.365H114.561C110.806 117.365 107.762 120.411 107.762 124.169V268.523C107.762 272.28 110.806 275.326 114.561 275.326H440.944C444.699 275.326 447.743 272.28 447.743 268.523V124.169C447.743 120.411 444.699 117.365 440.944 117.365Z" fill="#3584E4"/>
</mask>
<g mask="url(#mask0_1_25)">
<path d="M447.743 143.316H107.762V275.326H447.743V143.316Z" fill="#8C6C5A"/>
<path d="M447.743 143.316H107.762V117.365H447.743V143.316Z" fill="url(#paint1_linear_1_25)"/>
<path d="M121.361 150.086H114.561V268.557H121.361V150.086Z" fill="#745747"/>
<path d="M145.16 150.086H138.36V268.557H145.16V150.086Z" fill="#745747"/>
<path d="M168.958 150.086H162.159V268.557H168.958V150.086Z" fill="#745747"/>
<path d="M192.757 150.086H185.958V268.557H192.757V150.086Z" fill="#745747"/>
<path d="M216.556 150.086H209.756V268.557H216.556V150.086Z" fill="#745747"/>
<path d="M240.355 150.086H233.555V268.557H240.355V150.086Z" fill="#745747"/>
<path d="M264.153 150.086H257.354V268.557H264.153V150.086Z" fill="#745747"/>
<path d="M287.952 150.086H281.152V268.557H287.952V150.086Z" fill="#745747"/>
<path d="M311.751 150.086H304.951V268.557H311.751V150.086Z" fill="#745747"/>
<path d="M335.549 150.086H328.75V268.557H335.549V150.086Z" fill="#745747"/>
<path d="M359.348 150.086H352.548V268.557H359.348V150.086Z" fill="#745747"/>
<path d="M383.147 150.086H376.347V268.557H383.147V150.086Z" fill="#745747"/>
<path d="M406.946 150.086H400.146V268.557H406.946V150.086Z" fill="#745747"/>
<path d="M430.744 150.086H423.945V268.557H430.744V150.086Z" fill="#745747"/>
<path d="M131.56 150.086H128.16V268.557H131.56V150.086Z" fill="#A58171"/>
<path d="M155.359 150.086H151.959V268.557H155.359V150.086Z" fill="#A58171"/>
<path d="M179.158 150.086H175.758V268.557H179.158V150.086Z" fill="#A58171"/>
<path d="M202.957 150.086H199.557V268.557H202.957V150.086Z" fill="#A58171"/>
<path d="M226.755 150.086H223.355V268.557H226.755V150.086Z" fill="#A58171"/>
<path d="M250.554 150.086H247.154V268.557H250.554V150.086Z" fill="#A58171"/>
<path d="M274.353 150.086H270.953V268.557H274.353V150.086Z" fill="#A58171"/>
<path d="M298.152 150.086H294.752V268.557H298.152V150.086Z" fill="#A58171"/>
<path d="M321.95 150.086H318.55V268.557H321.95V150.086Z" fill="#A58171"/>
<path d="M345.749 150.086H342.349V268.557H345.749V150.086Z" fill="#A58171"/>
<path d="M369.548 150.086H366.148V268.557H369.548V150.086Z" fill="#A58171"/>
<path d="M393.346 150.086H389.947V268.557H393.346V150.086Z" fill="#A58171"/>
<path d="M417.145 150.086H413.745V268.557H417.145V150.086Z" fill="#A58171"/>
<path d="M440.944 150.086H437.544V268.557H440.944V150.086Z" fill="#A58171"/>
<path d="M440.944 265.736H114.561V268.557H440.944V265.736Z" fill="#A58171"/>
<path d="M440.944 150.086H114.561V152.907H440.944V150.086Z" fill="#745747"/>
</g>
<path d="M99 247H143V278.721C143 279.98 141.967 281 140.694 281H101.306C100.033 281 99 279.98 99 278.721V247Z" fill="#CDAB8F"/>
<path d="M99 247H143V240.212C143 238.99 141.967 238 140.694 238H101.306C100.033 238 99 238.99 99 240.212V247Z" fill="#DFC8B4"/>
<path d="M127 238H115V247H127V238Z" fill="#B5835A"/>
<path d="M115 256V247H127V250.703L115 256Z" fill="#986A44"/>
<path d="M149 247H192V278.721C192 279.979 190.991 281 189.746 281H151.254C150.008 281 149 279.979 149 278.721V247Z" fill="#CDAB8F"/>
<path d="M149 247H192V240.212C192 238.991 190.991 238 189.746 238H151.254C150.008 238 149 238.991 149 240.212V247Z" fill="#DFC8B4"/>
<path d="M176 238H164V247H176V238Z" fill="#B5835A"/>
<path d="M164 254V247H176V249.125L164 254Z" fill="#986A44"/>
<path d="M124 210H167V241.721C167 242.979 165.991 244 164.746 244H126.254C125.009 244 124 242.979 124 241.721V210Z" fill="#CDAB8F"/>
<path d="M136.444 218.444C137.035 217.852 137.995 217.852 138.586 218.444L154.556 234.414C155.148 235.005 155.148 235.965 154.556 236.556C153.964 237.148 153.005 237.148 152.414 236.556L136.444 220.586C135.852 219.995 135.852 219.035 136.444 218.444Z" fill="#B28A69"/>
<path d="M136.444 236.556C135.852 235.965 135.852 235.005 136.444 234.414L152.414 218.444C153.005 217.852 153.964 217.852 154.556 218.444C155.148 219.035 155.148 219.995 154.556 220.586L138.586 236.556C137.995 237.148 137.036 237.148 136.444 236.556Z" fill="#C19C7D"/>
<path d="M124 210H167V203.212C167 201.991 165.991 201 164.746 201H126.254C125.009 201 124 201.991 124 203.212V210Z" fill="#DFC8B4"/>
<path d="M152 201H139V210H152V201Z" fill="#B5835A"/>
<path d="M139 217V210H152V212.612L139 217Z" fill="#986A44"/>
<g opacity="0.5">
<path d="M128.707 261.313V270.413L120.83 274.963V265.863L128.707 261.313Z" fill="#986A44"/>
<path d="M120.831 265.863V256.763L112.955 261.313L120.831 265.863Z" fill="#986A44"/>
<path d="M113.307 259.998C112.493 260.468 111.993 261.335 111.993 262.276V269.45C111.993 270.391 112.493 271.258 113.307 271.728L119.516 275.315C120.331 275.786 121.331 275.786 122.146 275.315L128.355 271.728C129.169 271.258 129.669 270.391 129.669 269.45V262.276C129.669 261.335 129.169 260.468 128.355 259.998L122.146 256.41C121.331 255.94 120.331 255.94 119.516 256.41L113.307 259.998ZM121.184 258.079L127.392 261.666C127.609 261.791 127.745 262.025 127.745 262.276V269.45C127.745 269.7 127.609 269.935 127.392 270.06L121.184 273.647C120.966 273.772 120.696 273.772 120.479 273.647L114.27 270.06C114.053 269.935 113.918 269.7 113.918 269.45V262.276C113.918 262.025 114.053 261.791 114.27 261.666L120.479 258.079C120.696 257.953 120.966 257.953 121.184 258.079Z" fill="#986A44"/>
</g>
<path opacity="0.5" fill-rule="evenodd" clip-rule="evenodd" d="M162.031 255H177.97C178.539 255 179 255.487 179 256.088V272.912C179 273.513 178.539 274 177.97 274H162.031C161.461 274 161 273.513 161 272.912V256.088C161 255.487 161.461 255 162.031 255ZM168.616 259.644V256.721H171.385V259.644H172.856L170.001 263.054L167.145 259.644H168.616ZM169.51 263.861C169.51 263.685 169.56 263.542 169.64 263.542H170.649C170.729 263.542 170.779 263.685 170.779 263.861V264.973C171.1 265.05 171.403 265.188 171.673 265.369L172.423 264.577C172.541 264.452 172.67 264.396 172.726 264.455L173.433 265.201C173.489 265.261 173.436 265.396 173.318 265.521L172.568 266.312C172.738 266.598 172.869 266.917 172.942 267.256H173.995C174.162 267.256 174.299 267.309 174.299 267.393V268.459C174.299 268.543 174.162 268.596 173.995 268.596H172.942C172.869 268.935 172.738 269.254 172.568 269.54L173.318 270.332C173.436 270.456 173.489 270.592 173.433 270.651L172.726 271.397C172.67 271.457 172.541 271.4 172.423 271.275L171.673 270.484C171.403 270.664 171.1 270.803 170.779 270.88V271.991C170.779 272.167 170.729 272.311 170.649 272.311H169.64C169.56 272.311 169.51 272.167 169.51 271.991V270.88C169.189 270.803 168.886 270.664 168.616 270.484L167.866 271.275C167.748 271.4 167.619 271.457 167.563 271.397L166.856 270.651C166.799 270.592 166.853 270.456 166.971 270.332L167.721 269.54C167.551 269.254 167.42 268.935 167.347 268.596H166.294C166.127 268.596 165.991 268.543 165.991 268.459V267.393C165.991 267.309 166.127 267.256 166.294 267.256H167.347C167.42 266.917 167.551 266.598 167.721 266.312L166.971 265.521C166.853 265.396 166.799 265.261 166.856 265.201L167.563 264.455C167.619 264.396 167.748 264.452 167.866 264.577L168.616 265.369C168.886 265.188 169.189 265.05 169.51 264.973V263.861ZM171.428 267.926C171.428 267.181 170.85 266.571 170.145 266.571C169.439 266.571 168.861 267.181 168.861 267.926C168.861 268.671 169.439 269.281 170.145 269.281C170.85 269.281 171.428 268.671 171.428 267.926Z" fill="#986A44"/>
<g opacity="0.7">
<path d="M283.876 188C283.033 188.001 282.205 188.226 281.475 188.653L266.401 197.469C265.671 197.896 265.065 198.511 264.643 199.251C264.222 199.99 264 200.83 264 201.684V219.317C264 220.171 264.222 221.01 264.643 221.75C265.065 222.49 265.671 223.104 266.401 223.531L281.475 232.348C282.205 232.775 283.033 233 283.876 233C284.719 233 285.548 232.775 286.278 232.348L301.351 223.531C302.082 223.104 302.688 222.49 303.109 221.75C303.531 221.01 303.753 220.171 303.753 219.317V201.684C303.753 200.83 303.531 199.99 303.109 199.251C302.688 198.511 302.082 197.896 301.351 197.469L286.278 188.653C285.548 188.225 284.719 188.001 283.876 188ZM283.598 189.686C283.969 189.62 284.351 189.688 284.677 189.879L299.254 198.406C299.335 198.453 299.403 198.522 299.449 198.604C299.496 198.686 299.521 198.779 299.521 198.874C299.521 198.969 299.496 199.062 299.449 199.144C299.403 199.227 299.335 199.295 299.254 199.342L284.677 207.869C284.434 208.011 284.157 208.086 283.876 208.086C283.595 208.086 283.319 208.011 283.076 207.869L268.499 199.342C268.417 199.295 268.35 199.227 268.303 199.144C268.256 199.062 268.232 198.969 268.232 198.874C268.232 198.779 268.256 198.686 268.303 198.604C268.35 198.522 268.417 198.453 268.499 198.406L283.076 189.879C283.237 189.785 283.414 189.719 283.598 189.686ZM266.29 202.524C266.414 202.502 266.541 202.524 266.65 202.588L281.227 211.114C281.47 211.257 281.672 211.461 281.813 211.708C281.953 211.955 282.027 212.234 282.027 212.519V229.572C282.027 229.667 282.003 229.76 281.956 229.842C281.909 229.925 281.842 229.993 281.76 230.04C281.679 230.088 281.587 230.113 281.494 230.113C281.4 230.113 281.308 230.088 281.227 230.04L266.65 221.514C266.406 221.372 266.204 221.167 266.063 220.92C265.923 220.674 265.849 220.394 265.849 220.109V203.056C265.849 202.929 265.893 202.806 265.974 202.708C266.055 202.611 266.167 202.546 266.29 202.524ZM301.462 202.524C301.586 202.546 301.698 202.611 301.779 202.708C301.859 202.806 301.904 202.929 301.904 203.056V220.109C301.904 220.394 301.83 220.674 301.689 220.92C301.549 221.167 301.347 221.372 301.103 221.514L286.526 230.04C286.445 230.088 286.353 230.113 286.259 230.113C286.165 230.113 286.073 230.088 285.992 230.04C285.911 229.993 285.844 229.925 285.797 229.842C285.75 229.76 285.725 229.667 285.725 229.572V212.519C285.725 212.234 285.799 211.955 285.94 211.708C286.08 211.461 286.283 211.257 286.526 211.114L301.103 202.588C301.212 202.524 301.339 202.502 301.462 202.524Z" fill="#DFC8B4"/>
<path d="M288.804 216.834L291.892 216.263L288.804 219.337V221.168L293.533 216.102V214.537L288.804 215.002V216.834ZM298.825 217.626V216.13L293.89 219.016V220.512L298.825 217.626Z" fill="#DFC8B4"/>
<path d="M268.927 210.972L272.015 214.014L268.927 213.475V215.306L273.656 215.772V214.207L268.927 209.141V210.972ZM278.948 223.487V221.992L274.014 219.105V220.601L278.948 223.487Z" fill="#DFC8B4"/>
<path d="M276.805 200.599L280.949 199.411L278.944 201.851L280.509 202.767L283.272 198.851L281.934 198.068L275.239 199.683L276.805 200.599ZM292.513 198.065L291.235 197.317L286.3 200.203L287.578 200.951L292.513 198.065Z" fill="#DFC8B4"/>
<path d="M313.922 210.094V210.325C313.922 213.771 315.59 216.339 318.494 216.339C319.772 216.339 320.736 215.791 321.452 214.869L321.614 216.12H324.572V199.261H321.278V205.287C320.585 204.485 319.674 204.025 318.515 204.025C315.58 204.025 313.922 206.483 313.922 210.094ZM317.194 210.325V210.094C317.194 208.184 317.779 206.714 319.35 206.714C320.281 206.714 320.91 207.12 321.278 207.866V212.487C320.91 213.211 320.281 213.65 319.328 213.65C317.736 213.65 317.194 212.18 317.194 210.325ZM327.26 201.181C327.26 202.17 327.985 202.883 329.091 202.883C330.195 202.883 330.911 202.17 330.911 201.181C330.911 200.193 330.196 199.48 329.091 199.48C327.986 199.48 327.26 200.194 327.26 201.181H327.26ZM330.737 216.12V204.244H327.455V216.12H330.737ZM339.893 212.805C339.893 213.519 339.297 214.001 338.171 214.001C337.055 214.001 336.145 213.508 336.091 212.311H332.992C332.992 214.243 334.78 216.339 338.095 216.339C341.128 216.339 343.078 214.781 343.078 212.684C343.078 210.281 341.128 209.425 338.626 208.931C337.055 208.634 336.503 208.25 336.503 207.58C336.503 206.878 337.109 206.351 338.073 206.351C339.254 206.351 339.774 206.977 339.774 207.866H343.046C343.046 205.627 341.161 204.025 338.084 204.025C335.126 204.025 333.371 205.759 333.371 207.745C333.371 209.809 335.159 210.852 337.531 211.367C339.449 211.784 339.894 212.158 339.894 212.805L339.893 212.805ZM351.26 206.659V204.244H349.277V201.313H346.005V204.244H344.337V206.659H346.005V212.783C346.005 215.329 347.327 216.339 349.44 216.339C350.22 216.339 350.826 216.23 351.367 216.043L351.378 213.541C351.162 213.585 350.848 213.617 350.469 213.617C349.645 213.617 349.277 213.376 349.277 212.41V206.659H351.26ZM356.57 216.12V208.426C356.917 207.668 357.653 207.274 358.844 207.274C359.181 207.274 359.679 207.328 359.993 207.361L360.036 204.167C359.809 204.079 359.386 204.025 359.061 204.025C357.924 204.025 357.057 204.639 356.483 205.66L356.374 204.244H353.298V216.12H356.57ZM361.273 210.072V210.303C361.273 213.76 363.277 216.339 366.863 216.339C370.449 216.339 372.432 213.76 372.432 210.303V210.072C372.432 206.615 370.449 204.025 366.841 204.025C363.277 204.025 361.273 206.614 361.273 210.072ZM364.556 210.303V210.072C364.556 208.25 365.151 206.691 366.841 206.691C368.564 206.691 369.16 208.25 369.16 210.072V210.303C369.16 212.18 368.553 213.672 366.863 213.672C365.151 213.672 364.556 212.18 364.556 210.303Z" fill="#DFC8B4"/>
<path d="M384.643 210.303V210.072C384.643 206.384 383.006 204.025 380.146 204.025C378.456 204.025 377.265 204.749 376.485 205.956V199.261H375.185V216.12H376.398L376.463 214.484C377.232 215.637 378.456 216.339 380.168 216.339C383.006 216.339 384.643 213.848 384.643 210.303ZM383.332 210.072V210.303C383.332 213.069 382.281 215.198 379.919 215.198C378.121 215.198 377.026 214.21 376.485 212.959V207.58C376.972 206.34 377.947 205.166 379.897 205.166C382.324 205.166 383.332 207.306 383.332 210.072ZM387.158 210.006V210.368C387.158 213.826 389.227 216.339 392.401 216.339C395.565 216.339 397.623 213.826 397.623 210.368V210.006C397.623 206.549 395.565 204.025 392.379 204.025C389.227 204.025 387.158 206.549 387.158 210.006ZM388.458 210.368V210.006C388.458 207.449 389.844 205.133 392.379 205.133C394.925 205.133 396.323 207.449 396.323 210.006V210.368C396.323 212.97 394.925 215.231 392.401 215.231C389.844 215.231 388.458 212.97 388.458 210.368ZM404.125 209.051L400.972 204.244H399.445L403.42 210.061L399.271 216.12H400.81L404.135 211.093L407.483 216.12H409L404.861 210.061L408.837 204.244H407.299L404.125 209.051Z" fill="#DFC8B4"/>
</g>
<mask id="mask1_1_25" style="mask-type:alpha" maskUnits="userSpaceOnUse" x="29" y="15" width="160" height="65">
<path d="M188.837 15H29V79.4698H188.837V15Z" fill="#D9D9D9"/>
</mask>
<g mask="url(#mask1_1_25)">
<path d="M113.409 92.1776C134.708 92.1776 151.975 74.9008 151.975 53.5888C151.975 32.2768 134.708 15 113.409 15C92.1102 15 74.8442 32.2768 74.8442 53.5888C74.8442 74.9008 92.1102 92.1776 113.409 92.1776Z" fill="#99C1F1"/>
<path d="M163.746 92.1776C177.603 92.1776 188.837 80.9372 188.837 67.0716C188.837 53.206 177.603 41.9656 163.746 41.9656C149.889 41.9656 138.655 53.206 138.655 67.0716C138.655 80.9372 149.889 92.1776 163.746 92.1776Z" fill="#99C1F1"/>
<path d="M61.2151 92.1777C79.0071 92.1777 93.4302 77.7457 93.4302 59.9429C93.4302 42.1401 79.0071 27.7081 61.2151 27.7081C43.4232 27.7081 29 42.1401 29 59.9429C29 77.7457 43.4232 92.1777 61.2151 92.1777Z" fill="#99C1F1"/>
</g>
<mask id="mask2_1_25" style="mask-type:alpha" maskUnits="userSpaceOnUse" x="31" y="19" width="161" height="65">
<path d="M191.624 19.0294H31.7878V83.4992H191.624V19.0294Z" fill="#D9D9D9"/>
</mask>
<g mask="url(#mask2_1_25)">
<path d="M116.198 96.2071C137.497 96.2071 154.763 78.9303 154.763 57.6183C154.763 36.3063 137.497 19.0295 116.198 19.0295C94.8992 19.0295 77.6328 36.3063 77.6328 57.6183C77.6328 78.9303 94.8992 96.2071 116.198 96.2071Z" fill="white"/>
<path d="M166.533 96.2071C180.39 96.2071 191.624 84.9668 191.624 71.1011C191.624 57.2355 180.39 45.9952 166.533 45.9952C152.676 45.9952 141.443 57.2355 141.443 71.1011C141.443 84.9668 152.676 96.2071 166.533 96.2071Z" fill="white"/>
<path d="M64.0027 96.2067C81.7947 96.2067 96.2182 81.7747 96.2182 63.9719C96.2182 46.1691 81.7947 31.7371 64.0027 31.7371C46.2108 31.7371 31.7876 46.1691 31.7876 63.9719C31.7876 81.7747 46.2108 96.2067 64.0027 96.2067Z" fill="white"/>
</g>
<mask id="mask3_1_25" style="mask-type:alpha" maskUnits="userSpaceOnUse" x="448" y="8" width="110" height="57">
<path d="M448 8H557.404V64.0702H448V8Z" fill="#D9D9D9"/>
</mask>
<g mask="url(#mask3_1_25)">
<path d="M522.048 78.3103C502.521 78.3103 486.692 62.5708 486.692 43.1552C486.692 23.7395 502.521 8 522.048 8C541.574 8 557.404 23.7395 557.404 43.1552C557.404 62.5708 541.574 78.3103 522.048 78.3103Z" fill="#99C1F1"/>
<path d="M472.382 76.1946C459.019 76.1946 448.186 65.3552 448.186 51.9843C448.186 38.6133 459.019 27.774 472.382 27.774C485.745 27.774 496.577 38.6133 496.577 51.9843C496.577 65.3552 485.745 76.1946 472.382 76.1946Z" fill="#99C1F1"/>
</g>
<mask id="mask4_1_25" style="mask-type:alpha" maskUnits="userSpaceOnUse" x="449" y="11" width="111" height="57">
<path d="M449.797 11.8831H559.201V67.9533H449.797V11.8831Z" fill="#D9D9D9"/>
</mask>
<g mask="url(#mask4_1_25)">
<path d="M523.845 82.1936C504.319 82.1936 488.489 66.4541 488.489 47.0384C488.489 27.6228 504.319 11.8833 523.845 11.8833C543.372 11.8833 559.201 27.6228 559.201 47.0384C559.201 66.4541 543.372 82.1936 523.845 82.1936Z" fill="white"/>
<path d="M474.179 80.0772C460.816 80.0772 449.984 69.2379 449.984 55.8669C449.984 42.4959 460.816 31.6566 474.179 31.6566C487.542 31.6566 498.375 42.4959 498.375 55.8669C498.375 69.2379 487.542 80.0772 474.179 80.0772Z" fill="white"/>
</g>
<defs>
<linearGradient id="paint0_linear_1_25" x1="590.143" y1="301" x2="-7.0473" y2="301" gradientUnits="userSpaceOnUse">
<stop stop-color="#839BB8"/>
<stop offset="1" stop-color="#4674AC"/>
</linearGradient>
<linearGradient id="paint1_linear_1_25" x1="396.463" y1="160.739" x2="206.341" y2="109.203" gradientUnits="userSpaceOnUse">
<stop stop-color="#A58171"/>
<stop offset="0.526043" stop-color="#A58771"/>
<stop offset="1" stop-color="#B4987E"/>
</linearGradient>
</defs>
</svg>
