<svg width="600" height="300" xmlns:xlink="http://www.w3.org/1999/xlink" xmlns="http://www.w3.org/2000/svg"><defs><linearGradient id="l"><stop style="stop-color:#9141ac;stop-opacity:1" offset="0"/><stop style="stop-color:#4e98e7;stop-opacity:.84661794" offset=".266"/><stop style="stop-color:#67d5ea;stop-opacity:.65414792" offset=".486"/><stop style="stop-color:#99d6f1;stop-opacity:0" offset="1"/></linearGradient><linearGradient id="k"><stop style="stop-color:#ed333b;stop-opacity:1" offset="0"/><stop style="stop-color:#f6d32d;stop-opacity:.87138313" offset=".45"/><stop style="stop-color:#8ff0a4;stop-opacity:.41141579" offset=".78"/><stop style="stop-color:#8ff0a4;stop-opacity:0" offset="1"/></linearGradient><linearGradient id="j"><stop style="stop-color:#f9f06b;stop-opacity:1" offset="0"/><stop style="stop-color:#33d17a;stop-opacity:.86729813" offset=".459"/><stop style="stop-color:#4dc6e7;stop-opacity:.70543128" offset=".675"/><stop style="stop-color:#65d6ea;stop-opacity:.00392157" offset="1"/></linearGradient><linearGradient id="i"><stop style="stop-color:#99c1f1;stop-opacity:1" offset="0"/><stop style="stop-color:#1c71d8;stop-opacity:.00394669" offset="1"/></linearGradient><linearGradient id="a"><stop style="stop-color:#3d3846;stop-opacity:1" offset="0"/><stop style="stop-color:#5e556b;stop-opacity:1" offset=".029"/><stop style="stop-color:#3d3846;stop-opacity:1" offset=".055"/><stop style="stop-color:#2a2731;stop-opacity:1" offset=".954"/><stop style="stop-color:#575064;stop-opacity:1" offset=".976"/><stop style="stop-color:#3d3846;stop-opacity:1" offset="1"/></linearGradient><linearGradient id="h"><stop style="stop-color:#fff;stop-opacity:1" offset="0"/><stop style="stop-color:#fff;stop-opacity:0" offset="1"/></linearGradient><linearGradient xlink:href="#a" id="G" x1="-307.643" y1="240.579" x2="-223.965" y2="240.579" gradientUnits="userSpaceOnUse"/><linearGradient xlink:href="#b" id="K" gradientUnits="userSpaceOnUse" gradientTransform="matrix(.5 0 0 .5 60.422 95.499)" x1="45.999" y1="246.969" x2="64" y2="276"/><linearGradient id="b"><stop offset="0" stop-color="#613583"/><stop offset="1" stop-color="#a347ba"/></linearGradient><linearGradient xlink:href="#c" id="L" gradientUnits="userSpaceOnUse" gradientTransform="matrix(.5 0 0 .5 60.422 95.499)" x1="82" y1="225.608" x2="64" y2="196"/><linearGradient id="c"><stop offset="0" stop-color="#e5a50a"/><stop offset="1" stop-color="#f6d32d"/></linearGradient><linearGradient xlink:href="#d" id="M" gradientUnits="userSpaceOnUse" gradientTransform="matrix(.5 0 0 .5 60.422 95.499)" x1="45.999" y1="225.608" x2="28" y2="256.785"/><linearGradient id="d"><stop offset="0" stop-color="#1a5fb4"/><stop offset="1" stop-color="#3584e4"/></linearGradient><linearGradient xlink:href="#e" id="N" gradientUnits="userSpaceOnUse" gradientTransform="matrix(.5 0 0 .5 60.422 95.499)" x1="82.001" y1="246.393" x2="100" y2="216"/><linearGradient id="e"><stop offset="0" stop-color="#c64600"/><stop offset="1" stop-color="#ff7800"/></linearGradient><linearGradient xlink:href="#f" id="O" gradientUnits="userSpaceOnUse" gradientTransform="matrix(.5 0 0 .5 60.422 95.499)" x1="63.999" y1="215.215" x2="28" y2="215.216"/><linearGradient id="f"><stop offset="0" stop-color="#26a269"/><stop offset="1" stop-color="#33d17a"/></linearGradient><linearGradient xlink:href="#g" id="P" gradientUnits="userSpaceOnUse" gradientTransform="matrix(.5 0 0 .5 60.422 95.499)" x1="64.499" y1="257.074" x2="100" y2="258"/><linearGradient id="g"><stop offset="0" stop-color="#a51d2d"/><stop offset="1" stop-color="#e01b24"/></linearGradient><linearGradient xlink:href="#m" id="H" gradientUnits="userSpaceOnUse" gradientTransform="matrix(.75 0 0 .75 -73.5 -404.5)" x1="28" y1="220" x2="40" y2="220"/><linearGradient id="m"><stop style="stop-color:#62a0ea;stop-opacity:1" offset="0"/><stop style="stop-color:#3584e4;stop-opacity:1" offset="1"/></linearGradient><linearGradient xlink:href="#m" id="I" gradientUnits="userSpaceOnUse" gradientTransform="matrix(.75 0 0 .75 -73.5 -418)" x1="28" y1="220" x2="40" y2="220"/><linearGradient xlink:href="#m" id="J" gradientUnits="userSpaceOnUse" gradientTransform="matrix(.75 0 0 .75 -73.5 -431.5)" x1="28" y1="220" x2="40" y2="220"/><linearGradient id="u"><stop style="stop-color:#9a9996;stop-opacity:1" offset="0"/><stop style="stop-color:#77767b;stop-opacity:1" offset="1"/></linearGradient><linearGradient y2="-68" x2="415.5" y1="-68" x1="320.5" gradientTransform="translate(115.032 109.18) scale(.25263)" gradientUnits="userSpaceOnUse" id="R" xlink:href="#n"/><linearGradient id="n"><stop style="stop-color:#a51d2d;stop-opacity:1" offset="0"/><stop style="stop-color:#ce1921;stop-opacity:1" offset="1"/></linearGradient><linearGradient y2="-180" x2="336" y1="62" x1="336" gradientTransform="matrix(.25 0 0 .25 8 225)" gradientUnits="userSpaceOnUse" id="S" xlink:href="#o"/><linearGradient id="o"><stop offset="0" style="stop-color:#d81d25;stop-opacity:1"/><stop offset="1" style="stop-color:#f66151;stop-opacity:1"/></linearGradient><linearGradient y2="-276" x2="116" y1="-276" x1="28" gradientTransform="matrix(.375 0 0 .375 -242 -65.75)" gradientUnits="userSpaceOnUse" id="T" xlink:href="#p"/><linearGradient id="p"><stop offset="0" style="stop-color:#c0bfbc;stop-opacity:1"/><stop style="stop-color:#fff;stop-opacity:1" offset=".045"/><stop style="stop-color:#deddda;stop-opacity:1" offset=".091"/><stop style="stop-color:#deddda;stop-opacity:1" offset=".909"/><stop offset=".955" style="stop-color:#fff;stop-opacity:1"/><stop offset="1" style="stop-color:#c0bfbc;stop-opacity:1"/></linearGradient><linearGradient y2="72" x2="340" y1="76" x1="344" gradientTransform="matrix(.25 0 0 .25 180 83)" gradientUnits="userSpaceOnUse" id="V" xlink:href="#q"/><linearGradient id="q"><stop style="stop-color:#d5d3cf;stop-opacity:1" offset="0"/><stop style="stop-color:#fff;stop-opacity:1" offset="1"/></linearGradient><linearGradient y2="-56.518" x2="-230.06" y1="-56.518" x1="-253.63" gradientUnits="userSpaceOnUse" id="X" xlink:href="#r"/><linearGradient id="r"><stop style="stop-color:#fc9a91;stop-opacity:1" offset="0"/><stop style="stop-color:#cb2b31;stop-opacity:1" offset="1"/></linearGradient><linearGradient xlink:href="#s" id="Y" gradientUnits="userSpaceOnUse" gradientTransform="matrix(.10688 -.41353 .41353 -.10688 113.054 313.604)" x1="181.677" y1="-139.479" x2="143.246" y2="-101.048"/><linearGradient id="s"><stop offset="0" style="stop-color:#d0bb8e;stop-opacity:1"/><stop offset="1" style="stop-color:#fff;stop-opacity:1"/></linearGradient><linearGradient xlink:href="#t" id="Z" gradientUnits="userSpaceOnUse" x1="-230.06" y1="-64.518" x2="-253.63" y2="-64.518" gradientTransform="translate(0 22.627)"/><linearGradient id="t"><stop style="stop-color:#c0bfbc;stop-opacity:1" offset="0"/><stop offset=".223" style="stop-color:#9a9996;stop-opacity:1"/><stop style="stop-color:#d6d5d2;stop-opacity:1" offset=".744"/><stop style="stop-color:#f6f5f4;stop-opacity:1" offset="1"/></linearGradient><linearGradient xlink:href="#r" id="W" gradientUnits="userSpaceOnUse" x1="-253.63" y1="-56.518" x2="-230.06" y2="-56.518"/><linearGradient xlink:href="#u" id="aa" gradientUnits="userSpaceOnUse" gradientTransform="matrix(1.8294 -.816 .816 1.8294 -3637.962 92.03)" x1="1660.857" y1="806.297" x2="1662.99" y2="812.882"/><radialGradient xlink:href="#h" id="z" gradientUnits="userSpaceOnUse" gradientTransform="matrix(2.12438 0 0 5.17093 -258.178 -658.129)" cx="234.336" cy="170.045" fx="234.336" fy="170.045" r="57.233"/><radialGradient xlink:href="#h" id="A" gradientUnits="userSpaceOnUse" gradientTransform="matrix(-2.02969 .62718 1.5266 4.94045 535.862 -781.86)" cx="247.734" cy="167.441" fx="247.734" fy="167.441" r="57.233"/><radialGradient xlink:href="#i" id="D" gradientUnits="userSpaceOnUse" gradientTransform="matrix(4.5719 -.23302 .28356 8.3759 -1109.644 -1071.303)" cx="294.088" cy="155.782" fx="294.088" fy="155.782" r="14.686"/><radialGradient xlink:href="#j" id="x" gradientUnits="userSpaceOnUse" gradientTransform="matrix(0 -1.7704 -1.6852 0 644.152 711.229)" cx="243.967" cy="174.783" fx="243.967" fy="174.783" r="149.065"/><radialGradient xlink:href="#k" id="w" gradientUnits="userSpaceOnUse" gradientTransform="matrix(2.19346 0 0 1.32074 -315.05 -2.42)" cx="280.333" cy="196.053" fx="280.333" fy="196.053" r="149.065"/><radialGradient xlink:href="#l" id="y" gradientUnits="userSpaceOnUse" gradientTransform="matrix(1.51223 0 0 2.0096 -118.964 -70.848)" cx="231.173" cy="171.146" fx="231.173" fy="171.146" r="149.065"/><radialGradient xlink:href="#h" id="B" gradientUnits="userSpaceOnUse" gradientTransform="matrix(-1.44417 1.558 3.7923 3.51526 -57.89 -750.476)" cx="247.734" cy="167.441" fx="247.734" fy="167.441" r="57.233"/><radialGradient xlink:href="#h" id="E" gradientUnits="userSpaceOnUse" gradientTransform="matrix(-2.42645 -1.06314 -2.57798 5.92867 1396.374 -520.653)" cx="247.734" cy="167.441" fx="247.734" fy="167.441" r="57.233"/><clipPath clipPathUnits="userSpaceOnUse" id="F"><rect style="fill:#e01b24;fill-opacity:1;stroke:none;stroke-width:1.99999;stop-color:#000" width="91.207" height="69.801" x="-311.407" y="192.062" rx="6.086" ry="6.086"/></clipPath><clipPath clipPathUnits="userSpaceOnUse" id="Q"><path style="display:inline;opacity:1;vector-effect:none;fill:none;fill-opacity:1;stroke:#000;stroke-width:4;stroke-linecap:round;stroke-linejoin:round;stroke-miterlimit:4;stroke-dasharray:none;stroke-dashoffset:0;stroke-opacity:1;marker:none;marker-start:none;marker-mid:none;marker-end:none;paint-order:normal;enable-background:new" d="M64-148h64l64-64 64 64h192c17.728 0 32 14.272 32 32v288c0 17.728-14.272 32-32 32H256l-64-64-64 64H64c-17.728 0-32-14.272-32-32v-288c0-17.728 14.409-34.199 32-32z"/></clipPath><clipPath id="U" clipPathUnits="userSpaceOnUse"><path style="fill:#e74747;stroke:none;stroke-width:.25px;stroke-linecap:butt;stroke-linejoin:miter;stroke-opacity:1" d="m252 116 28-28v-8h-36v36z"/></clipPath><filter id="v" color-interpolation-filters="sRGB" x="0" y="0" width="1" height="1.057"><feFlood flood-opacity=".2" flood-color="#000" result="flood"/><feComposite in="flood" in2="SourceGraphic" operator="in" result="composite1"/><feGaussianBlur in="composite1" result="blur"/><feOffset dy="3" result="offset"/><feComposite in="SourceGraphic" in2="offset" result="composite2"/></filter><filter id="C" color-interpolation-filters="sRGB" x="0" y="0" width="1" height="1.057"><feFlood flood-opacity=".2" flood-color="#000" result="flood"/><feComposite in="flood" in2="SourceGraphic" operator="in" result="composite1"/><feGaussianBlur in="composite1" result="blur"/><feOffset dy="3" result="offset"/><feComposite in="SourceGraphic" in2="offset" result="composite2"/></filter></defs><g transform="translate(-23 -77)" style="filter:url(#v)"><path style="fill:#3e3d41;fill-opacity:1;stroke:none;stroke-width:4.68758;stroke-linecap:square;stroke-linejoin:round;stroke-dashoffset:26.4" d="M379 90h145a16 16 45 0 1 16 16v80a16 16 135 0 1-16 16H379a16 16 45 0 1-16-16v-80a16 16 135 0 1 16-16z"/><path style="fill:#1c1c1c;fill-opacity:1;stroke:none;stroke-width:2.55208;stroke-linecap:square;stroke-linejoin:round;stroke-dashoffset:26.4" d="M379 92h145a16 16 45 0 1 16 16v19H363v-19a16 16 135 0 1 16-16z"/><path style="fill:#292929;fill-opacity:1;stroke:none;stroke-width:2.55208;stroke-linecap:square;stroke-linejoin:round;stroke-dashoffset:26.4" d="M379 90h145a16 16 45 0 1 16 16v19H363v-19a16 16 135 0 1 16-16z"/><path style="line-height:normal;font-variant-ligatures:normal;font-variant-position:normal;font-variant-caps:normal;font-variant-numeric:normal;font-variant-alternates:normal;font-variant-east-asian:normal;font-feature-settings:normal;font-variation-settings:normal;text-indent:0;text-align:start;text-decoration:none;text-decoration-line:none;text-decoration-style:solid;text-decoration-color:#000;text-transform:none;text-orientation:mixed;white-space:normal;shape-padding:0;shape-margin:0;inline-size:0;isolation:auto;mix-blend-mode:normal;solid-color:#000;solid-opacity:1;fill:#e5e5e5;fill-opacity:1;stroke-width:.200796" d="M515.98 102.28a1.205 1.205 0 0 0-.848.352 1.205 1.205 0 0 0 0 1.704l3.164 3.164-3.164 3.164a1.205 1.205 0 0 0 0 1.704 1.205 1.205 0 0 0 1.704 0l3.164-3.164 3.164 3.164a1.205 1.205 0 0 0 1.704 0 1.205 1.205 0 0 0 0-1.704l-3.164-3.164 3.164-3.164a1.205 1.205 0 0 0 0-1.704 1.205 1.205 0 0 0-.857-.353 1.205 1.205 0 0 0-.847.353L520 105.796l-3.164-3.164a1.205 1.205 0 0 0-.857-.353z" color="#000" font-weight="400" font-family="sans-serif" overflow="visible" fill="#77767b"/></g><path style="fill:url(#w);fill-opacity:1;stroke:none;stroke-width:1px;stroke-linecap:butt;stroke-linejoin:miter;stroke-opacity:1" d="m356.365 230.504-115.08-1.029L66.5-29.914l468.9 9.198z"/><path style="fill:url(#x);fill-opacity:1;stroke:none;stroke-width:1px;stroke-linecap:butt;stroke-linejoin:miter;stroke-opacity:1" d="m365.75 231.5-.16 60.323 298.13-123.296-61.926-189.99z"/><path style="fill:url(#y);fill-opacity:1;stroke:none;stroke-width:1px;stroke-linecap:butt;stroke-linejoin:miter;stroke-opacity:1" d="m233.752 231.5.16 60.323-298.13-143.72L15.79-26.343z"/><path style="opacity:.88;fill:none;stroke:url(#z);stroke-width:4;stroke-linecap:round;stroke-linejoin:miter;stroke-opacity:1" d="M217.641 174.163 146.202 39.196"/><path style="fill:none;stroke:url(#A);stroke-width:6;stroke-linecap:round;stroke-linejoin:miter;stroke-opacity:1" d="m335.509 201.736 47.447-171.609"/><circle style="fill:#fff;fill-opacity:.226961;stroke:none;stroke-width:1.99999;stroke-opacity:1;stop-color:#000" cx="432.434" cy="88.938" r="4.103"/><circle style="fill:#fff;fill-opacity:.226961;stroke:none;stroke-width:1.99999;stroke-opacity:1;stop-color:#000" cx="265.211" cy="153.577" r="4.103"/><circle style="fill:#fff;fill-opacity:.657828;stroke:none;stroke-width:1.99999;stroke-opacity:1;stop-color:#000" cx="225.582" cy="112.382" r="4.103"/><path style="font-variation-settings:normal;vector-effect:none;fill:none;fill-opacity:1;stroke:#99c1f1;stroke-width:6;stroke-linecap:round;stroke-linejoin:miter;stroke-miterlimit:4;stroke-dasharray:none;stroke-dashoffset:0;stroke-opacity:1;stop-color:#000" d="m213.123 233.962-96.646-92.487"/><path style="fill:none;stroke:url(#B);stroke-width:6;stroke-linecap:round;stroke-linejoin:miter;stroke-opacity:1" d="M260.398 201.52 215.683 29.18"/><g transform="translate(-53.718 -59.18)" style="filter:url(#C)"><path style="opacity:1;fill:#f6f5f4;fill-opacity:1;stroke:none;stroke-width:4.33389;stroke-linecap:square;stroke-linejoin:round;stroke-dashoffset:26.4" d="M141 90h83a16 16 45 0 1 16 16v103a16 16 135 0 1-16 16h-83a16 16 45 0 1-16-16V106a16 16 135 0 1 16-16z"/><path style="opacity:1;fill:#c0bfbc;fill-opacity:1;stroke:none;stroke-width:2.20671;stroke-linecap:square;stroke-linejoin:round;stroke-dashoffset:26.4" d="M141 92h83a16 16 45 0 1 16 16v19H125v-19a16 16 135 0 1 16-16z"/><path style="opacity:1;fill:#deddda;fill-opacity:1;stroke:none;stroke-width:2.20671;stroke-linecap:square;stroke-linejoin:round;stroke-dashoffset:26.4" d="M141 90h83a16 16 45 0 1 16 16v19H125v-19a16 16 135 0 1 16-16z"/><path style="line-height:normal;font-variant-ligatures:normal;font-variant-position:normal;font-variant-caps:normal;font-variant-numeric:normal;font-variant-alternates:normal;font-variant-east-asian:normal;font-feature-settings:normal;font-variation-settings:normal;text-indent:0;text-align:start;text-decoration:none;text-decoration-line:none;text-decoration-style:solid;text-decoration-color:#000;text-transform:none;text-orientation:mixed;white-space:normal;shape-padding:0;shape-margin:0;inline-size:0;isolation:auto;mix-blend-mode:normal;solid-color:#000;solid-opacity:1;stroke-width:.200796" d="M215.98 102.28a1.205 1.205 0 0 0-.848.352 1.205 1.205 0 0 0 0 1.704l3.164 3.164-3.164 3.164a1.205 1.205 0 0 0 0 1.704 1.205 1.205 0 0 0 1.704 0l3.164-3.164 3.164 3.164a1.205 1.205 0 0 0 1.704 0 1.205 1.205 0 0 0 0-1.704l-3.164-3.164 3.164-3.164a1.205 1.205 0 0 0 0-1.704 1.205 1.205 0 0 0-.857-.353 1.205 1.205 0 0 0-.847.353L220 105.796l-3.164-3.164a1.205 1.205 0 0 0-.857-.353z" color="#000" font-weight="400" font-family="sans-serif" overflow="visible" fill="#77767b"/></g><path style="font-variation-settings:normal;opacity:.7;vector-effect:none;fill:none;fill-opacity:1;stroke:#3584e4;stroke-width:6;stroke-linecap:round;stroke-linejoin:miter;stroke-miterlimit:4;stroke-dasharray:none;stroke-dashoffset:0;stroke-opacity:1;stop-color:#000" d="M181.123 232.962 95.74 180.134"/><path style="fill:none;stroke:#f8e45c;stroke-width:6;stroke-linecap:round;stroke-linejoin:miter;stroke-miterlimit:4;stroke-dasharray:none;stroke-opacity:1" d="m239.56 197.781-42.3-104.023"/><path style="fill:#f5c211;stroke:url(#D);stroke-width:6;stroke-linecap:round;stroke-linejoin:miter;stroke-miterlimit:4;stroke-dasharray:none;stroke-opacity:1" d="M279.068 164.98 271.8 39.976"/><path style="font-variation-settings:normal;opacity:.7;vector-effect:none;fill:none;fill-opacity:1;stroke:#f8e45c;stroke-width:6;stroke-linecap:round;stroke-linejoin:miter;stroke-miterlimit:4;stroke-dasharray:none;stroke-dashoffset:0;stroke-opacity:1;stop-color:#000" d="m375.74 238.962 95.383-79.828"/><path style="fill:none;stroke:url(#E);stroke-width:6;stroke-linecap:round;stroke-linejoin:miter;stroke-opacity:1" d="M407.03 247.874 591.435 143.99"/><g transform="translate(2 8)"><g clip-path="url(#F)" transform="translate(699.565 -106.251) scale(1.5124)"><rect style="fill:#241f31;fill-opacity:1;stroke:none;stroke-width:1.99999;stop-color:#000" width="91.207" height="46.276" x="-311.407" y="215.586" rx="9.179" ry="9.179"/><rect style="fill:url(#G);fill-opacity:1;stroke:none;stroke-width:1.99999;stop-color:#000" width="83.678" height="42.456" x="-307.643" y="219.351" rx="6.086" ry="6.086"/><rect style="fill:#77767b;fill-opacity:1;stroke:none;stroke-width:1.99999;stop-color:#000" width="83.678" height="42.456" x="-307.643" y="215.298" rx="6.086" ry="6.086"/><rect style="fill:#5e5c64;fill-opacity:1;stroke:none;stroke-width:1.99999;stop-color:#000" width="83.678" height="42.456" x="-307.643" y="214.048" rx="6.086" ry="6.086"/><path style="fill:#000;fill-opacity:.167857;stroke:none;stroke-width:.999997px;stroke-linecap:butt;stroke-linejoin:miter;stroke-opacity:1" d="M-260.105 214.141a14.915 14.915 0 0 0 2.348 18.044c6.15 4.91 15.178 3.552 19.611-2.951l11.884-13.917c-.92-.603-2.063-1.26-3.686-1.26z"/></g><rect style="fill:#3d3846;fill-opacity:1;stroke:none;stroke-width:3.02478;stop-color:#000" width="14.307" height="11.166" x="247.463" y="247.852" rx="5.582" ry="5.582"/><rect style="fill:#3d3846;fill-opacity:1;stroke:none;stroke-width:3.02478;stop-color:#000" width="14.307" height="11.166" x="263.723" y="247.852" rx="5.582" ry="5.582"/><rect style="fill:#3d3846;fill-opacity:1;stroke:none;stroke-width:3.02478;stop-color:#000" width="14.307" height="11.166" x="247.463" y="261.085" rx="5.582" ry="5.582"/><rect style="fill:#3d3846;fill-opacity:1;stroke:none;stroke-width:3.02478;stop-color:#000" width="14.307" height="11.166" x="263.723" y="261.085" rx="5.582" ry="5.582"/></g><circle style="fill:#fff;fill-opacity:.657828;stroke:none;stroke-width:1.99999;stroke-opacity:1;stop-color:#000" cx="385.745" cy="247.002" r="4.103"/><path style="fill:#c0bfbc;fill-opacity:1;stroke:none;stroke-width:1.5124px;stroke-linecap:butt;stroke-linejoin:miter;stroke-opacity:1" d="M365.754 162.689 380.71 206.8a26.063 26.063 0 0 0 32.103 16.616l53.966-16.02 1.495-62.255-66.667-23.952z" transform="translate(2 8)"/><path style="fill:#9a9996;fill-opacity:1;stroke:none;stroke-width:1.5124px;stroke-linecap:butt;stroke-linejoin:miter;stroke-opacity:1" d="m394.01 140.514 13.838 40.804a10.848 10.848 0 0 0 13.36 6.918l48.262-14.327 1.116-46.502-49.795-17.891z" transform="translate(2 8)"/><path style="fill:#fff;fill-opacity:1;stroke:none;stroke-width:1.5124px;stroke-linecap:butt;stroke-linejoin:miter;stroke-opacity:1" d="m416.832 71.999-112.544 136.37a22.557 22.557 0 0 0 1.448 30.309 20.452 20.452 0 0 0 29.66-4.462l49.38-57.468a13.066 13.066 0 0 1 12.634-4.265l40.998 8.741a9.75 9.75 0 0 1 7.718 9.538v34.823a21.586 21.586 0 0 0 21.588 21.586 22.483 22.483 0 0 0 20.626-24.198v-81.676a18.064 18.064 0 0 1 5.29-12.774l3.293-3.292a15.543 15.543 0 0 0-1.516-23.31l-43.991-33.833a25.045 25.045 0 0 0-34.584 3.911z" transform="translate(2 8)"/><path style="fill:#eeecea;fill-opacity:1;stroke:none;stroke-width:1.5124px;stroke-linecap:butt;stroke-linejoin:miter;stroke-opacity:1" d="M499.755 107.133a15.543 15.543 0 0 1-2.832 3.883l-3.293 3.293a18.064 18.064 0 0 0-5.29 12.77v14.218c0-4.79 1.903-9.384 5.29-12.771l3.293-3.293a15.543 15.543 0 0 0 2.832-18.1zM394.683 157.98a13.065 13.065 0 0 0-9.906 4.55L335.397 220c-6.703 9.836-20.36 11.89-29.661 4.462a22.557 22.557 0 0 1-5.457-8.844 22.557 22.557 0 0 0 5.457 23.06c9.302 7.43 22.958 5.375 29.662-4.462l49.38-57.47a13.065 13.065 0 0 1 12.632-4.262l41 8.742a9.751 9.751 0 0 1 7.717 9.396l5.456-14.076a9.751 9.751 0 0 0-7.716-9.537l-46.457-8.742a13.065 13.065 0 0 0-2.727-.287zm51.444 32.642v34.96c0 11.924 9.665 21.59 21.587 21.589 12.378-.986 21.613-11.82 20.627-24.2v-10.66c-.87 11.015-9.614 19.765-20.627 20.643-7.517 0-16.776-6.832-16.64-17.31l.469-35.945z" transform="translate(2 8)"/><g transform="translate(2 12)"><path style="display:inline;overflow:visible;visibility:visible;fill:#000;fill-opacity:0;fill-rule:nonzero;stroke:none;stroke-width:.375;marker:none;enable-background:accumulate" d="M214 9h96v96h-96z"/><rect style="color:#000;clip-rule:nonzero;display:inline;overflow:visible;visibility:visible;color-interpolation:sRGB;color-interpolation-filters:linearRGB;fill:#3584e4;fill-opacity:1;fill-rule:nonzero;stroke:none;stroke-width:.0260202;stroke-linecap:round;stroke-linejoin:round;stroke-miterlimit:4;stroke-dasharray:none;stroke-dashoffset:0;stroke-opacity:1;marker:none;color-rendering:auto;image-rendering:auto;shape-rendering:auto;text-rendering:auto;enable-background:accumulate" width="72" height="42" x="235" y="48" rx="21" ry="21"/><path d="M235.019 68.25a20.948 20.948 0 0 0 20.98 20.25H278.5V90H256c-11.634 0-21-9.366-21-21 0-.252.01-.5.019-.75zm71.963.054c.007.232.018.463.018.696a20.947 20.947 0 0 1-18 20.785v-1.5a20.944 20.944 0 0 0 17.982-19.98z" style="display:inline;fill:#1a5fb4;fill-opacity:1;fill-rule:evenodd;stroke:none;stroke-width:.00847365px;stroke-linecap:butt;stroke-linejoin:miter;stroke-opacity:1;enable-background:new"/><rect ry="21" rx="21" y="27" x="217" height="42" width="72" style="color:#000;clip-rule:nonzero;display:inline;overflow:visible;visibility:visible;color-interpolation:sRGB;color-interpolation-filters:linearRGB;fill:#f6f5f4;fill-opacity:1;fill-rule:nonzero;stroke:none;stroke-width:.0260202;stroke-linecap:round;stroke-linejoin:round;stroke-miterlimit:4;stroke-dasharray:none;stroke-dashoffset:0;stroke-opacity:1;marker:none;color-rendering:auto;image-rendering:auto;shape-rendering:auto;text-rendering:auto;enable-background:accumulate"/><circle transform="matrix(0 -1 -1 0 0 0)" style="display:inline;fill:url(#H);fill-opacity:1;stroke:none;stroke-width:1.5;stroke-linecap:square;stroke-linejoin:round;stroke-miterlimit:4;stroke-dasharray:none;stroke-dashoffset:0;stroke-opacity:1;enable-background:new" cx="-48" cy="-239.5" r="4.5"/><circle cy="-253" cx="-48" style="display:inline;fill:url(#I);fill-opacity:1;stroke:none;stroke-width:1.5;stroke-linecap:square;stroke-linejoin:round;stroke-miterlimit:4;stroke-dasharray:none;stroke-dashoffset:0;stroke-opacity:1;enable-background:new" transform="matrix(0 -1 -1 0 0 0)" r="4.5"/><circle transform="matrix(0 -1 -1 0 0 0)" style="display:inline;fill:url(#J);fill-opacity:1;stroke:none;stroke-width:1.5;stroke-linecap:square;stroke-linejoin:round;stroke-miterlimit:4;stroke-dasharray:none;stroke-dashoffset:0;stroke-opacity:1;enable-background:new" cx="-48" cy="-266.5" r="4.5"/><path d="M288.98 47.25A20.948 20.948 0 0 1 268 67.5h-22.5V69H268c11.634 0 21-9.366 21-21 0-.252-.01-.5-.019-.75zm-71.962.054c-.007.232-.018.463-.018.696a20.947 20.947 0 0 0 18 20.785v-1.5a20.944 20.944 0 0 1-17.982-19.98z" style="display:inline;fill:#c0bfbc;fill-opacity:1;fill-rule:evenodd;stroke:none;stroke-width:.00847365px;stroke-linecap:butt;stroke-linejoin:miter;stroke-opacity:1;enable-background:new"/><path style="display:inline;fill:#c0bfbc;fill-opacity:1;fill-rule:evenodd;stroke:none;stroke-width:.00847365px;stroke-linecap:butt;stroke-linejoin:miter;stroke-opacity:1;enable-background:new" d="M235 67.5V78l12.409-10.5z"/><path style="display:inline;fill:#f6f5f4;fill-opacity:1;fill-rule:evenodd;stroke:none;stroke-width:.0098859px;stroke-linecap:butt;stroke-linejoin:miter;stroke-opacity:1;enable-background:new" d="M235 66v10.5L247.409 66z"/><path d="M289 88.5V99l-12.409-10.5z" style="display:inline;fill:#1a5fb4;fill-opacity:1;fill-rule:evenodd;stroke:none;stroke-width:.00847365px;stroke-linecap:butt;stroke-linejoin:miter;stroke-opacity:1;enable-background:new"/><path d="M289 87v10.5L276.591 87z" style="display:inline;fill:#3584e4;fill-opacity:1;fill-rule:evenodd;stroke:none;stroke-width:.0098859px;stroke-linecap:butt;stroke-linejoin:miter;stroke-opacity:1;enable-background:new"/></g><circle style="fill:#fff;fill-opacity:.540577;stroke:none;stroke-width:1.99999;stroke-opacity:1;stop-color:#000" cx="193.067" cy="250.649" r="4.103"/><circle style="fill:#fff;fill-opacity:.477471;stroke:none;stroke-width:1.99999;stroke-opacity:1;stop-color:#000" cx="296.968" cy="117.528" r="8.681"/><circle style="fill:#fff;fill-opacity:.477471;stroke:none;stroke-width:1.99999;stroke-opacity:1;stop-color:#000" cx="133.398" cy="187.013" r="8.681"/><circle style="fill:#fff;fill-opacity:.657828;stroke:none;stroke-width:1.99999;stroke-opacity:1;stop-color:#000" cx="168.582" cy="194.382" r="4.103"/><circle style="fill:#fff;fill-opacity:.657828;stroke:none;stroke-width:1.99999;stroke-opacity:1;stop-color:#000" cx="324.854" cy="157.515" r="4.103"/><circle style="fill:#fff;fill-opacity:.367883;stroke:none;stroke-width:3.6136;stroke-opacity:1;stop-color:#000" cx="512.308" cy="227.11" r="15.684"/><circle style="fill:#fff;fill-opacity:.657828;stroke:none;stroke-width:1.99999;stroke-opacity:1;stop-color:#000" cx="291.156" cy="199.719" r="4.103"/><g style="filter:url(#C)" transform="translate(1.578 -10.499)"><path style="display:inline;overflow:visible;visibility:visible;fill:#000;fill-opacity:0;fill-rule:nonzero;stroke:none;stroke-width:.25;marker:none;enable-background:accumulate" d="M60.422 181.499h64v64h-64z"/><path style="display:inline;fill:#3d3846;fill-opacity:1;stroke:none;stroke-width:16;stroke-linecap:round;stroke-linejoin:round;stroke-miterlimit:4;stroke-dasharray:none;stroke-dashoffset:0;stroke-opacity:1;enable-background:new" d="M101.422 208.303v10.392l-9 5.196-9-5.196v-10.393l9-5.196z"/><path d="M74.422 203.107v20.784" style="display:inline;fill:none;fill-rule:evenodd;stroke:#33d17a;stroke-width:18;stroke-linecap:butt;stroke-linejoin:miter;stroke-miterlimit:4;stroke-dasharray:none;stroke-opacity:1;enable-background:new"/><path style="display:inline;fill:none;fill-rule:evenodd;stroke:#3584e4;stroke-width:18;stroke-linecap:butt;stroke-linejoin:miter;stroke-miterlimit:4;stroke-dasharray:none;stroke-opacity:1;enable-background:new" d="m92.422 234.284-18-10.393"/><path d="m92.422 234.284 18-10.393" style="display:inline;fill:none;fill-rule:evenodd;stroke:#a347ba;stroke-width:18;stroke-linecap:butt;stroke-linejoin:miter;stroke-miterlimit:4;stroke-dasharray:none;stroke-opacity:1;enable-background:new"/><path style="display:inline;fill:none;fill-rule:evenodd;stroke:#e01b24;stroke-width:18;stroke-linecap:butt;stroke-linejoin:miter;stroke-miterlimit:4;stroke-dasharray:none;stroke-opacity:1;enable-background:new" d="M110.422 203.106v20.785"/><path d="m110.422 203.106-18-10.392" style="display:inline;fill:none;fill-rule:evenodd;stroke:#ff7800;stroke-width:18;stroke-linecap:butt;stroke-linejoin:miter;stroke-miterlimit:4;stroke-dasharray:none;stroke-opacity:1;enable-background:new"/><path style="display:inline;fill:none;fill-rule:evenodd;stroke:#f6d32d;stroke-width:18;stroke-linecap:butt;stroke-linejoin:miter;stroke-miterlimit:4;stroke-dasharray:none;stroke-opacity:1;enable-background:new" d="m74.422 203.107 18-10.393"/><path style="display:inline;fill:url(#K);fill-opacity:1;stroke:none;stroke-width:1;stroke-linecap:round;stroke-linejoin:round;stroke-miterlimit:4;stroke-dasharray:none;stroke-dashoffset:0;stroke-opacity:1;enable-background:new" d="M92.422 243.284a9 9 0 0 0 9-9 9.002 9.002 0 0 0-3.873-7.383l-4.628-2.721-.499-.288a209.718 209.718 0 0 1-4.267-2.48 9 9 0 0 1-4.733-7.913v20.784a9 9 0 0 0 9 9zm-8.967-9.726c.011-.141.033-.281.051-.421-.02.14-.037.28-.051.421zm.469-2.206c.013-.038.022-.077.036-.115h.002l-.038.115z"/><path d="M92.422 183.714a9 9 0 0 0-9 9 9 9 0 0 0 3.872 7.383l4.629 2.721.499.288a209.718 209.718 0 0 1 4.266 2.48 9 9 0 0 1 4.734 7.913v-20.785a9 9 0 0 0-9-9zm8.966 9.726c-.012.142-.032.281-.05.421.02-.14.037-.28.05-.421zm-.468 2.207c-.014.037-.023.076-.037.114h-.002z" style="display:inline;fill:url(#L);fill-opacity:1;stroke:none;stroke-width:1;stroke-linecap:round;stroke-linejoin:round;stroke-miterlimit:4;stroke-dasharray:none;stroke-dashoffset:0;stroke-opacity:1;enable-background:new"/><path d="M66.627 228.391a9 9 0 0 0 12.295 3.295 9 9 0 0 0 4.457-7.046l.042-5.368v-.576c-.015-1.593-.008-3.432.015-4.936a9 9 0 0 1 4.485-8.055l-4.5 2.598-9 5.197-2.034 1.174-2.465 1.423a9 9 0 0 0-3.294 12.294zm3.94-12.628c.129-.06.26-.113.39-.167a8.953 8.953 0 0 0-.39.167zm2.145-.697c.039-.007.077-.019.117-.026l.002.001-.119.025z" style="display:inline;fill:url(#M);fill-opacity:1;stroke:none;stroke-width:1;stroke-linecap:round;stroke-linejoin:round;stroke-miterlimit:4;stroke-dasharray:none;stroke-dashoffset:0;stroke-opacity:1;enable-background:new"/><path style="display:inline;fill:url(#N);fill-opacity:1;stroke:none;stroke-width:1;stroke-linecap:round;stroke-linejoin:round;stroke-miterlimit:4;stroke-dasharray:none;stroke-dashoffset:0;stroke-opacity:1;enable-background:new" d="M118.216 198.607a9 9 0 0 0-12.294-3.295 9 9 0 0 0-4.458 7.045l-.042 5.37v.575a212.13 212.13 0 0 1-.015 4.936 9 9 0 0 1-4.485 8.055l4.5-2.598 9-5.197 2.034-1.174 2.465-1.423a9 9 0 0 0 3.295-12.294zm-3.94 12.628c-.128.06-.259.113-.39.167.132-.053.262-.108.39-.167zm-2.144.697c-.04.008-.078.019-.118.026v-.001l.12-.025z"/><path style="display:inline;fill:url(#O);fill-opacity:1;stroke:none;stroke-width:1;stroke-linecap:round;stroke-linejoin:round;stroke-miterlimit:4;stroke-dasharray:none;stroke-dashoffset:0;stroke-opacity:1;enable-background:new" d="M66.627 198.607a9 9 0 0 0 3.295 12.294 9 9 0 0 0 8.33.338l4.67-2.648.5-.288a209.721 209.721 0 0 1 4.281-2.455 9 9 0 0 1 9.218-.144l-4.5-2.598-9-5.196-2.034-1.175-2.465-1.423a9 9 0 0 0-12.295 3.295zm12.907-2.903c.116.081.227.169.339.255a9.001 9.001 0 0 0-.34-.255zm1.676 1.509c.026.03.055.058.08.088v.003z"/><path d="M118.216 228.391a9 9 0 0 0-3.295-12.294 9 9 0 0 0-8.33-.338l-4.67 2.648-.499.288a209.695 209.695 0 0 1-4.282 2.456 9 9 0 0 1-9.218.143l4.5 2.598 9 5.196 2.034 1.174 2.465 1.424a9 9 0 0 0 12.295-3.295zm-12.906 2.903c-.117-.081-.227-.169-.34-.255.112.088.225.173.34.255zm-1.677-1.509c-.026-.03-.055-.058-.08-.088v-.003z" style="display:inline;fill:url(#P);fill-opacity:1;stroke:none;stroke-width:1;stroke-linecap:round;stroke-linejoin:round;stroke-miterlimit:4;stroke-dasharray:none;stroke-dashoffset:0;stroke-opacity:1;enable-background:new"/><path d="M83.422 208.303v10.392l9 5.196 9-5.196v-10.393l-9-5.196z" style="display:inline;fill:#241f31;fill-opacity:1;stroke:none;stroke-width:16;stroke-linecap:round;stroke-linejoin:round;stroke-miterlimit:4;stroke-dasharray:none;stroke-dashoffset:0;stroke-opacity:1;enable-background:new"/></g><g transform="matrix(.5 0 0 .5 2567 -1701.76)" style="filter:url(#C)"><path style="display:inline;overflow:visible;visibility:visible;fill:#000;fill-opacity:0;fill-rule:nonzero;stroke:none;stroke-width:.5;marker:none;enable-background:accumulate" d="M-4132 3659.52h128v128h-128z"/><g clip-path="url(#Q)" style="display:inline;opacity:1;enable-background:new" transform="matrix(.25 0 0 .25 -4132 3724.52)"><path d="M256 124h160v-272h96v384H256l-64-64-64 64H0V124h128l64-64z" style="opacity:1;fill:#cdab8f;fill-opacity:1;stroke:none;stroke-width:4;stroke-linecap:round;stroke-linejoin:round;stroke-miterlimit:4;stroke-dasharray:none;stroke-dashoffset:0;stroke-opacity:1;marker:none;marker-start:none;marker-mid:none;marker-end:none;paint-order:normal"/><path style="display:inline;opacity:1;fill:#55a7eb;fill-opacity:1;stroke:none;stroke-width:1px;stroke-linecap:butt;stroke-linejoin:miter;stroke-miterlimit:4;stroke-dasharray:none;stroke-dashoffset:0;stroke-opacity:1;marker:none;marker-start:none;marker-mid:none;marker-end:none;paint-order:normal;enable-background:new" d="m0 123.975 128 .05V-148H0z"/><path d="M144-164v272l48-48 64 64.058h144L416 108v-256H256l-64-64z" style="display:inline;opacity:1;fill:#2ec27e;fill-opacity:1;stroke:none;stroke-width:1px;stroke-linecap:butt;stroke-linejoin:miter;stroke-opacity:1;enable-background:new"/><path d="M399.898-147.89v238c0 10.027-9.373 17.948-16.949 17.948H256L192 44.59l-39.375 39.535L152-211.942h-24V108l-128 .058v32.102h127L192 76l64 64.16h126.95c26.424 0 47.962-22.048 49.05-50.05v-238z" style="color:#000;font-style:normal;font-variant:normal;font-weight:400;font-stretch:normal;font-size:medium;line-height:normal;font-family:sans-serif;font-variant-ligatures:normal;font-variant-position:normal;font-variant-caps:normal;font-variant-numeric:normal;font-variant-alternates:normal;font-feature-settings:normal;text-indent:0;text-align:start;text-decoration:none;text-decoration-line:none;text-decoration-style:solid;text-decoration-color:#000;letter-spacing:normal;word-spacing:normal;text-transform:none;writing-mode:lr-tb;direction:ltr;text-orientation:mixed;dominant-baseline:auto;baseline-shift:baseline;text-anchor:start;white-space:normal;shape-padding:0;clip-rule:nonzero;display:inline;overflow:visible;visibility:visible;opacity:1;isolation:auto;mix-blend-mode:normal;color-interpolation:sRGB;color-interpolation-filters:linearRGB;solid-color:#000;solid-opacity:1;fill:#fff;fill-opacity:1;fill-rule:nonzero;stroke:none;stroke-width:32.1;stroke-linecap:butt;stroke-linejoin:miter;stroke-miterlimit:4;stroke-dasharray:none;stroke-dashoffset:0;stroke-opacity:1;color-rendering:auto;image-rendering:auto;shape-rendering:auto;text-rendering:auto;enable-background:accumulate"/><path d="m128 267.975 64 .05V-212h-64z" style="display:inline;opacity:.3;fill:#fff;fill-opacity:1;stroke:none;stroke-width:1px;stroke-linecap:butt;stroke-linejoin:miter;stroke-miterlimit:4;stroke-dasharray:none;stroke-dashoffset:0;stroke-opacity:1;marker:none;marker-start:none;marker-mid:none;marker-end:none;paint-order:normal;enable-background:new"/><path style="display:inline;opacity:.15;fill:#000;fill-opacity:1;stroke:none;stroke-width:1px;stroke-linecap:butt;stroke-linejoin:miter;stroke-miterlimit:4;stroke-dasharray:none;stroke-dashoffset:0;stroke-opacity:1;marker:none;marker-start:none;marker-mid:none;marker-end:none;paint-order:normal;enable-background:new" d="m192 267.975 64 .05V-212h-64z"/></g><g transform="translate(-4132 3487.52)" style="display:inline;enable-background:new"><circle style="display:inline;opacity:1;fill:url(#R);fill-opacity:1;stroke:none;stroke-width:.252632;stroke-linejoin:round;stroke-miterlimit:4;stroke-dasharray:1.01053,.505263;stroke-dashoffset:0;stroke-opacity:1;enable-background:new" cx="208" cy="92" transform="matrix(0 1 1 0 0 0)" r="12"/><path d="M92 182a27.912 27.912 0 0 0-19.799 8.201c-10.934 10.935-10.934 28.663 0 39.598l19.8 19.8s13.82-13.823 19.798-19.8c10.935-10.935 10.935-28.663 0-39.598A27.912 27.912 0 0 0 92 182zm0 18a10 10 0 0 1 10 10 10 10 0 0 1-10 10 10 10 0 0 1-10-10 10 10 0 0 1 10-10z" style="display:inline;opacity:1;fill:#a51d2d;fill-opacity:1;stroke:none;stroke-width:14;stroke-linecap:butt;stroke-linejoin:miter;stroke-miterlimit:4;stroke-dasharray:none;stroke-dashoffset:0;stroke-opacity:1;marker:none;marker-start:none;marker-mid:none;marker-end:none;paint-order:normal;enable-background:new"/><path style="display:inline;opacity:1;fill:url(#S);fill-opacity:1;stroke:none;stroke-width:14;stroke-linecap:butt;stroke-linejoin:miter;stroke-miterlimit:4;stroke-dasharray:none;stroke-dashoffset:0;stroke-opacity:1;marker:none;marker-start:none;marker-mid:none;marker-end:none;paint-order:normal;enable-background:new" d="M92 180a27.912 27.912 0 0 0-19.799 8.201c-10.934 10.935-10.934 28.663 0 39.598l19.8 19.8s13.82-13.823 19.798-19.8c10.935-10.935 10.935-28.663 0-39.598A27.912 27.912 0 0 0 92 180zm0 18a10 10 0 0 1 10 10 10 10 0 0 1-10 10 10 10 0 0 1-10-10 10 10 0 0 1 10-10z"/></g></g><g transform="translate(7 8)"><path style="display:inline;overflow:visible;visibility:visible;fill:#000;fill-opacity:0;fill-rule:nonzero;stroke:none;stroke-width:.1875;marker:none;enable-background:accumulate" d="M191 131h48v48h-48z"/><rect transform="scale(-1)" style="display:inline;fill:#1a5fb4;fill-opacity:1;stroke:none;stroke-width:5.14455;stroke-linecap:butt;stroke-linejoin:miter;stroke-miterlimit:4;stroke-dasharray:none;stroke-dashoffset:0;stroke-opacity:1;marker:none;marker-start:none;marker-mid:none;marker-end:none;paint-order:normal;enable-background:new" width="33" height="11.344" x="-231.5" y="-176" rx="3" ry="3"/><rect ry="3" rx="3" y="-175.25" x="-231.5" height="15" width="33" style="display:inline;fill:url(#T);fill-opacity:1;stroke:none;stroke-width:5.14455;stroke-linecap:butt;stroke-linejoin:miter;stroke-miterlimit:4;stroke-dasharray:none;stroke-dashoffset:0;stroke-opacity:1;marker:none;marker-start:none;marker-mid:none;marker-end:none;paint-order:normal;enable-background:new" transform="scale(-1)"/><rect transform="scale(-1)" style="display:inline;fill:#f6f5f4;fill-opacity:1;stroke:none;stroke-width:5.14455;stroke-linecap:butt;stroke-linejoin:miter;stroke-miterlimit:4;stroke-dasharray:none;stroke-dashoffset:0;stroke-opacity:1;marker:none;marker-start:none;marker-mid:none;marker-end:none;paint-order:normal;enable-background:new" width="33" height="39.797" x="-231.5" y="-173.75" rx="3.422" ry="3.422"/><rect clip-path="url(#U)" transform="matrix(0 .26786 .26786 0 200.429 98.75)" ry="11.2" rx="11.2" y="88" x="252" height="36" width="36" style="display:inline;fill:url(#V);fill-opacity:1;stroke:none;stroke-width:.5;stroke-linecap:butt;stroke-linejoin:miter;stroke-miterlimit:4;stroke-dasharray:none;stroke-dashoffset:0;stroke-opacity:1;marker:none;marker-start:none;marker-mid:none;marker-end:none;paint-order:normal;enable-background:new"/><path style="display:inline;fill:#1a5fb4;fill-opacity:1;stroke:none;stroke-width:5.14455;stroke-linecap:butt;stroke-linejoin:miter;stroke-miterlimit:4;stroke-dasharray:none;stroke-dashoffset:0;stroke-opacity:1;marker:none;marker-start:none;marker-mid:none;marker-end:none;paint-order:normal;enable-background:new" d="M201.922 134.703a3.414 3.414 0 0 0-3.422 3.422V140h31.996c.35 0 .686-.053 1.004-.15v-1.725a3.414 3.414 0 0 0-3.422-3.422z"/><path d="M201.922 133.953a3.414 3.414 0 0 0-3.422 3.422v1.875h31.996c.35 0 .686-.053 1.004-.15v-1.725a3.414 3.414 0 0 0-3.422-3.422z" style="display:inline;fill:#3584e4;fill-opacity:1;stroke:none;stroke-width:5.14455;stroke-linecap:butt;stroke-linejoin:miter;stroke-miterlimit:4;stroke-dasharray:none;stroke-dashoffset:0;stroke-opacity:1;marker:none;marker-start:none;marker-mid:none;marker-end:none;paint-order:normal;enable-background:new"/><path d="M209 150.5v2.25h-7.5V143h27v7.5z" style="color:#000;display:inline;overflow:visible;fill:#deddda;fill-opacity:1;stroke:none;stroke-width:1.5;stroke-linecap:butt;stroke-linejoin:miter;stroke-miterlimit:4;stroke-dasharray:none;stroke-dashoffset:0;stroke-opacity:1;marker:none;marker-start:none;marker-mid:none;marker-end:none;paint-order:normal;enable-background:new"/><path style="color:#000;display:inline;overflow:visible;fill:#deddda;fill-opacity:1;stroke:none;stroke-width:1.5;stroke-linecap:butt;stroke-linejoin:miter;stroke-miterlimit:4;stroke-dasharray:none;stroke-dashoffset:0;stroke-opacity:1;marker:none;marker-start:none;marker-mid:none;marker-end:none;paint-order:normal;enable-background:new" d="M221 159.5v2.25h-19.5V155h27v4.5z"/><g style="display:inline;stroke-width:1.08559;enable-background:new"><path d="m92.458 262.896-13.333-13.334 59.598-59.597 13.333 13.333z" style="display:inline;fill:#ff881e;fill-opacity:1;stroke:none;stroke-width:.549785px;stroke-linecap:butt;stroke-linejoin:miter;stroke-opacity:1;enable-background:new" transform="matrix(.0284 -.3466 -.3466 .0284 295.372 185.708)"/><path d="m82.408 252.946-5-5 59.598-59.598 5 5z" style="display:inline;opacity:1;fill:#e66100;fill-opacity:1;stroke:none;stroke-width:.388757px;stroke-linecap:butt;stroke-linejoin:miter;stroke-opacity:1;enable-background:new" transform="matrix(.0284 -.3466 -.3466 .0284 295.372 185.708)"/><path d="m89.075 259.613 5 5 59.598-59.598-5-5z" style="display:inline;opacity:1;fill:#ffb367;fill-opacity:1;stroke:none;stroke-width:.388757px;stroke-linecap:butt;stroke-linejoin:miter;stroke-opacity:1;enable-background:new" transform="matrix(.0284 -.3466 -.3466 .0284 295.372 185.708)"/><g transform="matrix(.0284 -.3466 -.3466 .0284 301.372 179.708)" style="fill:#5e5c64"><g style="fill:#5e5c64;fill-opacity:1"><path transform="rotate(-135 .414 -1)" style="opacity:1;fill:url(#W);fill-opacity:1;stroke:none;stroke-width:2.17119;stroke-linecap:round;stroke-linejoin:miter;stroke-miterlimit:4;stroke-dasharray:none;stroke-dashoffset:0;stroke-opacity:1" d="M-253.63-66.518h23.57v8h-23.57z"/></g><ellipse ry="10" rx="11.785" transform="rotate(-135)" cy="-56.518" cx="-241.845" style="opacity:1;fill:url(#X);fill-opacity:1;stroke:none;stroke-width:2.17119;stroke-linecap:round;stroke-miterlimit:4;stroke-dasharray:none;stroke-opacity:1"/></g><path style="display:inline;opacity:1;fill:url(#Y);fill-opacity:1;stroke:none;stroke-width:13.5589;stroke-linecap:round;stroke-linejoin:miter;stroke-miterlimit:4;stroke-dasharray:none;stroke-dashoffset:0;stroke-opacity:1;marker:none;marker-start:none;marker-mid:none;marker-end:none;paint-order:normal;enable-background:new" d="m75.792 266.23 1.666-18.334 16.667 16.666z" transform="matrix(.0284 -.3466 -.3466 .0284 295.372 185.708)"/><path d="m75.792 266.23.724-7.963 7.238 7.238z" style="display:inline;opacity:1;fill:#3d3846;fill-opacity:1;stroke:none;stroke-width:13.5589;stroke-linecap:round;stroke-linejoin:miter;stroke-miterlimit:4;stroke-dasharray:none;stroke-dashoffset:0;stroke-opacity:1;marker:none;marker-start:none;marker-mid:none;marker-end:none;paint-order:normal;enable-background:new" transform="matrix(.0284 -.3466 -.3466 .0284 295.372 185.708)"/><path style="opacity:1;fill:url(#Z);fill-opacity:1;stroke:none;stroke-width:2.17119;stroke-linecap:round;stroke-miterlimit:4;stroke-dasharray:none;stroke-opacity:1" transform="rotate(45 -76.48 449.402) scale(.3182 -.375)" d="M-253.63-45.89h23.57v8h-23.57z"/></g></g><g style="display:inline;enable-background:new" transform="matrix(.31644 0 0 .31644 389.216 192.89)"><path style="display:inline;opacity:1;fill:#000;fill-opacity:.228048;stroke:none;stroke-width:.0123274px;stroke-linecap:butt;stroke-linejoin:miter;stroke-miterlimit:4;stroke-dasharray:none;stroke-dashoffset:0;stroke-opacity:1;marker:none;marker-start:none;marker-mid:none;marker-end:none;paint-order:normal;enable-background:new" d="M137.465 235.7A65.465 65.465 0 0 1 72 301.164a65.465 65.465 0 0 1-65.465-65.466A65.465 65.465 0 0 1 72 170.234a65.465 65.465 0 0 1 65.465 65.465z"/><rect ry="56" rx="56" y="171" x="16" height="114" width="112" style="display:inline;opacity:1;fill:#d5d3cf;fill-opacity:1;stroke:none;stroke-width:.0112982px;stroke-linecap:butt;stroke-linejoin:miter;stroke-miterlimit:4;stroke-dasharray:none;stroke-dashoffset:0;stroke-opacity:1;marker:none;marker-start:none;marker-mid:none;marker-end:none;paint-order:normal;enable-background:new"/><path d="M137.465 226.621A65.465 65.465 0 0 1 72 292.086a65.465 65.465 0 0 1-65.465-65.465A65.465 65.465 0 0 1 72 161.156a65.465 65.465 0 0 1 65.465 65.465z" style="display:inline;opacity:1;fill:#f6f5f4;fill-opacity:1;stroke:none;stroke-width:.0123274px;stroke-linecap:butt;stroke-linejoin:miter;stroke-miterlimit:4;stroke-dasharray:none;stroke-dashoffset:0;stroke-opacity:1;marker:none;marker-start:none;marker-mid:none;marker-end:none;paint-order:normal;enable-background:new"/><circle cy="227" cx="72" style="display:inline;opacity:1;fill:#3d3846;fill-opacity:1;stroke:none;stroke-width:.0112982px;stroke-linecap:butt;stroke-linejoin:miter;stroke-miterlimit:4;stroke-dasharray:none;stroke-dashoffset:0;stroke-opacity:1;marker:none;marker-start:none;marker-mid:none;marker-end:none;paint-order:normal;enable-background:new" r="54"/><path style="color:#000;font-style:normal;font-variant:normal;font-weight:400;font-stretch:normal;font-size:medium;line-height:normal;font-family:sans-serif;font-variant-ligatures:normal;font-variant-position:normal;font-variant-caps:normal;font-variant-numeric:normal;font-variant-alternates:normal;font-feature-settings:normal;text-indent:0;text-align:start;text-decoration:none;text-decoration-line:none;text-decoration-style:solid;text-decoration-color:#000;letter-spacing:normal;word-spacing:normal;text-transform:none;writing-mode:lr-tb;direction:ltr;text-orientation:mixed;dominant-baseline:auto;baseline-shift:baseline;text-anchor:start;white-space:normal;shape-padding:0;clip-rule:nonzero;display:inline;overflow:visible;visibility:visible;opacity:.2;isolation:auto;mix-blend-mode:normal;color-interpolation:sRGB;color-interpolation-filters:linearRGB;solid-color:#000;solid-opacity:1;fill:#000;fill-opacity:1;fill-rule:evenodd;stroke:none;stroke-width:4.00626;stroke-linecap:round;stroke-linejoin:miter;stroke-miterlimit:4;stroke-dasharray:none;stroke-dashoffset:0;stroke-opacity:1;color-rendering:auto;image-rendering:auto;shape-rendering:auto;text-rendering:auto;enable-background:new" d="M98.035 199.992a1.002 1.002 0 0 0-.777.33l-21.975 23.665a6 6 0 0 0-5.582-.522l-14.22-15.801a2.003 2.003 0 0 0-1.604-.682 2.003 2.003 0 0 0-1.374 3.362l14.22 15.799a6 6 0 0 0-.21 5.305 6 6 0 0 0 2.404 2.7L57.058 264.64a1.002 1.002 0 1 0 1.867.725l11.858-30.49a6 6 0 0 0 3.653-.393 6 6 0 0 0 3.035-7.924 6 6 0 0 0-.725-1.204l21.98-23.67a1.002 1.002 0 0 0-.691-1.693z"/><path d="m72 227-18-20" style="display:inline;fill:#c0bfbc;fill-rule:evenodd;stroke:url(#aa);stroke-width:4.00626;stroke-linecap:round;stroke-linejoin:miter;stroke-opacity:1;enable-background:new"/><path style="display:inline;fill:none;fill-rule:evenodd;stroke:#fff;stroke-width:2.00313;stroke-linecap:round;stroke-linejoin:miter;stroke-opacity:1;enable-background:new" d="m72 227 26-28"/><path d="m72 227-14 36" style="display:inline;fill:none;fill-rule:evenodd;stroke:#ed333b;stroke-width:2.00313;stroke-linecap:round;stroke-linejoin:miter;stroke-opacity:1;enable-background:new"/><circle transform="rotate(-24.04)" style="color:#000;clip-rule:nonzero;display:inline;overflow:visible;visibility:visible;opacity:1;color-interpolation:sRGB;color-interpolation-filters:linearRGB;fill:#d5d3cf;fill-opacity:1;fill-rule:nonzero;stroke:none;stroke-width:7.77221;stroke-linecap:round;stroke-linejoin:round;stroke-miterlimit:4;stroke-dasharray:none;stroke-dashoffset:0;stroke-opacity:1;marker:none;color-rendering:auto;image-rendering:auto;shape-rendering:auto;text-rendering:auto;enable-background:accumulate" cx="-26.715" cy="236.642" r="6"/><circle cy="227" cx="72.029" style="color:#000;clip-rule:nonzero;display:inline;overflow:visible;visibility:visible;opacity:1;color-interpolation:sRGB;color-interpolation-filters:linearRGB;fill:#131c1a;fill-opacity:1;fill-rule:nonzero;stroke:none;stroke-width:8.01252;stroke-linecap:round;stroke-linejoin:round;stroke-miterlimit:4;stroke-dasharray:none;stroke-dashoffset:0;stroke-opacity:1;marker:none;color-rendering:auto;image-rendering:auto;shape-rendering:auto;text-rendering:auto;enable-background:accumulate" r="2.003"/><circle style="color:#000;clip-rule:nonzero;display:inline;overflow:visible;visibility:visible;opacity:1;color-interpolation:sRGB;color-interpolation-filters:linearRGB;fill:#131c1a;fill-opacity:1;fill-rule:nonzero;stroke:none;stroke-width:8.01252;stroke-linecap:round;stroke-linejoin:round;stroke-miterlimit:4;stroke-dasharray:none;stroke-dashoffset:0;stroke-opacity:1;marker:none;color-rendering:auto;image-rendering:auto;shape-rendering:auto;text-rendering:auto;enable-background:accumulate" cx="72.029" cy="227" r="2"/><path style="display:inline;opacity:.1;fill:#000;fill-opacity:1;stroke:none;stroke-width:.0112982px;stroke-linecap:butt;stroke-linejoin:miter;stroke-miterlimit:4;stroke-dasharray:none;stroke-dashoffset:0;stroke-opacity:1;marker:none;marker-start:none;marker-mid:none;marker-end:none;paint-order:normal;enable-background:new" d="M72 173a54 54 0 0 0-54 54 54 54 0 0 0 .042 1.17A54 54 0 0 1 72 175a54 54 0 0 1 53.959 52.828A54 54 0 0 0 126 227a54 54 0 0 0-54-54z"/></g></svg>