<svg xmlns="http://www.w3.org/2000/svg" xmlns:xlink="http://www.w3.org/1999/xlink" height="300" width="600"><defs><linearGradient xlink:href="#a" id="k" x1="650.637" y1="826.854" x2="650.637" y2="1043.787" gradientUnits="userSpaceOnUse"/><linearGradient id="c"><stop offset="0" stop-color="#051224"/><stop offset="1" stop-color="#3584e4"/></linearGradient><linearGradient id="e"><stop offset="0" stop-color="#ed686f"/><stop offset=".911" stop-color="#a51d2d"/><stop offset="1" stop-color="#e01b24"/></linearGradient><linearGradient id="h"><stop offset="0" stop-color="#ed686f"/><stop offset=".865" stop-color="#a51d2d"/><stop offset="1" stop-color="#e01b24"/></linearGradient><linearGradient id="g"><stop offset="0" stop-color="#fff"/><stop offset=".519" stop-color="#fff"/><stop offset=".734" stop-color="#cfcfcf"/><stop offset="1" stop-color="#dcdcdc"/></linearGradient><linearGradient id="b"><stop offset="0" stop-color="#eef4fc"/><stop offset="1" stop-color="#fff"/></linearGradient><linearGradient id="f"><stop offset="0" stop-color="#fff"/><stop offset="1" stop-color="#fff" stop-opacity="0"/></linearGradient><linearGradient id="d"><stop offset="0" stop-color="#e5a50a"/><stop offset="1" stop-color="#e5a50a" stop-opacity="0"/></linearGradient><linearGradient id="a"><stop offset="0" stop-color="#e01b24"/><stop offset="1" stop-color="#e01b24" stop-opacity="0"/></linearGradient><linearGradient xlink:href="#b" id="n" x1="85" y1="107.162" x2="85" y2="86" gradientUnits="userSpaceOnUse" gradientTransform="matrix(-1.47115 0 0 1.47115 359.463 38.765)"/><linearGradient xlink:href="#c" id="i" x1="342.914" y1="17.349" x2="342.914" y2="201.142" gradientUnits="userSpaceOnUse" gradientTransform="translate(23.343 69.452) scale(.76809)"/><linearGradient xlink:href="#b" id="t" gradientUnits="userSpaceOnUse" gradientTransform="matrix(-1.47115 0 0 1.47115 359.463 38.765)" x1="169.57" y1="66.83" x2="169.57" y2="39.64"/><radialGradient xlink:href="#d" id="l" gradientUnits="userSpaceOnUse" gradientTransform="translate(-960.587 -1242.494) scale(2.47624)" cx="650.7" cy="832.23" fx="650.7" fy="832.23" r="41.389"/><radialGradient r="14.583" fy="49.777" fx="40.152" cy="49.777" cx="40.152" gradientTransform="matrix(.87016 4.27869 -2.56693 .52204 148.394 -163.306)" gradientUnits="userSpaceOnUse" id="r" xlink:href="#e"/><radialGradient xlink:href="#f" id="m" gradientUnits="userSpaceOnUse" gradientTransform="translate(-1090.057 -1370.83) scale(2.6752)" cx="650.7" cy="818.305" fx="650.7" fy="818.305" r="22.805"/><radialGradient r="33.5" fy="48.406" fx="79.091" cy="48.406" cx="79.091" gradientTransform="matrix(.00476 1.62228 -1.43419 .00422 141.702 -82.047)" gradientUnits="userSpaceOnUse" id="p" xlink:href="#g"/><radialGradient r="12" fy="54.102" fx="71.474" cy="54.102" cx="71.474" gradientTransform="matrix(4.50607 0 0 4.76661 -259.306 -59.706)" gradientUnits="userSpaceOnUse" id="q" xlink:href="#h"/><radialGradient r="14.583" fy="49.777" fx="40.152" cy="49.777" cx="40.152" gradientTransform="matrix(.87016 4.27869 -2.56693 .52204 148.394 -163.306)" gradientUnits="userSpaceOnUse" id="s" xlink:href="#e"/><clipPath clipPathUnits="userSpaceOnUse" id="j"><path d="M704.278 841.11c0 69.083-53.578 165.635-53.578 165.635s-53.578-96.393-53.578-165.635c0-29.59 23.988-53.578 53.578-53.578 29.59 0 53.578 23.988 53.578 53.578z" fill="url(#linearGradient1149)" stroke-width="2.589" stroke-linecap="round"/></clipPath><clipPath id="o" clipPathUnits="userSpaceOnUse"><path d="M65 177c-18.502 0-33.5 14.998-33.5 33.5.008 7.371 4.131 15.807 11.388 23.526l12.617 13.171H75.02l12.137-13.245c6.636-7.059 11.33-16.117 11.344-23.452 0-18.502-14.998-33.5-33.5-33.5z" style="marker:none" fill="#fff" stroke-width="2"/></clipPath></defs><path style="marker:none" d="M89.375 299.388c-17.366 0-31.054-13.688-31.054-31.054 0-17.364 13.69-31.054 31.053-31.054h35.56a9.321 9.321 0 0 0 0-18.642c-17.366 0-31.055-13.686-31.055-31.05 0-13.151 7.957-24.142 19.268-28.755 9.46-3.866 6.699-17.94-3.521-17.95H54.439c-17.364 0-31.053-13.687-31.053-31.052 0-17.366 13.689-31.054 31.053-31.054h150.5c9.737-.534 12.217-14.132 2.94-17.924-11.31-4.613-19.267-15.602-19.267-28.754 0-17.366 13.688-31.055 31.053-31.055h324.274c17.365 0 31.053 13.689 31.053 31.055 0 17.364-13.688 31.052-31.053 31.052H488.75c-10.22.01-12.979 14.084-3.519 17.95 11.312 4.612 19.268 15.603 19.268 28.754 0 17.365-13.69 31.053-31.054 31.053a9.321 9.321 0 0 0 0 18.64h77.328c17.365 0 31.053 13.689 31.053 31.054s-13.688 31.053-31.053 31.053c60.54-.923-281.258-.018-281.258-.018-10.329 0-10.05 15.643.152 15.643 17.365 0 33.646 13.69 33.646 31.054 0 17.365-13.69 31.053-31.055 31.053z" fill="url(#i)"/><g transform="translate(-3.85 -280.672) scale(.5872)"><path d="M652.629 488.055a69.284 111.707 0 0 0-68.485 94.841h.088a70.298 70.298 0 0 0-.862 10.95v105.59c0 38.375 30.895 69.27 69.271 69.27h.004c38.376 0 69.271-30.895 69.271-69.27v-105.59c0-3.73-.3-7.384-.862-10.95h.068a69.284 111.707 0 0 0-68.493-94.84z" opacity=".155"/><g transform="translate(0 -44.827)" clip-path="url(#j)"><path d="M704.278 841.11c0 69.083-53.578 165.635-53.578 165.635s-53.578-96.393-53.578-165.635c0-29.59 23.987-53.578 53.578-53.578 29.59 0 53.578 23.988 53.578 53.578z" fill="url(#k)"/><circle cx="650.7" cy="818.305" r="102.488" fill="url(#l)"/><circle cx="650.7" cy="818.305" r="61.008" fill="url(#m)"/><circle cx="650.7" cy="818.305" r="21.516" fill="#fff"/></g><rect width="138.543" height="244.129" x="581.398" y="524.576" rx="69.271" ry="69.271" fill="#f6f5f4"/><circle cx="650.67" cy="646.641" r="36.824" fill="#fff"/><circle cx="650.67" cy="646.641" r="26.422" fill="#5e5c64"/><path d="M650.67 524.576c-5.594 0-11.021.674-16.225 1.914 30.496 7.268 53.05 34.574 53.05 67.358v105.586c0 32.783-22.554 60.089-53.05 67.357a69.873 69.873 0 0 0 16.225 1.914c38.376 0 69.271-30.895 69.271-69.271V593.848c0-38.377-30.895-69.272-69.271-69.272z" fill="#c0bfbc" fill-opacity=".17"/><path d="M651.327 487.128a69.962 112.8 0 0 0-69.159 95.769h138.32a69.962 112.8 0 0 0-69.161-95.769z" fill="#ed333b"/><path d="m591.756 715.027 9.042 23.13a36.18 36.18 0 0 1-17.129 45.336l-30.066 15.488a15.13 15.13 0 0 1-22.06-13.451v-12.627a36.744 36.744 0 0 1 12.12-27.273l36.84-33.26a7.027 7.027 0 0 1 11.253 2.657z" fill-opacity=".094"/><path d="m591.756 710.923 9.042 23.13a36.18 36.18 110.698 0 1-17.129 45.336l-30.066 15.488a15.13 15.13 31.373 0 1-22.06-13.451v-12.627a36.744 36.744 113.961 0 1 12.12-27.273l36.84-33.26a7.027 7.027 13.286 0 1 11.253 2.657z" fill="#b0afac"/><path d="m710.116 715.027-9.042 23.13a36.18 36.18 0 0 0 17.129 45.336l30.067 15.488a15.13 15.13 0 0 0 22.06-13.451v-12.627a36.744 36.744 0 0 0-12.122-27.273l-36.839-33.26a7.027 7.027 0 0 0-11.253 2.657z" fill-opacity=".094"/><rect width="10.32" height="97.168" x="645.51" y="714.053" rx="5.16" ry="5.16" fill="#deddda"/><path d="M664.222 489.584a79.455 165.02 0 0 1 23.114 93.312h33.962a69.284 111.707 0 0 0-57.076-93.312z" fill="#e01b24"/><path d="m710.116 710.923-9.042 23.13a36.18 36.18 69.302 0 0 17.129 45.336l30.067 15.488a15.13 15.13 148.627 0 0 22.06-13.451v-12.627a36.744 36.744 66.039 0 0-12.122-27.273l-36.839-33.26a7.027 7.027 166.714 0 0-11.253 2.657z" fill="#fff"/></g><path d="M239.633 142.502a29.428 29.428 0 0 0-26.713 17.164 22.072 22.072 0 0 0-10.065-2.454c-11.609.017-21.22 9.017-21.993 20.6h-.075c-8.125 0-14.71 6.586-14.71 14.71 0 8.126 6.585 14.712 14.71 14.712h82.384a17.654 17.654 0 0 0 17.654-17.654 17.654 17.654 0 0 0-11.82-16.642 30.938 30.938 0 0 0 .05-1.011c0-16.25-13.172-29.423-29.422-29.423z" fill="url(#n)"/><g transform="matrix(1.0901 0 0 1.02483 98.856 -8.457)" clip-path="url(#o)"><path transform="translate(-8 156)" d="M73 21c-18.502 0-33.5 14.998-33.5 33.5.008 7.371 3.5 14.422 6.94 20.379L58 98h30l11.605-23.21c3.395-5.88 6.88-12.955 6.895-20.29C106.5 35.998 91.502 21 73 21z" style="marker:none" fill="url(#p)"/><path d="M64 177s-18.332 12.132-18.332 30.989C45.668 222.56 61.842 254 61.842 254H67s1.333-31.44 1.333-46.011C68.333 189.132 64 177 64 177z" fill="url(#q)"/><path transform="translate(-8 156)" d="M71.983 21.106c-8.207.147-16.328 3.285-22.5 8.695-6.174 5.409-10.35 13.047-11.574 21.163-1.24 8.225.567 16.874 4.995 23.915L61.902 98h6.432L55.002 81.27c-4.3-5.395-8.472-11.07-10.596-17.634-2.123-6.564-2.166-13.8.003-20.348A32.824 32.824 0 0 1 54.925 28.13a32.824 32.824 0 0 1 17.058-7.025z" fill="url(#r)"/><path transform="matrix(-1 0 0 1 137.16 155.823)" d="M73.003 21.303c-7.709-1.547-15.97-.154-22.746 3.835-6.776 3.989-12.002 10.537-14.39 18.029a32.484 32.484 0 0 0-.757 16.805 32.484 32.484 0 0 0 7.794 14.907L54.11 98h13.383L54.16 74.356c-2.868-5.087-5.557-10.406-6.427-16.181-.87-5.775.036-11.771 2.374-17.123 4.173-9.55 12.836-17.022 22.895-19.748z" fill="url(#s)"/></g><path style="marker:none" d="M161.72 259.594v6.774a3.388 3.388 0 0 0 3.396 3.397h9.194c1.882 0 3.001-1.557 3.396-3.397v-6.774z" fill="#e5a50a"/><path style="marker:none" d="M161.72 258.14v6.775a3.388 3.388 0 0 0 3.396 3.396h9.194c1.882 0 3.001-1.556 3.396-3.396v-6.774z" fill="#e5a50a"/><path style="marker:none" d="M171.893 258.14v10.171h2.417c1.882 0 3.001-1.556 3.396-3.396v-6.774z" fill="#f3af0b"/><path d="M110 97.082a20 20 0 0 0-20 20 20 20 0 0 0 20 20h27.5a12.5 12.5 0 0 0 12.5-12.5 12.5 12.5 0 0 0-12.5-12.5 12.5 12.5 0 0 0-7.643 2.611A20 20 0 0 0 110 97.082z" fill="url(#t)" style="font-variation-settings:normal"/></svg>