<svg xmlns="http://www.w3.org/2000/svg" xmlns:xlink="http://www.w3.org/1999/xlink" width="450" height="260" fill="none"><defs><linearGradient xlink:href="#a" id="d" x1="204.524" x2="235.708" y1="109.853" y2="116.674" gradientTransform="translate(411.462 -220.785) scale(1.40964)" gradientUnits="userSpaceOnUse"/><linearGradient id="a"><stop offset="0" style="stop-color:#ff7800;stop-opacity:1"/><stop offset=".315" style="stop-color:#ff9a44;stop-opacity:1"/><stop offset="1" style="stop-color:#ff7800;stop-opacity:1"/></linearGradient><linearGradient xlink:href="#b" id="c" x1="60.718" x2="199.282" y1="196" y2="116" gradientTransform="translate(423.341 -232.062) scale(1.40964)" gradientUnits="userSpaceOnUse"/><linearGradient id="b"><stop offset="0" style="stop-color:#1c71d8;stop-opacity:1"/><stop offset="1" style="stop-color:#99c1f1;stop-opacity:1"/></linearGradient></defs><g transform="matrix(1.16375 0 0 1.16375 -526.28 183.51)"><path d="M524.836-57.266a11.277 11.277 0 0 1-11.277 11.277h-16.916a11.277 11.277 0 0 0-11.277 11.277 11.277 11.277 0 0 0 11.277 11.277h5.638a11.277 11.277 0 0 1 11.278 11.278A11.277 11.277 0 0 1 502.28-.88h-11.277a11.277 11.277 0 0 0-11.277 11.277 11.277 11.277 0 0 0 11.277 11.277h50.747a11.277 11.277 0 0 1 11.278 11.277 11.277 11.277 0 0 0 11.277 11.277h97.135a11.277 11.277 0 0 0 11.278-11.277 11.277 11.277 0 0 1 11.277-11.277h98.365a11.277 11.277 0 0 0 11.277-11.277A11.277 11.277 0 0 0 782.361-.88a11.277 11.277 0 0 1-11.277-11.277 11.277 11.277 0 0 1 11.277-11.278h16.916a11.277 11.277 0 0 0 11.277-11.277 11.277 11.277 0 0 0-11.277-11.277h-103.15a11.277 11.277 0 0 1-11.277-11.277 11.277 11.277 0 0 0-11.277-11.277h-137.46a11.277 11.277 0 0 0-11.277 11.277z" style="opacity:.6;fill:url(#c);fill-opacity:1;stroke-width:2.81929;stroke-linecap:round;stroke-linejoin:round"/><path d="M638.075-136.206c5.923 0 10.415 5.34 9.4 11.175L627.83-12.075a6.704 6.704 0 0 1-6.605 5.556h-11.278a5.639 5.639 0 0 1-5.638-5.638v-16.916a5.639 5.639 0 0 0-5.639-5.639h-29.6a7.948 7.948 0 0 0-7.503 5.322l-6.14 17.55a7.947 7.947 0 0 1-7.502 5.321h-11.277a4.743 4.743 0 0 1-4.672-5.556L551.64-125.16c1.11-6.385 7.026-11.046 13.133-11.046zm-21.612 11.167h-33.46a8.572 8.572 0 0 0-8.466 7.078c-.648 3.722 2.216 7.128 5.993 7.128h33.463a8.572 8.572 0 0 0 8.463-7.078c.648-3.722-2.216-7.128-5.993-7.128z" style="fill:#e5a50a;fill-opacity:1;stroke-width:2.81929;stroke-linecap:round;stroke-linejoin:round"/><path d="M564.774-136.206c-4.17 0-8.25 2.174-10.773 5.586l20.616 118.545a6.704 6.704 0 0 0 6.605 5.556h11.277a5.639 5.639 0 0 0 5.638-5.638v-16.916a5.639 5.639 0 0 1 5.639-5.639h29.602a7.947 7.947 0 0 1 7.503 5.322l6.14 17.55a7.947 7.947 0 0 0 7.502 5.321H665.8a4.743 4.743 0 0 0 4.672-5.556L650.806-125.16a13.33 13.33 0 0 0-13.133-11.046h-61.148zm21.21 11.167h33.46a8.572 8.572 0 0 1 8.466 7.078c.648 3.722-2.216 7.128-5.993 7.128h-33.463a8.572 8.572 0 0 1-8.463-7.078c-.648-3.722 2.216-7.128 5.994-7.128zm-10.002 3.673a5.597 5.597 0 0 1-.611 1.007c.18-.353.386-.686.611-1.007z" style="fill:#f6d32d;fill-opacity:1;stroke-width:2.81929;stroke-linecap:round;stroke-linejoin:round"/><path d="M721.583-102.375a7.34 7.34 0 0 1 7.091 5.449l21.102 79.13H693.39l21.102-79.13a7.34 7.34 0 0 1 7.091-5.449z" style="fill:url(#d);stroke-width:2.81929;stroke-linecap:round;stroke-linejoin:round"/><rect width="67.663" height="11.277" x="687.752" y="-17.796" ry="5.639" style="fill:#3d3846;fill-opacity:1;stroke-width:2.81929;stroke-linecap:round;stroke-linejoin:round"/></g></svg>