<svg height="300" width="600" xmlns:xlink="http://www.w3.org/1999/xlink" xmlns="http://www.w3.org/2000/svg"><defs><linearGradient id="q"><stop style="stop-color:#3f8ae6;stop-opacity:1" offset="0"/><stop style="stop-color:#1a5fb4;stop-opacity:1" offset="1"/></linearGradient><linearGradient id="d"><stop style="stop-color:#a3a3a3;stop-opacity:1" offset="0"/><stop style="stop-color:#e8e7e6;stop-opacity:1" offset=".472"/><stop style="stop-color:#aeaeae;stop-opacity:1" offset="1"/></linearGradient><linearGradient id="b"><stop style="stop-color:#77767b;stop-opacity:1" offset="0"/><stop style="stop-color:#a2a2a6;stop-opacity:1" offset=".317"/><stop style="stop-color:#77767b;stop-opacity:1" offset="1"/></linearGradient><linearGradient id="a" x1="147.31" x2="185.85" y1="830.88" y2="869.42" gradientTransform="translate(351.45 336.28)" gradientUnits="userSpaceOnUse"><stop style="stop-color:#f2f2f2;stop-opacity:1" offset="0"/><stop style="stop-color:gray;stop-opacity:.8" offset="1"/></linearGradient><linearGradient id="c"><stop style="stop-color:#77767b;stop-opacity:1" offset="0"/><stop style="stop-color:#9a9996;stop-opacity:1" offset=".317"/><stop style="stop-color:#3d3846;stop-opacity:1" offset="1"/></linearGradient><linearGradient xlink:href="#a" id="x" gradientUnits="userSpaceOnUse" gradientTransform="translate(16.112 15.667) scale(.27273)" x1="175.59" y1="822.553" x2="175.59" y2="881.22"/><linearGradient xlink:href="#b" id="D" gradientUnits="userSpaceOnUse" x1="1574.435" y1="213.236" x2="1648.121" y2="213.236"/><linearGradient xlink:href="#c" id="E" x1="1589.498" y1="211.155" x2="1690.939" y2="211.155" gradientUnits="userSpaceOnUse"/><linearGradient xlink:href="#d" id="J" x1="1592.402" y1="350.835" x2="1637.724" y2="350.835" gradientUnits="userSpaceOnUse"/><linearGradient xlink:href="#e" id="s" x1="217.668" y1="690.508" x2="1784.667" y2="690.508" gradientUnits="userSpaceOnUse" gradientTransform="matrix(.3 0 0 .3 4.6 -20.628)"/><linearGradient id="e"><stop style="stop-color:#ed333b;stop-opacity:1" offset="0"/><stop style="stop-color:#c061cb;stop-opacity:1" offset=".4"/><stop style="stop-color:#1c71d8;stop-opacity:1" offset="1"/></linearGradient><linearGradient xlink:href="#f" id="u" gradientUnits="userSpaceOnUse" gradientTransform="translate(7.505 20.47) scale(.89344)" x1="60" y1="199.856" x2="68" y2="199.856"/><linearGradient id="f"><stop style="stop-color:#3d3846;stop-opacity:1" offset="0"/><stop style="stop-color:#a2a2a6;stop-opacity:1" offset=".317"/><stop style="stop-color:#3d3846;stop-opacity:1" offset="1"/></linearGradient><linearGradient xlink:href="#g" id="v" gradientUnits="userSpaceOnUse" gradientTransform="translate(6.715 16.34) scale(.90637)" x1="58" y1="189" x2="70" y2="189"/><linearGradient id="g"><stop offset="0" style="stop-color:#77767b;stop-opacity:1"/><stop style="stop-color:#9a9996;stop-opacity:1" offset=".075"/><stop offset=".445" style="stop-color:#deddda;stop-opacity:1"/><stop style="stop-color:#b9b8b8;stop-opacity:1" offset=".834"/><stop offset="1" style="stop-color:#77767b;stop-opacity:1"/></linearGradient><linearGradient xlink:href="#h" id="y" gradientUnits="userSpaceOnUse" gradientTransform="scale(.22079 .15613) rotate(-45 914.066 77.786)" x1="128.817" y1="-97.698" x2="158.518" y2="-127.399"/><linearGradient id="h"><stop offset="0" style="stop-color:#d0bb8e;stop-opacity:1"/><stop offset="1" style="stop-color:#fff;stop-opacity:1"/></linearGradient><linearGradient xlink:href="#i" id="z" gradientUnits="userSpaceOnUse" gradientTransform="matrix(1.58 0 0 1 -97.106 -104)" x1="115" y1="183" x2="115" y2="174"/><linearGradient id="i"><stop offset="0" style="stop-color:#5e5c64;stop-opacity:1"/><stop offset="1" style="stop-color:#9a9996;stop-opacity:1"/></linearGradient><linearGradient xlink:href="#j" id="A" gradientUnits="userSpaceOnUse" gradientTransform="translate(-29.333 -104)" x1="110" y1="182" x2="110" y2="174"/><linearGradient id="j"><stop style="stop-color:#9a9996;stop-opacity:1" offset="0"/><stop offset=".533" style="stop-color:#deddda;stop-opacity:1"/><stop style="stop-color:#f6f5f4;stop-opacity:1" offset="1"/></linearGradient><linearGradient xlink:href="#k" id="F" gradientUnits="userSpaceOnUse" gradientTransform="translate(24.42)" x1="1574.435" y1="213.236" x2="1648.121" y2="213.236"/><linearGradient id="k"><stop style="stop-color:#5e5c64;stop-opacity:1" offset="0"/><stop style="stop-color:#9a9996;stop-opacity:1" offset=".317"/><stop style="stop-color:#5e5c64;stop-opacity:1" offset="1"/></linearGradient><linearGradient xlink:href="#l" id="H" gradientUnits="userSpaceOnUse" gradientTransform="translate(24.42)" x1="1575.074" y1="300.139" x2="1663.814" y2="300.139"/><linearGradient id="l"><stop style="stop-color:#c0bfbc;stop-opacity:1" offset="0"/><stop style="stop-color:#d1d0ce;stop-opacity:1" offset=".407"/><stop style="stop-color:#c0bfbc;stop-opacity:1" offset="1"/></linearGradient><linearGradient id="r"><stop style="stop-color:#a4a3a7;stop-opacity:1" offset="0"/><stop style="stop-color:#77767b;stop-opacity:1" offset="1"/></linearGradient><linearGradient xlink:href="#m" id="O" gradientUnits="userSpaceOnUse" x1="263.087" y1="280.943" x2="290" y2="280.943"/><linearGradient id="m"><stop style="stop-color:#575659;stop-opacity:1" offset="0"/><stop style="stop-color:#48474a;stop-opacity:1" offset=".147"/><stop style="stop-color:#6f6d72;stop-opacity:1" offset="1"/></linearGradient><linearGradient xlink:href="#n" id="P" gradientUnits="userSpaceOnUse" x1="-263.84" y1="291" x2="-228.84" y2="291"/><linearGradient id="n"><stop style="stop-color:#48474a;stop-opacity:1" offset="0"/><stop style="stop-color:#747177;stop-opacity:1" offset=".286"/><stop style="stop-color:#48474a;stop-opacity:1" offset="1"/></linearGradient><linearGradient xlink:href="#o" id="Q" gradientUnits="userSpaceOnUse" gradientTransform="matrix(-1 0 0 1 21.16 16)" x1="88.703" y1="206.089" x2="260.1" y2="206.22"/><linearGradient id="o"><stop style="stop-color:#58575a;stop-opacity:1" offset="0"/><stop style="stop-color:#3d3c3e;stop-opacity:1" offset=".058"/><stop style="stop-color:#48474a;stop-opacity:1" offset=".093"/><stop style="stop-color:#48474a;stop-opacity:1" offset=".968"/><stop style="stop-color:#39383b;stop-opacity:1" offset="1"/></linearGradient><linearGradient xlink:href="#p" id="R" gradientUnits="userSpaceOnUse" gradientTransform="matrix(1.5 0 0 .68773 627.49 75.853)" x1="-188.801" y1="224.105" x2="-188.801" y2="271.605"/><linearGradient id="p"><stop style="stop-color:#77767b;stop-opacity:1" offset="0"/><stop style="stop-color:#77767b;stop-opacity:1" offset=".888"/><stop style="stop-color:#6e6d72;stop-opacity:1" offset="1"/></linearGradient><linearGradient xlink:href="#b" id="B" gradientUnits="userSpaceOnUse" x1="1574.435" y1="213.236" x2="1648.121" y2="213.236"/><linearGradient xlink:href="#b" id="C" gradientUnits="userSpaceOnUse" x1="1574.435" y1="213.236" x2="1648.121" y2="213.236"/><linearGradient xlink:href="#l" id="G" gradientUnits="userSpaceOnUse" gradientTransform="translate(24.42)" x1="1575.074" y1="300.139" x2="1663.814" y2="300.139"/><radialGradient xlink:href="#q" id="K" cx="1614.563" cy="343.175" fx="1614.563" fy="343.175" r="34.171" gradientTransform="matrix(1 0 0 .7169 0 92.203)" gradientUnits="userSpaceOnUse"/><radialGradient xlink:href="#r" id="M" gradientUnits="userSpaceOnUse" gradientTransform="matrix(1.1764 0 0 1.85912 13.917 -222.082)" cx="-214.941" cy="235.923" fx="-214.941" fy="235.923" r="25.55"/><radialGradient xlink:href="#r" id="N" gradientUnits="userSpaceOnUse" gradientTransform="matrix(1.1764 0 0 1.85912 13.917 -222.082)" cx="-78.897" cy="235.923" fx="-78.897" fy="235.923" r="25.55"/><clipPath clipPathUnits="userSpaceOnUse" id="t"><path style="opacity:1;fill:#c0bfbc;fill-opacity:1;stroke:none;stroke-width:2;stroke-linecap:square;stroke-linejoin:round;stroke-dashoffset:26.4;stroke-opacity:1" d="m355 675-35 35h-74c-8.864 0-16 7.136-16 16v138c0 8.864 7.136 16 16 16h74l35-35 35 35h134c8.864 0 16-7.136 16-16V726c0-8.864-7.136-16-16-16H390z"/></clipPath><clipPath clipPathUnits="userSpaceOnUse" id="I"><ellipse style="fill:#9141ac;fill-opacity:1;stroke:none;stroke-width:2;stroke-opacity:.956856;stop-color:#000" cx="1615.072" cy="332.343" rx="34.171" ry="24.497"/></clipPath><filter id="w" x="-.06" y="-.06" width="1.12" height="1.12" style="color-interpolation-filters:sRGB"><feGaussianBlur stdDeviation="1.2"/></filter></defs><path style="font-variation-settings:normal;fill:url(#s);fill-opacity:1;stroke:none;stroke-width:2;stroke-linecap:butt;stroke-linejoin:miter;stroke-miterlimit:4;stroke-dasharray:none;stroke-dashoffset:0;stroke-opacity:.956856;stop-color:#000" d="M66.6 61.732v.56a35.08 35.08 0 0 0 35.08 35.08h17.948a8 8 0 0 1 8 8v3.28a8 8 0 0 1-8 8H45.68a35.08 35.08 0 0 0-35.08 35.08v.56a35.08 35.08 0 0 0 35.08 35.08H148a8 8 0 0 1 8 8v2a8 8 0 0 1-8 8h-4.32a35.08 35.08 0 0 0-35.08 35.08v.56a35.08 35.08 0 0 0 35.08 35.08h377.84a35.08 35.08 0 0 0 35.08-35.08v-.56a35.08 35.08 0 0 0-35.08-35.08H276a8 8 0 0 1-8-8v-2a8 8 0 0 1 8-8h79.52a35.08 35.08 0 0 0 35.08-35.08v-.56a35.08 35.08 0 0 0-35.08-35.08h-21.303a9.617 9.617 0 0 1-9.617-9.617v-.046a9.617 9.617 0 0 1 9.617-9.617h7.303a35.08 35.08 0 0 0 35.08-35.08v-.56a35.08 35.08 0 0 0-35.08-35.08H101.68a35.08 35.08 0 0 0-35.08 35.08z"/><g transform="translate(0 -635)"><path style="opacity:1;fill:#c0bfbc;fill-opacity:1;stroke:none;stroke-width:2;stroke-linecap:square;stroke-linejoin:round;stroke-dashoffset:26.4;stroke-opacity:1" d="m355 675-35 35h-74c-8.864 0-16 7.136-16 16v138c0 8.864 7.136 16 16 16h74l35-35 35 35h134c8.864 0 16-7.136 16-16V726c0-8.864-7.136-16-16-16H390z"/><path style="fill:#9a9996;fill-opacity:1;stroke:none;stroke-width:1.99998;stroke-linecap:square;stroke-linejoin:round;stroke-dashoffset:26.4" d="M292 835h28l35-35 35 35h10v45h-10l-35-35-35 35h-28z"/><path style="fill:#57e389;stroke:none;stroke-width:1px;stroke-linecap:butt;stroke-linejoin:miter;stroke-opacity:1" d="M292.5 833v-30l-25-25v-68H320l35-35 35 35h50l-5 115-45 5-35-32-35 32z"/><path style="fill:none;stroke:#fff;stroke-width:5;stroke-linecap:butt;stroke-linejoin:miter;stroke-miterlimit:4;stroke-dasharray:none;stroke-opacity:1" d="M337.5 812v-67.5"/><path style="fill:#c0bfbc;fill-opacity:1;stroke:none;stroke-width:1px;stroke-linecap:butt;stroke-linejoin:miter;stroke-opacity:1" d="M272 762.5h48l35-35 35 35h17V710h-17l-35-35-35 35h-50z"/><path style="fill:none;stroke:#fff;stroke-width:5;stroke-linecap:butt;stroke-linejoin:miter;stroke-miterlimit:4;stroke-dasharray:none;stroke-opacity:1" d="M272 762.5h48l35-35 35 35h150"/><g clip-path="url(#t)"><path style="fill:#62a0ea;fill-opacity:1;stroke-width:2.99999;stroke-opacity:.956856;stop-color:#000" d="M531.95 688v29a8 8 135 0 1-8 8H523a8 8 135 0 0-8 8v4a8 8 135 0 1-8 8h-29a8 8 45 0 1-8-8v-19a8 8 135 0 1 8-8h4a8 8 135 0 0 8-8v-14a8 8 135 0 1 8-8h25.95a8 8 45 0 1 8 8z"/><path style="fill:#62a0ea;fill-opacity:1;stroke-width:5.9097;stroke-opacity:.956856;stop-color:#000" d="M590 783v64a8 8 135 0 1-8 8h-19a8 8 135 0 0-8 8v24a8 8 135 0 1-8 8h-69a8 8 45 0 1-8-8v-54a8 8 135 0 1 8-8h14a8 8 135 0 0 8-8v-34a8 8 135 0 1 8-8h74a8 8 45 0 1 8 8z"/><path style="fill:#62a0ea;fill-opacity:1;stroke:none;stroke-width:1px;stroke-linecap:butt;stroke-linejoin:miter;stroke-opacity:1" d="M292.5 803v30H186.05V697.82L267.5 710v68z"/></g><path style="fill:none;stroke:#f8e45c;stroke-width:10;stroke-linecap:butt;stroke-linejoin:miter;stroke-miterlimit:4;stroke-dasharray:none;stroke-opacity:1" d="M267.5 710v68l25 25v30"/><path style="fill:#9a9996;fill-opacity:1;stroke:none;stroke-width:1px;stroke-linecap:butt;stroke-linejoin:miter;stroke-opacity:1" d="M400 750h-10l-15-15v-20l15 15h10z"/><path style="fill:none;stroke:#f8e45c;stroke-width:10;stroke-linecap:butt;stroke-linejoin:miter;stroke-miterlimit:4;stroke-dasharray:none;stroke-opacity:1" d="M435 710v100a20 20 135 0 1-20 20h-25l-35-32-35 32h-90"/><path style="fill:#9a9996;fill-opacity:1;stroke:none;stroke-width:1px;stroke-linecap:butt;stroke-linejoin:miter;stroke-opacity:1" d="m327 743 8-8v-25l-8 8zm13-13 10-10v-15l-10 10zm0-20 10-10v-15l-10 10z"/><path style="opacity:.38;fill:#fff;fill-opacity:1;stroke:none;stroke-width:1px;stroke-linecap:butt;stroke-linejoin:miter;stroke-opacity:1" d="m320 880 35-35V675l-35 35z"/><path style="opacity:.16;fill:#3d3846;stroke:none;stroke-width:1px;stroke-linecap:butt;stroke-linejoin:miter;stroke-opacity:1" d="m390 880-35-35V675l35 35z"/><path style="fill:none;stroke:#fff;stroke-width:5;stroke-linecap:butt;stroke-linejoin:miter;stroke-miterlimit:4;stroke-dasharray:none;stroke-opacity:1" d="M407.5 765v-55"/><path style="fill:#9a9996;fill-opacity:1;stroke:none;stroke-width:2;stroke-linecap:square;stroke-linejoin:round;stroke-dashoffset:26.4" d="M465 785h10v10h-10zm7.5-15h15v10h-15zm-7.5 30h22.5v15H465zm-15-55h15v10h-15zm0-25h10v20h-10zm70 25h15v10h-15zm0-15h15v10h-15zM410 845h10v10h-10zm15-5h20v15h-20z"/><path style="fill:none;stroke:#fff;stroke-width:5;stroke-linecap:butt;stroke-linejoin:miter;stroke-miterlimit:4;stroke-dasharray:none;stroke-opacity:1" d="M265 862.5h55l35-35 35 35h70"/><path style="fill:none;stroke:#fff;stroke-width:4.99999;stroke-linecap:butt;stroke-linejoin:miter;stroke-miterlimit:4;stroke-dasharray:none;stroke-opacity:1" d="M292.5 880v-45m-25 45v-45"/><path style="fill:none;stroke:#fff;stroke-width:5;stroke-linecap:butt;stroke-linejoin:miter;stroke-miterlimit:4;stroke-dasharray:none;stroke-opacity:1" d="M457.5 880V762"/><path style="fill:#9a9996;fill-opacity:1;stroke:none;stroke-width:2;stroke-linecap:square;stroke-linejoin:round;stroke-dashoffset:26.4" d="M415 870h20v10h-20zm55-120h10v5h-10zm-235 90h25v15h-25z"/><path style="fill:none;stroke:#fff;stroke-width:4.99999;stroke-linecap:butt;stroke-linejoin:miter;stroke-miterlimit:4;stroke-dasharray:none;stroke-opacity:1" d="M402.5 880v-45"/><circle style="fill:#2ec27e;stroke:none;stroke-width:4;stroke-linecap:square;stroke-linejoin:round;stroke-dashoffset:26.4" cx="412.5" cy="805" r="10"/><circle style="fill:#2ec27e;stroke:none;stroke-width:4;stroke-linecap:square;stroke-linejoin:round;stroke-dashoffset:26.4" cx="412.5" cy="780" r="10"/><path style="fill:#9a9996;fill-opacity:1;stroke:none;stroke-width:2;stroke-linecap:square;stroke-linejoin:round;stroke-dashoffset:26.4" d="M275 840h10v15h-10z"/><path style="fill:#9a9996;fill-opacity:1;stroke:none;stroke-width:1px;stroke-linecap:butt;stroke-linejoin:miter;stroke-opacity:1" d="M400 720h-10l-20-20v-10l20 20h10z"/><path style="fill:#2ec27e;fill-opacity:1;stroke:none;stroke-width:1.99999;stroke-linecap:square;stroke-linejoin:round;stroke-dashoffset:26.4" d="M415 710h10v40h-10z"/><path style="fill:#9a9996;fill-opacity:1;stroke:none;stroke-width:2;stroke-linecap:square;stroke-linejoin:round;stroke-dashoffset:26.4" d="M280 745h10v10h-10zm15-10h15v20h-15z"/><circle style="fill:#2ec27e;stroke:none;stroke-width:4;stroke-linecap:square;stroke-linejoin:round;stroke-dashoffset:26.4" cx="300" cy="780" r="5"/></g><g transform="translate(237.628 -124.688) scale(.74954)" style="stroke-width:3.33333"><g style="stroke-width:3.33333"><circle r="12.689" cy="186.738" cx="64.723" style="display:inline;vector-effect:none;fill:none;fill-opacity:1;stroke:#77767b;stroke-width:5.33661;stroke-linecap:butt;stroke-linejoin:round;stroke-miterlimit:4;stroke-dasharray:none;stroke-dashoffset:0;stroke-opacity:1;enable-background:new"/><path style="display:inline;vector-effect:none;fill:url(#u);fill-opacity:1;stroke:none;stroke-width:5.95627;stroke-linecap:butt;stroke-linejoin:round;stroke-miterlimit:4;stroke-dasharray:none;stroke-dashoffset:0;stroke-opacity:1;enable-background:new" d="M61.111 190.222h7.148v17.869h-7.148z"/><path style="display:inline;vector-effect:none;fill:url(#v);fill-opacity:1;stroke:none;stroke-width:6.0425;stroke-linecap:butt;stroke-linejoin:round;stroke-miterlimit:4;stroke-dasharray:none;stroke-dashoffset:0;stroke-opacity:1;enable-background:new" d="M59.284 183.113H70.16v9.064H59.284z"/><path style="display:inline;opacity:.2;vector-effect:none;fill:#000;fill-opacity:1;stroke:none;stroke-width:6.0425;stroke-linecap:butt;stroke-linejoin:round;stroke-miterlimit:4;stroke-dasharray:none;stroke-dashoffset:0;stroke-opacity:1;enable-background:new" d="M61.097 192.177h7.251v1.813h-7.251z"/><path style="display:inline;opacity:.392059;vector-effect:none;fill:#000;fill-opacity:1;stroke:none;stroke-width:6.0425;stroke-linecap:butt;stroke-linejoin:round;stroke-miterlimit:4;stroke-dasharray:none;stroke-dashoffset:0;stroke-opacity:1;enable-background:new" transform="rotate(90)" d="M183.113-62.91h7.251v1.813h-7.251zm0-3.625h7.251v1.813h-7.251zm0-3.626h7.251v1.813h-7.251z"/></g><circle style="display:inline;opacity:1;vector-effect:none;fill:#000;fill-opacity:.23911;stroke:none;stroke-width:6.66667;stroke-linecap:butt;stroke-linejoin:round;stroke-miterlimit:4;stroke-dasharray:none;stroke-dashoffset:0;stroke-opacity:1;enable-background:new" cx="64" cy="258.117" r="46"/><circle style="display:inline;opacity:1;vector-effect:none;fill:#3d3846;fill-opacity:1;stroke:none;stroke-width:6.66667;stroke-linecap:butt;stroke-linejoin:round;stroke-miterlimit:4;stroke-dasharray:none;stroke-dashoffset:0;stroke-opacity:1;enable-background:new" cx="64" cy="253.887" r="46"/><circle r="46" cy="250" cx="64" style="display:inline;opacity:1;vector-effect:none;fill:#77767b;fill-opacity:1;stroke:none;stroke-width:6.66667;stroke-linecap:butt;stroke-linejoin:round;stroke-miterlimit:4;stroke-dasharray:none;stroke-dashoffset:0;stroke-opacity:1;enable-background:new"/><circle style="display:inline;opacity:1;vector-effect:none;fill:#77767b;fill-opacity:1;stroke:none;stroke-width:6.66667;stroke-linecap:butt;stroke-linejoin:round;stroke-miterlimit:4;stroke-dasharray:none;stroke-dashoffset:0;stroke-opacity:1;enable-background:new" cx="64" cy="250" r="42"/><g style="stroke-width:3.33333"><circle style="display:inline;opacity:1;vector-effect:none;fill:#fff;fill-opacity:1;stroke:none;stroke-width:8;stroke-linecap:butt;stroke-linejoin:round;stroke-miterlimit:4;stroke-dasharray:none;stroke-dashoffset:0;stroke-opacity:1;enable-background:new" transform="scale(1 -1) rotate(-15 -1823.935 -819.681)" r="39.682" cy="219.223" cx="-147.774"/></g><g transform="rotate(30 64 250.305)" style="stroke-width:3.33333"><g style="display:inline;fill:#fff;stroke-width:3.33333;enable-background:new"><path d="M64 217.958 55.693 243h16.614z" style="fill:#9a9996;fill-rule:evenodd;stroke:none;stroke-width:1.41607px;enable-background:new" transform="matrix(-1 0 0 -1.24692 128.03 557.427)"/><path d="M63.998 217.965 55.693 243h8.305z" style="fill:#5e5c64;fill-opacity:.373444;fill-rule:evenodd;stroke-width:1.41607;enable-background:new" transform="matrix(-1 0 0 -1.24692 128.03 557.427)"/></g><g style="display:inline;stroke-width:3.33333;enable-background:new"><path transform="matrix(.24993 0 0 .31164 -67.726 -117.645)" d="m527.04 1123.5-24 48h48z" style="fill:#1a1a1a;fill-opacity:.4;fill-rule:evenodd;stroke-width:3.33333;filter:url(#w);enable-background:new"/><path d="M64 217.958 55.693 243h16.614z" style="fill:#ed333b;fill-rule:evenodd;stroke:none;stroke-width:1.41607px;enable-background:new" transform="matrix(1 0 0 1.24692 0 -56.817)"/><path d="M63.998 217.965 55.693 243h8.305z" style="fill:#fff;fill-opacity:.373444;fill-rule:evenodd;stroke-width:1.41607;enable-background:new" transform="matrix(1 0 0 1.24692 0 -56.817)"/></g><circle style="display:inline;fill:url(#x);stroke-width:0;enable-background:new" r="12" cy="250" cx="64"/><circle style="display:inline;fill:#ccc;stroke-width:0;enable-background:new" r="11" cy="-249" cx="64" transform="scale(1 -1)"/></g></g><path style="display:inline;vector-effect:none;fill:#000;fill-opacity:.15861;stroke:none;stroke-width:52.4593;stroke-linecap:round;stroke-linejoin:miter;stroke-miterlimit:4;stroke-dasharray:none;stroke-dashoffset:0;stroke-opacity:1;marker:none;marker-start:none;marker-mid:none;marker-end:none;paint-order:normal;enable-background:new" d="m470.692 157.964-6.238.891-6.236.89-58.537 58.538-2.39 2.388-2.374 2.375a5.03 5.03 0 0 0 0 7.13l3.564 3.562a5.028 5.028 0 0 0 7.127 0l4.135-4.133 1.805-1.806 57.361-57.362.89-6.236z" transform="matrix(-1 0 0 1 953.606 50)"/><g style="display:inline;stroke-width:3.33333;enable-background:new"><path style="display:inline;opacity:1;vector-effect:none;fill:url(#y);fill-opacity:1;stroke:none;stroke-width:41.6327;stroke-linecap:round;stroke-linejoin:miter;stroke-miterlimit:4;stroke-dasharray:none;stroke-dashoffset:0;stroke-opacity:1;marker:none;marker-start:none;marker-mid:none;marker-end:none;paint-order:normal;enable-background:new" d="M48 77v-6l4-3v12z" transform="rotate(45 139.415 663.737) scale(1.26005)"/><path style="opacity:1;fill:url(#z);fill-opacity:1;stroke:none;stroke-width:25.1969;stroke-linecap:round;stroke-linejoin:miter;stroke-miterlimit:4;stroke-dasharray:none;stroke-dashoffset:4;stroke-opacity:1" d="M118.406 68h4.64c2.216 0 4 1.784 4 4v4c0 2.216-1.784 4-4 4h-4.64c-2.216 0-4-1.784-4-4v-4c0-2.216 1.784-4 4-4z" transform="rotate(45 139.415 663.737) scale(1.26005)"/><path style="display:inline;opacity:1;vector-effect:none;fill:#424048;fill-opacity:1;stroke:none;stroke-width:41.6327;stroke-linecap:round;stroke-linejoin:miter;stroke-miterlimit:4;stroke-dasharray:none;stroke-dashoffset:0;stroke-opacity:1;marker:none;marker-start:none;marker-mid:none;marker-end:none;paint-order:normal;enable-background:new" d="m44 74 4-3v6z" transform="rotate(45 139.415 663.737) scale(1.26005)"/><g style="stroke-width:4.26027"><path d="M36 78.4v-8.8h168.981v8.8z" style="display:inline;fill:#e01b24;fill-opacity:1;stroke:none;stroke-width:2.15755px;stroke-linecap:butt;stroke-linejoin:miter;stroke-opacity:1;enable-background:new" transform="rotate(45 115.465 721.546) scale(.48977 1.26005)"/><path d="M36 72v-4h169.024l-.043 4z" style="display:inline;opacity:1;fill:#f66151;fill-opacity:1;stroke:none;stroke-width:1.52562px;stroke-linecap:butt;stroke-linejoin:miter;stroke-opacity:1;enable-background:new" transform="rotate(45 115.465 721.546) scale(.48977 1.26005)"/><path d="M36 76v4h169.024l-.043-4z" style="display:inline;opacity:1;fill:#a51d2d;fill-opacity:1;stroke:none;stroke-width:1.52562px;stroke-linecap:butt;stroke-linejoin:miter;stroke-opacity:1;enable-background:new" transform="rotate(45 115.465 721.546) scale(.48977 1.26005)"/></g><path style="opacity:1;fill:url(#A);fill-opacity:1;stroke:none;stroke-width:25.1969;stroke-linecap:round;stroke-linejoin:miter;stroke-miterlimit:4;stroke-dasharray:none;stroke-dashoffset:4;stroke-opacity:1" d="M116.379 68h4v12h-4z" transform="rotate(45 139.415 663.737) scale(1.26005)"/></g><path style="fill:#000;fill-opacity:.218893;stroke:none;stroke-width:2;stroke-opacity:.956856;stop-color:#000" d="M487.688 8.077c-6.779 0-12.274 3.838-12.273 8.572.081.059.164.117.248.174h-.248v10.25c-2.416.409-4.605 1.256-6.365 2.441-3.996 2.763-15.329 8.951-15.329 8.951-2.671 1.543-4.609 4.385-4.609 7.285v33.428c0 3.46 2.445 6.51 6.162 8.313v1.213h.018c.014 1.081.257 2.121.67 3.111a16.92 16.92 0 0 0-2.862 2.05l.145.104h-.115v2.966a4.75 4.75 0 0 0-.03.021l.03.021v1.067l1.488 4.935c.717 6.47 7.884 11.61 16.91 12.123 9.025-.515 16.191-5.653 16.908-12.123l1.547-4.935v-4.075h-.174l.145-.103a16.919 16.919 0 0 0-2.746-1.969 8.41 8.41 0 0 0 .66-2.754h1.719c.53.044 1.063.067 1.597.066 7.728 0 13.994-4.49 13.994-10.03h.11V67.77a5.65 5.65 0 0 0 .818-.014v11.422h.11c0 5.54 6.264 10.031 13.992 10.031.534 0 1.069-.022 1.6-.066h.849c-.805 1.508-1.218 3.108-1.219 4.723v.103h-.03v9.01h.09c.79 6.851 8.777 12.123 18.366 12.123s17.574-5.272 18.363-12.123h.036v-.367a8.99 8.99 0 0 0 0-1.441v-6.585c.018-.24.028-.48.03-.72 0-2.171-.748-4.308-2.175-6.223v-.152c3.718-1.803 6.162-4.853 6.162-8.313V45.75c0-2.9-1.937-5.742-4.609-7.285 0 0-11.333-6.188-15.328-8.95-1.76-1.186-3.95-2.033-6.365-2.442v-10.25h-.006c0-.058.004-.116.004-.174 0-4.734-5.494-8.572-12.272-8.572-6.779 0-12.274 3.837-12.273 8.572v.174h-.026v20.066h.024c.006.392.049.784.13 1.172l-1.779 1.303c-.963-1.2-2.517-1.912-4.174-1.912-1.616 0-3.139.679-4.107 1.832l-2.482-1.815c.289-.184.565-.377.828-.58h.134V16.822h-.27a7.34 7.34 0 0 0 .249-.173c0-4.734-5.495-8.573-12.274-8.572z"/><g transform="translate(-158.707 -39.028) scale(.4095)" style="stroke-width:2.44204"><g id="L" transform="translate(65.484)" style="stroke-width:2.44204"><ellipse style="opacity:1;fill:#c0bfbc;fill-opacity:1;stroke:none;stroke-width:4.88409;stroke-opacity:.956856;stop-color:#000" cx="1600.026" cy="124.179" rx="29.971" ry="20.932"/><ellipse style="font-variation-settings:normal;opacity:1;vector-effect:none;fill:url(#B);fill-opacity:1;stroke:none;stroke-width:4.88409;stroke-linecap:butt;stroke-linejoin:miter;stroke-miterlimit:4;stroke-dasharray:none;stroke-dashoffset:0;stroke-opacity:.956856;stop-color:#000;stop-opacity:1" cx="1600.012" cy="173.41" rx="29.957" ry="21.025"/><path style="opacity:1;fill:#c0bfbc;fill-opacity:1;stroke:none;stroke-width:4.88406;stroke-opacity:.956856;stop-color:#000" d="M1570 124.605h60v25h-60z"/><path style="font-variation-settings:normal;opacity:1;vector-effect:none;fill:url(#C);fill-opacity:1;stroke:none;stroke-width:4.88409;stroke-linecap:butt;stroke-linejoin:miter;stroke-miterlimit:4;stroke-dasharray:none;stroke-dashoffset:0;stroke-opacity:.956856;stop-color:#000;stop-opacity:1" d="M1570 145.605h60v28h-60z"/><ellipse style="font-variation-settings:normal;opacity:1;vector-effect:none;fill:url(#D);fill-opacity:1;stroke:none;stroke-width:4.88409;stroke-linecap:butt;stroke-linejoin:miter;stroke-miterlimit:4;stroke-dasharray:none;stroke-dashoffset:0;stroke-opacity:.956856;stop-color:#000;stop-opacity:1" cx="1599.997" cy="145.581" rx="29.942" ry="21.025"/><path style="fill:url(#E);fill-opacity:1;stroke:none;stroke-width:4.88409;stroke-opacity:.956856;stop-color:#000" d="M1622.143 148.953c-8.324 0-16.008 2.146-21.973 5.738l-34.77 25.418c-3.983 3.649-8.351 8.698-8.351 14.458v82.31h137.181v-81.629c0-7.083-4.729-14.026-11.253-17.793 0 0-27.677-15.11-37.434-21.857-6.142-4.137-14.4-6.645-23.4-6.645z"/><path style="fill:#3d3846;fill-opacity:1;stroke:none;stroke-width:4.88409;stroke-opacity:.956856;stop-color:#000" d="M1622.143 230.582c-8.324 0-16.008 2.145-21.973 5.737l-34.77 25.418c-4.683 3.76-8.007 10.188-8.084 15.14.001 13.529 15.3 24.496 34.17 24.496a47.54 47.54 0 0 0 3.905-.16h60.773a47.75 47.75 0 0 0 3.897.16c18.87 0 34.169-10.967 34.17-24.496-.932-8.63-5.519-14.149-11.255-17.793 0 0-27.676-15.11-37.433-21.857-6.143-4.137-14.4-6.645-23.4-6.645z"/><path style="font-variation-settings:normal;opacity:1;vector-effect:none;fill:url(#F);fill-opacity:1;stroke:none;stroke-width:4.88409;stroke-linecap:butt;stroke-linejoin:miter;stroke-miterlimit:4;stroke-dasharray:none;stroke-dashoffset:0;stroke-opacity:.956856;stop-color:#000;stop-opacity:1" d="M1639.297 252.018c-21.983 0-39.802 12.514-39.802 27.95V280h-.074v20.139h.074c.203 15.334 17.974 27.69 39.824 27.69 21.849-.002 39.617-12.357 39.82-27.69h.043V280h-.08v-.031c0-15.437-17.82-27.952-39.804-27.951z"/><ellipse style="opacity:1;fill:url(#G);fill-opacity:1;stroke:none;stroke-width:4.88409;stroke-opacity:.956856;stop-color:#000" cx="1639.492" cy="312.744" rx="45" ry="32.261"/><path style="font-variation-settings:normal;opacity:1;vector-effect:none;fill:url(#H);fill-opacity:1;stroke:none;stroke-width:4.88409;stroke-linecap:butt;stroke-linejoin:miter;stroke-miterlimit:4;stroke-dasharray:none;stroke-dashoffset:0;stroke-opacity:.956856;stop-color:#000;stop-opacity:1" d="M1594.42 313h90v22h-90z"/><ellipse style="opacity:1;fill:#888784;fill-opacity:1;stroke:none;stroke-width:4.88409;stroke-opacity:.956856;stop-color:#000" cx="1639.492" cy="332.343" rx="45" ry="32.261"/><g clip-path="url(#I)" style="stroke-width:2.44204" transform="translate(24.42)"><ellipse style="opacity:1;fill:url(#J);fill-opacity:1;stroke:none;stroke-width:4.88409;stroke-opacity:.956856;stop-color:#000" cx="1615.072" cy="332.343" rx="34.171" ry="24.497"/><ellipse style="fill:url(#K);fill-opacity:1;stroke:none;stroke-width:4.88409;stroke-opacity:.956856;stop-color:#000" cx="1615.391" cy="325.694" rx="34.171" ry="24.497"/></g></g><use xlink:href="#L" transform="matrix(-1 0 0 1 3243.066 0)" width="100%" height="100%" style="stroke-width:2.44204"/><ellipse style="fill:#d0cfcd;fill-opacity:1;stroke:none;stroke-width:4.88409;stroke-opacity:.956856;stop-color:#000" cx="1621.324" cy="186.14" rx="12.528" ry="11.158"/><path style="fill:#d0cfcd;fill-opacity:1;stroke:none;stroke-width:4.88404;stroke-opacity:.956856;stop-color:#000" d="M1608.772 185.082h25.081v40.062h-25.081z"/><path style="fill:#cfcecc;fill-opacity:1;stroke:none;stroke-width:4.88409;stroke-opacity:.956856;stop-color:#000" d="M1608.772 223.012h25.081v14.926h-25.081z"/><ellipse style="fill:#cfcecb;fill-opacity:1;stroke:none;stroke-width:4.88409;stroke-opacity:.956856;stop-color:#000" cx="1621.312" cy="222.999" rx="12.516" ry="11.208"/><ellipse style="fill:#a7a7ab;fill-opacity:1;stroke:none;stroke-width:4.88409;stroke-opacity:.956856;stop-color:#000" cx="1621.318" cy="237.833" rx="12.523" ry="11.208"/></g><g transform="translate(308.84 -16)"><path style="fill:#000;fill-opacity:.121604;stroke:none;stroke-width:1.99999;stop-color:#000" d="M-180.096 85c-32.599 0-58.865 26.245-58.843 58.844l.048 72.707c-11.664 2.395-29.949 12.882-29.949 35.254v33.39c0 14.296 11.369 25.805 25.49 25.805h169.02c14.121 0 25.49-11.51 25.49-25.805v-33.39c0-22.44-18.397-32.924-30.057-35.278l-.042-72.683C-78.96 111.244-105.184 85-137.783 85z"/><path style="font-variation-settings:normal;opacity:1;vector-effect:none;fill:url(#M);fill-opacity:1;stroke:none;stroke-width:1.99999;stroke-linecap:butt;stroke-linejoin:miter;stroke-miterlimit:4;stroke-dasharray:none;stroke-dashoffset:0;stroke-opacity:1;stop-color:#000;stop-opacity:1" d="M-234.076 211h16.336l-.1 95h-25.51c-14.121 0-25.49-11.509-25.49-25.804v-33.392C-268.84 221-244.51 211-234.076 211z"/><circle style="fill:none;fill-opacity:1;stroke:#3d3846;stroke-width:10;stroke-miterlimit:4;stroke-dasharray:none;stroke-opacity:1;stop-color:#000" cx="-158.939" cy="90.352" r="30"/><path style="fill:url(#N);fill-opacity:1;stroke:none;stroke-width:1.99999;stop-color:#000" d="M-83.604 211h-16.335l.1 95h25.509c14.122 0 25.49-11.509 25.49-25.804v-33.392C-48.84 221-73.17 211-83.604 211z"/><path style="fill:#5e5c64;fill-opacity:1;stroke:none;stroke-width:1.99999;stop-color:#000" d="M-180.096 80h42.314c32.599 0 58.823 26.244 58.843 58.843l.1 152.157h-160l-.1-152.157C-238.961 106.244-212.695 80-180.096 80z"/><path style="fill:url(#O);fill-opacity:1;stroke:none;stroke-width:1.99999;stop-color:#000" d="m238.9 195 .1 95h25.51c14.121 0 25.49-11.51 25.49-25.805v-15C290 263.491 278.631 275 264.51 275H239l-.084-80z" transform="translate(-338.84 16)"/><path style="fill:#58575a;fill-opacity:1;stroke:none;stroke-width:1.99999;stop-color:#000" d="M179.959 64c32.599 0 58.822 26.245 58.842 58.844L239 290h21l-.1-167.156C259.881 90.244 233.656 64 201.057 64z" transform="translate(-338.84 16)"/><path style="fill:url(#P);fill-opacity:1;stroke:none;stroke-width:1.99999;stop-color:#000" d="m-217.74 211-.1 95h-25.51c-14.121 0-25.49-11.51-25.49-25.805v-15c0 14.296 11.369 25.805 25.49 25.805h25.51l.084-80z"/><path style="fill:url(#Q);fill-opacity:1;stroke:none;stroke-width:1.99999;stop-color:#000" d="M-78.84 306h-160l.01-15h159.99z"/></g><rect style="font-variation-settings:normal;vector-effect:none;fill:#77767b;fill-opacity:1;stroke:none;stroke-width:2;stroke-linecap:butt;stroke-linejoin:miter;stroke-miterlimit:4;stroke-dasharray:none;stroke-dashoffset:0;stroke-opacity:1;stop-color:#000" width="120" height="55.283" x="90" y="133.052" rx="9.759" ry="9.759"/><path style="font-variation-settings:normal;vector-effect:none;fill:#000;fill-opacity:.0746971;stroke:none;stroke-width:2;stroke-linecap:butt;stroke-linejoin:miter;stroke-miterlimit:4;stroke-dasharray:none;stroke-dashoffset:0;stroke-opacity:1;stop-color:#000" d="M99.758 135.052A9.736 9.736 0 0 0 90 144.81v15.242h120V144.81a9.736 9.736 0 0 0-9.758-9.758z"/><path style="font-variation-settings:normal;vector-effect:none;fill:#9a9996;fill-opacity:1;stroke:none;stroke-width:2;stroke-linecap:butt;stroke-linejoin:miter;stroke-miterlimit:4;stroke-dasharray:none;stroke-dashoffset:0;stroke-opacity:1;stop-color:#000" d="M99.758 133.052A9.736 9.736 0 0 0 90 142.81v15.242h120V142.81a9.736 9.736 0 0 0-9.758-9.758z"/><circle style="font-variation-settings:normal;vector-effect:none;fill:#9a9996;fill-opacity:1;stroke:none;stroke-width:2;stroke-linecap:butt;stroke-linejoin:miter;stroke-miterlimit:4;stroke-dasharray:none;stroke-dashoffset:0;stroke-opacity:1;stop-color:#000" cx="150" cy="90" r="10"/><path style="fill:#6e6d72;fill-opacity:1;stroke-width:10;stop-color:#000" d="M188 130.052h9a3 3 45 0 1 3 3v36a6.276 6.276 115.55 0 1-2.335 4.884l-2.766 2.232a3.75 3.75 179.76 0 1-4.685.02l-2.864-2.271a6.209 6.209 64.211 0 1-2.35-4.865v-36a3 3 135 0 1 3-3z"/><path style="fill:#87868b;fill-opacity:1;stroke-width:10;stop-color:#000" d="M188 128.052h9a3 3 45 0 1 3 3v36a6.276 6.276 115.55 0 1-2.335 4.884l-2.766 2.232a3.75 3.75 179.76 0 1-4.685.02l-2.864-2.271a6.209 6.209 64.211 0 1-2.35-4.865v-36a3 3 135 0 1 3-3z"/><path style="fill:#6e6d72;fill-opacity:1;stroke-width:10;stop-color:#000" d="M103 130.052h9a3 3 45 0 1 3 3v36a6.276 6.276 115.55 0 1-2.335 4.884l-2.766 2.232a3.75 3.75 179.76 0 1-4.685.02l-2.864-2.271a6.209 6.209 64.211 0 1-2.35-4.865v-36a3 3 135 0 1 3-3z"/><path style="fill:#87868b;fill-opacity:1;stroke-width:10;stop-color:#000" d="M103 128.052h9a3 3 45 0 1 3 3v36a6.276 6.276 115.55 0 1-2.335 4.884l-2.766 2.232a3.75 3.75 179.76 0 1-4.685.02l-2.864-2.271a6.209 6.209 64.211 0 1-2.35-4.865v-36a3 3 135 0 1 3-3z"/><g transform="translate(-30)"><rect style="font-variation-settings:normal;opacity:1;fill:url(#R);fill-opacity:1;stroke:none;stroke-width:1.37546;stroke-linecap:butt;stroke-linejoin:miter;stroke-miterlimit:4;stroke-dasharray:none;stroke-dashoffset:0;stroke-opacity:1;stop-color:#000;stop-opacity:1" width="120" height="58.457" x="120" y="204.309" rx="10.831" ry="10.831"/><g transform="translate(287.696 76.391) scale(.68773)"><rect style="fill:#3d3846;fill-opacity:1;stroke-width:10;stop-color:#000" width="10" height="10" x="-238.84" y="201" rx="5" ry="5"/><rect style="fill:#3d3846;fill-opacity:1;stroke-width:10;stop-color:#000" width="13.99" height="20" x="-240.84" y="209" rx="6.995" ry="6.995"/><ellipse style="fill:#9a9996;fill-opacity:1;stroke-width:10;stop-color:#000" cx="-233.84" cy="221.834" rx="5" ry="5.022"/></g><path style="fill:#9a9996;fill-opacity:1;stroke:none;stroke-width:1.37546;stop-color:#000" d="M130.832 204.31c-6 0-10.832 4.83-10.832 10.831v2.923h120.018v-2.923c0-6-4.83-10.832-10.831-10.832z"/><rect style="fill:#000;fill-opacity:.0888712;stroke-width:6.87732;stop-color:#000" width="120.018" height="3.439" x="120" y="218.064" rx="0" ry="0"/></g></svg>