<svg width="600" height="300" viewBox="0 0 600 300" fill="none" xmlns="http://www.w3.org/2000/svg">
<g clip-path="url(#clip0_1_484)">
<g opacity="0.8" filter="url(#filter0_f_1_484)">
<path d="M367.558 125.806C364.586 114.262 353.875 106.389 341.867 106.923L303.794 108.616C285.478 109.431 281.02 134.403 297.965 141.273V141.273C310.254 146.255 321.658 153.15 331.748 161.698L336.224 165.49C352.625 179.383 377.393 164.006 372.049 143.248L367.558 125.806Z" fill="#FFA800"/>
</g>
<g opacity="0.8" filter="url(#filter1_f_1_484)">
<path d="M234.244 108.19C240.111 97.8393 252.438 93.0046 263.845 96.581L300.112 107.953C317.594 113.434 315.423 138.766 297.276 141.057V141.057C284.17 142.712 271.418 146.43 259.496 152.073L254.188 154.586C234.712 163.804 214.806 142.486 225.413 123.77L234.244 108.19Z" fill="#FFE600"/>
</g>
<g opacity="0.8" filter="url(#filter2_f_1_484)">
<path d="M260.38 193.966C266.246 204.316 278.574 209.151 289.98 205.575L326.248 194.203C343.729 188.722 341.558 163.39 323.411 161.099V161.099C310.305 159.444 297.554 155.725 285.632 150.083L280.323 147.57C260.847 138.351 240.941 159.67 251.549 178.386L260.38 193.966Z" fill="#FF006B"/>
</g>
<g clip-path="url(#clip1_1_484)">
<path d="M317.285 165.256C333.361 167.542 342.597 173.325 344.565 175.431C346.533 177.538 353.142 185.479 356.401 196.086C358.149 201.775 359.528 208.992 360.538 217.735C356.234 216.83 351.81 216.469 347.264 216.651C332.589 217.237 319.621 215.597 310.757 205.353C304.849 198.524 299.412 185.412 294.447 166.017C303.149 164.583 310.762 164.329 317.285 165.256Z" fill="#FBBD4E"/>
<mask id="mask0_1_484" style="mask-type:luminance" maskUnits="userSpaceOnUse" x="294" y="164" width="67" height="54">
<path d="M317.272 165.231C333.34 167.53 342.574 173.324 344.543 175.433C346.512 177.542 353.122 185.493 356.387 196.11C358.138 201.804 359.522 209.026 360.538 217.776C356.236 216.868 351.814 216.503 347.271 216.681C332.605 217.258 319.643 215.607 310.777 205.35C304.867 198.513 299.424 185.388 294.447 165.976C303.144 164.547 310.752 164.299 317.272 165.231Z" fill="white"/>
</mask>
<g mask="url(#mask0_1_484)">
<path d="M346.573 206.313C325.832 192.167 319.626 184.22 300.006 165.899" stroke="#FDDC71" stroke-width="7" stroke-miterlimit="1" stroke-linecap="round"/>
</g>
<path d="M307.595 146.306C315.638 132.282 324.436 125.882 327.128 124.843C329.82 123.803 339.67 120.634 350.781 121.553C356.741 122.045 363.993 123.446 372.536 125.753C370.109 129.399 368.145 133.358 366.645 137.63C361.802 151.423 355.504 162.812 342.674 167.213C334.12 170.147 319.867 170.315 299.915 167.716C301.772 159.133 304.332 151.996 307.595 146.306Z" fill="#FBBD4E"/>
<mask id="mask1_1_484" style="mask-type:luminance" maskUnits="userSpaceOnUse" x="299" y="121" width="74" height="49">
<path d="M307.604 146.279C315.63 132.247 324.42 125.85 327.11 124.812C329.801 123.774 339.644 120.611 350.753 121.541C356.711 122.04 363.962 123.449 372.505 125.768C370.083 129.415 368.124 133.376 366.628 137.652C361.8 151.455 355.516 162.85 342.693 167.243C334.145 170.172 319.896 170.325 299.948 167.704C301.796 159.114 304.348 151.972 307.604 146.279Z" fill="white"/>
</mask>
<g mask="url(#mask1_1_484)">
<path d="M300.045 165.946C318.439 153.463 331.75 144.106 354.671 133.821" stroke="#FDDC71" stroke-width="7" stroke-miterlimit="1" stroke-linecap="round"/>
</g>
<path d="M285.285 149.222C277.111 135.253 275.935 124.463 276.373 121.623C276.812 118.783 278.966 108.711 285.299 99.6062C288.696 94.7225 293.525 89.1826 299.785 82.9863C301.743 86.9068 304.204 90.5859 307.167 94.0239C316.735 105.122 323.49 116.265 320.921 129.522C319.208 138.361 312.253 150.716 300.056 166.589C293.526 160.679 288.602 154.89 285.285 149.222Z" fill="#FBBD4E"/>
<mask id="mask2_1_484" style="mask-type:luminance" maskUnits="userSpaceOnUse" x="276" y="82" width="46" height="85">
<path d="M285.325 149.215C277.145 135.234 275.96 124.44 276.395 121.6C276.83 118.76 278.972 108.687 285.289 99.5856C288.678 94.7038 293.496 89.167 299.743 82.9751C301.703 86.8986 304.164 90.5811 307.128 94.0229C316.697 105.134 323.455 116.286 320.902 129.545C319.2 138.384 312.265 150.736 300.097 166.601C293.567 160.683 288.644 154.888 285.325 149.215Z" fill="white"/>
</mask>
<g mask="url(#mask2_1_484)">
<path d="M300.105 165.947C297.528 144.343 295.737 123.608 298.125 101.512" stroke="#FDDC71" stroke-width="7" stroke-miterlimit="1" stroke-linecap="round"/>
</g>
<path d="M277.389 171.685C261.157 171.707 251.183 167.293 248.931 165.486C246.679 163.68 238.991 156.756 234.23 146.716C231.676 141.33 229.266 134.38 227 125.866C231.387 126.15 235.816 125.879 240.286 125.053C254.716 122.386 267.78 122.167 278.032 131.051C284.866 136.974 292.145 149.185 299.868 167.686C291.468 170.343 283.975 171.677 277.389 171.685Z" fill="#FBBD4E"/>
<mask id="mask3_1_484" style="mask-type:luminance" maskUnits="userSpaceOnUse" x="226" y="123" width="74" height="49">
<path d="M277.406 171.717C261.184 171.722 251.212 167.294 248.96 165.484C246.707 163.675 239.017 156.738 234.248 146.685C231.69 141.293 229.274 134.335 227 125.813C231.385 126.102 235.811 125.835 240.277 125.013C254.695 122.36 267.751 122.154 278.006 131.055C284.843 136.989 292.13 149.217 299.868 167.738C291.475 170.389 283.988 171.715 277.406 171.717Z" fill="white"/>
</mask>
<g mask="url(#mask3_1_484)">
<path d="M243.111 136.012C261.9 148.234 278.095 157.824 299.298 166.033" stroke="#FDDC71" stroke-width="7" stroke-miterlimit="1" stroke-linecap="round"/>
</g>
<path d="M297.543 189.746C290.562 204.322 282.263 211.348 279.655 212.581C277.048 213.815 267.461 217.695 256.313 217.589C250.334 217.533 242.999 216.665 234.31 214.987C236.46 211.173 238.124 207.08 239.303 202.709C243.111 188.597 248.547 176.777 261.015 171.45C269.327 167.899 283.527 166.692 303.615 167.829C302.399 176.526 300.375 183.831 297.543 189.746Z" fill="#FBBD4E"/>
<mask id="mask4_1_484" style="mask-type:luminance" maskUnits="userSpaceOnUse" x="234" y="167" width="70" height="51">
<path d="M297.535 189.767C290.568 204.348 282.276 211.373 279.67 212.605C277.064 213.837 267.482 217.712 256.337 217.598C250.358 217.537 243.024 216.662 234.335 214.976C236.481 211.161 238.142 207.066 239.317 202.693C243.113 188.572 248.538 176.748 260.999 171.427C269.307 167.88 283.503 166.684 303.588 167.838C302.38 176.54 300.362 183.85 297.535 189.767Z" fill="white"/>
</mask>
<g mask="url(#mask4_1_484)">
<path d="M249.84 205.811C271.081 193.694 282.762 182.663 299.959 165.947" stroke="#FDDC71" stroke-width="7" stroke-miterlimit="1" stroke-linecap="round"/>
</g>
<path d="M320.702 163.729C320.868 167.609 315.057 167.877 315.018 172.616C314.984 176.735 314.17 180.359 310.872 182.441C307.574 184.524 303.339 182.329 299.612 182.487C295.884 182.644 293.116 185.133 289.652 183.336C286.189 181.538 286.14 178.663 284.139 175.532C282.138 172.402 278.265 170.119 278.1 166.239C277.934 162.359 281.82 160.504 283.547 157.217C285.274 153.93 284.796 148.888 288.094 146.806C291.392 144.723 294.995 147.247 298.723 147.09C302.451 146.932 306.511 144.333 309.974 146.131C313.438 147.929 312.836 152.532 314.837 155.662C316.838 158.792 320.537 159.849 320.702 163.729Z" fill="#FDDC71"/>
<path d="M314.058 172.921C312.434 176.068 306.845 172.93 305.03 175.557C303.174 178.243 302.926 181.507 299.541 181.318C296.456 181.146 297.395 175.688 294.835 174.23C292.274 172.772 286.583 176.426 285.145 173.092C283.649 169.622 289.719 169.522 289.635 165.733C289.551 161.944 282.896 159.816 284.432 157.151C285.967 154.486 291.545 157.352 294.096 155.877C296.646 154.402 297.006 147.977 300.096 147.967C303.186 147.956 302.469 154.504 305.03 155.962C307.59 157.419 313.574 154.183 315.128 156.837C316.682 159.492 308.497 161.672 308.507 164.605C308.517 167.538 315.469 170.188 314.058 172.921Z" fill="#FEEED1"/>
</g>
</g>
<defs>
<filter id="filter0_f_1_484" x="173.378" y="-7.103" width="313.411" height="291.916" filterUnits="userSpaceOnUse" color-interpolation-filters="sRGB">
<feFlood flood-opacity="0" result="BackgroundImageFix"/>
<feBlend mode="normal" in="SourceGraphic" in2="BackgroundImageFix" result="shape"/>
<feGaussianBlur stdDeviation="57" result="effect1_foregroundBlur_1_484"/>
</filter>
<filter id="filter1_f_1_484" x="108.459" y="-18.589" width="317.662" height="289.393" filterUnits="userSpaceOnUse" color-interpolation-filters="sRGB">
<feFlood flood-opacity="0" result="BackgroundImageFix"/>
<feBlend mode="normal" in="SourceGraphic" in2="BackgroundImageFix" result="shape"/>
<feGaussianBlur stdDeviation="57" result="effect1_foregroundBlur_1_484"/>
</filter>
<filter id="filter2_f_1_484" x="134.594" y="31.3518" width="317.662" height="289.393" filterUnits="userSpaceOnUse" color-interpolation-filters="sRGB">
<feFlood flood-opacity="0" result="BackgroundImageFix"/>
<feBlend mode="normal" in="SourceGraphic" in2="BackgroundImageFix" result="shape"/>
<feGaussianBlur stdDeviation="57" result="effect1_foregroundBlur_1_484"/>
</filter>
<clipPath id="clip0_1_484">
<rect width="600" height="300" fill="white"/>
</clipPath>
<clipPath id="clip1_1_484">
<rect width="146" height="135" fill="white" transform="translate(227 83)"/>
</clipPath>
</defs>
</svg>
