<svg width="600" height="300" viewBox="0 0 600 300" fill="none" xmlns="http://www.w3.org/2000/svg">
<g clip-path="url(#clip0_3_9)">
<path opacity="0.3" d="M174.819 37.1295C273.425 88.7293 382.64 63.4072 424.922 44.2961C469.797 25.5832 550.692 12.7629 515.271 111.185C470.994 234.212 320.214 302.893 252.004 299.907C183.794 296.92 130.678 236.695 90.4546 146.421C68.5186 97.1897 51.563 -27.3703 174.819 37.1295Z" fill="url(#paint0_radial_3_9)"/>
<path d="M174.819 263.806C273.425 212.023 382.64 237.435 424.922 256.614C469.797 275.393 550.692 288.259 515.271 189.487C470.994 66.0219 320.214 -2.90292 252.004 0.0938056C183.794 3.09054 130.678 63.5307 90.4546 154.126C68.5186 203.532 51.563 328.535 174.819 263.806Z" fill="url(#paint1_radial_3_9)"/>
<path fill-rule="evenodd" clip-rule="evenodd" d="M388.828 157.812C389.52 157.812 390.065 158.1 390.464 158.675C390.864 159.251 391.063 160.042 391.063 161.049C391.063 162.967 390.558 164.453 389.546 165.508C387.258 168.049 384.77 170.135 382.082 171.765C379.394 173.395 376.348 174.211 372.941 174.211C368.257 174.211 364.785 172.293 362.523 168.457C360.261 164.621 359.13 159.658 359.13 153.569C359.13 147.719 359.968 141.055 361.645 133.575C363.321 126.095 365.796 119.67 369.069 114.3C372.342 108.929 376.241 106.244 380.764 106.244C383.319 106.244 385.328 107.311 386.792 109.445C388.255 111.579 388.987 114.635 388.987 118.615C388.987 124.321 387.231 130.938 383.719 138.465C380.206 145.993 375.443 153.449 369.429 160.833C369.801 162.799 370.413 164.202 371.264 165.041C372.116 165.88 373.234 166.299 374.618 166.299C376.8 166.299 378.716 165.736 380.365 164.61C382.015 163.482 384.118 161.552 386.673 158.819C387.311 158.148 388.03 157.812 388.828 157.812ZM379.008 113.365C377.785 113.365 376.401 115.354 374.857 119.334C373.314 123.314 371.956 128.252 370.786 134.15C369.615 140.048 368.976 145.705 368.869 151.124C372.648 145.514 375.655 139.892 377.891 134.258C380.126 128.624 381.243 123.482 381.243 118.831C381.243 115.187 380.498 113.365 379.008 113.365Z" fill="white"/>
<path fill-rule="evenodd" clip-rule="evenodd" d="M362.795 157.812C363.486 157.812 364.031 158.1 364.431 158.675C364.83 159.251 365.03 160.042 365.03 161.049C365.03 162.967 364.524 164.453 363.513 165.508C361.224 168.049 358.736 170.135 356.048 171.765C353.361 173.395 350.314 174.211 346.907 174.211C342.224 174.211 338.751 172.293 336.49 168.457C334.227 164.621 333.096 159.658 333.096 153.569C333.096 147.719 333.935 141.055 335.611 133.575C337.287 126.095 339.762 119.67 343.035 114.3C346.309 108.929 350.207 106.244 354.731 106.244C357.286 106.244 359.295 107.311 360.758 109.445C362.222 111.579 362.954 114.635 362.954 118.615C362.954 124.321 361.197 130.938 357.685 138.465C354.173 145.993 349.409 153.449 343.395 160.833C343.767 162.799 344.379 164.202 345.231 165.041C346.082 165.88 347.2 166.299 348.584 166.299C350.766 166.299 352.682 165.736 354.332 164.61C355.982 163.482 358.084 161.552 360.639 158.819C361.278 158.148 361.996 157.812 362.795 157.812ZM352.975 113.365C351.751 113.365 350.367 115.354 348.824 119.334C347.28 123.314 345.923 128.252 344.752 134.15C343.581 140.048 342.942 145.705 342.836 151.124C346.614 145.514 349.622 139.892 351.857 134.258C354.092 128.624 355.21 123.482 355.21 118.831C355.21 115.187 354.465 113.365 352.975 113.365Z" fill="white"/>
<path d="M323.252 174.354C319.791 174.354 317.277 173.252 315.707 171.046C314.137 168.84 313.352 165.916 313.352 162.271C313.352 160.114 313.658 157.345 314.27 153.965C314.882 150.584 315.667 147.432 316.625 144.507C317.104 142.972 317.743 141.918 318.541 141.342C319.339 140.767 320.616 140.479 322.372 140.479C325.087 140.479 326.444 141.294 326.444 142.925C326.444 144.123 325.938 146.904 324.927 151.267C323.65 156.542 323.011 160.114 323.011 161.984C323.011 163.422 323.224 164.525 323.65 165.292C324.076 166.059 324.794 166.443 325.805 166.443C326.764 166.443 327.961 165.844 329.398 164.645C330.835 163.446 332.751 161.552 335.147 158.963C335.785 158.292 336.503 157.956 337.302 157.956C337.993 157.956 338.539 158.244 338.938 158.819C339.337 159.395 339.537 160.186 339.537 161.193C339.537 163.111 339.031 164.597 338.02 165.652C332.751 171.454 327.828 174.354 323.252 174.354Z" fill="white"/>
<path d="M279.565 174.211C277.542 174.211 276.118 173.252 275.294 171.334C274.468 169.416 274.056 166.347 274.056 162.128C274.056 155.894 275.041 149.973 277.01 144.363C277.489 142.972 278.274 141.954 279.365 141.307C280.456 140.659 281.986 140.335 283.955 140.335C285.02 140.335 285.765 140.455 286.19 140.695C286.616 140.935 286.829 141.39 286.829 142.061C286.829 142.829 286.43 144.555 285.632 147.24C285.1 149.158 284.674 150.836 284.355 152.274C284.036 153.713 283.769 155.487 283.556 157.597C285.312 153.473 287.281 150.117 289.463 147.528C291.646 144.938 293.788 143.092 295.89 141.99C297.993 140.887 299.922 140.335 301.678 140.335C305.138 140.335 306.867 141.894 306.867 145.01C306.867 146.88 306.282 150.261 305.111 155.151C304.1 159.323 303.594 162.08 303.594 163.422C303.594 165.34 304.366 166.299 305.91 166.299C306.974 166.299 308.238 165.712 309.701 164.538C311.165 163.362 313.121 161.456 315.569 158.819C316.208 158.148 316.926 157.812 317.724 157.812C318.416 157.812 318.962 158.1 319.361 158.675C319.761 159.251 319.96 160.042 319.96 161.049C319.96 162.967 319.455 164.453 318.444 165.508C316.155 168.049 313.693 170.135 311.058 171.765C308.424 173.395 305.43 174.211 302.078 174.211C299.363 174.211 297.314 173.503 295.93 172.089C294.547 170.675 293.855 168.625 293.855 165.94C293.855 164.597 294.227 162.2 294.972 158.747C295.664 155.727 296.01 153.641 296.01 152.49C296.01 151.723 295.718 151.339 295.132 151.339C294.44 151.339 293.469 152.143 292.218 153.749C290.967 155.355 289.689 157.477 288.386 160.114C287.082 162.751 286.031 165.532 285.233 168.457C284.647 170.71 283.969 172.233 283.196 173.024C282.425 173.815 281.214 174.211 279.565 174.211Z" fill="white"/>
<path fill-rule="evenodd" clip-rule="evenodd" d="M246.328 174.354C243.029 174.354 240.394 173.276 238.425 171.118C236.455 168.96 235.47 166.131 235.47 162.631C235.47 158.795 236.455 155.163 238.425 151.735C240.394 148.307 243.015 145.55 246.288 143.464C249.561 141.378 253.034 140.335 256.707 140.335C257.877 140.335 258.662 140.539 259.062 140.947C259.46 141.354 259.793 142.085 260.059 143.14C261.177 142.948 262.348 142.853 263.572 142.853C266.18 142.853 267.484 143.692 267.484 145.37C267.484 146.377 267.085 148.774 266.286 152.562C265.062 158.076 264.451 161.912 264.451 164.07C264.451 164.789 264.65 165.364 265.048 165.796C265.448 166.227 265.967 166.443 266.606 166.443C267.617 166.443 268.841 165.856 270.278 164.681C271.715 163.506 273.658 161.6 276.106 158.963C276.745 158.292 277.463 157.956 278.262 157.956C278.953 157.956 279.498 158.244 279.898 158.819C280.297 159.395 280.497 160.186 280.497 161.193C280.497 163.111 279.991 164.597 278.98 165.652C276.798 168.097 274.483 170.159 272.035 171.837C269.586 173.515 267.218 174.354 264.929 174.354C263.173 174.354 261.563 173.815 260.099 172.737C258.635 171.657 257.531 170.183 256.786 168.313C254.019 172.341 250.533 174.354 246.328 174.354ZM249.202 167.09C250.373 167.09 251.491 166.467 252.556 165.22C253.62 163.974 254.391 162.319 254.87 160.258L257.824 147.024C255.588 147.072 253.526 147.827 251.637 149.29C249.747 150.752 248.244 152.682 247.126 155.079C246.009 157.477 245.45 160.018 245.45 162.703C245.45 164.189 245.783 165.292 246.448 166.011C247.113 166.731 248.031 167.09 249.202 167.09Z" fill="white"/>
<path fill-rule="evenodd" clip-rule="evenodd" d="M243.156 142.925C244.381 142.925 245.272 143.164 245.831 143.644C246.39 144.123 246.67 144.747 246.67 145.514C246.67 146.76 246.257 147.863 245.432 148.822C244.607 149.781 243.316 150.285 241.56 150.332C237.302 150.428 233.523 150.141 230.223 149.469C226.445 156.614 221.881 162.547 216.532 167.271C211.184 171.993 205.821 174.354 200.445 174.354C194.911 174.354 190.786 171.454 188.072 165.652C185.357 159.85 184 152.011 184 142.133C184 133.695 184.665 126.119 185.996 119.406C186.475 116.913 187.154 115.223 188.032 114.336C188.91 113.449 190.414 113.005 192.543 113.005C196.055 113.005 197.811 114.371 197.811 117.105C197.811 117.392 197.758 117.92 197.651 118.687C196.055 127.317 195.256 135.133 195.256 142.133C195.256 149.469 195.935 155.044 197.293 158.856C198.65 162.667 200.685 164.573 203.4 164.573C206.167 164.573 209.174 162.847 212.421 159.395C215.667 155.942 218.647 151.603 221.362 146.377C218.116 144.555 215.667 142.193 214.017 139.293C212.368 136.392 211.543 133.047 211.543 129.259C211.543 125.471 212.195 122.271 213.499 119.658C214.803 117.045 216.586 115.091 218.848 113.796C221.109 112.502 223.624 111.854 226.392 111.854C229.798 111.854 232.499 112.957 234.495 115.163C236.49 117.368 237.488 120.389 237.488 124.225C237.488 129.739 236.158 135.756 233.497 142.277C236.318 142.709 239.537 142.925 243.156 142.925ZM219.606 128.756C219.606 133.455 221.282 136.931 224.635 139.185C226.711 133.814 227.749 129.379 227.749 125.879C227.749 123.865 227.456 122.391 226.871 121.456C226.285 120.521 225.487 120.053 224.476 120.053C223.039 120.053 221.868 120.809 220.963 122.319C220.058 123.829 219.606 125.975 219.606 128.756Z" fill="white"/>
<path d="M393.32 174.354C390.286 174.354 387.811 173.276 385.896 171.118C384.059 168.96 383.101 166.155 383.101 162.631C383.101 158.819 384.059 155.151 386.054 151.699C388.051 148.319 390.685 145.514 393.958 143.428C397.231 141.342 400.664 140.335 404.337 140.335C405.535 140.335 406.332 140.551 406.731 140.911C407.131 141.342 407.45 142.061 407.69 143.14C408.727 142.925 409.846 142.853 411.042 142.853C412.32 142.853 413.277 143.14 413.997 143.716C414.715 144.291 415.035 145.082 415.035 146.161C415.035 147.24 414.795 149.182 414.236 151.915C413.677 154.864 413.198 157.597 412.879 160.258C412.559 162.919 412.399 165.94 412.399 169.248C412.399 171.046 412.001 172.341 411.202 173.132C410.324 173.923 408.966 174.354 407.131 174.354C405.294 174.354 404.018 173.923 403.059 173.132C402.261 172.341 401.782 171.118 401.782 169.32L401.862 168.169C400.185 172.269 397.391 174.354 393.32 174.354ZM396.433 167.09C397.949 167.09 399.307 166.155 400.504 164.285C401.702 162.415 402.82 159.107 403.777 154.288L405.294 147.024C403.139 147.096 401.064 147.815 399.227 149.254C397.391 150.764 395.874 152.706 394.757 155.079C393.638 157.453 393.08 160.042 393.08 162.703C393.08 164.141 393.399 165.22 394.038 165.94C394.597 166.731 395.396 167.09 396.433 167.09Z" fill="white"/>
<path d="M323.7 135.782C321.464 135.782 319.788 135.314 318.671 134.38C317.554 133.444 316.994 132.137 316.994 130.459C316.994 128.782 317.726 127.38 319.19 126.253C320.654 125.127 322.477 124.562 324.658 124.562C326.628 124.562 328.224 124.993 329.449 125.856C330.672 126.718 331.284 127.942 331.284 129.523C331.284 131.442 330.593 132.965 329.208 134.091C327.826 135.218 325.989 135.782 323.7 135.782Z" fill="#FBBD4E"/>
<path d="M183.094 97H184.256L186.832 88.768L189.548 97H190.668L193.552 87.284H192.39L190.136 95.404L187.546 87.354H186.244L183.724 95.488L181.512 87.284H180.168L183.094 97ZM197.927 97.14C198.697 97.14 199.537 96.958 200.139 96.636L199.887 95.824C199.369 96.076 198.711 96.23 198.123 96.23C196.695 96.23 195.799 95.376 195.631 93.934H200.335C200.363 93.724 200.391 93.234 200.391 92.968C200.391 91.274 199.271 90.112 197.605 90.112C195.729 90.112 194.455 91.582 194.455 93.654C194.455 95.81 195.785 97.14 197.927 97.14ZM195.617 93.094C195.715 91.778 196.387 91.064 197.521 91.064C198.669 91.064 199.341 91.806 199.341 93.094H195.617ZM203.811 97.084C204.175 97.084 204.609 97 204.875 96.86L204.623 96.076C204.455 96.146 204.301 96.188 204.133 96.188C203.657 96.188 203.405 95.866 203.405 95.348V86.654H202.285V95.488C202.285 96.454 202.887 97.084 203.811 97.084ZM208.828 97.14C209.64 97.14 210.48 96.944 211.04 96.608L210.788 95.796C210.228 96.062 209.612 96.216 209.094 96.216C207.694 96.216 206.896 95.236 206.896 93.598C206.896 91.974 207.68 91.092 209.08 91.092C209.612 91.092 210.214 91.218 210.774 91.47L211.04 90.56C210.424 90.266 209.766 90.112 209.094 90.112C207.092 90.112 205.748 91.596 205.748 93.822C205.748 95.908 206.896 97.14 208.828 97.14ZM215.433 97.14C217.421 97.14 218.765 95.698 218.765 93.542C218.765 91.456 217.519 90.112 215.601 90.112C213.613 90.112 212.283 91.54 212.283 93.696C212.283 95.782 213.515 97.14 215.433 97.14ZM215.587 96.16C214.285 96.16 213.403 95.11 213.403 93.556C213.403 92.058 214.201 91.092 215.447 91.092C216.749 91.092 217.645 92.156 217.645 93.696C217.645 95.18 216.833 96.16 215.587 96.16ZM229.732 97H230.852V92.576C230.852 91.078 229.872 90.112 228.374 90.112C227.478 90.112 226.596 90.476 225.91 91.12C225.49 90.476 224.776 90.112 223.852 90.112C223.082 90.112 222.326 90.378 221.696 90.84L221.444 90.252H220.66V97H221.78V91.722C222.284 91.316 222.886 91.092 223.53 91.092C224.608 91.092 225.196 91.708 225.196 92.8V97H226.316V92.576C226.316 92.296 226.288 92.044 226.218 91.806C226.736 91.344 227.38 91.092 228.066 91.092C229.144 91.092 229.732 91.708 229.732 92.8V97ZM236.098 97.14C236.868 97.14 237.708 96.958 238.31 96.636L238.058 95.824C237.54 96.076 236.882 96.23 236.294 96.23C234.866 96.23 233.97 95.376 233.802 93.934H238.506C238.534 93.724 238.562 93.234 238.562 92.968C238.562 91.274 237.442 90.112 235.776 90.112C233.9 90.112 232.626 91.582 232.626 93.654C232.626 95.81 233.956 97.14 236.098 97.14ZM233.788 93.094C233.886 91.778 234.558 91.064 235.692 91.064C236.84 91.064 237.512 91.806 237.512 93.094H233.788ZM245.843 97.07C246.305 97.07 246.767 96.958 247.089 96.818L246.837 96.006C246.627 96.104 246.319 96.16 246.081 96.16C245.381 96.16 244.919 95.712 244.919 95.04V91.19H246.767V90.252H244.919V88.278H243.799V90.252H242.889V91.19H243.799V95.194C243.799 96.314 244.611 97.07 245.843 97.07ZM251.308 97.14C253.296 97.14 254.64 95.698 254.64 93.542C254.64 91.456 253.394 90.112 251.476 90.112C249.488 90.112 248.158 91.54 248.158 93.696C248.158 95.782 249.39 97.14 251.308 97.14ZM251.462 96.16C250.16 96.16 249.278 95.11 249.278 93.556C249.278 92.058 250.076 91.092 251.322 91.092C252.624 91.092 253.52 92.156 253.52 93.696C253.52 95.18 252.708 96.16 251.462 96.16Z" fill="white"/>
</g>
<defs>
<radialGradient id="paint0_radial_3_9" cx="0" cy="0" r="1" gradientUnits="userSpaceOnUse" gradientTransform="translate(262.876 191.903) rotate(-65.448) scale(208.794 304.094)">
<stop stop-color="#4F4A3E"/>
<stop offset="1" stop-color="#3C3B37"/>
</radialGradient>
<radialGradient id="paint1_radial_3_9" cx="0" cy="0" r="1" gradientUnits="userSpaceOnUse" gradientTransform="translate(262.876 108.482) rotate(65.5248) scale(209.409 304.28)">
<stop stop-color="#4F4A3E"/>
<stop offset="1" stop-color="#3C3B37"/>
</radialGradient>
<clipPath id="clip0_3_9">
<rect width="600" height="300" fill="white"/>
</clipPath>
</defs>
</svg>
