<svg width="600" height="300" viewBox="0 0 600 300" fill="none" xmlns="http://www.w3.org/2000/svg">
<g clip-path="url(#clip0_3_9)">
<path opacity="0.3" d="M174.819 37.1295C273.425 88.7293 382.64 63.4072 424.922 44.2961C469.797 25.5832 550.692 12.7629 515.271 111.185C470.994 234.212 320.214 302.893 252.004 299.907C183.794 296.92 130.678 236.695 90.4546 146.421C68.5186 97.1897 51.563 -27.3703 174.819 37.1295Z" fill="url(#paint0_radial_3_9)"/>
<path d="M174.819 263.806C273.425 212.023 382.64 237.435 424.922 256.614C469.797 275.393 550.692 288.259 515.271 189.487C470.994 66.0219 320.214 -2.90292 252.004 0.0938056C183.794 3.09054 130.678 63.5307 90.4546 154.126C68.5186 203.532 51.563 328.535 174.819 263.806Z" fill="url(#paint1_radial_3_9)"/>
<path d="M393.2 176.253C390.154 176.253 387.669 175.169 385.744 173.002C383.901 170.836 382.939 168.019 382.939 164.48C382.939 160.652 383.901 156.968 385.905 153.502C387.909 150.107 390.555 147.29 393.842 145.196C397.128 143.101 400.576 142.09 404.264 142.09C405.466 142.09 406.268 142.307 406.669 142.668C407.069 143.101 407.39 143.824 407.631 144.907C408.673 144.69 409.795 144.618 410.998 144.618C412.28 144.618 413.242 144.907 413.964 145.485C414.686 146.063 415.006 146.857 415.006 147.94C415.006 149.024 414.766 150.974 414.205 153.718C413.643 156.68 413.162 159.424 412.842 162.096C412.521 164.769 412.361 167.802 412.361 171.125C412.361 172.93 411.96 174.23 411.158 175.025C410.276 175.819 408.913 176.253 407.069 176.253C405.226 176.253 403.943 175.819 402.981 175.025C402.179 174.23 401.698 173.002 401.698 171.197L401.778 170.041C400.095 174.158 397.289 176.253 393.2 176.253ZM396.327 168.958C397.85 168.958 399.213 168.019 400.415 166.141C401.618 164.263 402.74 160.941 403.702 156.102L405.226 148.807C403.061 148.879 400.977 149.602 399.133 151.046C397.289 152.563 395.766 154.513 394.643 156.896C393.521 159.28 392.96 161.88 392.96 164.552C392.96 165.997 393.28 167.08 393.922 167.802C394.483 168.597 395.285 168.958 396.327 168.958Z" fill="white"/>
<path fill-rule="evenodd" clip-rule="evenodd" d="M242.405 144.69C243.635 144.69 244.517 144.931 245.051 145.412C245.639 145.894 245.933 146.52 245.933 147.29C245.933 148.542 245.505 149.65 244.65 150.613C243.848 151.576 242.566 152.081 240.802 152.129C236.526 152.226 232.732 151.937 229.418 151.263C225.623 158.437 221.027 164.408 215.629 169.174C210.284 173.893 204.913 176.252 199.515 176.252C193.956 176.252 189.814 173.339 187.089 167.513C184.363 161.687 183 153.815 183 143.896C183 135.421 183.668 127.814 185.004 121.073C185.485 118.569 186.153 116.884 187.008 116.017C187.917 115.102 189.44 114.645 191.578 114.645C195.106 114.645 196.869 116.017 196.869 118.761C196.869 119.05 196.816 119.58 196.709 120.35C195.106 129.017 194.304 136.866 194.304 143.896C194.304 151.263 194.972 156.872 196.308 160.724C197.698 164.528 199.755 166.43 202.481 166.43C205.26 166.43 208.28 164.696 211.54 161.23C214.8 157.763 217.793 153.405 220.519 148.157C217.259 146.327 214.8 143.968 213.144 141.079C211.487 138.142 210.658 134.771 210.658 130.967C210.658 127.164 211.3 123.962 212.582 121.362C213.919 118.713 215.709 116.739 217.954 115.439C220.252 114.139 222.791 113.489 225.57 113.489C228.99 113.489 231.689 114.597 233.667 116.811C235.698 119.026 236.713 122.06 236.713 125.912C236.713 131.449 235.377 137.492 232.705 144.04C235.538 144.473 238.771 144.69 242.405 144.69ZM218.756 130.462C218.756 135.181 220.439 138.671 223.806 140.934C225.891 135.542 226.933 131.088 226.933 127.573C226.933 125.551 226.639 124.082 226.051 123.167C225.463 122.204 224.661 121.723 223.646 121.723C222.203 121.723 221.027 122.493 220.118 124.034C219.21 125.527 218.756 127.669 218.756 130.462Z" fill="white"/>
<path fill-rule="evenodd" clip-rule="evenodd" d="M244.486 176.252C241.44 176.252 238.955 175.169 237.03 173.002C235.16 170.836 234.225 167.995 234.225 164.48C234.225 160.628 235.213 156.992 237.191 153.574C239.168 150.107 241.787 147.338 245.047 145.268C248.361 143.149 251.862 142.09 255.55 142.09C256.725 142.09 257.5 142.307 257.874 142.74C258.302 143.125 258.649 143.848 258.917 144.907C259.932 144.714 261.055 144.618 262.284 144.618C263.567 144.618 264.555 144.907 265.25 145.485C265.945 146.062 266.292 146.881 266.292 147.94C266.292 149.048 266.025 150.974 265.491 153.718C264.903 156.655 264.448 159.472 264.128 162.169C263.807 164.817 263.647 167.802 263.647 171.124C263.647 172.954 263.219 174.278 262.364 175.097C261.562 175.867 260.226 176.252 258.356 176.252C256.538 176.252 255.175 175.867 254.267 175.097C253.412 174.278 252.984 172.978 252.984 171.197L253.064 170.041C251.408 174.182 248.548 176.252 244.486 176.252ZM247.613 168.958C249.109 168.958 250.472 168.019 251.701 166.141C252.931 164.263 254.026 160.917 254.988 156.102L256.512 148.807C254.32 148.855 252.289 149.626 250.419 151.118C248.548 152.563 247.052 154.489 245.929 156.896C244.807 159.304 244.246 161.856 244.246 164.552C244.246 165.997 244.54 167.104 245.128 167.874C245.769 168.597 246.597 168.958 247.613 168.958Z" fill="white"/>
<path fill-rule="evenodd" clip-rule="evenodd" d="M277.676 176.252C275.645 176.252 274.202 175.289 273.347 173.363C272.545 171.437 272.145 168.356 272.145 164.119C272.145 157.859 273.133 151.913 275.111 146.279C275.592 144.883 276.367 143.872 277.436 143.246C278.558 142.572 280.108 142.235 282.086 142.235C283.155 142.235 283.903 142.355 284.33 142.596C284.758 142.836 284.972 143.294 284.972 143.968C284.972 144.738 284.571 146.472 283.769 149.168C283.235 151.094 282.807 152.779 282.486 154.224C282.166 155.668 281.899 157.45 281.685 159.569C283.448 155.428 285.426 152.057 287.617 149.457C289.809 146.857 291.946 145.003 294.031 143.896C296.169 142.788 298.119 142.235 299.883 142.235C303.357 142.235 305.094 143.799 305.094 146.929C305.094 148.807 304.506 152.202 303.33 157.113C302.315 161.302 301.807 164.071 301.807 165.419C301.807 167.345 302.582 168.308 304.132 168.308C305.201 168.308 306.457 167.73 307.9 166.574C309.397 165.371 311.374 163.445 313.833 160.796C314.474 160.122 315.196 159.785 315.997 159.785C316.692 159.785 317.226 160.074 317.601 160.652C318.028 161.23 318.242 162.024 318.242 163.035C318.242 164.961 317.734 166.454 316.719 167.513C314.421 170.065 311.935 172.16 309.263 173.797C306.644 175.434 303.651 176.252 300.284 176.252C297.558 176.252 295.501 175.554 294.111 174.158C292.721 172.713 292.027 170.643 292.027 167.947C292.027 166.598 292.401 164.191 293.149 160.724C293.844 157.691 294.191 155.596 294.191 154.441C294.191 153.67 293.897 153.285 293.309 153.285C292.615 153.285 291.626 154.104 290.343 155.741C289.114 157.33 287.831 159.448 286.495 162.096C285.212 164.745 284.17 167.537 283.368 170.474C282.78 172.738 282.086 174.278 281.284 175.097C280.536 175.867 279.333 176.252 277.676 176.252Z" fill="white"/>
<path fill-rule="evenodd" clip-rule="evenodd" d="M321.609 176.252C318.135 176.252 315.596 175.145 313.993 172.93C312.443 170.715 311.668 167.778 311.668 164.119C311.668 161.952 311.962 159.183 312.55 155.813C313.191 152.394 313.993 149.216 314.955 146.279C315.436 144.738 316.077 143.679 316.879 143.101C317.681 142.523 318.963 142.235 320.727 142.235C323.453 142.235 324.816 143.053 324.816 144.69C324.816 145.894 324.308 148.687 323.293 153.068C322.01 158.365 321.369 161.952 321.369 163.83C321.369 165.274 321.582 166.382 322.01 167.152C322.437 167.923 323.159 168.308 324.174 168.308C325.136 168.308 326.339 167.706 327.782 166.502C329.225 165.298 331.149 163.396 333.554 160.796C334.196 160.122 334.917 159.785 335.719 159.785C336.414 159.785 336.948 160.074 337.322 160.652C337.75 161.23 337.964 162.024 337.964 163.035C337.964 164.961 337.456 166.454 336.44 167.513C331.149 173.339 326.205 176.252 321.609 176.252Z" fill="white"/>
<path fill-rule="evenodd" clip-rule="evenodd" d="M361.854 159.785C362.549 159.785 363.083 160.074 363.457 160.652C363.885 161.23 364.099 162.024 364.099 163.035C364.099 164.961 363.591 166.454 362.576 167.513C360.277 170.065 357.765 172.16 355.04 173.797C352.367 175.434 349.321 176.252 345.9 176.252C341.197 176.252 337.696 174.326 335.398 170.474C333.153 166.622 332.031 161.639 332.031 155.524C332.031 149.65 332.86 142.957 334.516 135.445C336.227 127.934 338.712 121.482 341.972 116.089C345.286 110.696 349.214 108 353.757 108C356.322 108 358.327 109.083 359.77 111.25C361.266 113.369 362.014 116.426 362.014 120.423C362.014 126.152 360.251 132.797 356.723 140.357C353.196 147.916 348.412 155.404 342.373 162.819C342.747 164.793 343.362 166.213 344.217 167.08C345.072 167.898 346.194 168.308 347.584 168.308C349.775 168.308 351.699 167.754 353.356 166.647C355.013 165.491 357.124 163.541 359.69 160.796C360.331 160.122 361.052 159.785 361.854 159.785ZM351.993 115.15C350.764 115.15 349.374 117.148 347.824 121.145C346.275 125.141 344.912 130.101 343.736 136.023C342.56 141.946 341.919 147.627 341.812 153.068C345.606 147.435 348.626 141.801 350.871 136.168C353.116 130.486 354.238 125.31 354.238 120.639C354.238 116.98 353.49 115.15 351.993 115.15Z" fill="white"/>
<path fill-rule="evenodd" clip-rule="evenodd" d="M380.774 165.708C381.362 165.226 381.95 164.985 382.538 164.985C383.179 164.985 383.687 165.322 384.061 165.997C384.489 166.622 384.702 167.393 384.702 168.308C384.702 170.33 383.901 171.943 382.297 173.147C379.518 175.217 376.365 176.252 372.837 176.252C367.76 176.252 364.045 174.351 361.694 170.547C359.342 166.695 358.166 161.687 358.166 155.524C358.166 149.65 358.995 142.957 360.652 135.445C362.362 127.934 364.847 121.482 368.107 116.089C371.421 110.696 375.349 108 379.892 108C382.458 108 384.462 109.083 385.905 111.25C387.401 113.369 388.15 116.426 388.15 120.423C388.15 126.152 386.386 132.797 382.858 140.357C379.384 147.916 374.628 155.379 368.588 162.746C368.962 164.721 369.631 166.141 370.593 167.008C371.555 167.874 372.864 168.308 374.521 168.308C375.429 168.308 376.445 168.067 377.567 167.585C378.743 167.104 379.812 166.478 380.774 165.708ZM378.128 115.15C376.899 115.15 375.51 117.148 373.96 121.145C372.41 125.141 371.047 130.101 369.871 136.023C368.695 141.946 368.054 147.627 367.947 153.068C371.742 147.435 374.761 141.801 377.006 136.168C379.251 130.486 380.373 125.31 380.373 120.639C380.373 116.98 379.625 115.15 378.128 115.15Z" fill="white"/>
<path d="M322.322 137.468C320.077 137.468 318.393 136.998 317.272 136.06C316.149 135.12 315.588 133.808 315.588 132.123C315.588 130.438 316.323 129.03 317.793 127.899C319.263 126.767 321.093 126.201 323.284 126.201C325.262 126.201 326.865 126.634 328.095 127.501C329.324 128.367 329.938 129.595 329.938 131.183C329.938 133.11 329.244 134.639 327.854 135.77C326.465 136.902 324.62 137.468 322.322 137.468Z" fill="#FBBD4E"/>
<path d="M183.094 97H184.256L186.832 88.768L189.548 97H190.668L193.552 87.284H192.39L190.136 95.404L187.546 87.354H186.244L183.724 95.488L181.512 87.284H180.168L183.094 97ZM197.927 97.14C198.697 97.14 199.537 96.958 200.139 96.636L199.887 95.824C199.369 96.076 198.711 96.23 198.123 96.23C196.695 96.23 195.799 95.376 195.631 93.934H200.335C200.363 93.724 200.391 93.234 200.391 92.968C200.391 91.274 199.271 90.112 197.605 90.112C195.729 90.112 194.455 91.582 194.455 93.654C194.455 95.81 195.785 97.14 197.927 97.14ZM195.617 93.094C195.715 91.778 196.387 91.064 197.521 91.064C198.669 91.064 199.341 91.806 199.341 93.094H195.617ZM203.811 97.084C204.175 97.084 204.609 97 204.875 96.86L204.623 96.076C204.455 96.146 204.301 96.188 204.133 96.188C203.657 96.188 203.405 95.866 203.405 95.348V86.654H202.285V95.488C202.285 96.454 202.887 97.084 203.811 97.084ZM208.828 97.14C209.64 97.14 210.48 96.944 211.04 96.608L210.788 95.796C210.228 96.062 209.612 96.216 209.094 96.216C207.694 96.216 206.896 95.236 206.896 93.598C206.896 91.974 207.68 91.092 209.08 91.092C209.612 91.092 210.214 91.218 210.774 91.47L211.04 90.56C210.424 90.266 209.766 90.112 209.094 90.112C207.092 90.112 205.748 91.596 205.748 93.822C205.748 95.908 206.896 97.14 208.828 97.14ZM215.433 97.14C217.421 97.14 218.765 95.698 218.765 93.542C218.765 91.456 217.519 90.112 215.601 90.112C213.613 90.112 212.283 91.54 212.283 93.696C212.283 95.782 213.515 97.14 215.433 97.14ZM215.587 96.16C214.285 96.16 213.403 95.11 213.403 93.556C213.403 92.058 214.201 91.092 215.447 91.092C216.749 91.092 217.645 92.156 217.645 93.696C217.645 95.18 216.833 96.16 215.587 96.16ZM229.732 97H230.852V92.576C230.852 91.078 229.872 90.112 228.374 90.112C227.478 90.112 226.596 90.476 225.91 91.12C225.49 90.476 224.776 90.112 223.852 90.112C223.082 90.112 222.326 90.378 221.696 90.84L221.444 90.252H220.66V97H221.78V91.722C222.284 91.316 222.886 91.092 223.53 91.092C224.608 91.092 225.196 91.708 225.196 92.8V97H226.316V92.576C226.316 92.296 226.288 92.044 226.218 91.806C226.736 91.344 227.38 91.092 228.066 91.092C229.144 91.092 229.732 91.708 229.732 92.8V97ZM236.098 97.14C236.868 97.14 237.708 96.958 238.31 96.636L238.058 95.824C237.54 96.076 236.882 96.23 236.294 96.23C234.866 96.23 233.97 95.376 233.802 93.934H238.506C238.534 93.724 238.562 93.234 238.562 92.968C238.562 91.274 237.442 90.112 235.776 90.112C233.9 90.112 232.626 91.582 232.626 93.654C232.626 95.81 233.956 97.14 236.098 97.14ZM233.788 93.094C233.886 91.778 234.558 91.064 235.692 91.064C236.84 91.064 237.512 91.806 237.512 93.094H233.788ZM245.843 97.07C246.305 97.07 246.767 96.958 247.089 96.818L246.837 96.006C246.627 96.104 246.319 96.16 246.081 96.16C245.381 96.16 244.919 95.712 244.919 95.04V91.19H246.767V90.252H244.919V88.278H243.799V90.252H242.889V91.19H243.799V95.194C243.799 96.314 244.611 97.07 245.843 97.07ZM251.308 97.14C253.296 97.14 254.64 95.698 254.64 93.542C254.64 91.456 253.394 90.112 251.476 90.112C249.488 90.112 248.158 91.54 248.158 93.696C248.158 95.782 249.39 97.14 251.308 97.14ZM251.462 96.16C250.16 96.16 249.278 95.11 249.278 93.556C249.278 92.058 250.076 91.092 251.322 91.092C252.624 91.092 253.52 92.156 253.52 93.696C253.52 95.18 252.708 96.16 251.462 96.16Z" fill="white"/>
</g>
<defs>
<radialGradient id="paint0_radial_3_9" cx="0" cy="0" r="1" gradientUnits="userSpaceOnUse" gradientTransform="translate(262.876 191.903) rotate(-65.448) scale(208.794 304.094)">
<stop stop-color="#4F4A3E"/>
<stop offset="1" stop-color="#3C3B37"/>
</radialGradient>
<radialGradient id="paint1_radial_3_9" cx="0" cy="0" r="1" gradientUnits="userSpaceOnUse" gradientTransform="translate(262.876 108.482) rotate(65.5248) scale(209.409 304.28)">
<stop stop-color="#4F4A3E"/>
<stop offset="1" stop-color="#3C3B37"/>
</radialGradient>
<clipPath id="clip0_3_9">
<rect width="600" height="300" fill="white"/>
</clipPath>
</defs>
</svg>
