<svg height="300" width="600" xmlns:xlink="http://www.w3.org/1999/xlink" xmlns="http://www.w3.org/2000/svg"><defs><linearGradient id="y"><stop offset="0" stop-color="#f66151" style="stop-color:#8ff0a4;stop-opacity:1"/><stop offset="1" stop-color="#ed333b" style="stop-color:#62a0ea;stop-opacity:1"/></linearGradient><linearGradient id="u"><stop offset="0" stop-color="#f66151" style="stop-color:#9a9996;stop-opacity:1"/><stop offset="1" stop-color="#f5c211" style="stop-color:#c0bfbc;stop-opacity:1"/></linearGradient><linearGradient id="v"><stop offset="0" stop-color="#f66151" style="stop-color:#c0bfbc;stop-opacity:1"/><stop offset="1" stop-color="#ed333b" style="stop-color:#9a9996;stop-opacity:1"/></linearGradient><linearGradient id="s"><stop style="stop-color:#000;stop-opacity:1" offset="0"/><stop style="stop-color:#000;stop-opacity:.31171876" offset=".036"/><stop style="stop-color:#000;stop-opacity:.99215686" offset=".071"/><stop style="stop-color:#000;stop-opacity:1" offset=".929"/><stop style="stop-color:#000;stop-opacity:.31999999" offset=".964"/><stop style="stop-color:#000;stop-opacity:1" offset="1"/></linearGradient><linearGradient id="f"><stop offset="0" stop-color="#9a9996"/><stop offset="1" stop-color="#deddda"/></linearGradient><linearGradient id="w"><stop offset="0" stop-color="#f66151"/><stop offset="1" stop-color="#f5c211"/></linearGradient><linearGradient id="b"><stop offset="0" stop-color="#a09f9c"/><stop offset=".078" stop-color="#5e5c64"/><stop offset=".104" stop-color="#d0d0ce" stop-opacity=".992"/><stop offset=".12" stop-color="#a09f9c" stop-opacity=".992"/><stop offset=".285" stop-color="#5e5c64"/><stop offset=".5" stop-color="#77767b"/><stop offset=".762" stop-color="#b5b4b1" stop-opacity=".965"/><stop offset=".874" stop-color="#77767b"/><stop offset=".905" stop-color="#cbcac9" stop-opacity=".965"/><stop offset=".949" stop-color="#a09f9c" stop-opacity=".965"/><stop offset="1" stop-color="#a09f9c" stop-opacity=".966"/></linearGradient><linearGradient id="d"><stop offset="0" stop-color="#62a0ea"/><stop offset="1" stop-color="#99c1f1"/></linearGradient><linearGradient id="g"><stop offset="0" stop-color="#f66151"/><stop offset="1" stop-color="#ed333b"/></linearGradient><linearGradient id="r"><stop offset="0" stop-color="#9141ac"/><stop offset="1" stop-color="#ed333b"/></linearGradient><linearGradient id="t"><stop offset="0" stop-color="#f5c211"/><stop offset="1" stop-color="#ff7800"/></linearGradient><linearGradient id="q"><stop offset="0" stop-color="#3584e4"/><stop offset="1" stop-color="#dc8add"/></linearGradient><linearGradient id="h"><stop offset="0" stop-color="#3584e4"/><stop offset="1" stop-color="#2ec27e"/></linearGradient><linearGradient id="n"><stop offset="0" stop-color="#eae9e7"/><stop offset=".649" stop-color="#b5b3ad"/><stop offset="1" stop-color="#fcfcfc"/></linearGradient><linearGradient id="k"><stop offset="0" stop-color="#ebeae8"/><stop offset="1" stop-color="#deddda" stop-opacity=".983"/></linearGradient><linearGradient id="p"><stop offset="0" stop-color="#b0afab"/><stop offset="1" stop-color="#dcdbd8" stop-opacity=".961"/></linearGradient><linearGradient id="l"><stop offset="0" stop-color="#3d3846"/><stop offset="1" stop-color="#241f31"/></linearGradient><linearGradient id="j"><stop offset="0" stop-color="#9a9996"/><stop offset="1" stop-color="#3d3846" stop-opacity=".252"/></linearGradient><linearGradient xlink:href="#a" id="W" gradientUnits="userSpaceOnUse" gradientTransform="translate(-21.238 3.877) scale(1.0734)" x1="137.616" y1="-138.586" x2="426.655" y2="-138.586"/><linearGradient id="a"><stop offset="0" stop-color="#a09f9c"/><stop offset=".078" stop-color="#a09f9c" stop-opacity=".996"/><stop offset=".104" stop-color="#d0d0ce" stop-opacity=".992"/><stop offset=".12" stop-color="#a09f9c" stop-opacity=".992"/><stop offset=".285" stop-color="#787773" stop-opacity=".984"/><stop offset=".5" stop-color="#908f8b" stop-opacity=".976"/><stop offset=".762" stop-color="#b5b4b1" stop-opacity=".965"/><stop offset=".874" stop-color="#a09f9c" stop-opacity=".965"/><stop offset=".905" stop-color="#cbcac9" stop-opacity=".965"/><stop offset=".949" stop-color="#a09f9c" stop-opacity=".965"/><stop offset="1" stop-color="#a09f9c" stop-opacity=".966"/></linearGradient><linearGradient id="m"><stop offset="0" stop-color="#cacac9"/><stop offset=".311" stop-color="#b0aeab" stop-opacity=".941"/><stop offset=".688" stop-color="#6c6b66" stop-opacity=".949"/><stop offset="1" stop-color="#d6d6d4" stop-opacity=".966"/></linearGradient><linearGradient id="o"><stop offset="0" stop-color="#fff"/><stop offset="1" stop-color="#fff" stop-opacity="0"/></linearGradient><linearGradient xlink:href="#b" id="V" gradientUnits="userSpaceOnUse" gradientTransform="translate(-20.488 5.127) scale(1.0734)" x1="137.616" y1="-138.586" x2="426.655" y2="-138.586"/><linearGradient id="i"><stop offset="0" stop-color="#eae9e7"/><stop offset=".208" stop-color="#cac8c4" stop-opacity=".953"/><stop offset=".745" stop-color="#ebeae9" stop-opacity=".972"/><stop offset="1" stop-color="#d5d3cf" stop-opacity=".925"/></linearGradient><linearGradient xlink:href="#c" id="F" x1="512.925" y1="-88.848" x2="619.342" y2="-88.848" gradientUnits="userSpaceOnUse"/><linearGradient xlink:href="#d" id="K" gradientUnits="userSpaceOnUse" x1="512.925" y1="-88.848" x2="619.342" y2="-88.848"/><linearGradient id="c"><stop offset="0" stop-color="#f87e70"/><stop offset="1" stop-color="#fab4ac"/></linearGradient><linearGradient id="e"><stop offset="0" stop-color="#1a5fb4"/><stop offset="1" stop-color="#62a0ea"/></linearGradient><linearGradient xlink:href="#e" id="L" x1="512.927" y1="-68.087" x2="588.61" y2="-68.087" gradientUnits="userSpaceOnUse"/><linearGradient xlink:href="#f" id="N" x1="512.927" y1="-68.087" x2="588.61" y2="-68.087" gradientUnits="userSpaceOnUse"/><linearGradient xlink:href="#d" id="M" x1="512.925" y1="-88.848" x2="619.342" y2="-88.848" gradientUnits="userSpaceOnUse"/><linearGradient xlink:href="#g" id="I" x1="532" y1="-36.289" x2="532.051" y2="-74.511" gradientUnits="userSpaceOnUse"/><linearGradient xlink:href="#h" id="z" x1="70.864" y1="154.858" x2="295.552" y2="154.858" gradientUnits="userSpaceOnUse" gradientTransform="matrix(1.00139 0 0 1.55678 -5.962 -86.08)"/><linearGradient xlink:href="#q" id="A" gradientUnits="userSpaceOnUse" gradientTransform="matrix(1.00139 0 0 1.55678 -610.962 -86.08)" x1="70.864" y1="154.858" x2="295.552" y2="154.858"/><linearGradient xlink:href="#r" id="C" gradientUnits="userSpaceOnUse" gradientTransform="matrix(1.00139 0 0 1.55678 -5.962 -86.08)" x1="70.864" y1="154.858" x2="295.552" y2="154.858"/><linearGradient xlink:href="#s" id="D" gradientUnits="userSpaceOnUse" gradientTransform="translate(-5 100)" x1="70" y1="257" x2="295" y2="257"/><linearGradient xlink:href="#t" id="B" gradientUnits="userSpaceOnUse" gradientTransform="matrix(1.00139 0 0 1.55678 244.038 -86.08)" x1="70.864" y1="154.858" x2="295.552" y2="154.858"/><linearGradient xlink:href="#u" id="G" gradientUnits="userSpaceOnUse" x1="512.925" y1="-88.848" x2="619.342" y2="-88.848"/><linearGradient xlink:href="#v" id="H" gradientUnits="userSpaceOnUse" x1="532" y1="-36.289" x2="532.051" y2="-74.511"/><linearGradient xlink:href="#w" id="S" x1="-678.912" y1="253.775" x2="-582.912" y2="253.775" gradientUnits="userSpaceOnUse"/><linearGradient xlink:href="#x" id="ah" gradientUnits="userSpaceOnUse" gradientTransform="matrix(.03596 0 0 .05748 1936.642 720.262)" x1="10.276" y1="260" x2="400.275" y2="260"/><linearGradient id="x"><stop style="stop-color:#241f31;stop-opacity:1" offset="0"/><stop offset=".076" style="stop-color:#5e5c64;stop-opacity:1"/><stop style="stop-color:#241f31;stop-opacity:1" offset=".151"/><stop offset=".849" style="stop-color:#241f31;stop-opacity:1"/><stop style="stop-color:#5e5c64;stop-opacity:1" offset=".925"/><stop style="stop-color:#241f31;stop-opacity:1" offset="1"/></linearGradient><linearGradient xlink:href="#y" id="ai" gradientUnits="userSpaceOnUse" gradientTransform="translate(20)" x1="-45" y1="182.5" x2="25" y2="182.5"/><radialGradient xlink:href="#i" id="Q" gradientUnits="userSpaceOnUse" gradientTransform="matrix(.50043 .0012 -.00295 1.2316 151.697 58.182)" cx="64.224" cy="105.853" fx="64.224" fy="105.853" r="60"/><radialGradient xlink:href="#j" id="aa" gradientUnits="userSpaceOnUse" gradientTransform="matrix(3.93323 0 0 3.47932 -222.925 -173.555)" cx="76" cy="65.977" fx="76" fy="65.977" r="13.221"/><radialGradient xlink:href="#k" id="X" cx="281.386" cy="-269.137" fx="281.386" fy="-269.137" r="144.518" gradientTransform="matrix(1.0734 0 0 .39182 -20.488 -87.757)" gradientUnits="userSpaceOnUse"/><radialGradient xlink:href="#l" id="Z" gradientUnits="userSpaceOnUse" gradientTransform="translate(-1.712 16.292) scale(.98254)" cx="81.936" cy="33.185" fx="81.936" fy="33.185" r="57.276"/><radialGradient xlink:href="#m" id="ac" gradientUnits="userSpaceOnUse" gradientTransform="matrix(4.90055 .15043 -.23602 7.68903 -638.535 -2206.847)" cx="183.525" cy="320.794" fx="183.525" fy="320.794" r="20.486"/><radialGradient xlink:href="#i" id="R" cx="64.224" cy="105.853" fx="64.224" fy="105.853" r="60" gradientTransform="matrix(3.78687 .00907 -.02231 9.31966 8.698 -871.191)" gradientUnits="userSpaceOnUse"/><radialGradient xlink:href="#n" id="ab" gradientUnits="userSpaceOnUse" gradientTransform="matrix(2.81505 .01106 -.01047 2.6661 -242.36 -102.503)" cx="134.309" cy="55.279" fx="134.309" fy="55.279" r="58.46"/><radialGradient xlink:href="#o" id="ad" gradientUnits="userSpaceOnUse" gradientTransform="matrix(37.75863 0 0 19.7392 -7268.898 -1304.003)" cx="197.719" cy="68.107" fx="197.719" fy="68.107" r="2.5"/><radialGradient xlink:href="#p" id="Y" cx="282.138" cy="-218.921" fx="282.138" fy="-218.921" r="128.519" gradientTransform="matrix(1.1812 .0389 -.01999 .60689 -55.277 -45.478)" gradientUnits="userSpaceOnUse"/><radialGradient xlink:href="#o" id="af" gradientUnits="userSpaceOnUse" gradientTransform="matrix(37.75863 0 0 19.7392 -7375.666 -1304.003)" cx="197.747" cy="69.253" fx="197.747" fy="69.253" r="2.5"/><clipPath clipPathUnits="userSpaceOnUse" id="E"><rect width="106.417" height="96.355" x="512.925" y="-137.026" rx="6.076" ry="6.076" fill="#9141ac" stroke-width="0" stroke-linejoin="round"/></clipPath><clipPath clipPathUnits="userSpaceOnUse" id="J"><rect width="106.417" height="96.355" x="512.925" y="-137.026" rx="6.076" ry="6.076" fill="#9141ac" stroke-width="0" stroke-linejoin="round"/></clipPath><clipPath clipPathUnits="userSpaceOnUse" id="P"><path d="M64 176.414a60 60 0 0 0-60 60 60 60 0 0 0 60 60 60 60 0 0 0 60-60 60 60 0 0 0-60-60zm0 48a12 12 0 0 1 12 12 12 12 0 0 1-12 12 12 12 0 0 1-12-12 12 12 0 0 1 12-12z" style="marker:none" fill="#dc8add" stroke-width=".011" enable-background="new"/></clipPath><clipPath clipPathUnits="userSpaceOnUse" id="T"><rect ry="32" rx="32" y="-116" x="32.5" height="320" width="447" fill="#fb8c14" stroke-linejoin="round" stroke-dasharray="4,2"/></clipPath><clipPath id="U" clipPathUnits="userSpaceOnUse"><circle style="marker:none" cx="239.051" cy="77.264" r="19.711" fill="#9141ac" stroke-width=".529" stroke-linecap="round"/></clipPath><filter id="ae" x="-1.468" width="3.936" y="-.058" height="1.116" color-interpolation-filters="sRGB"><feGaussianBlur stdDeviation="3.059"/></filter></defs><rect width="225" height="230" x="-540" y="40" rx="16" fill="url(#z)" style="fill:url(#A);fill-opacity:1;stroke-width:1" ry="16" transform="matrix(-1 0 0 1 -5 0)"/><rect width="225" height="230" x="315" y="40" rx="16" fill="url(#z)" style="fill:url(#B);stroke-width:1;fill-opacity:1" ry="16" transform="translate(240)"/><g transform="translate(-245)"><rect width="225" height="230" x="65" y="40" rx="16" fill="url(#z)" style="fill:url(#C);stroke-width:1;fill-opacity:1" ry="16"/><path style="opacity:.15;fill:url(#D);fill-opacity:1;stroke-width:1" d="M65 350v4c0 8.864 7.136 16 16 16h193c8.864 0 16-7.136 16-16v-4c0 8.864-7.136 16-16 16H81c-8.864 0-16-7.136-16-16z"/></g><rect width="225" height="230" x="65" y="40" rx="16" fill="url(#z)" style="fill:url(#z);stroke-width:1" ry="16"/><g transform="rotate(30.589 229.13 380.993) scale(.72551)"><rect style="font-variation-settings:normal;fill:#000;fill-opacity:.1" width="123.659" height="134.953" x="267.514" y="200.611" rx="12.184" ry="12.184" transform="rotate(-18.996)" fill="#f6f5f4"/><rect style="font-variation-settings:normal" width="123.659" height="134.953" x="266.406" y="195.21" rx="12.184" ry="12.184" transform="rotate(-18.996)" fill="#f6f5f4"/><g clip-path="url(#E)" transform="rotate(-18.97 1138.557 544.45)"><rect width="106.417" height="96.355" x="512.925" y="-137.026" rx="0" ry="0" fill="url(#F)" style="fill:url(#G);fill-opacity:1"/><path style="font-variation-settings:normal;fill:#77767b;fill-opacity:1" d="m603.92-90.59 61.073 51.332L545.57-49.75z" fill="#e01b24"/><path style="font-variation-settings:normal;fill:url(#H)" d="M550.767-95.503 650.116-30.9l-137.189-9.77-.233-38.469z" fill="url(#I)"/></g></g><g transform="rotate(.589 -6323.137 6317.812) scale(.72551)"><rect style="font-variation-settings:normal;opacity:.1;fill:#000" width="123.659" height="134.953" x="264.665" y="200.441" rx="12.184" ry="12.184" transform="rotate(-18.996)" fill="#f6f5f4"/><rect style="font-variation-settings:normal" width="123.659" height="134.953" x="266.406" y="195.21" rx="12.184" ry="12.184" transform="rotate(-18.996)" fill="#f6f5f4"/><g clip-path="url(#E)" transform="rotate(-18.97 1138.557 544.45)"><rect width="106.417" height="96.355" x="512.925" y="-137.026" rx="0" ry="0" fill="url(#F)" style="fill:url(#F)"/><path style="font-variation-settings:normal" d="m592.247-78.44 26.067 37.77H566.18z" fill="#e01b24"/><path style="font-variation-settings:normal;fill:url(#I)" d="M550.767-95.503 588.61-40.67h-75.683l-.233-38.469z" fill="url(#I)"/></g></g><g transform="rotate(15 214.978 459.397) scale(.72551)"><rect style="font-variation-settings:normal;fill:#000;fill-opacity:.1" width="123.659" height="134.953" x="266.022" y="200.71" rx="12.184" ry="12.184" transform="rotate(-18.996)" fill="#fff"/><rect style="font-variation-settings:normal" width="123.659" height="134.953" x="266.406" y="195.21" rx="12.184" ry="12.184" transform="rotate(-18.996)" fill="#fff"/><g clip-path="url(#J)" transform="rotate(-18.97 1138.557 544.45)"><rect width="106.417" height="96.355" x="512.925" y="-137.026" rx="0" ry="0" fill="url(#K)" style="fill:url(#K)"/><path style="font-variation-settings:normal" d="m592.247-78.44 26.067 37.77H566.18z" fill="#1a5fb4"/><path style="font-variation-settings:normal;fill:url(#L)" d="M550.767-95.503 588.61-40.67h-75.683z" fill="url(#L)"/><circle style="font-variation-settings:normal" cx="535.429" cy="-117.573" r="8.831" fill="#cee1f8"/></g></g><g transform="translate(87.354 -236.773) scale(.72551)"><rect style="font-variation-settings:normal" width="123.659" height="134.953" x="266.406" y="195.21" rx="12.184" ry="12.184" transform="rotate(-18.996)" fill="#fff"/><g clip-path="url(#E)" transform="rotate(-18.97 1138.557 544.45)"><rect width="106.417" height="96.355" x="512.925" y="-137.026" rx="0" ry="0" fill="url(#M)"/><path style="font-variation-settings:normal" d="m592.247-78.44 26.067 37.77H566.18z" fill="#5e5c64"/><path style="font-variation-settings:normal" d="M550.767-95.503 588.61-40.67h-75.683z" fill="url(#N)"/><circle style="font-variation-settings:normal" cx="590.43" cy="-113.756" r="8.831" fill="#f9f06b"/></g></g><g transform="matrix(.3778 1.41 1.41 -.3778 94.456 80.49)"><path d="M71.188 197.56c-2.251 2.117-4.37 6.102-4.37 13.602l-.015 34.5-10.179 10.178a1.92 1.92 0 0 0-1.343.158l-12.125 6.088c-4.633-2.888-10.848-2.327-14.864 1.689-4.671 4.671-4.672 12.32 0 16.992 4.67 4.671 12.321 4.671 16.993 0l.042-.044.005.045 15.556-15.556.018.017 5.891-5.896-.004 7.829h.025v21.999l.035-.028v.06c0 6.607 5.41 12.016 12.016 12.016s12.014-5.409 12.014-12.015c0-5.68-3.998-10.471-9.317-11.705l-4.269-12.878a1.92 1.92 0 0 0-.838-1.061v-13.89l24.028-24.047c11.313-11.314 4.496-18.132 4.496-18.132l-28.524 28.523V195.16s-2.72 0-5.271 2.399zm-39.36 69.75a6.978 6.978 0 0 1 9.921 0 6.979 6.979 0 0 1 0 9.921 6.979 6.979 0 0 1-9.922 0 6.978 6.978 0 0 1 0-9.92zm42.068 16.91a6.994 6.994 0 0 1 4.972-2.043 6.979 6.979 0 0 1 7.015 7.017 6.978 6.978 0 0 1-7.015 7.015 6.979 6.979 0 0 1-7.016-7.016c0-1.952.778-3.706 2.044-4.972z" style="marker:none" fill-opacity=".102" fill-rule="evenodd"/><path d="M65.995 268.962h6v-72l-1.415-1.414s-6.585 5.061-6.585 17.414l.005 27.19.097 2.723 1.898 2.087z" fill="#9a9996" fill-rule="evenodd"/><use xlink:href="#O" transform="scale(-1 1) rotate(-45 -.464 413.359)" width="100%" height="100%" enable-background="new"/><g id="O" display="inline"><path d="M55.975 290h9.667v-72S56 218 56 234z" fill="#fff" fill-rule="evenodd" transform="scale(-1 1) rotate(-45 -31.3 415.202)"/><g transform="scale(-1 1) rotate(-45 -32.3 412.788)"><path d="M54 312v-24c0-2 2-2 2-2h6.037s1.918-.136 2.444 1.45l4.397 13.27z" fill="#ed333b" fill-rule="evenodd"/><circle r="9.516" cy="312.033" cx="-66.05" transform="scale(-1 1)" fill="none" stroke="#ed333b" stroke-width="5" stroke-linecap="round" stroke-linejoin="round"/><circle cx="-66" cy="312" r="7" transform="scale(-1 1)" fill="none" stroke="#e01b24" stroke-width="2" stroke-linecap="round" stroke-linejoin="round"/></g></g><circle transform="scale(-1 1) rotate(-45)" cx="-223.446" cy="125.865" r="2" fill="#3d3846" enable-background="new"/></g><g transform="matrix(0 3.28694 3.28694 0 -115.015 -337.275)" stroke-width="1.502"><path style="font-variation-settings:normal;marker:none" d="M174.888 199.154v-33.812c0-.78 1.408-7.946 1.408-7.946h.46s1.408 7.165 1.408 7.946v33.812c0 .78-.628 1.409-1.409 1.409h-.459c-.78 0-1.408-.629-1.408-1.409z" fill-opacity=".102"/><rect style="marker:none" width="3.44" height="2.117" x="173.567" y="198.702" rx=".703" ry=".703" fill="#1a5fb4"/><path style="marker:none" d="M174.805 157.427h.963c.1 0 .164.083.18.184l1.058 6.482c.043.261-.208.478-.467.478h-2.505c-.259 0-.51-.217-.467-.478l1.058-6.482c.016-.1.08-.184.18-.184z" fill="#1a5fb4"/><path style="marker:none" fill="#fff" d="M173.302 164.042h3.969v35.719h-3.969z"/><rect style="marker:none" width=".794" height="2.381" x="174.89" y="155.84" rx=".596" ry=".703" fill="#1a5fb4"/><rect style="marker:none" width="1.323" height="1.058" x="174.625" y="156.633" rx="0" ry="0" fill="#fff"/><path style="marker:none" fill="#f6f5f4" d="M175.948 164.042h1.323v35.719h-1.323z"/></g><g transform="matrix(-.75067 0 0 .75067 227.247 50.43)" clip-path="url(#P)"><rect style="marker:none" width="112" height="114" x="8" y="180.415" rx="56" ry="56" fill="#d5d3cf" enable-background="new"/><path d="M64 176.414a60 60 0 0 0-60 60 60 60 0 0 0 60 60 60 60 0 0 0 60-60 60 60 0 0 0-60-60zm0 48a12 12 0 0 1 12 12 12 12 0 0 1-12 12 12 12 0 0 1-12-12 12 12 0 0 1 12-12z" style="marker:none" fill="#f6f5f4" enable-background="new"/><circle r="23.96" cy="236.5" cx="64" style="marker:none" opacity=".488" fill="none" stroke="#9a9996" stroke-width="4.493"/><path style="marker:none" d="m128 209.712-64 26.702 73.664 23.15M9.114 278.94l54.908-42.357-77.145-3.295" opacity=".05" fill-opacity=".929"/></g><g transform="matrix(-.75067 0 0 .75067 176.931 23.129)" clip-path="url(#P)"><rect style="marker:none" width="112" height="114" x="8" y="180.415" rx="56" ry="56" fill="#d5d3cf" enable-background="new"/><path d="M64 176.414a60 60 0 0 0-60 60 60 60 0 0 0 60 60 60 60 0 0 0 60-60 60 60 0 0 0-60-60zm0 48a12 12 0 0 1 12 12 12 12 0 0 1-12 12 12 12 0 0 1-12-12 12 12 0 0 1 12-12z" style="marker:none" fill="#f6f5f4" enable-background="new"/><circle r="23.96" cy="236.5" cx="64" style="marker:none" opacity=".488" fill="none" stroke="#9a9996" stroke-width="4.493"/><path style="marker:none" d="m128 209.712-64 26.702 73.664 23.15M9.114 278.94l54.908-42.357-77.145-3.295" opacity=".05" fill-opacity=".929"/></g><path style="fill:url(#Q);stroke-width:.13215;marker:none" d="M187.418 169.58a6.005 6.005 0 0 0-6.005 6.005 6.005 6.005 0 0 0 .017.448 6.005 6.005 0 0 1 5.988-5.66 6.005 6.005 0 0 1 5.988 5.557 6.005 6.005 0 0 0 .017-.345 6.005 6.005 0 0 0-6.005-6.006zm-30 6.505a30.37 30.37 0 0 0-.026.5c0 16.584 13.443 30.027 30.026 30.027s30.026-13.443 30.026-30.026a30.388 30.388 0 0 0-.018-.5c-.273 16.38-13.626 29.517-30.008 29.525-16.38-.012-29.728-13.149-30-29.526z" opacity=".74" fill="url(#Q)" enable-background="new" transform="matrix(-1.5 0 0 1.5 410.016 -62.78)"/><path style="fill:url(#R);marker:none" d="M279-28.23a45.443 45.443 0 0 0-45.442 45.443 45.443 45.443 0 0 0 .134 3.395A45.443 45.443 0 0 1 279-22.224a45.443 45.443 0 0 1 45.31 42.048 45.443 45.443 0 0 0 .133-2.61A45.443 45.443 0 0 0 279-28.23zM51.98 21a229.812 229.812 0 0 0-.192 3.787C51.788 150.273 153.514 252 279 252c125.486 0 227.213-101.727 227.213-227.213A229.948 229.948 0 0 0 506.08 21C504.014 144.953 402.97 244.37 279 244.426 155.053 244.34 54.046 144.93 51.98 21z" opacity=".74" fill="url(#R)" enable-background="new" transform="matrix(-.19822 0 0 .19822 234.51 224.487)"/><g transform="rotate(57.948 -92.932 850.606) scale(.78517)"><rect ry="8" rx="8" y="217.775" x="-686.787" height="80" width="111.75" fill="#5e5c64" enable-background="new"/><rect ry="4" rx="4" y="225.775" x="-678.912" height="56" width="96" fill="url(#K)" enable-background="new" style="fill:url(#S);fill-opacity:1"/><rect ry="7.988" rx="7.988" y="245.775" x="-658.9" height="15.975" width="55.975" fill="#3d3846" stroke="#3d3846" stroke-width="8" stroke-linejoin="round" stroke-dashoffset="11.2" enable-background="new"/><circle r="7.988" cy="253.762" cx="-650.912" fill="#fff" enable-background="new"/><circle cx="-610.912" cy="253.762" r="7.988" fill="#fff" enable-background="new"/><g transform="matrix(.25 0 0 .25 -694.912 246.775)" clip-path="url(#T)" fill="#949390" stroke="#949390"><path d="M128 236h256l-32-96H160z" stroke-width="32" stroke-linecap="round" stroke-linejoin="round" fill="#3d3846" stroke="#3d3846"/></g><g transform="matrix(.25 0 0 .25 -694.912 246.775)" fill="#9a9996"><circle cx="56" cy="-92" r="8"/><circle r="8" cy="164" cx="56"/><circle r="8" cy="-92" cx="456"/><circle cx="456" cy="164" r="8"/></g><path fill="#949390" enable-background="new" d="M-640.162 247.416h17.634v12.334h-17.634z"/><path d="M-686.787 285.775v4c0 4.432 3.568 8 8 8h95.75c4.432 0 8-3.568 8-8v-4c0 4.432-3.568 8-8 8h-95.75c-4.432 0-8-3.568-8-8z" fill="#3d3846" enable-background="new"/></g><g transform="rotate(42.948 -15.807 1097.308) scale(.78517)"><rect ry="8" rx="8" y="217.775" x="-686.787" height="80" width="111.75" fill="#5e5c64" enable-background="new"/><rect ry="4" rx="4" y="225.775" x="-678.912" height="56" width="96" fill="url(#K)" enable-background="new" style="fill:#c0bfbc"/><rect ry="7.988" rx="7.988" y="245.775" x="-658.9" height="15.975" width="55.975" fill="#3d3846" stroke="#3d3846" stroke-width="8" stroke-linejoin="round" stroke-dashoffset="11.2" enable-background="new"/><circle r="7.988" cy="253.762" cx="-650.912" fill="#fff" enable-background="new"/><circle cx="-610.912" cy="253.762" r="7.988" fill="#fff" enable-background="new"/><g transform="matrix(.25 0 0 .25 -694.912 246.775)" clip-path="url(#T)" fill="#949390" stroke="#949390"><path d="M128 236h256l-32-96H160z" stroke-width="32" stroke-linecap="round" stroke-linejoin="round" fill="#3d3846" stroke="#3d3846"/></g><g transform="matrix(.25 0 0 .25 -694.912 246.775)" fill="#9a9996"><circle cx="56" cy="-92" r="8"/><circle r="8" cy="164" cx="56"/><circle r="8" cy="-92" cx="456"/><circle cx="456" cy="164" r="8"/></g><path fill="#949390" enable-background="new" d="M-640.162 247.416h17.634v12.334h-17.634z"/><path d="M-686.787 285.775v4c0 4.432 3.568 8 8 8h95.75c4.432 0 8-3.568 8-8v-4c0 4.432-3.568 8-8 8h-95.75c-4.432 0-8-3.568-8-8z" fill="#3d3846" enable-background="new"/></g><g transform="matrix(-1.61865 0 0 1.61865 1020.44 -186.662)"><rect ry="7.673" rx="7.673" y="152.889" x="254.983" height="26.458" width="27.359" style="marker:none" fill="none" stroke="#fff" stroke-width="4.233" stroke-linecap="round"/><circle style="marker:none" cx="251.486" cy="152.003" r="21.299" fill="#fff"/><path d="M251.369 160.999a21.84 21.84 0 0 0-21.84 21.84 21.84 21.84 0 0 0 21.84 21.84 21.84 21.84 0 0 0 21.42-17.594h5.54c1.329 0 2.4-1.07 2.4-2.4a2.395 2.395 0 0 0-2.4-2.399h-5.139A21.84 21.84 0 0 0 251.37 161z" style="marker:none" fill-opacity=".102"/><path style="marker:none" fill="#fff" d="M230.187 148.96h42.333v32.015h-42.333z"/><circle r="21.299" cy="180.843" cx="251.486" style="marker:none" fill="#fff"/><g clip-path="url(#U)" transform="translate(34.094 81.74) scale(.9094)"><circle style="marker:none" cx="239.051" cy="77.264" r="19.711" fill="#deddda"/><circle r="19.711" cy="85.201" cx="239.051" style="marker:none" fill="#241f31"/></g></g><g transform="rotate(-15 450.191 -29.189) scale(.37317)" opacity=".96" stroke-width="4.02"><path style="marker:none" d="M135.057-34.968a147.078 147.078 0 0 1 147.079-147.078A147.078 147.078 0 0 1 429.214-34.968" fill="none" stroke="#3d3846" stroke-width="40.196" stroke-linejoin="bevel"/><path style="line-height:normal;font-variant-ligatures:normal;font-variant-position:normal;font-variant-caps:normal;font-variant-numeric:normal;font-variant-alternates:normal;font-feature-settings:normal;text-indent:0;text-align:start;text-decoration:none;text-decoration-line:none;text-decoration-style:solid;text-decoration-color:#000;text-transform:none;text-orientation:mixed;white-space:normal;shape-padding:0;isolation:auto;mix-blend-mode:normal;solid-color:#000;solid-opacity:1;fill:url(#V);marker:none" d="M282.355-200.016c-57.004 0-110.71 20.307-144.047 64.27-7.11 9.395-11.016 32.296 3.523 40.69l11.96 6.62a8.873 8.873 0 0 0 12.119-3.247c24.035-41.632 67.097-71.687 116.445-71.687 49.349 0 92.413 30.056 116.448 71.687a8.873 8.873 0 0 0 12.119 3.247l11.273-5.74c17.087-9.865 9.187-32.881 4.745-40.574-33.265-44.59-87.203-65.266-144.585-65.266z" color="#000" font-weight="400" font-family="sans-serif" overflow="visible" fill="url(#V)" enable-background="accumulate"/><path style="marker:none" d="M429.257-35.675V39.28m-294.25-74.955V39.28" fill="none" stroke="#3d3846" stroke-width="40.196" stroke-linejoin="bevel"/><path style="line-height:normal;font-variant-ligatures:normal;font-variant-position:normal;font-variant-caps:normal;font-variant-numeric:normal;font-variant-alternates:normal;font-feature-settings:normal;text-indent:0;text-align:start;text-decoration:none;text-decoration-line:none;text-decoration-style:solid;text-decoration-color:#000;text-transform:none;text-orientation:mixed;white-space:normal;shape-padding:0;isolation:auto;mix-blend-mode:normal;solid-color:#000;solid-opacity:1;fill:url(#W);marker:none" d="M390.31-125.355A154.394 154.394 0 0 1 411.333-92.3c2.69-2.4 6.28-4.341 9.89-5.113a163.911 163.911 0 0 0-16.814-27.942z" color="#000" font-weight="400" font-family="sans-serif" overflow="visible" fill="url(#W)" enable-background="accumulate"/><path style="line-height:normal;font-variant-ligatures:normal;font-variant-position:normal;font-variant-caps:normal;font-variant-numeric:normal;font-variant-alternates:normal;font-feature-settings:normal;text-indent:0;text-align:start;text-decoration:none;text-decoration-line:none;text-decoration-style:solid;text-decoration-color:#000;text-transform:none;text-orientation:mixed;white-space:normal;shape-padding:0;isolation:auto;mix-blend-mode:normal;solid-color:#000;solid-opacity:1;fill:url(#X);marker:none" d="M282.355-210.121c-56.307 0-108.874 26.684-142.175 71.089 0 0-15.959 25.842 3.869 37.29l6.327 3.653a9.109 9.109 0 0 0 12.44-3.334 137.949 137.949 0 0 1 119.54-69.016c49.348 0 94.867 26.28 119.54 69.016a9.109 9.109 0 0 0 12.441 3.334l6.511-3.76c18.963-10.261 3.644-37.237 3.644-37.237-33.303-44.372-85.852-71.035-142.137-71.035z" color="#000" font-weight="400" font-family="sans-serif" overflow="visible" fill="url(#X)" enable-background="accumulate"/><path style="line-height:normal;font-variant-ligatures:normal;font-variant-position:normal;font-variant-caps:normal;font-variant-numeric:normal;font-variant-alternates:normal;font-feature-settings:normal;text-indent:0;text-align:start;text-decoration:none;text-decoration-line:none;text-decoration-style:solid;text-decoration-color:#000;text-transform:none;text-orientation:mixed;white-space:normal;shape-padding:0;isolation:auto;mix-blend-mode:normal;solid-color:#000;solid-opacity:1;fill:url(#Y);marker:none" d="M282.355-186.332c-67.033 0-109.072 34.558-137.4 83.624a8.132 8.132 0 0 0-.548 1.172l5.969 3.447a9.109 9.109 0 0 0 12.44-3.334 137.949 137.949 0 0 1 119.54-69.016c49.348 0 94.867 26.28 119.54 69.016a9.109 9.109 0 0 0 12.441 3.334l5.973-3.45a8.133 8.133 0 0 0-.551-1.169c-28.329-49.067-70.37-83.625-137.404-83.624z" color="#000" font-weight="400" font-family="sans-serif" overflow="visible" fill="url(#Y)" enable-background="accumulate"/><g id="ag" stroke-width="4.02" stroke-linejoin="bevel"><circle cy="70.897" cx="118.794" style="fill:url(#Z);marker:none" fill="url(#Z)" r="57.276"/><path style="fill:url(#aa);marker:none" d="M86.03 24.002a57.276 57.276 0 0 0-1.93 1.379A2 2 0 0 0 84 26a2 2 0 0 0 2 2 2 2 0 0 0 2-2 2 2 0 0 0-1.97-1.998zM82 28a2 2 0 0 0-2 2 2 2 0 0 0 2 2 2 2 0 0 0 2-2 2 2 0 0 0-2-2zm-4 4a2 2 0 0 0-2 2 2 2 0 0 0 2 2 2 2 0 0 0 2-2 2 2 0 0 0-2-2zm8 0a2 2 0 0 0-2 2 2 2 0 0 0 2 2 2 2 0 0 0 2-2 2 2 0 0 0-2-2zm-12 4a2 2 0 0 0-.607.098 57.276 57.276 0 0 0-1.39 1.824A2 2 0 0 0 72 38a2 2 0 0 0 2 2 2 2 0 0 0 2-2 2 2 0 0 0-2-2zm8 0a2 2 0 0 0-2 2 2 2 0 0 0 2 2 2 2 0 0 0 2-2 2 2 0 0 0-2-2zm-4 4a2 2 0 0 0-2 2 2 2 0 0 0 2 2 2 2 0 0 0 2-2 2 2 0 0 0-2-2zm8 0a2 2 0 0 0-2 2 2 2 0 0 0 2 2 2 2 0 0 0 2-2 2 2 0 0 0-2-2zm-15.418.088a57.276 57.276 0 0 0-2.021 3.299A2 2 0 0 0 70 44a2 2 0 0 0 2-2 2 2 0 0 0-1.418-1.912zM74 44a2 2 0 0 0-2 2 2 2 0 0 0 2 2 2 2 0 0 0 2-2 2 2 0 0 0-2-2zm8 0a2 2 0 0 0-2 2 2 2 0 0 0 2 2 2 2 0 0 0 2-2 2 2 0 0 0-2-2zm-14.246 1.043a57.276 57.276 0 0 0-1.414 2.928A2 2 0 0 0 68 46a2 2 0 0 0-.246-.957zM70 48a2 2 0 0 0-2 2 2 2 0 0 0 2 2 2 2 0 0 0 2-2 2 2 0 0 0-2-2zm8 0a2 2 0 0 0-2 2 2 2 0 0 0 2 2 2 2 0 0 0 2-2 2 2 0 0 0-2-2zm8 0a2 2 0 0 0-2 2 2 2 0 0 0 2 2 2 2 0 0 0 2-2 2 2 0 0 0-2-2zm-20 4a2 2 0 0 0-1.422.596 57.276 57.276 0 0 0-.564 1.617A2 2 0 0 0 66 56a2 2 0 0 0 2-2 2 2 0 0 0-2-2zm8 0a2 2 0 0 0-2 2 2 2 0 0 0 2 2 2 2 0 0 0 2-2 2 2 0 0 0-2-2zm8 0a2 2 0 0 0-2 2 2 2 0 0 0 2 2 2 2 0 0 0 2-2 2 2 0 0 0-2-2zm-12 4a2 2 0 0 0-2 2 2 2 0 0 0 2 2 2 2 0 0 0 2-2 2 2 0 0 0-2-2zm8 0a2 2 0 0 0-2 2 2 2 0 0 0 2 2 2 2 0 0 0 2-2 2 2 0 0 0-2-2zm8 0a2 2 0 0 0-2 2 2 2 0 0 0 2 2 2 2 0 0 0 2-2 2 2 0 0 0-2-2zm-22.59.582a57.276 57.276 0 0 0-.808 3.322A2 2 0 0 0 64 58a2 2 0 0 0-.59-1.418zM66 60a2 2 0 0 0-2 2 2 2 0 0 0 2 2 2 2 0 0 0 2-2 2 2 0 0 0-2-2zm8 0a2 2 0 0 0-2 2 2 2 0 0 0 2 2 2 2 0 0 0 2-2 2 2 0 0 0-2-2zm8 0a2 2 0 0 0-2 2 2 2 0 0 0 2 2 2 2 0 0 0 2-2 2 2 0 0 0-2-2zm-20.018 4a57.276 57.276 0 0 0-.318 3.97A2 2 0 0 0 62 68a2 2 0 0 0 2-2 2 2 0 0 0-2-2 2 2 0 0 0-.018 0zM70 64a2 2 0 0 0-2 2 2 2 0 0 0 2 2 2 2 0 0 0 2-2 2 2 0 0 0-2-2zm8 0a2 2 0 0 0-2 2 2 2 0 0 0 2 2 2 2 0 0 0 2-2 2 2 0 0 0-2-2zm8 0a2 2 0 0 0-2 2 2 2 0 0 0 2 2 2 2 0 0 0 2-2 2 2 0 0 0-2-2zm-20 4a2 2 0 0 0-2 2 2 2 0 0 0 2 2 2 2 0 0 0 2-2 2 2 0 0 0-2-2zm8 0a2 2 0 0 0-2 2 2 2 0 0 0 2 2 2 2 0 0 0 2-2 2 2 0 0 0-2-2zm8 0a2 2 0 0 0-2 2 2 2 0 0 0 2 2 2 2 0 0 0 2-2 2 2 0 0 0-2-2zm-20 4a2 2 0 0 0-.441.05 57.276 57.276 0 0 0 .23 3.938A2 2 0 0 0 62 76a2 2 0 0 0 2-2 2 2 0 0 0-2-2zm8 0a2 2 0 0 0-2 2 2 2 0 0 0 2 2 2 2 0 0 0 2-2 2 2 0 0 0-2-2zm8 0a2 2 0 0 0-2 2 2 2 0 0 0 2 2 2 2 0 0 0 2-2 2 2 0 0 0-2-2zm8 0a2 2 0 0 0-2 2 2 2 0 0 0 2 2 2 2 0 0 0 2-2 2 2 0 0 0-2-2zm-20 4a2 2 0 0 0-2 2 2 2 0 0 0 2 2 2 2 0 0 0 2-2 2 2 0 0 0-2-2zm8 0a2 2 0 0 0-2 2 2 2 0 0 0 2 2 2 2 0 0 0 2-2 2 2 0 0 0-2-2zm8 0a2 2 0 0 0-2 2 2 2 0 0 0 2 2 2 2 0 0 0 2-2 2 2 0 0 0-2-2zm-12 4a2 2 0 0 0-2 2 2 2 0 0 0 2 2 2 2 0 0 0 2-2 2 2 0 0 0-2-2zm8 0a2 2 0 0 0-2 2 2 2 0 0 0 2 2 2 2 0 0 0 2-2 2 2 0 0 0-2-2zm8 0a2 2 0 0 0-2 2 2 2 0 0 0 2 2 2 2 0 0 0 2-2 2 2 0 0 0-2-2zm-23.723.022a57.276 57.276 0 0 0 .764 3.683A2 2 0 0 0 64 82a2 2 0 0 0-1.723-1.979zM66 84a2 2 0 0 0-2 2 2 2 0 0 0 2 2 2 2 0 0 0 2-2 2 2 0 0 0-2-2zm8 0a2 2 0 0 0-2 2 2 2 0 0 0 2 2 2 2 0 0 0 2-2 2 2 0 0 0-2-2zm8 0a2 2 0 0 0-2 2 2 2 0 0 0 2 2 2 2 0 0 0 2-2 2 2 0 0 0-2-2zm-12 4a2 2 0 0 0-2 2 2 2 0 0 0 2 2 2 2 0 0 0 2-2 2 2 0 0 0-2-2zm8 0a2 2 0 0 0-2 2 2 2 0 0 0 2 2 2 2 0 0 0 2-2 2 2 0 0 0-2-2zm8 0a2 2 0 0 0-2 2 2 2 0 0 0 2 2 2 2 0 0 0 2-2 2 2 0 0 0-2-2zm-20 4a2 2 0 0 0-.414.045 57.276 57.276 0 0 0 1.598 3.564A2 2 0 0 0 68 94a2 2 0 0 0-2-2zm8 0a2 2 0 0 0-2 2 2 2 0 0 0 2 2 2 2 0 0 0 2-2 2 2 0 0 0-2-2zm8 0a2 2 0 0 0-2 2 2 2 0 0 0 2 2 2 2 0 0 0 2-2 2 2 0 0 0-2-2zm-12 4a2 2 0 0 0-1.922 1.451 57.276 57.276 0 0 0 1.426 2.485A2 2 0 0 0 70 100a2 2 0 0 0 2-2 2 2 0 0 0-2-2zm8 0a2 2 0 0 0-2 2 2 2 0 0 0 2 2 2 2 0 0 0 2-2 2 2 0 0 0-2-2zm8 0a2 2 0 0 0-2 2 2 2 0 0 0 2 2 2 2 0 0 0 2-2 2 2 0 0 0-2-2zm-12 4a2 2 0 0 0-2 2 2 2 0 0 0 2 2 2 2 0 0 0 2-2 2 2 0 0 0-2-2zm8 0a2 2 0 0 0-2 2 2 2 0 0 0 2 2 2 2 0 0 0 2-2 2 2 0 0 0-2-2zm-4 4a2 2 0 0 0-2 2 2 2 0 0 0 2 2 2 2 0 0 0 2-2 2 2 0 0 0-2-2zm8 0a2 2 0 0 0-2 2 2 2 0 0 0 2 2 2 2 0 0 0 2-2 2 2 0 0 0-2-2zm-4 4a2 2 0 0 0-2 2 2 2 0 0 0 2 2 2 2 0 0 0 2-2 2 2 0 0 0-2-2zm4 4a2 2 0 0 0-2 2 2 2 0 0 0 2 2 2 2 0 0 0 2-2 2 2 0 0 0-2-2z" fill="url(#aa)" stroke-width="80.391" enable-background="new"/><path d="M143.894-22.56c-17.103 0-34.177 5.007-48.57 14.246a18.78 18.78 0 0 0-8.636 15.803v125.66a18.78 18.78 0 0 0 8.6 15.78c14.382 9.277 31.457 14.322 48.57 14.355h.058c20.634-.024 36.942-7.417 52.862-20.544a18.78 18.78 0 0 0 6.83-14.488v-115.8a18.78 18.78 0 0 0-6.837-14.493c-15.923-13.118-32.23-20.502-52.862-20.519h-.014z" style="fill:url(#ab);marker:none" fill="url(#ab)"/><path transform="translate(0 -260)" d="M162.635 239.707v181.305c12.375-3.12 23.35-9.373 34.142-18.272a18.78 18.78 0 0 0 6.83-14.488V272.453a18.78 18.78 0 0 0-6.836-14.494c-10.791-8.89-21.765-15.138-34.136-18.252z" style="fill:url(#ac);marker:none" fill="url(#ac)"/><path style="line-height:normal;font-variant-ligatures:normal;font-variant-position:normal;font-variant-caps:normal;font-variant-numeric:normal;font-variant-alternates:normal;font-feature-settings:normal;text-indent:0;text-align:start;text-decoration:none;text-decoration-line:none;text-decoration-style:solid;text-decoration-color:#000;text-transform:none;text-orientation:mixed;white-space:normal;shape-padding:0;isolation:auto;mix-blend-mode:normal;solid-color:#000;solid-opacity:1;fill:url(#ad);marker:none" d="M196.963 5.215A2.5 2.5 0 0 0 194.5 7.75v121.5a2.5 2.5 0 1 0 5 0V7.75a2.5 2.5 0 0 0-2.537-2.535z" color="#000" font-weight="400" font-family="sans-serif" overflow="visible" opacity=".462" fill="url(#ad)" fill-opacity=".987" stroke-width="20.098" stroke-linecap="round" filter="url(#ae)" enable-background="accumulate"/><path d="M90.232 7.75v121.5" style="stroke:url(#af);marker:none" opacity=".187" fill="none" fill-opacity=".252" stroke="url(#af)" stroke-width="20.098" stroke-linecap="round" stroke-opacity=".987"/></g><use xlink:href="#ag" transform="matrix(-1 0 0 1 565.127 0)" width="100%" height="100%"/></g><g><g transform="rotate(-15 -8993.852 41709.587) scale(5.66932)"><rect style="display:inline;fill:url(#ah);fill-opacity:1;stroke:none;stroke-width:.061656;stroke-linecap:butt;stroke-linejoin:miter;stroke-miterlimit:4;stroke-dasharray:none;stroke-dashoffset:0;stroke-opacity:1;marker:none;marker-start:none;marker-mid:none;marker-end:none;paint-order:normal;enable-background:new" width="14.023" height="19.315" x="1937.014" y="715.433" rx="2.117" ry="2.117"/><rect ry="2.117" rx="2.117" y="714.904" x="1937.015" height="18.785" width="14.023" style="display:inline;fill:#3d3846;fill-opacity:1;stroke:none;stroke-width:.0612147;stroke-linecap:butt;stroke-linejoin:miter;stroke-miterlimit:4;stroke-dasharray:none;stroke-dashoffset:0;stroke-opacity:1;marker:none;marker-start:none;marker-mid:none;marker-end:none;paint-order:normal;enable-background:new"/><rect style="fill:#9a9996;fill-opacity:1;stroke:none;stroke-width:.486764;stroke-linecap:square;stroke-linejoin:round;stroke-opacity:1" width="2.91" height="2.117" x="1938.602" y="721.519" rx=".896" ry="1.058"/><rect style="fill:#9a9996;fill-opacity:1;stroke:none;stroke-width:.486722;stroke-linecap:square;stroke-linejoin:round;stroke-opacity:1" width="2.91" height="2.117" x="1942.571" y="721.519" rx=".895" ry="1.058"/><rect style="fill:#9a9996;fill-opacity:1;stroke:none;stroke-width:.48668;stroke-linecap:square;stroke-linejoin:round;stroke-opacity:1" width="2.909" height="2.117" x="1946.541" y="721.519" rx=".895" ry="1.058"/><rect y="716.492" x="1938.602" height="2.91" width="10.848" style="display:inline;fill:#241f31;fill-opacity:1;stroke:none;stroke-width:.0525692;stroke-linecap:butt;stroke-linejoin:miter;stroke-miterlimit:4;stroke-dasharray:none;stroke-dashoffset:0;stroke-opacity:1;marker:none;marker-start:none;marker-mid:none;marker-end:none;paint-order:normal;enable-background:new" rx=".851" ry=".832"/><rect transform="scale(1 -1)" ry=".895" rx=".851" style="display:inline;fill:#6fb182;fill-opacity:1;stroke:none;stroke-width:.0545535;stroke-linecap:butt;stroke-linejoin:miter;stroke-miterlimit:4;stroke-dasharray:none;stroke-dashoffset:0;stroke-opacity:1;marker:none;marker-start:none;marker-mid:none;marker-end:none;paint-order:normal;enable-background:new" width="10.848" height="2.91" x="1938.602" y="-719.931"/><rect style="fill:#deddda;fill-opacity:1;stroke:none;stroke-width:.486764;stroke-linecap:square;stroke-linejoin:round;stroke-opacity:1" width="2.91" height="2.117" x="1938.602" y="720.99" rx=".896" ry="1.058"/><rect style="fill:#deddda;fill-opacity:1;stroke:none;stroke-width:.486722;stroke-linecap:square;stroke-linejoin:round;stroke-opacity:1" width="2.91" height="2.117" x="1942.571" y="720.99" rx=".895" ry="1.058"/><rect style="fill:#deddda;fill-opacity:1;stroke:none;stroke-width:.48668;stroke-linecap:square;stroke-linejoin:round;stroke-opacity:1" width="2.909" height="2.117" x="1946.541" y="720.99" rx=".895" ry="1.058"/><rect style="fill:#5e5c64;fill-opacity:1;stroke:none;stroke-width:.486764;stroke-linecap:square;stroke-linejoin:round;stroke-opacity:1" width="2.91" height="2.646" x="1938.602" y="724.958" rx=".896" ry="1.058"/><rect style="fill:#5e5c64;fill-opacity:1;stroke:none;stroke-width:.486722;stroke-linecap:square;stroke-linejoin:round;stroke-opacity:1" width="2.91" height="2.646" x="1942.571" y="724.958" rx=".895" ry="1.058"/><rect style="fill:#5e5c64;fill-opacity:1;stroke:none;stroke-width:.486764;stroke-linecap:square;stroke-linejoin:round;stroke-opacity:1" width="2.91" height="2.646" x="1938.602" y="728.927" rx=".896" ry="1.058"/><rect style="fill:#5e5c64;fill-opacity:1;stroke:none;stroke-width:.486722;stroke-linecap:square;stroke-linejoin:round;stroke-opacity:1" width="2.91" height="2.646" x="1942.571" y="728.927" rx=".895" ry="1.058"/><rect style="fill:#9a9996;fill-opacity:1;stroke:none;stroke-width:.486764;stroke-linecap:square;stroke-linejoin:round;stroke-opacity:1" width="2.91" height="2.646" x="1938.602" y="724.429" rx=".896" ry="1.058"/><rect style="fill:#9a9996;fill-opacity:1;stroke:none;stroke-width:.486722;stroke-linecap:square;stroke-linejoin:round;stroke-opacity:1" width="2.91" height="2.646" x="1942.571" y="724.429" rx=".895" ry="1.058"/><rect style="fill:#9a9996;fill-opacity:1;stroke:none;stroke-width:.486764;stroke-linecap:square;stroke-linejoin:round;stroke-opacity:1" width="2.91" height="2.646" x="1938.602" y="728.398" rx=".896" ry="1.058"/><rect style="fill:#9a9996;fill-opacity:1;stroke:none;stroke-width:.486722;stroke-linecap:square;stroke-linejoin:round;stroke-opacity:1" width="2.91" height="2.646" x="1942.571" y="728.398" rx=".895" ry="1.058"/><rect style="opacity:1;fill:#c64600;fill-opacity:1;stroke:none;stroke-width:.48668;stroke-linecap:square;stroke-linejoin:round;stroke-opacity:1" width="2.909" height="2.646" x="1946.541" y="728.927" rx=".895" ry="1.058"/><rect style="opacity:1;fill:#ff7800;fill-opacity:1;stroke:none;stroke-width:.486679;stroke-linecap:square;stroke-linejoin:round;stroke-opacity:1" width="2.909" height="6.614" x="1946.541" y="724.429" rx=".895" ry="1.058"/></g></g><g><g stroke-width=".25"><path d="M-43.316 77.956h54.084l32.496 32.36.002 80.11c0 4.794-3.908 8.677-8.702 8.677h-77.88a8.634 8.634 0 0 1-8.654-8.653V86.609a8.634 8.634 0 0 1 8.654-8.654z" fill="#f6f5f4" enable-background="new" style="fill:#000;fill-opacity:.1" transform="rotate(-15 -217.487 266.516) scale(1.5)"/><path d="m-108.886 78.557 78.362-20.997 59.646 34.27L60.226 207.9c1.861 6.946-2.293 14.09-9.24 15.95l-112.839 30.236a12.951 12.951 0 0 1-15.898-9.178l-40.314-150.454a12.951 12.951 0 0 1 9.179-15.898z" fill="#f6f5f4" enable-background="new"/><path d="m-30.524 57.56 9.238 34.478c1.861 6.946 8.985 10.9 15.931 9.04l34.478-9.246z" fill="#deddda" enable-background="new"/></g><path style="opacity:1;fill:#c0bfbc;fill-opacity:1;stroke:none;stroke-width:1.33333;stroke-linecap:square;stroke-linejoin:round;stroke-dashoffset:26.4" d="M-95 85h75v10h-75z" transform="rotate(-15 -31.408 127.35)"/><g style="fill:#c0bfbc"><path style="opacity:1;fill:#c0bfbc;fill-opacity:1;stroke:none;stroke-width:1.33333;stroke-linecap:square;stroke-linejoin:round;stroke-dashoffset:26.4" d="M-95 145H25v5H-95zM-95 155H8.226v5H-95zM-95 170h45v5h-45zM-95 125H25v5H-95zM-95 225H25v5H-95zM-95 235H10v5H-95zM-95 180h45v5h-45zM-95 190h30v5h-30zM-95 200h45v5h-45zM-95 210h30v5h-30zM-95 135H25v5H-95z" transform="rotate(-15 -69.387 132.35)"/></g><path style="opacity:1;fill:url(#ai);fill-opacity:1;stroke:none;stroke-width:1.33333;stroke-linecap:square;stroke-linejoin:round;stroke-dashoffset:26.4" transform="scale(-1 1) rotate(15 31.408 127.35)" d="M-25 160h70v45h-70z"/></g></svg>