<?xml version="1.0" encoding="UTF-8"?>
<svg width="16px" height="16px" viewBox="0 0 16 16" xmlns="http://www.w3.org/2000/svg">
 <filter id="a" x="0%" y="0%" width="100%" height="100%">
  <feColorMatrix in="SourceGraphic" values="0 0 0 0 1 0 0 0 0 1 0 0 0 0 1 0 0 0 1 0"/>
 </filter>
 <mask id="b">
  <g filter="url(#a)">
   <path d="m0 0h16v16h-16z" fill-opacity=".3"/>
  </g>
 </mask>
 <clipPath id="c">
  <path d="m0 0h1600v1200h-1600z"/>
 </clipPath>
 <mask id="d">
  <g filter="url(#a)">
   <path d="m0 0h16v16h-16z" fill-opacity=".05"/>
  </g>
 </mask>
 <clipPath id="e">
  <path d="m0 0h1600v1200h-1600z"/>
 </clipPath>
 <mask id="f">
  <g filter="url(#a)">
   <path d="m0 0h16v16h-16z" fill-opacity=".05"/>
  </g>
 </mask>
 <clipPath id="g">
  <path d="m0 0h1600v1200h-1600z"/>
 </clipPath>
 <mask id="h">
  <g filter="url(#a)">
   <path d="m0 0h16v16h-16z" fill-opacity=".05"/>
  </g>
 </mask>
 <clipPath id="i">
  <path d="m0 0h1600v1200h-1600z"/>
 </clipPath>
 <mask id="j">
  <g filter="url(#a)">
   <path d="m0 0h16v16h-16z" fill-opacity=".05"/>
  </g>
 </mask>
 <clipPath id="k">
  <path d="m0 0h1600v1200h-1600z"/>
 </clipPath>
 <mask id="l">
  <g filter="url(#a)">
   <path d="m0 0h16v16h-16z" fill-opacity=".05"/>
  </g>
 </mask>
 <clipPath id="m">
  <path d="m0 0h1600v1200h-1600z"/>
 </clipPath>
 <mask id="n">
  <g filter="url(#a)">
   <path d="m0 0h16v16h-16z" fill-opacity=".05"/>
  </g>
 </mask>
 <clipPath id="o">
  <path d="m0 0h1600v1200h-1600z"/>
 </clipPath>
 <mask id="p">
  <g filter="url(#a)">
   <path d="m0 0h16v16h-16z" fill-opacity=".3"/>
  </g>
 </mask>
 <clipPath id="q">
  <path d="m0 0h1600v1200h-1600z"/>
 </clipPath>
 <mask id="r">
  <g filter="url(#a)">
   <path d="m0 0h16v16h-16z" fill-opacity=".5"/>
  </g>
 </mask>
 <clipPath id="s">
  <path d="m0 0h1600v1200h-1600z"/>
 </clipPath>
 <g transform="translate(-280 -296)" clip-path="url(#c)" mask="url(#b)">
  <path d="m562.46 212.06h10.449c-1.1836 0.49219-1.2969 2.4609 0 3h-10.449z" fill="#2e3436"/>
 </g>
 <g transform="translate(-280 -296)" clip-path="url(#e)" mask="url(#d)">
  <path d="m16 748h1v1h-1z" fill="#2e3436" fill-rule="evenodd"/>
 </g>
 <g transform="translate(-280 -296)" clip-path="url(#g)" mask="url(#f)">
  <path d="m17 747h1v1h-1z" fill="#2e3436" fill-rule="evenodd"/>
 </g>
 <g transform="translate(-280 -296)" clip-path="url(#i)" mask="url(#h)">
  <path d="m18 750h1v1h-1z" fill="#2e3436" fill-rule="evenodd"/>
 </g>
 <g transform="translate(-280 -296)" clip-path="url(#k)" mask="url(#j)">
  <path d="m16 750h1v1h-1z" fill="#2e3436" fill-rule="evenodd"/>
 </g>
 <g transform="translate(-280 -296)" clip-path="url(#m)" mask="url(#l)">
  <path d="m17 751h1v1h-1z" fill="#2e3436" fill-rule="evenodd"/>
 </g>
 <g transform="translate(-280 -296)" clip-path="url(#o)" mask="url(#n)">
  <path d="m19 751h1v1h-1z" fill="#2e3436" fill-rule="evenodd"/>
 </g>
 <g transform="translate(-280 -296)" clip-path="url(#q)" mask="url(#p)">
  <path d="m136 776v7h7v-7z" fill="#2e3436"/>
 </g>
 <g transform="translate(-280 -296)" clip-path="url(#s)" mask="url(#r)">
  <path d="m219 758h3v12h-3z" fill="#2e3436"/>
 </g>
 <path d="m6.5 1c-0.83203 0-1.5 0.66797-1.5 1.5v1.5h-3c-0.55469 0-1 0.44531-1 1v3h1.5c0.83203 0 1.5 0.66797 1.5 1.5s-0.66797 1.5-1.5 1.5h-1.5v3c0 0.55469 0.44531 1 1 1h3v-1.5c0-0.83203 0.66797-1.5 1.5-1.5s1.5 0.66797 1.5 1.5v1.5h3c0.55469 0 1-0.44531 1-1v-3h1.5c0.83203 0 1.5-0.66797 1.5-1.5s-0.66797-1.5-1.5-1.5h-1.5v-3c0-0.55469-0.44531-1-1-1h-3v-1.5c0-0.83203-0.66797-1.5-1.5-1.5z" fill="#2e3436"/>
</svg>
