<?xml version="1.0" encoding="UTF-8" standalone="no"?><!-- Generator: Gravit.io --><svg xmlns="http://www.w3.org/2000/svg" xmlns:xlink="http://www.w3.org/1999/xlink" style="isolation:isolate" viewBox="663.148 396.288 215.223 63.449" width="215.223pt" height="63.449pt"><defs><clipPath id="_clipPath_6QuGNGlomH4FEiIMCoz970PSjL5rDUZ6"><rect x="663.148" y="396.288" width="215.223" height="63.449"/></clipPath></defs><g clip-path="url(#_clipPath_6QuGNGlomH4FEiIMCoz970PSjL5rDUZ6)"><path d=" M 858.142 459.636 C 855.316 459.636 853.011 458.631 851.226 456.621 C 849.515 454.611 848.623 451.998 848.623 448.715 C 848.623 445.164 849.515 441.747 851.375 438.531 C 853.234 435.382 855.688 432.769 858.737 430.826 C 861.787 428.883 864.984 427.945 868.405 427.945 C 869.521 427.945 870.265 428.146 870.637 428.481 C 871.008 428.883 871.306 429.553 871.529 430.558 C 872.496 430.357 873.537 430.29 874.653 430.29 C 875.842 430.29 876.735 430.558 877.404 431.094 C 878.074 431.63 878.371 432.367 878.371 433.372 C 878.371 434.377 878.148 436.186 877.627 438.732 C 877.107 441.479 876.661 444.025 876.363 446.504 C 876.066 448.983 875.917 451.797 875.917 454.879 C 875.917 456.554 875.545 457.76 874.801 458.497 C 873.983 459.234 872.719 459.636 871.008 459.636 C 869.298 459.636 868.108 459.234 867.216 458.497 C 866.472 457.76 866.026 456.621 866.026 454.946 L 866.1 453.874 C 864.538 457.693 861.935 459.636 858.142 459.636 Z  M 861.043 452.869 C 862.456 452.869 863.72 451.998 864.836 450.256 C 865.951 448.514 866.992 445.432 867.885 440.943 L 869.298 434.176 C 867.29 434.243 865.356 434.913 863.646 436.253 C 861.935 437.66 860.522 439.469 859.481 441.68 C 858.44 443.891 857.919 446.303 857.919 448.782 C 857.919 450.122 858.217 451.127 858.812 451.797 C 859.332 452.534 860.076 452.869 861.043 452.869 Z " fill="rgb(0,0,0)"/><path d=" M 721.063 459.636 L 721.063 459.636 Q 716.453 459.636 713.701 456.621 L 713.701 456.621 L 713.701 456.621 Q 710.949 453.606 710.949 448.715 L 710.949 448.715 L 710.949 448.715 Q 710.949 443.355 713.701 438.565 L 713.701 438.565 L 713.701 438.565 Q 716.453 433.774 721.026 430.86 L 721.026 430.86 L 721.026 430.86 Q 725.6 427.945 730.732 427.945 L 730.732 427.945 L 730.732 427.945 Q 732.368 427.945 732.925 428.515 L 732.925 428.515 L 732.925 428.515 Q 733.483 429.084 733.855 430.558 L 733.855 430.558 L 733.855 430.558 Q 735.417 430.29 737.127 430.29 L 737.127 430.29 L 737.127 430.29 Q 740.772 430.29 740.772 432.635 L 740.772 432.635 L 740.772 432.635 Q 740.772 434.042 739.656 439.335 L 739.656 439.335 L 739.656 439.335 Q 737.945 447.04 737.945 450.055 L 737.945 450.055 L 737.945 450.055 Q 737.945 451.06 738.503 451.663 L 738.503 451.663 L 738.503 451.663 Q 739.061 452.266 739.953 452.266 L 739.953 452.266 L 739.953 452.266 Q 741.367 452.266 743.374 450.625 L 743.374 450.625 L 743.374 450.625 Q 745.382 448.983 748.803 445.298 L 748.803 445.298 L 748.803 445.298 Q 749.696 444.36 750.811 444.36 L 750.811 444.36 L 750.811 444.36 Q 751.778 444.36 752.336 445.164 L 752.336 445.164 L 752.336 445.164 Q 752.894 445.968 752.894 447.375 L 752.894 447.375 L 752.894 447.375 Q 752.894 450.055 751.481 451.529 L 751.481 451.529 L 751.481 451.529 Q 748.432 454.946 745.011 457.291 L 745.011 457.291 L 745.011 457.291 Q 741.59 459.636 738.392 459.636 L 738.392 459.636 L 738.392 459.636 Q 735.937 459.636 733.892 458.129 L 733.892 458.129 L 733.892 458.129 Q 731.847 456.621 730.806 454.008 L 730.806 454.008 L 730.806 454.008 Q 726.939 459.636 721.063 459.636 L 721.063 459.636 Z  M 723.741 452.869 L 723.741 452.869 Q 725.377 452.869 726.864 451.127 L 726.864 451.127 L 726.864 451.127 Q 728.352 449.385 729.021 446.504 L 729.021 446.504 L 731.773 434.176 L 731.773 434.176 Q 728.649 434.243 726.009 436.287 L 726.009 436.287 L 726.009 436.287 Q 723.369 438.33 721.807 441.68 L 721.807 441.68 L 721.807 441.68 Q 720.245 445.03 720.245 448.782 L 720.245 448.782 L 720.245 448.782 Q 720.245 450.859 721.175 451.864 L 721.175 451.864 L 721.175 451.864 Q 722.105 452.869 723.741 452.869 L 723.741 452.869 Z " fill-rule="evenodd" fill="rgb(0,0,0)"/><path d=" M 752.243 459.636 L 752.243 459.636 Q 749.417 459.636 748.265 456.956 L 748.265 456.956 L 748.265 456.956 Q 747.112 454.276 747.112 448.38 L 747.112 448.38 L 747.112 448.38 Q 747.112 439.67 749.864 431.831 L 749.864 431.831 L 749.864 431.831 Q 750.533 429.888 752.057 428.984 L 752.057 428.984 L 752.057 428.984 Q 753.582 428.079 756.334 428.079 L 756.334 428.079 L 756.334 428.079 Q 757.821 428.079 758.416 428.414 L 758.416 428.414 L 758.416 428.414 Q 759.011 428.749 759.011 429.687 L 759.011 429.687 L 759.011 429.687 Q 759.011 430.759 757.896 434.511 L 757.896 434.511 L 757.896 434.511 Q 757.152 437.191 756.706 439.201 L 756.706 439.201 L 756.706 439.201 Q 756.259 441.211 755.962 444.159 L 755.962 444.159 L 755.962 444.159 Q 758.416 438.397 761.465 434.779 L 761.465 434.779 L 761.465 434.779 Q 764.514 431.161 767.452 429.62 L 767.452 429.62 L 767.452 429.62 Q 770.39 428.079 772.844 428.079 L 772.844 428.079 L 772.844 428.079 Q 777.678 428.079 777.678 432.434 L 777.678 432.434 L 777.678 432.434 Q 777.678 435.047 776.042 441.881 L 776.042 441.881 L 776.042 441.881 Q 774.629 447.71 774.629 449.586 L 774.629 449.586 L 774.629 449.586 Q 774.629 452.266 776.785 452.266 L 776.785 452.266 L 776.785 452.266 Q 778.273 452.266 780.318 450.625 L 780.318 450.625 L 780.318 450.625 Q 782.363 448.983 785.784 445.298 L 785.784 445.298 L 785.784 445.298 Q 786.677 444.36 787.792 444.36 L 787.792 444.36 L 787.792 444.36 Q 788.759 444.36 789.317 445.164 L 789.317 445.164 L 789.317 445.164 Q 789.875 445.968 789.875 447.375 L 789.875 447.375 L 789.875 447.375 Q 789.875 450.055 788.462 451.529 L 788.462 451.529 L 788.462 451.529 Q 785.264 455.08 781.582 457.358 L 781.582 457.358 L 781.582 457.358 Q 777.901 459.636 773.216 459.636 L 773.216 459.636 L 773.216 459.636 Q 769.423 459.636 767.489 457.66 L 767.489 457.66 L 767.489 457.66 Q 765.556 455.683 765.556 451.931 L 765.556 451.931 L 765.556 451.931 Q 765.556 450.055 766.597 445.231 L 766.597 445.231 L 766.597 445.231 Q 767.564 441.01 767.564 439.402 L 767.564 439.402 L 767.564 439.402 Q 767.564 438.33 766.745 438.33 L 766.745 438.33 L 766.745 438.33 Q 765.779 438.33 764.031 440.575 L 764.031 440.575 L 764.031 440.575 Q 762.283 442.819 760.461 446.504 L 760.461 446.504 L 760.461 446.504 Q 758.639 450.189 757.524 454.276 L 757.524 454.276 L 757.524 454.276 Q 756.706 457.425 755.627 458.531 L 755.627 458.531 L 755.627 458.531 Q 754.549 459.636 752.243 459.636 L 752.243 459.636 Z " fill="rgb(0,0,0)"/><path d=" M 793.423 423.657 L 793.423 423.657 Q 790.3 423.657 788.738 422.351 L 788.738 422.351 L 788.738 422.351 Q 787.176 421.044 787.176 418.699 L 787.176 418.699 L 787.176 418.699 Q 787.176 416.354 789.222 414.78 L 789.222 414.78 L 789.222 414.78 Q 791.267 413.205 794.316 413.205 L 794.316 413.205 L 794.316 413.205 Q 797.068 413.205 798.778 414.411 L 798.778 414.411 L 798.778 414.411 Q 800.489 415.617 800.489 417.828 L 800.489 417.828 L 800.489 417.828 Q 800.489 420.508 798.555 422.083 L 798.555 422.083 L 798.555 422.083 Q 796.621 423.657 793.423 423.657 L 793.423 423.657 Z " fill="rgb(0,0,0)"/><path d=" M 792.829 459.636 L 792.829 459.636 Q 787.995 459.636 785.801 456.554 L 785.801 456.554 L 785.801 456.554 Q 783.607 453.472 783.607 448.38 L 783.607 448.38 L 783.607 448.38 Q 783.607 445.365 784.462 440.642 L 784.462 440.642 L 784.462 440.642 Q 785.317 435.918 786.656 431.831 L 786.656 431.831 L 786.656 431.831 Q 787.325 429.687 788.441 428.883 L 788.441 428.883 L 788.441 428.883 Q 789.556 428.079 792.01 428.079 L 792.01 428.079 L 792.01 428.079 Q 795.803 428.079 795.803 430.357 L 795.803 430.357 L 795.803 430.357 Q 795.803 432.032 794.39 438.129 L 794.39 438.129 L 794.39 438.129 Q 792.605 445.499 792.605 448.112 L 792.605 448.112 L 792.605 448.112 Q 792.605 450.122 793.2 451.194 L 793.2 451.194 L 793.2 451.194 Q 793.795 452.266 795.208 452.266 L 795.208 452.266 L 795.208 452.266 Q 796.547 452.266 798.555 450.591 L 798.555 450.591 L 798.555 450.591 Q 800.563 448.916 803.91 445.298 L 803.91 445.298 L 803.91 445.298 Q 804.802 444.36 805.918 444.36 L 805.918 444.36 L 805.918 444.36 Q 806.884 444.36 807.442 445.164 L 807.442 445.164 L 807.442 445.164 Q 808 445.968 808 447.375 L 808 447.375 L 808 447.375 Q 808 450.055 806.587 451.529 L 806.587 451.529 L 806.587 451.529 Q 799.224 459.636 792.829 459.636 L 792.829 459.636 Z " fill="rgb(0,0,0)"/><path d=" M 829.918 444.461 L 829.918 444.461 Q 830.884 444.461 831.442 445.265 L 831.442 445.265 L 831.442 445.265 Q 832 446.069 832 447.476 L 832 447.476 L 832 447.476 Q 832 450.156 830.587 451.63 L 830.587 451.63 L 830.587 451.63 Q 827.389 455.181 823.633 457.459 L 823.633 457.459 L 823.633 457.459 Q 819.878 459.737 815.118 459.737 L 815.118 459.737 L 815.118 459.737 Q 808.573 459.737 805.413 454.377 L 805.413 454.377 L 805.413 454.377 Q 802.252 449.017 802.252 440.508 L 802.252 440.508 L 802.252 440.508 Q 802.252 432.334 804.595 421.882 L 804.595 421.882 L 804.595 421.882 Q 806.937 411.43 811.511 403.926 L 811.511 403.926 L 811.511 403.926 Q 816.085 396.422 822.406 396.422 L 822.406 396.422 L 822.406 396.422 Q 825.976 396.422 828.021 399.403 L 828.021 399.403 L 828.021 399.403 Q 830.066 402.385 830.066 407.946 L 830.066 407.946 L 830.066 407.946 Q 830.066 415.919 825.158 426.438 L 825.158 426.438 L 825.158 426.438 Q 820.25 436.957 811.846 447.275 L 811.846 447.275 L 811.846 447.275 Q 812.366 450.022 813.556 451.194 L 813.556 451.194 L 813.556 451.194 Q 814.746 452.367 816.68 452.367 L 816.68 452.367 L 816.68 452.367 Q 819.729 452.367 822.034 450.792 L 822.034 450.792 L 822.034 450.792 Q 824.34 449.218 827.91 445.399 L 827.91 445.399 L 827.91 445.399 Q 828.802 444.461 829.918 444.461 L 829.918 444.461 Z  M 820.77 403.055 L 820.77 403.055 Q 819.06 403.055 816.903 408.616 L 816.903 408.616 L 816.903 408.616 Q 814.746 414.177 813.11 422.418 L 813.11 422.418 L 813.11 422.418 Q 811.474 430.659 811.325 438.23 L 811.325 438.23 L 811.325 438.23 Q 816.605 430.391 819.729 422.518 L 819.729 422.518 L 819.729 422.518 Q 822.853 414.646 822.853 408.147 L 822.853 408.147 L 822.853 408.147 Q 822.853 403.055 820.77 403.055 L 820.77 403.055 Z " fill-rule="evenodd" fill="rgb(0,0,0)"/><path d=" M 853.918 444.327 L 853.918 444.327 Q 854.884 444.327 855.442 445.131 L 855.442 445.131 L 855.442 445.131 Q 856 445.935 856 447.342 L 856 447.342 L 856 447.342 Q 856 450.022 854.587 451.496 L 854.587 451.496 L 854.587 451.496 Q 851.389 455.047 847.633 457.325 L 847.633 457.325 L 847.633 457.325 Q 843.878 459.603 839.118 459.603 L 839.118 459.603 L 839.118 459.603 Q 832.573 459.603 829.413 454.243 L 829.413 454.243 L 829.413 454.243 Q 826.252 448.883 826.252 440.374 L 826.252 440.374 L 826.252 440.374 Q 826.252 432.2 828.595 421.748 L 828.595 421.748 L 828.595 421.748 Q 830.937 411.296 835.511 403.792 L 835.511 403.792 L 835.511 403.792 Q 840.085 396.288 846.406 396.288 L 846.406 396.288 L 846.406 396.288 Q 849.976 396.288 852.021 399.269 L 852.021 399.269 L 852.021 399.269 Q 854.066 402.251 854.066 407.812 L 854.066 407.812 L 854.066 407.812 Q 854.066 415.785 849.158 426.304 L 849.158 426.304 L 849.158 426.304 Q 844.25 436.823 835.846 447.141 L 835.846 447.141 L 835.846 447.141 Q 836.366 449.888 837.556 451.06 L 837.556 451.06 L 837.556 451.06 Q 838.746 452.233 840.68 452.233 L 840.68 452.233 L 840.68 452.233 Q 843.729 452.233 846.034 450.658 L 846.034 450.658 L 846.034 450.658 Q 848.34 449.084 851.91 445.265 L 851.91 445.265 L 851.91 445.265 Q 852.802 444.327 853.918 444.327 L 853.918 444.327 Z  M 844.77 402.921 L 844.77 402.921 Q 843.06 402.921 840.903 408.482 L 840.903 408.482 L 840.903 408.482 Q 838.746 414.043 837.11 422.284 L 837.11 422.284 L 837.11 422.284 Q 835.474 430.525 835.325 438.096 L 835.325 438.096 L 835.325 438.096 Q 840.605 430.257 843.729 422.384 L 843.729 422.384 L 843.729 422.384 Q 846.852 414.512 846.852 408.013 L 846.852 408.013 L 846.852 408.013 Q 846.852 402.921 844.77 402.921 L 844.77 402.921 Z " fill-rule="evenodd" fill="rgb(0,0,0)"/><path d=" M 718.256 430.357 L 718.256 430.357 Q 719.966 430.357 720.747 431.027 L 720.747 431.027 L 720.747 431.027 Q 721.528 431.697 721.528 432.769 L 721.528 432.769 L 721.528 432.769 Q 721.528 434.511 720.375 435.851 L 720.375 435.851 L 720.375 435.851 Q 719.223 437.191 716.768 437.258 L 716.768 437.258 L 716.768 437.258 Q 710.819 437.392 706.208 436.454 L 706.208 436.454 L 706.208 436.454 Q 700.928 446.437 693.453 453.037 L 693.453 453.037 L 693.453 453.037 Q 685.979 459.636 678.468 459.636 L 678.468 459.636 L 678.468 459.636 Q 670.733 459.636 666.94 451.529 L 666.94 451.529 L 666.94 451.529 Q 663.148 443.422 663.148 429.62 L 663.148 429.62 L 663.148 429.62 Q 663.148 417.828 665.007 408.448 L 665.007 408.448 L 665.007 408.448 Q 665.676 404.964 666.903 403.725 L 666.903 403.725 L 666.903 403.725 Q 668.13 402.485 671.105 402.485 L 671.105 402.485 L 671.105 402.485 Q 676.014 402.485 676.014 406.304 L 676.014 406.304 L 676.014 406.304 Q 676.014 406.706 675.865 407.778 L 675.865 407.778 L 675.865 407.778 Q 673.634 419.838 673.634 429.62 L 673.634 429.62 L 673.634 429.62 Q 673.634 439.871 675.53 445.198 L 675.53 445.198 L 675.53 445.198 Q 677.427 450.524 681.219 450.524 L 681.219 450.524 L 681.219 450.524 Q 685.087 450.524 689.623 445.7 L 689.623 445.7 L 689.623 445.7 Q 694.16 440.876 697.953 433.573 L 697.953 433.573 L 697.953 433.573 Q 693.416 431.027 691.111 426.974 L 691.111 426.974 L 691.111 426.974 Q 688.805 422.92 688.805 417.627 L 688.805 417.627 L 688.805 417.627 Q 688.805 412.334 690.627 408.683 L 690.627 408.683 L 690.627 408.683 Q 692.449 405.031 695.61 403.222 L 695.61 403.222 L 695.61 403.222 Q 698.771 401.413 702.638 401.413 L 702.638 401.413 L 702.638 401.413 Q 707.398 401.413 710.187 404.495 L 710.187 404.495 L 710.187 404.495 Q 712.975 407.577 712.975 412.937 L 712.975 412.937 L 712.975 412.937 Q 712.975 420.642 709.257 429.754 L 709.257 429.754 L 709.257 429.754 Q 713.199 430.357 718.256 430.357 L 718.256 430.357 L 718.256 430.357 Z  M 696.317 417.158 L 696.317 417.158 Q 696.317 423.724 701.002 426.873 L 701.002 426.873 L 701.002 426.873 Q 703.902 419.369 703.902 414.478 L 703.902 414.478 L 703.902 414.478 Q 703.902 411.664 703.084 410.358 L 703.084 410.358 L 703.084 410.358 Q 702.266 409.051 700.853 409.051 L 700.853 409.051 L 700.853 409.051 Q 698.845 409.051 697.581 411.162 L 697.581 411.162 L 697.581 411.162 Q 696.317 413.272 696.317 417.158 L 696.317 417.158 L 696.317 417.158 Z " fill-rule="evenodd" fill="rgb(0,0,0)"/></g></svg>