<?xml version="1.0" encoding="UTF-8" standalone="no"?>
<svg
   width="128"
   height="128"
   viewBox="0 0 128 128"
   fill="none"
   version="1.1"
   id="svg44"
   xmlns="http://www.w3.org/2000/svg"
   xmlns:svg="http://www.w3.org/2000/svg">
  <g
     id="g889">
    <path
       d="m 26.32294,22.252894 h 76.15452 c 3.82306,0 6.92254,3.113926 6.92254,6.954831 v 76.539195 c 0,3.8405 -3.09948,6.95413 -6.92254,6.95413 H 26.32294 c -3.823159,0 -6.92294,-3.11363 -6.92294,-6.95413 V 29.207725 c 0,-3.840905 3.099781,-6.954831 6.92294,-6.954831 z"
       fill="#686868"
       id="path2"
       style="stroke-width:0.99346" />
    <path
       d="m 19.4,102.26985 v 9.77602 C 19.4,115.89932 22.486301,119 26.32294,119 h 76.15452 c 3.83594,0 6.92254,-3.10068 6.92254,-6.95413 v -9.77602 c 0,3.85345 -3.0866,6.95413 -6.92254,6.95413 H 26.32294 c -3.836639,0 -6.92294,-3.10068 -6.92294,-6.95413 z"
       fill="url(#paint0_linear_1_47)"
       id="path4"
       style="fill:url(#paint0_linear_1_47);stroke-width:0.99346" />
    <path
       d="m 26.32294,9 h 76.15452 c 3.82306,0 6.92254,3.113937 6.92254,6.954841 v 76.539093 c 0,3.840307 -3.09948,6.954533 -6.92254,6.954533 H 26.32294 C 22.499781,99.448467 19.4,96.334241 19.4,92.493934 V 15.954841 C 19.4,12.113937 22.499781,9 26.32294,9 Z"
       fill="#ffbf48"
       id="path6"
       style="stroke-width:0.99346" />
    <path
       d="m 19.4,89.016369 v 9.776015 c 0,3.853846 3.086301,6.954536 6.92294,6.954536 h 76.15452 c 3.83594,0 6.92254,-3.10069 6.92254,-6.954536 v -9.776015 c 0,3.854247 -3.0866,6.954533 -6.92254,6.954533 H 26.32294 c -3.836639,0 -6.92294,-3.100286 -6.92294,-6.954533 z"
       fill="url(#paint1_linear_1_47)"
       id="path8"
       style="fill:url(#paint1_linear_1_47);stroke-width:0.99346" />
    <path
       d="M 60.320319,25.537388 V 66.871672 L 48.926173,55.42543 C 48.161264,54.656831 47.123874,54.224886 46.04188,54.224587 h -6.119176 v 4.098299 c 2.98e-4,1.086932 0.429983,2.129057 1.19509,2.897357 l 20.397912,20.4908 c 1.592958,1.599829 4.175333,1.599829 5.768489,0 l 20.397714,-20.4908 c 0.765107,-0.7683 1.19509,-1.810425 1.195387,-2.897357 0,-0.02181 0,-0.04371 0,-0.06552 v -4.032779 h -6.119472 c -1.081697,2.99e-4 -2.119385,0.432244 -2.884294,1.200843 L 68.479384,66.871672 V 25.537388 Z"
       fill="#bd8f38"
       id="path10"
       style="stroke-width:0.99346" />
  </g>
  <defs
     id="defs42">
    <linearGradient
       id="paint0_linear_1_47"
       x1="19"
       y1="110.599"
       x2="109.799"
       y2="110.599"
       gradientUnits="userSpaceOnUse"
       gradientTransform="matrix(0.99120034,0,0,0.99572373,0.56719347,0.50887629)">
      <stop
         offset="0.01"
         stop-color="#424242"
         id="stop12" />
      <stop
         offset="0.05"
         stop-color="#686868"
         id="stop14" />
      <stop
         offset="0.1"
         stop-color="#424242"
         id="stop16" />
      <stop
         offset="0.5"
         stop-color="#424242"
         id="stop18" />
      <stop
         offset="0.89999998"
         stop-color="#424242"
         id="stop20" />
      <stop
         offset="0.94999999"
         stop-color="#686868"
         id="stop22" />
      <stop
         offset="0.99000001"
         stop-color="#424242"
         id="stop24" />
    </linearGradient>
    <linearGradient
       id="paint1_linear_1_47"
       x1="19"
       y1="97.288696"
       x2="109.799"
       y2="97.288696"
       gradientUnits="userSpaceOnUse"
       gradientTransform="matrix(0.99120034,0,0,0.99572373,0.56719347,0.50887629)">
      <stop
         offset="0.01"
         stop-color="#BD8F38"
         id="stop27" />
      <stop
         offset="0.05"
         stop-color="#FFBF48"
         id="stop29" />
      <stop
         offset="0.1"
         stop-color="#BD8F38"
         id="stop31" />
      <stop
         offset="0.5"
         stop-color="#BD8F38"
         id="stop33" />
      <stop
         offset="0.89999998"
         stop-color="#BD8F38"
         id="stop35" />
      <stop
         offset="0.94999999"
         stop-color="#FFBF48"
         id="stop37" />
      <stop
         offset="0.99000001"
         stop-color="#BD8F38"
         id="stop39" />
    </linearGradient>
  </defs>
</svg>
