<svg width="171" height="164" viewBox="0 0 171 164" fill="none" xmlns="http://www.w3.org/2000/svg">
<path d="M85.6312 0C64.9591 10.2004 35.8882 43.0472 84.9829 92.8325C86.2234 84.2652 88.1826 74.2971 90.3412 64.4114C95.7558 39.614 102.425 15.3375 102.156 15.0034C98.0493 9.90939 92.6196 4.87791 85.6312 0Z" fill="url(#paint0_linear_84_113)"/>
<path fill-rule="evenodd" clip-rule="evenodd" d="M102.156 15.0034C102.365 15.2627 102.773 15.7817 102.773 15.7817C102.773 15.7817 91.3027 75.9767 84.9829 92.8325C83.3638 90.8404 80.9719 88.1042 78.6167 83.5101C75.3053 77.0509 69.4289 59.736 75.4851 41.6589C81.2588 24.4254 92.4373 17.6477 102.156 15.0034Z" fill="#FFFB64"/>
<path fill-rule="evenodd" clip-rule="evenodd" d="M102.773 15.7817C125.981 45.5788 104.425 77.3437 84.9829 92.8325C76.5492 83.8055 69.1004 63.4795 76.4095 42.0037C82.2662 24.7955 93.1441 18.6516 102.773 15.7817Z" fill="url(#paint1_linear_84_113)"/>
<path d="M170.5 56.7089C152.955 41.7573 111.288 28.0498 84.982 92.8329C93.3413 90.5835 103.271 88.44 113.205 86.5124C138.121 81.6768 163.056 78.2 163.256 77.8203C166.311 72.0338 168.784 65.0568 170.5 56.7089Z" fill="url(#paint2_linear_84_113)"/>
<path fill-rule="evenodd" clip-rule="evenodd" d="M163.257 77.8202C163.101 78.1148 162.786 78.6945 162.786 78.6945C162.786 78.6945 102.963 91.9699 84.9825 92.8328C86.1716 90.5578 87.7385 87.2787 91.0264 83.2983C95.6491 77.7021 109.227 65.4561 128.226 63.8681C146.338 62.3542 156.984 69.9402 163.257 77.8202Z" fill="#FFFB64"/>
<path fill-rule="evenodd" clip-rule="evenodd" d="M162.785 78.6946C144.598 111.796 106.898 104.563 84.982 92.8329C89.9368 81.5164 105.659 66.6352 128.274 64.8535C146.395 63.426 156.341 70.9864 162.785 78.6946Z" fill="url(#paint3_linear_84_113)"/>
<path d="M22.024 161.057C44.1788 167.425 87.7868 162.696 84.9809 92.8317C78.2974 98.3334 70.1397 104.388 61.89 110.247C41.1962 124.943 19.9249 138.41 19.8994 138.839C19.5083 145.37 20.1381 152.746 22.024 161.057Z" fill="url(#paint4_linear_84_113)"/>
<path fill-rule="evenodd" clip-rule="evenodd" d="M19.8994 138.839C19.9193 138.506 19.9672 137.848 19.9672 137.848C19.9672 137.848 68.9624 101.045 84.9809 92.8317C84.8378 95.3947 84.7657 99.0283 83.4158 104.011C81.5179 111.017 74.2111 127.779 57.5657 137.073C41.6969 145.934 28.8671 143.424 19.8994 138.839Z" fill="#FFFB64"/>
<path fill-rule="evenodd" clip-rule="evenodd" d="M19.968 137.848C22.8561 100.19 60.1779 91.2031 84.9819 92.8318C85.1444 105.184 76.9743 125.231 57.1147 136.196C41.2016 144.982 29.0211 142.206 19.968 137.848Z" fill="url(#paint5_linear_84_113)"/>
<path d="M146.374 162.469C154.986 141.086 154.764 97.2231 84.9816 92.8326C89.7672 100.046 94.9508 108.783 99.9307 117.591C112.423 139.686 123.632 162.229 124.055 162.299C130.512 163.359 137.913 163.491 146.374 162.469Z" fill="url(#paint6_linear_84_113)"/>
<path fill-rule="evenodd" clip-rule="evenodd" d="M124.056 162.299C123.727 162.245 123.078 162.13 123.078 162.13C123.078 162.13 91.5062 109.611 84.9825 92.8328C87.5173 93.2386 91.1241 93.6839 95.9421 95.5389C102.716 98.147 118.638 107.138 126.172 124.651C133.354 141.346 129.539 153.85 124.056 162.299Z" fill="#FFFB64"/>
<path fill-rule="evenodd" clip-rule="evenodd" d="M123.077 162.129C85.9148 155.386 80.8119 117.338 84.9816 92.8326C97.2855 93.9407 116.386 104.128 125.252 125.01C132.356 141.742 128.342 153.572 123.077 162.129Z" fill="url(#paint7_linear_84_113)"/>
<path d="M0 55.4649C1.17749 78.4866 19.822 118.191 84.9819 92.8325C77.6068 88.2998 69.2302 82.5524 61.0083 76.6545C40.384 61.8602 20.7353 46.12 20.3218 46.2351C14.0178 47.9879 7.2471 50.9803 0 55.4649Z" fill="url(#paint8_linear_84_113)"/>
<path fill-rule="evenodd" clip-rule="evenodd" d="M20.323 46.2351C20.6439 46.1458 21.2819 45.977 21.2819 45.977C21.2819 45.977 72.0093 80.3528 84.9829 92.8325C82.5125 93.5301 79.0529 94.6425 73.9016 94.9853C66.659 95.4672 48.4328 94.0041 34.2334 81.2828C20.6966 69.155 18.9013 56.206 20.323 46.2351Z" fill="#FFFB64"/>
<path fill-rule="evenodd" clip-rule="evenodd" d="M21.2803 45.977C57.8333 36.47 78.4611 68.8457 84.9816 92.8326C73.3524 97.0007 51.7386 95.7886 34.9147 80.5705C21.4341 68.3764 20.1015 55.9547 21.2803 45.977Z" fill="url(#paint9_linear_84_113)"/>
<defs>
<linearGradient id="paint0_linear_84_113" x1="0.0819624" y1="29.4563" x2="185.435" y2="78.5034" gradientUnits="userSpaceOnUse">
<stop stop-color="#FFFB64"/>
<stop offset="1" stop-color="#FFBF48"/>
</linearGradient>
<linearGradient id="paint1_linear_84_113" x1="0.0440787" y1="55.3637" x2="85.0261" y2="92.7311" gradientUnits="userSpaceOnUse">
<stop stop-color="#FDE14E"/>
<stop offset="1" stop-color="#F9A731"/>
</linearGradient>
<linearGradient id="paint2_linear_84_113" x1="0.0819624" y1="29.4563" x2="185.435" y2="78.5034" gradientUnits="userSpaceOnUse">
<stop stop-color="#FFFB64"/>
<stop offset="1" stop-color="#FFBF48"/>
</linearGradient>
<linearGradient id="paint3_linear_84_113" x1="0.0440787" y1="55.3637" x2="85.0261" y2="92.7311" gradientUnits="userSpaceOnUse">
<stop stop-color="#FDE14E"/>
<stop offset="1" stop-color="#F9A731"/>
</linearGradient>
<linearGradient id="paint4_linear_84_113" x1="0.0819624" y1="29.4563" x2="185.435" y2="78.5034" gradientUnits="userSpaceOnUse">
<stop stop-color="#FFFB64"/>
<stop offset="1" stop-color="#FFBF48"/>
</linearGradient>
<linearGradient id="paint5_linear_84_113" x1="0.0440787" y1="55.3637" x2="85.0261" y2="92.7311" gradientUnits="userSpaceOnUse">
<stop stop-color="#FDE14E"/>
<stop offset="1" stop-color="#F9A731"/>
</linearGradient>
<linearGradient id="paint6_linear_84_113" x1="0.0819624" y1="29.4563" x2="185.435" y2="78.5034" gradientUnits="userSpaceOnUse">
<stop stop-color="#FFFB64"/>
<stop offset="1" stop-color="#FFBF48"/>
</linearGradient>
<linearGradient id="paint7_linear_84_113" x1="0.0440787" y1="55.3637" x2="85.0261" y2="92.7311" gradientUnits="userSpaceOnUse">
<stop stop-color="#FDE14E"/>
<stop offset="1" stop-color="#F9A731"/>
</linearGradient>
<linearGradient id="paint8_linear_84_113" x1="0.0819624" y1="29.4563" x2="185.435" y2="78.5034" gradientUnits="userSpaceOnUse">
<stop stop-color="#FFFB64"/>
<stop offset="1" stop-color="#FFBF48"/>
</linearGradient>
<linearGradient id="paint9_linear_84_113" x1="0.0440787" y1="55.3637" x2="85.0261" y2="92.7311" gradientUnits="userSpaceOnUse">
<stop stop-color="#FDE14E"/>
<stop offset="1" stop-color="#F9A731"/>
</linearGradient>
</defs>
</svg>
