<svg xmlns="http://www.w3.org/2000/svg" xml:space="preserve" style="fill-rule:evenodd;clip-rule:evenodd;stroke-linecap:round;stroke-miterlimit:1" viewBox="0 0 330 307"><g transform="matrix(.9148 -.07206 .07206 .9148 -100.848 9.472)"><path d="M316.082 219.063c39.044 8.735 60.6 24.793 65.023 30.373 4.423 5.581 19.103 26.46 25.033 53.28 3.181 14.386 5.156 32.471 5.927 54.256-10.395-3.062-21.194-4.806-32.396-5.231-36.164-1.374-67.701-7.919-87.47-34.919-13.179-18-23.969-51.425-32.371-100.274 21.66-1.868 40.411-1.03 56.254 2.515Z" style="fill:#fbbd4e;fill-rule:nonzero"/><clipPath id="a"><path d="M316.082 219.063c39.044 8.735 60.6 24.793 65.023 30.373 4.423 5.581 19.103 26.46 25.033 53.28 3.181 14.386 5.156 32.471 5.927 54.256-10.395-3.062-21.194-4.806-32.396-5.231-36.164-1.374-67.701-7.919-87.47-34.919-13.179-18-23.969-51.425-32.371-100.274 21.66-1.868 40.411-1.03 56.254 2.515Z" clip-rule="nonzero"/></clipPath><g clip-path="url(#a)"><path d="M380 326c-48.197-38.866-61.885-59.66-106.5-108.616" style="fill:none;stroke:#fddc71;stroke-width:15.26px"/></g></g><g transform="matrix(.89447 -.20488 .20488 .89447 -111.78 51.962)"><path d="M289.816 169.32c27.112-29.422 51.805-40.041 58.851-41.075 7.045-1.034 32.468-3.287 58.653 5.01 14.045 4.45 30.689 11.796 49.932 22.037-7.855 7.465-14.772 15.939-20.749 25.422-19.298 30.616-40.754 54.638-74.024 58.23-22.18 2.395-56.516-5.002-103.007-22.189 9.229-19.685 19.343-35.496 30.344-47.435Z" style="fill:#fbbd4e;fill-rule:nonzero"/><clipPath id="b"><path d="M289.816 169.32c27.112-29.422 51.805-40.041 58.851-41.075 7.045-1.034 32.468-3.287 58.653 5.01 14.045 4.45 30.689 11.796 49.932 22.037-7.855 7.465-14.772 15.939-20.749 25.422-19.298 30.616-40.754 54.638-74.024 58.23-22.18 2.395-56.516-5.002-103.007-22.189 9.229-19.685 19.343-35.496 30.344-47.435Z" clip-rule="nonzero"/></clipPath><g clip-path="url(#b)"><path d="M260.776 212.519c51.135-20.009 88.321-35.267 149.112-47.519" style="fill:none;stroke:#fddc71;stroke-width:15.26px"/></g></g><g transform="scale(.91764) rotate(-12.901 175.174 564.367)"><path d="M233.607 167.149c-11.892-38.201-8.72-64.893-6.087-71.509 2.633-6.616 13.413-29.751 33.706-48.262 10.885-9.929 25.577-20.658 44.078-32.187 2.528 10.537 6.4 20.767 11.615 30.69 16.839 32.035 26.888 62.636 13.339 93.233-9.033 20.399-32.628 46.416-70.785 78.053-12.419-17.845-21.041-34.517-25.866-50.018Z" style="fill:#fbbd4e;fill-rule:nonzero"/><clipPath id="c"><path d="M233.607 167.149c-11.892-38.201-8.72-64.893-6.087-71.509 2.633-6.616 13.413-29.751 33.706-48.262 10.885-9.929 25.577-20.658 44.078-32.187 2.528 10.537 6.4 20.767 11.615 30.69 16.839 32.035 26.888 62.636 13.339 93.233-9.033 20.399-32.628 46.416-70.785 78.053-12.419-17.845-21.041-34.517-25.866-50.018Z" clip-rule="nonzero"/></clipPath><g clip-path="url(#c)"><path d="M259.916 215.675C265.752 162.098 273 111.046 291.088 59" style="fill:none;stroke:#fddc71;stroke-width:15.26px"/></g></g><g transform="scale(.91764) rotate(-12.901 185.808 568.861)"><path d="M203.582 214.717c-39.022-8.834-60.538-24.946-64.946-30.538-4.409-5.591-19.037-26.507-24.899-53.342-3.145-14.394-5.075-32.484-5.79-54.27 10.387 3.088 21.181 4.859 32.382 5.312 36.161 1.465 67.681 8.089 87.382 35.139 13.133 18.033 23.839 51.484 32.118 100.354-21.665 1.814-40.414.929-56.247-2.655Z" style="fill:#fbbd4e;fill-rule:nonzero"/><clipPath id="d"><path d="M203.582 214.717c-39.022-8.834-60.538-24.946-64.946-30.538-4.409-5.591-19.037-26.507-24.899-53.342-3.145-14.394-5.075-32.484-5.79-54.27 10.387 3.088 21.181 4.859 32.382 5.312 36.161 1.465 67.681 8.089 87.382 35.139 13.133 18.033 23.839 51.484 32.118 100.354-21.665 1.814-40.414.929-56.247-2.655Z" clip-rule="nonzero"/></clipPath><g clip-path="url(#d)"><path d="M141 110c38.372 39.706 71.972 71.653 118.39 103.002" style="fill:none;stroke:#fddc71;stroke-width:15.26px"/></g></g><g transform="matrix(.8763 -.2723 .2723 .8763 -113.862 73.416)"><path d="M229.723 264.525c-27.186 29.354-51.906 39.911-58.954 40.927-7.048 1.016-32.477 3.205-58.641-5.157-14.034-4.486-30.659-11.874-49.876-22.163 7.874-7.445 14.812-15.902 20.813-25.37 19.375-30.568 40.891-54.535 74.171-58.044 22.186-2.339 56.503 5.144 102.95 22.449-9.278 19.661-19.432 35.447-30.463 47.358Z" style="fill:#fbbd4e;fill-rule:nonzero"/><clipPath id="e"><path d="M229.723 264.525c-27.186 29.354-51.906 39.911-58.954 40.927-7.048 1.016-32.477 3.205-58.641-5.157-14.034-4.486-30.659-11.874-49.876-22.163 7.874-7.445 14.812-15.902 20.813-25.37 19.375-30.568 40.891-54.535 74.171-58.044 22.186-2.339 56.503 5.144 102.95 22.449-9.278 19.661-19.432 35.447-30.463 47.358Z" clip-rule="nonzero"/></clipPath><g clip-path="url(#e)"><path d="M105.533 267.72c58.955-13.16 94.6-30.697 147.429-57.639" style="fill:none;stroke:#fddc71;stroke-width:15.26px"/></g></g><path d="M310.717 217.052c-2.491 9.297-16.345 5.643-19.955 16.819-3.137 9.714-7.74 17.682-17.036 20.173-9.297 2.491-17.619-5.822-26.496-8.2-8.877-2.379-17.23 1.465-24.035-5.34-6.806-6.805-4.785-13.64-7.164-22.518-2.379-8.877-9.787-17.133-7.296-26.429 2.491-9.296 12.999-10.815 19.498-17.314 6.498-6.498 9.117-18.77 18.413-21.261 9.297-2.491 15.891 6.134 24.769 8.513 8.877 2.378 20.347-.772 27.152 6.033 6.806 6.806 1.975 17.247 4.354 26.124 2.379 8.877 10.287 14.104 7.796 23.4Z" style="fill:#fddc71;fill-rule:nonzero" transform="matrix(.87551 -.27484 .27484 .87551 -119.898 78.95)"/><path d="M288.281 233.884c-6.153 6.243-16.959-5.301-23.175-.427-6.353 4.981-9.36 12.515-17.175 9.572-7.123-2.683-.863-14.896-5.798-20.231-4.936-5.336-21.024-.895-21.928-9.84-.94-9.307 13.399-5.066 16.014-14.086 2.615-9.022-11.446-18.962-5.858-24.131 5.587-5.168 16.568 5.724 23.657 4.118 7.089-1.607 12.702-16.533 19.972-14.278 7.27 2.255.726 17.208 5.661 22.544 4.936 5.335 21.399 2.097 23.082 9.52 1.682 7.424-19.172 6.538-21.325 13.481-2.153 6.942 12.216 18.337 6.873 23.758Z" style="fill:#feeed1;fill-rule:nonzero" transform="matrix(.87551 -.27484 .27484 .87551 -119.898 78.95)"/></svg>