<?xml version="1.0" encoding="UTF-8" standalone="no"?>
<!DOCTYPE svg PUBLIC "-//W3C//DTD SVG 1.1//EN" "http://www.w3.org/Graphics/SVG/1.1/DTD/svg11.dtd">
<svg width="100%" height="100%" viewBox="0 0 330 307" version="1.1" xmlns="http://www.w3.org/2000/svg" xmlns:xlink="http://www.w3.org/1999/xlink" xml:space="preserve" xmlns:serif="http://www.serif.com/" style="fill-rule:evenodd;clip-rule:evenodd;stroke-linecap:round;stroke-miterlimit:1;">
    <g transform="matrix(1,0,0,1,-146.427,-22.3022)">
        <g transform="matrix(0.91547,-0.0630144,0.0630144,0.91547,15.0287,30.1216)">
            <g transform="matrix(1,0,0,1,0.276988,-1.52894)">
                <g transform="matrix(0.999951,-0.00988581,0.00988581,0.999951,32.8135,5.61227)">
                    <path d="M316.082,219.063C355.126,227.798 376.682,243.856 381.105,249.436C385.528,255.017 400.208,275.896 406.138,302.716C409.319,317.102 411.294,335.187 412.065,356.972C401.67,353.91 390.871,352.166 379.669,351.741C343.505,350.367 311.968,343.822 292.199,316.822C279.02,298.822 268.23,265.397 259.828,216.548C281.488,214.68 300.239,215.518 316.082,219.063Z" style="fill:rgb(251,189,78);fill-rule:nonzero;"/>
                    <clipPath id="_clip1">
                        <path d="M316.082,219.063C355.126,227.798 376.682,243.856 381.105,249.436C385.528,255.017 400.208,275.896 406.138,302.716C409.319,317.102 411.294,335.187 412.065,356.972C401.67,353.91 390.871,352.166 379.669,351.741C343.505,350.367 311.968,343.822 292.199,316.822C279.02,298.822 268.23,265.397 259.828,216.548C281.488,214.68 300.239,215.518 316.082,219.063Z" clip-rule="nonzero"/>
                    </clipPath>
                    <g clip-path="url(#_clip1)">
                        <path d="M380,326C331.803,287.134 318.115,266.34 273.5,217.384" style="fill:none;stroke:rgb(253,220,113);stroke-width:15.26px;"/>
                    </g>
                </g>
                <g transform="matrix(0.987788,-0.155803,0.155803,0.987788,17.7474,50.9877)">
                    <path d="M289.816,169.32C316.928,139.898 341.621,129.279 348.667,128.245C355.712,127.211 381.135,124.958 407.32,133.255C421.365,137.705 438.009,145.051 457.252,155.292C449.397,162.757 442.48,171.231 436.503,180.714C417.205,211.33 395.749,235.352 362.479,238.944C340.299,241.339 305.963,233.942 259.472,216.755C268.701,197.07 278.815,181.259 289.816,169.32Z" style="fill:rgb(251,189,78);fill-rule:nonzero;"/>
                    <clipPath id="_clip2">
                        <path d="M289.816,169.32C316.928,139.898 341.621,129.279 348.667,128.245C355.712,127.211 381.135,124.958 407.32,133.255C421.365,137.705 438.009,145.051 457.252,155.292C449.397,162.757 442.48,171.231 436.503,180.714C417.205,211.33 395.749,235.352 362.479,238.944C340.299,241.339 305.963,233.942 259.472,216.755C268.701,197.07 278.815,181.259 289.816,169.32Z" clip-rule="nonzero"/>
                    </clipPath>
                    <g clip-path="url(#_clip2)">
                        <path d="M260.776,212.519C311.911,192.51 349.097,177.252 409.888,165" style="fill:none;stroke:rgb(253,220,113);stroke-width:15.26px;"/>
                    </g>
                </g>
                <g transform="matrix(0.987788,-0.155803,0.155803,0.987788,18.2027,47.7425)">
                    <path d="M233.607,167.149C221.715,128.948 224.887,102.256 227.52,95.64C230.153,89.024 240.933,65.889 261.226,47.378C272.111,37.449 286.803,26.72 305.304,15.191C307.832,25.728 311.704,35.958 316.919,45.881C333.758,77.916 343.807,108.517 330.258,139.114C321.225,159.513 297.63,185.53 259.473,217.167C247.054,199.322 238.432,182.65 233.607,167.149Z" style="fill:rgb(251,189,78);fill-rule:nonzero;"/>
                    <clipPath id="_clip3">
                        <path d="M233.607,167.149C221.715,128.948 224.887,102.256 227.52,95.64C230.153,89.024 240.933,65.889 261.226,47.378C272.111,37.449 286.803,26.72 305.304,15.191C307.832,25.728 311.704,35.958 316.919,45.881C333.758,77.916 343.807,108.517 330.258,139.114C321.225,159.513 297.63,185.53 259.473,217.167C247.054,199.322 238.432,182.65 233.607,167.149Z" clip-rule="nonzero"/>
                    </clipPath>
                    <g clip-path="url(#_clip3)">
                        <path d="M259.916,215.675C265.752,162.098 273,111.046 291.088,59" style="fill:none;stroke:rgb(253,220,113);stroke-width:15.26px;"/>
                    </g>
                </g>
                <g transform="matrix(0.987788,-0.155803,0.155803,0.987788,17.2986,50.1738)">
                    <path d="M203.582,214.717C164.56,205.883 143.044,189.771 138.636,184.179C134.227,178.588 119.599,157.672 113.737,130.837C110.592,116.443 108.662,98.353 107.947,76.567C118.334,79.655 129.128,81.426 140.329,81.879C176.49,83.344 208.01,89.968 227.711,117.018C240.844,135.051 251.55,168.502 259.829,217.372C238.164,219.186 219.415,218.301 203.582,214.717Z" style="fill:rgb(251,189,78);fill-rule:nonzero;"/>
                    <clipPath id="_clip4">
                        <path d="M203.582,214.717C164.56,205.883 143.044,189.771 138.636,184.179C134.227,178.588 119.599,157.672 113.737,130.837C110.592,116.443 108.662,98.353 107.947,76.567C118.334,79.655 129.128,81.426 140.329,81.879C176.49,83.344 208.01,89.968 227.711,117.018C240.844,135.051 251.55,168.502 259.829,217.372C238.164,219.186 219.415,218.301 203.582,214.717Z" clip-rule="nonzero"/>
                    </clipPath>
                    <g clip-path="url(#_clip4)">
                        <path d="M141,110C179.372,149.706 212.972,181.653 259.39,213.002" style="fill:none;stroke:rgb(253,220,113);stroke-width:15.26px;"/>
                    </g>
                </g>
                <g transform="matrix(0.973079,-0.230473,0.230473,0.973079,13.8795,74.1566)">
                    <path d="M229.723,264.525C202.537,293.879 177.817,304.436 170.769,305.452C163.721,306.468 138.292,308.657 112.128,300.295C98.094,295.809 81.469,288.421 62.252,278.132C70.126,270.687 77.064,262.23 83.065,252.762C102.44,222.194 123.956,198.227 157.236,194.718C179.422,192.379 213.739,199.862 260.186,217.167C250.908,236.828 240.754,252.614 229.723,264.525Z" style="fill:rgb(251,189,78);fill-rule:nonzero;"/>
                    <clipPath id="_clip5">
                        <path d="M229.723,264.525C202.537,293.879 177.817,304.436 170.769,305.452C163.721,306.468 138.292,308.657 112.128,300.295C98.094,295.809 81.469,288.421 62.252,278.132C70.126,270.687 77.064,262.23 83.065,252.762C102.44,222.194 123.956,198.227 157.236,194.718C179.422,192.379 213.739,199.862 260.186,217.167C250.908,236.828 240.754,252.614 229.723,264.525Z" clip-rule="nonzero"/>
                    </clipPath>
                    <g clip-path="url(#_clip5)">
                        <path d="M105.533,267.72C164.488,254.56 200.133,237.023 252.962,210.081" style="fill:none;stroke:rgb(253,220,113);stroke-width:15.26px;"/>
                    </g>
                </g>
            </g>
            <g transform="matrix(0.972408,-0.233289,0.233289,0.972408,7.17955,78.1919)">
                <path d="M310.717,217.052C308.226,226.349 294.372,222.695 290.762,233.871C287.625,243.585 283.022,251.553 273.726,254.044C264.429,256.535 256.107,248.222 247.23,245.844C238.353,243.465 230,247.309 223.195,240.504C216.389,233.699 218.41,226.864 216.031,217.986C213.652,209.109 206.244,200.853 208.735,191.557C211.226,182.261 221.734,180.742 228.233,174.243C234.731,167.745 237.35,155.473 246.646,152.982C255.943,150.491 262.537,159.116 271.415,161.495C280.292,163.873 291.762,160.723 298.567,167.528C305.373,174.334 300.542,184.775 302.921,193.652C305.3,202.529 313.208,207.756 310.717,217.052Z" style="fill:rgb(253,220,113);fill-rule:nonzero;"/>
                <path d="M288.281,233.884C282.128,240.127 271.322,228.583 265.106,233.457C258.753,238.438 255.746,245.972 247.931,243.029C240.808,240.346 247.068,228.133 242.133,222.798C237.197,217.462 221.109,221.903 220.205,212.958C219.265,203.651 233.604,207.892 236.219,198.872C238.834,189.85 224.773,179.91 230.361,174.741C235.948,169.573 246.929,180.465 254.018,178.859C261.107,177.252 266.72,162.326 273.99,164.581C281.26,166.836 274.716,181.789 279.651,187.125C284.587,192.46 301.05,189.222 302.733,196.645C304.415,204.069 283.561,203.183 281.408,210.126C279.255,217.068 293.624,228.463 288.281,233.884Z" style="fill:rgb(254,238,209);fill-rule:nonzero;"/>
            </g>
        </g>
    </g>
</svg>
